<?xml version="1.0" encoding="UTF-8"?>
<svg version="1.1" xmlns="http://www.w3.org/2000/svg" width="1254" height="1254">
<path d="M0 0 C413.82 0 827.64 0 1254 0 C1254 413.82 1254 827.64 1254 1254 C840.18 1254 426.36 1254 0 1254 C0 840.18 0 426.36 0 0 Z " fill="#F4F4F4" transform="translate(0,0)"/>
<path d="M0 0 C24.78059336 23.77517549 27.93153163 73.96136798 29.3125 105.625 C29.3659866 109.62603038 29.3597254 113.62395901 29.3125 117.625 C30.39144531 117.18929687 31.47039062 116.75359375 32.58203125 116.3046875 C56.97969988 106.56269676 82.07675067 99.31269245 108.16455078 95.91308594 C112.18693234 95.37359853 116.18910101 94.70158284 120.1953125 94.0546875 C127.70247601 93.01986546 135.12639634 92.46870785 142.703125 92.45703125 C143.56155502 92.45266052 144.41998505 92.44828979 145.3044281 92.44378662 C180.89656753 92.31274474 217.53540787 93.94779248 250.3125 109.625 C251.23981934 110.05216309 252.16713867 110.47932617 253.12255859 110.91943359 C265.71904848 116.72993566 278.0049418 122.53972636 289.3125 130.625 C290.83810547 131.69814453 290.83810547 131.69814453 292.39453125 132.79296875 C299.8697259 138.21464395 306.65789582 144.24902092 313.3125 150.625 C313.81281738 151.09808594 314.31313477 151.57117188 314.82861328 152.05859375 C342.52522981 178.33966478 363.73498203 216.05111044 366.3125 254.625 C367.38886719 254.9653125 368.46523438 255.305625 369.57421875 255.65625 C391.76548358 262.91378663 407.61308459 275.3092651 419.05859375 295.7421875 C430.08840896 317.80181793 429.68250127 342.5804269 422.5625 365.8125 C412.02581254 394.87785296 390.04913507 415.39821303 362.64453125 428.55029297 C321.45782485 447.53101759 275.19137001 450.00022271 230.60717773 453.10848999 C225.51163284 453.46439424 220.41981477 453.85052904 215.328125 454.2578125 C200.08140574 455.42139088 184.86241163 455.87201584 169.57421875 455.97647095 C167.47504134 455.99190961 165.37589825 456.0134926 163.27685547 456.0418396 C141.87418946 456.30325246 122.56574094 454.07266257 106.37109375 438.67578125 C104.3125 436.625 104.3125 436.625 103.08612061 435.02505493 C100.42601209 432.92522702 98.23045593 433.21463699 94.87597656 433.17333984 C94.22663651 433.16165771 93.57729645 433.14997559 92.90827942 433.13793945 C90.75641124 433.10429694 88.60523332 433.09360352 86.453125 433.0859375 C84.94634773 433.0737455 83.43957281 433.06125912 81.93280029 433.04849243 C78.76520371 433.02598915 75.59784782 433.01646107 72.43017578 433.01416016 C68.41207094 433.00892313 64.39603554 432.95789933 60.37848282 432.89464378 C57.25871365 432.85330301 54.13941972 432.84451436 51.01940155 432.84404373 C49.54127132 432.83872729 48.06312958 432.82216575 46.58527374 432.79319382 C36.62781364 432.61453437 29.3648026 434.23234799 20.54441833 438.93685913 C16.21378215 441.1988977 11.8160275 442.5782297 7.125 443.875 C6.33931641 444.10445312 5.55363281 444.33390625 4.74414062 444.5703125 C-5.54492009 447.53622798 -15.84155334 450.04512037 -26.4375 451.625 C-27.56365723 451.79306152 -28.68981445 451.96112305 -29.85009766 452.13427734 C-44.81195793 454.22850024 -59.88594252 455.10953876 -74.95043945 456.13417053 C-80.09181278 456.49118484 -85.20703882 456.95945624 -90.328125 457.54345703 C-99.89938803 458.6348821 -109.43917314 458.83690674 -119.0625 458.875 C-120.06410156 458.88290054 -120.06410156 458.88290054 -121.0859375 458.89096069 C-138.56643143 458.99810861 -158.58719506 458.1556232 -172.6875 446.625 C-173.3475 445.965 -174.0075 445.305 -174.6875 444.625 C-178.9658895 444.02037134 -183.27393511 443.8852177 -187.58862305 443.71728516 C-189.71999574 443.6262811 -191.84570801 443.49154031 -193.97460938 443.35546875 C-202.85632736 442.92057241 -207.79734695 444.04712587 -214.6875 449.625 C-217.98046875 451.05078125 -217.98046875 451.05078125 -220.875 451.9375 C-221.83792969 452.24300781 -222.80085937 452.54851562 -223.79296875 452.86328125 C-229.36054498 454.32843289 -234.73999169 454.79183701 -240.48046875 454.828125 C-241.21976624 454.83518463 -241.95906372 454.84224426 -242.72076416 454.84951782 C-273.737086 455.07825416 -273.737086 455.07825416 -287.6875 451.625 C-288.55391113 451.41568848 -289.42032227 451.20637695 -290.31298828 450.99072266 C-306.59231887 446.95728514 -321.98663574 441.79854315 -331.95703125 427.33203125 C-333.70223349 424.12941093 -333.96686652 421.4480194 -333.93701172 417.77587891 C-333.93787933 414.17615437 -334.15407092 410.92195838 -335.6875 407.625 C-340.07767174 403.24836981 -346.05171095 400.97911286 -351.6875 398.625 C-353.02662258 397.97003974 -354.36400882 397.31099805 -355.6875 396.625 C-356.49574219 397.37265625 -357.30398438 398.1203125 -358.13671875 398.890625 C-359.21606684 399.88550237 -360.29549837 400.88028923 -361.375 401.875 C-361.90544922 402.36613281 -362.43589844 402.85726563 -362.98242188 403.36328125 C-365.34719003 405.53944826 -367.68248965 407.62118478 -370.2421875 409.5703125 C-373.32677963 412.16215828 -375.67110991 415.06994118 -378.125 418.25 C-378.60437012 418.86447998 -379.08374023 419.47895996 -379.57763672 420.11206055 C-382.94914302 424.49912894 -385.9417914 429.00904805 -388.6640625 433.83203125 C-389.6875 435.625 -389.6875 435.625 -390.6875 436.625 C-393.125 436.8125 -393.125 436.8125 -395.6875 436.625 C-396.3475 435.965 -397.0075 435.305 -397.6875 434.625 C-397.6875 421.11506922 -383.82414131 408.71085887 -374.9375 399.6875 C-371.32413965 396.15877692 -367.57362199 392.84965442 -363.6875 389.625 C-364.06261719 389.18929688 -364.43773437 388.75359375 -364.82421875 388.3046875 C-365.89130055 387.06289458 -366.95628773 385.81929965 -368.01953125 384.57421875 C-369.07348625 383.34254769 -370.13271928 382.11535623 -371.19921875 380.89453125 C-374.6875 376.84652579 -374.6875 376.84652579 -374.6875 374.625 C-389.44741597 382.46916587 -407.19017853 392.3790178 -416.6875 406.625 C-419.6875 406.9375 -419.6875 406.9375 -422.6875 406.625 C-423.3475 405.965 -424.0075 405.305 -424.6875 404.625 C-424.64671957 399.86048701 -423.05225352 397.37812283 -419.73999023 394.03369141 C-419.18641846 393.50694824 -418.63284668 392.98020508 -418.0625 392.4375 C-417.48636963 391.87724121 -416.91023926 391.31698242 -416.31665039 390.73974609 C-391.96419749 367.625 -391.96419749 367.625 -381.6875 367.625 C-384.6575 361.355 -387.6275 355.085 -390.6875 348.625 C-404.34760819 351.76525476 -417.454369 356.92917661 -428.6875 365.5625 C-431.6875 367.625 -431.6875 367.625 -434.5 368.0625 C-436.6875 367.625 -436.6875 367.625 -438.6875 365.625 C-439.06640625 363.23828125 -439.06640625 363.23828125 -438.6875 360.625 C-430.59301535 351.08303104 -415.90947458 344.88710589 -404.17578125 341.4140625 C-401.69147678 340.70232525 -401.69147678 340.70232525 -399.54296875 339.5234375 C-397.6875 338.625 -397.6875 338.625 -394.6875 338.625 C-394.83372803 337.96081055 -394.97995605 337.29662109 -395.13061523 336.61230469 C-395.80336768 333.53488255 -396.46421697 330.45501347 -397.125 327.375 C-397.35509766 326.33085938 -397.58519531 325.28671875 -397.82226562 324.2109375 C-402.34272863 302.98441554 -401.27332504 281.91670453 -398.02270508 260.61572266 C-397.83861084 259.39030762 -397.6545166 258.16489258 -397.46484375 256.90234375 C-397.20562134 255.26640259 -397.20562134 255.26640259 -396.94116211 253.59741211 C-396.47253508 248.1060415 -398.1955085 244.1765213 -400.4609375 239.2265625 C-401.03974275 237.94545686 -401.61783594 236.66402933 -402.1953125 235.38232422 C-402.49985352 234.70973572 -402.80439453 234.03714722 -403.11816406 233.34417725 C-413.69761385 209.88298918 -422.83651965 185.73158762 -428.6875 160.625 C-428.86249023 159.90795898 -429.03748047 159.19091797 -429.21777344 158.45214844 C-431.53172711 148.66939381 -432.01962533 138.84663556 -432.15826416 128.81759644 C-432.18668975 126.80730173 -432.23345738 124.7972926 -432.28076172 122.78735352 C-432.28194404 113.48427147 -431.02712734 104.68559133 -424.77416992 97.39379883 C-413.22111095 86.26766401 -397.38515277 86.23416066 -382.3125 86.3125 C-381.16234406 86.31623123 -381.16234406 86.31623123 -379.98895264 86.32003784 C-356.09199757 86.43888363 -333.08470799 89.58950651 -309.71923828 94.37524414 C-308.94855515 94.5304805 -308.17787201 94.68571686 -307.38383484 94.84565735 C-305.93483913 95.13865087 -304.48729017 95.43892803 -303.0415802 95.74772644 C-297.62855889 96.83884395 -294.70695116 96.43213503 -290.08984375 93.578125 C-289.38545166 93.15200928 -288.68105957 92.72589355 -287.95532227 92.28686523 C-287.18631592 91.82094971 -286.41730957 91.35503418 -285.625 90.875 C-246.34233761 67.74115205 -199.60474826 50.30485208 -153.48828125 50.5859375 C-152.60222198 50.58590729 -151.71616272 50.58587708 -150.80325317 50.58584595 C-146.40487634 50.5883862 -142.02465551 50.65141495 -137.62988281 50.83056641 C-129.91036557 50.98918923 -124.14227725 50.83687038 -118.14222717 45.57223511 C-116.00600993 43.47092087 -113.97781079 41.29568499 -111.99349976 39.05090332 C-109.29462097 36.10424104 -106.033634 33.83750623 -102.8125 31.5 C-101.80183472 30.75919189 -101.80183472 30.75919189 -100.77075195 30.00341797 C-98.75056491 28.5331169 -96.71981448 27.07846822 -94.6875 25.625 C-94.11402832 25.20541016 -93.54055664 24.78582031 -92.94970703 24.35351562 C-75.88365959 11.91817921 -55.99449913 1.48053608 -35.6875 -4.375 C-34.82769531 -4.63539063 -33.96789062 -4.89578125 -33.08203125 -5.1640625 C-21.72665891 -8.17876312 -9.64340235 -7.06891937 0 0 Z " fill="#F8AE60" transform="translate(630.6875,382.375)"/>
<path d="M0 0 C11.38033143 8.91725368 15.80478756 26.67487476 19.38671875 39.96484375 C19.60956543 40.77711426 19.83241211 41.58938477 20.06201172 42.42626953 C23.17309537 54.03625766 25.12599807 65.80051007 26.63671875 77.71484375 C26.76882248 78.75073639 26.76882248 78.75073639 26.90359497 79.80755615 C27.91147892 87.94920097 28.50306008 95.97708958 28.46875 104.18359375 C27.31249509 121.57726189 27.31249509 121.57726189 34.19921875 136.52734375 C35.69466998 137.90449256 37.22479637 139.2145309 38.79443359 140.50634766 C41.87539768 143.32843896 44.14509767 146.79321832 46.51171875 150.21484375 C47.01380859 150.93438232 47.51589844 151.6539209 48.03320312 152.39526367 C59.04764655 168.47355079 68.48118275 187.34903199 70.38671875 206.96484375 C70.495 208.0115625 70.60328125 209.05828125 70.71484375 210.13671875 C70.96639527 212.74491083 71.19126568 215.3519448 71.38671875 217.96484375 C70.25878906 218.17238281 69.13085938 218.37992188 67.96875 218.59375 C32.36040818 225.26737331 32.36040818 225.26737331 3.38671875 243.96484375 C3.38671875 245.28484375 3.38671875 246.60484375 3.38671875 247.96484375 C6.84203066 249.16242345 8.21047062 249.03919843 11.63671875 247.59375 C12.8919693 246.91456344 14.14164239 246.22500639 15.38671875 245.52734375 C28.21699023 238.75868877 41.75966178 233.72969731 55.76171875 229.96484375 C56.52782471 229.75706299 57.29393066 229.54928223 58.08325195 229.33520508 C62.64317222 228.1799309 66.68449154 227.76633284 71.38671875 227.96484375 C71.94289853 248.8524842 71.94289853 248.8524842 68.38671875 255.96484375 C67.78537109 255.97418945 67.18402344 255.98353516 66.56445312 255.99316406 C54.7538159 256.22080673 43.17287212 256.87667422 31.51171875 258.83984375 C30.54556641 259.00129883 29.57941406 259.16275391 28.58398438 259.32910156 C18.2818751 260.60647649 18.2818751 260.60647649 9.38671875 264.96484375 C9.34608043 266.6310149 9.34399775 268.2987247 9.38671875 269.96484375 C16.3090823 269.51372343 23.10823217 268.57762286 29.94921875 267.46484375 C41.8930749 265.54302954 53.29890342 264.82986814 65.38671875 264.96484375 C63.29263199 273.62040236 59.50360572 281.13711893 55.38671875 288.96484375 C47.38671875 287.96484375 47.38671875 287.96484375 44.04296875 287.43359375 C37.5256434 286.61892808 30.94195708 286.86061109 24.38671875 286.90234375 C23.02604331 286.90736888 21.66536608 286.91192999 20.3046875 286.91601562 C16.9986515 286.92773916 13.69270874 286.94414948 10.38671875 286.96484375 C10.34399775 288.6309628 10.34608043 290.2986726 10.38671875 291.96484375 C12.45385454 294.03197954 16.89541157 293.24357984 19.76171875 293.33984375 C29.78879138 293.75487 39.51737543 295.20759225 49.38671875 296.96484375 C47.99305746 301.16081322 46.02831654 303.75782949 43.01171875 306.96484375 C40.68592614 309.45398635 38.42607637 311.91536982 36.3046875 314.58203125 C22.49774535 331.73525877 -0.31864165 342.91027537 -20.55932617 350.21582031 C-21.91110721 350.70877933 -23.2579169 351.21562786 -24.59887695 351.73730469 C-44.39694559 359.43587255 -65.60923628 360.75832268 -86.58203125 362.44921875 C-95.93027552 363.21475461 -105.12635753 364.24058812 -114.36328125 365.90234375 C-115.68477173 366.13908813 -115.68477173 366.13908813 -117.03295898 366.38061523 C-126.04547364 368.09046214 -134.4939261 370.53023081 -142.67578125 374.71484375 C-143.36406006 375.06409912 -144.05233887 375.41335449 -144.76147461 375.77319336 C-150.21403461 378.61294781 -155.04791128 381.82481881 -159.61328125 385.96484375 C-160.24621094 386.52945312 -160.87914062 387.0940625 -161.53125 387.67578125 C-165.28699534 391.21531097 -167.9180247 394.76881784 -170.27734375 399.36328125 C-172.18663575 401.65219856 -173.68692725 401.63277521 -176.61328125 401.96484375 C-177.64324219 402.10148437 -178.67320312 402.238125 -179.734375 402.37890625 C-183.21015562 402.59998064 -186.19047517 402.64164546 -189.61328125 401.96484375 C-192.48472354 399.38494637 -193.96071672 396.41595907 -195.61328125 392.96484375 C-201.8047928 383.67757642 -212.67719004 379.16264973 -222.61328125 374.96484375 C-223.32226562 374.65675781 -224.03125 374.34867188 -224.76171875 374.03125 C-235.91902499 369.48829619 -247.19707238 368.45256205 -259.09594727 368.51879883 C-261.41318159 368.52729754 -263.7279296 368.4984491 -266.04492188 368.46679688 C-284.56984097 368.37942156 -302.77546299 372.88766666 -316.61328125 385.96484375 C-318.19479219 387.91494532 -319.3800934 389.76655236 -320.61328125 391.96484375 C-324.59370293 391.37674541 -327.47575344 390.14452698 -330.92578125 388.08984375 C-331.80878906 387.57679688 -332.69179688 387.06375 -333.6015625 386.53515625 C-334.59736328 385.75785156 -334.59736328 385.75785156 -335.61328125 384.96484375 C-335.61328125 383.97484375 -335.61328125 382.98484375 -335.61328125 381.96484375 C-334.14453125 380.78564453 -334.14453125 380.78564453 -332.11328125 379.66015625 C-331.39140625 379.24121094 -330.66953125 378.82226562 -329.92578125 378.390625 C-328.38744141 377.52530884 -326.84576602 376.66589531 -325.30078125 375.8125 C-323.26752926 374.62522607 -321.39219228 373.5086513 -319.61328125 371.96484375 C-318.94148386 369.24283408 -318.94148386 369.24283408 -319.61328125 366.96484375 C-324.69063443 366.56380095 -327.38488144 367.60314426 -331.67578125 370.27734375 C-332.67738281 370.89222656 -333.67898438 371.50710938 -334.7109375 372.140625 C-336.57426292 373.31178647 -338.41789096 374.51523996 -340.234375 375.7578125 C-342.61328125 376.96484375 -342.61328125 376.96484375 -344.6328125 376.92578125 C-347.38357168 375.59109336 -349.16609483 373.77039946 -351.30078125 371.58984375 C-352.08839844 370.79835938 -352.87601562 370.006875 -353.6875 369.19140625 C-355.61328125 366.96484375 -355.61328125 366.96484375 -356.61328125 363.96484375 C-350.01585038 360.72610496 -343.34712633 358.60078966 -336.29125977 356.62817383 C-332.66064899 355.85701086 -332.66064899 355.85701086 -329.61328125 353.96484375 C-329.57247342 351.96526011 -329.57073769 349.96439121 -329.61328125 347.96484375 C-339.30340122 347.55374775 -348.77328679 351.34641618 -357.52734375 355.23046875 C-359.61328125 355.96484375 -359.61328125 355.96484375 -363.61328125 355.96484375 C-364.95166858 353.509142 -366.28414357 351.05054459 -367.61328125 348.58984375 C-367.99484375 347.89117188 -368.37640625 347.1925 -368.76953125 346.47265625 C-371.61328125 341.19140625 -371.61328125 341.19140625 -371.61328125 338.96484375 C-369.57216583 338.48333433 -367.53036193 338.00474292 -365.48828125 337.52734375 C-363.78285156 337.12708984 -363.78285156 337.12708984 -362.04296875 336.71875 C-355.91903715 335.37260103 -349.98437775 334.72523518 -343.73828125 334.40234375 C-342.95453125 334.35916016 -342.17078125 334.31597656 -341.36328125 334.27148438 C-339.44677476 334.16631024 -337.53004792 334.0651645 -335.61328125 333.96484375 C-335.23109358 332.30869718 -334.89933023 330.64027351 -334.61328125 328.96484375 C-336.59981508 326.97830992 -340.35690901 327.7952878 -343.01928711 327.77539062 C-344.04030518 327.77603516 -345.06132324 327.77667969 -346.11328125 327.77734375 C-347.14525635 327.77669922 -348.17723145 327.77605469 -349.24047852 327.77539062 C-358.14475013 327.83596858 -366.81609291 328.64231342 -375.61328125 329.96484375 C-376.2630233 327.27823592 -376.90816543 324.59065701 -377.55078125 321.90234375 C-377.73318359 321.15017578 -377.91558594 320.39800781 -378.10351562 319.62304688 C-378.28076172 318.87861328 -378.45800781 318.13417969 -378.640625 317.3671875 C-378.80296631 316.69163818 -378.96530762 316.01608887 -379.13256836 315.32006836 C-380.35849502 309.31371259 -380.78228622 303.48831682 -380.81640625 297.3828125 C-380.82210632 296.56976151 -380.8278064 295.75671051 -380.8336792 294.91902161 C-380.84308566 293.20034058 -380.84964576 291.48164187 -380.85351562 289.76293945 C-380.86311145 287.19773533 -380.89412969 284.63337225 -380.92578125 282.06835938 C-380.97811255 273.65326275 -380.60228412 265.61920676 -379.09765625 257.328125 C-376.75861269 244.35527104 -377.59983284 237.63531584 -383.42578125 225.65234375 C-384.63560581 223.07505991 -385.82699374 220.48945988 -387.015625 217.90234375 C-387.31873596 217.24533981 -387.62184692 216.58833588 -387.93414307 215.91142273 C-401.78250982 185.67557511 -412.72088054 152.96698003 -413.11328125 119.46484375 C-413.13189209 118.43238525 -413.15050293 117.39992676 -413.16967773 116.33618164 C-413.10978906 109.27455128 -412.06493353 103.80557117 -407.2487793 98.4465332 C-396.18987397 88.37006931 -377.03487735 90.27263888 -363.25927734 90.7890625 C-343.32214642 91.75027412 -323.93330994 94.73060939 -304.39135742 98.62719727 C-290.61816836 102.03723238 -290.61816836 102.03723238 -277.55883789 98.32446289 C-276.9993042 97.93766357 -276.43977051 97.55086426 -275.86328125 97.15234375 C-274.55795079 96.31649631 -273.24915285 95.48604689 -271.9375 94.66015625 C-271.24188965 94.21961914 -270.5462793 93.77908203 -269.82958984 93.32519531 C-231.93764999 70.06744153 -184.12281222 54.99224567 -139.5078125 54.8125 C-138.63804276 54.80586334 -137.76827301 54.79922668 -136.87214661 54.79238892 C-132.55660929 54.76619832 -128.25186355 54.79357642 -123.93774414 54.90722656 C-113.59483741 55.06254292 -113.59483741 55.06254292 -104.921875 49.80078125 C-103.46077359 48.21133985 -102.02218987 46.60072816 -100.61328125 44.96484375 C-99.3920457 43.85990893 -98.14755924 42.77978889 -96.875 41.734375 C-96.29419678 41.2489624 -95.71339355 40.7635498 -95.11499023 40.26342773 C-73.92351882 22.90472951 -30.02961868 -11.89514044 0 0 Z " fill="#F8AD60" transform="translate(621.61328125,388.03515625)"/>
<path d="M0 0 C24.78059336 23.77517549 27.93153163 73.96136798 29.3125 105.625 C29.3659866 109.62603038 29.3597254 113.62395901 29.3125 117.625 C30.39144531 117.18929687 31.47039062 116.75359375 32.58203125 116.3046875 C56.97969988 106.56269676 82.07675067 99.31269245 108.16455078 95.91308594 C112.18693234 95.37359853 116.18910101 94.70158284 120.1953125 94.0546875 C127.70247601 93.01986546 135.12639634 92.46870785 142.703125 92.45703125 C143.56155502 92.45266052 144.41998505 92.44828979 145.3044281 92.44378662 C180.89656753 92.31274474 217.53540787 93.94779248 250.3125 109.625 C251.23981934 110.05216309 252.16713867 110.47932617 253.12255859 110.91943359 C265.71904848 116.72993566 278.0049418 122.53972636 289.3125 130.625 C290.83810547 131.69814453 290.83810547 131.69814453 292.39453125 132.79296875 C299.8697259 138.21464395 306.65789582 144.24902092 313.3125 150.625 C313.81281738 151.09808594 314.31313477 151.57117188 314.82861328 152.05859375 C342.52522981 178.33966478 363.73498203 216.05111044 366.3125 254.625 C367.38886719 254.9653125 368.46523438 255.305625 369.57421875 255.65625 C391.76548358 262.91378663 407.61308459 275.3092651 419.05859375 295.7421875 C430.08840896 317.80181793 429.68250127 342.5804269 422.5625 365.8125 C412.02581254 394.87785296 390.04913507 415.39821303 362.64453125 428.55029297 C321.45782485 447.53101759 275.19137001 450.00022271 230.60717773 453.10848999 C225.51163284 453.46439424 220.41981477 453.85052904 215.328125 454.2578125 C200.08140574 455.42139088 184.86241163 455.87201584 169.57421875 455.97647095 C167.47504134 455.99190961 165.37589825 456.0134926 163.27685547 456.0418396 C141.87418946 456.30325246 122.56574094 454.07266257 106.37109375 438.67578125 C104.3125 436.625 104.3125 436.625 103.08612061 435.02505493 C100.42601209 432.92522702 98.23045593 433.21463699 94.87597656 433.17333984 C94.22663651 433.16165771 93.57729645 433.14997559 92.90827942 433.13793945 C90.75641124 433.10429694 88.60523332 433.09360352 86.453125 433.0859375 C84.94634773 433.0737455 83.43957281 433.06125912 81.93280029 433.04849243 C78.76520371 433.02598915 75.59784782 433.01646107 72.43017578 433.01416016 C68.41207094 433.00892313 64.39603554 432.95789933 60.37848282 432.89464378 C57.25871365 432.85330301 54.13941972 432.84451436 51.01940155 432.84404373 C49.54127132 432.83872729 48.06312958 432.82216575 46.58527374 432.79319382 C36.62781364 432.61453437 29.3648026 434.23234799 20.54441833 438.93685913 C16.21378215 441.1988977 11.8160275 442.5782297 7.125 443.875 C6.33931641 444.10445312 5.55363281 444.33390625 4.74414062 444.5703125 C-5.54492009 447.53622798 -15.84155334 450.04512037 -26.4375 451.625 C-27.56365723 451.79306152 -28.68981445 451.96112305 -29.85009766 452.13427734 C-44.81195793 454.22850024 -59.88594252 455.10953876 -74.95043945 456.13417053 C-80.09181278 456.49118484 -85.20703882 456.95945624 -90.328125 457.54345703 C-99.89938803 458.6348821 -109.43917314 458.83690674 -119.0625 458.875 C-120.06410156 458.88290054 -120.06410156 458.88290054 -121.0859375 458.89096069 C-138.56643143 458.99810861 -158.58719506 458.1556232 -172.6875 446.625 C-173.3475 445.965 -174.0075 445.305 -174.6875 444.625 C-178.9658895 444.02037134 -183.27393511 443.8852177 -187.58862305 443.71728516 C-189.71999574 443.6262811 -191.84570801 443.49154031 -193.97460938 443.35546875 C-202.85632736 442.92057241 -207.79734695 444.04712587 -214.6875 449.625 C-217.98046875 451.05078125 -217.98046875 451.05078125 -220.875 451.9375 C-221.83792969 452.24300781 -222.80085937 452.54851562 -223.79296875 452.86328125 C-229.36054498 454.32843289 -234.73999169 454.79183701 -240.48046875 454.828125 C-241.21976624 454.83518463 -241.95906372 454.84224426 -242.72076416 454.84951782 C-273.737086 455.07825416 -273.737086 455.07825416 -287.6875 451.625 C-288.55391113 451.41568848 -289.42032227 451.20637695 -290.31298828 450.99072266 C-306.59231887 446.95728514 -321.98663574 441.79854315 -331.95703125 427.33203125 C-333.70223349 424.12941093 -333.96686652 421.4480194 -333.93701172 417.77587891 C-333.93787933 414.17615437 -334.15407092 410.92195838 -335.6875 407.625 C-340.07767174 403.24836981 -346.05171095 400.97911286 -351.6875 398.625 C-353.02662258 397.97003974 -354.36400882 397.31099805 -355.6875 396.625 C-356.49574219 397.37265625 -357.30398438 398.1203125 -358.13671875 398.890625 C-359.21606684 399.88550237 -360.29549837 400.88028923 -361.375 401.875 C-361.90544922 402.36613281 -362.43589844 402.85726563 -362.98242188 403.36328125 C-365.34719003 405.53944826 -367.68248965 407.62118478 -370.2421875 409.5703125 C-373.32677963 412.16215828 -375.67110991 415.06994118 -378.125 418.25 C-378.60437012 418.86447998 -379.08374023 419.47895996 -379.57763672 420.11206055 C-382.94914302 424.49912894 -385.9417914 429.00904805 -388.6640625 433.83203125 C-389.6875 435.625 -389.6875 435.625 -390.6875 436.625 C-393.125 436.8125 -393.125 436.8125 -395.6875 436.625 C-396.3475 435.965 -397.0075 435.305 -397.6875 434.625 C-397.6875 421.11506922 -383.82414131 408.71085887 -374.9375 399.6875 C-371.32413965 396.15877692 -367.57362199 392.84965442 -363.6875 389.625 C-364.06261719 389.18929688 -364.43773437 388.75359375 -364.82421875 388.3046875 C-365.89130055 387.06289458 -366.95628773 385.81929965 -368.01953125 384.57421875 C-369.07348625 383.34254769 -370.13271928 382.11535623 -371.19921875 380.89453125 C-374.6875 376.84652579 -374.6875 376.84652579 -374.6875 374.625 C-389.44741597 382.46916587 -407.19017853 392.3790178 -416.6875 406.625 C-419.6875 406.9375 -419.6875 406.9375 -422.6875 406.625 C-423.3475 405.965 -424.0075 405.305 -424.6875 404.625 C-424.64671957 399.86048701 -423.05225352 397.37812283 -419.73999023 394.03369141 C-419.18641846 393.50694824 -418.63284668 392.98020508 -418.0625 392.4375 C-417.48636963 391.87724121 -416.91023926 391.31698242 -416.31665039 390.73974609 C-391.96419749 367.625 -391.96419749 367.625 -381.6875 367.625 C-384.6575 361.355 -387.6275 355.085 -390.6875 348.625 C-404.34760819 351.76525476 -417.454369 356.92917661 -428.6875 365.5625 C-431.6875 367.625 -431.6875 367.625 -434.5 368.0625 C-436.6875 367.625 -436.6875 367.625 -438.6875 365.625 C-439.06640625 363.23828125 -439.06640625 363.23828125 -438.6875 360.625 C-430.59301535 351.08303104 -415.90947458 344.88710589 -404.17578125 341.4140625 C-401.69147678 340.70232525 -401.69147678 340.70232525 -399.54296875 339.5234375 C-397.6875 338.625 -397.6875 338.625 -394.6875 338.625 C-394.83372803 337.96081055 -394.97995605 337.29662109 -395.13061523 336.61230469 C-395.80336768 333.53488255 -396.46421697 330.45501347 -397.125 327.375 C-397.35509766 326.33085938 -397.58519531 325.28671875 -397.82226562 324.2109375 C-402.34272863 302.98441554 -401.27332504 281.91670453 -398.02270508 260.61572266 C-397.83861084 259.39030762 -397.6545166 258.16489258 -397.46484375 256.90234375 C-397.20562134 255.26640259 -397.20562134 255.26640259 -396.94116211 253.59741211 C-396.47253508 248.1060415 -398.1955085 244.1765213 -400.4609375 239.2265625 C-401.03974275 237.94545686 -401.61783594 236.66402933 -402.1953125 235.38232422 C-402.49985352 234.70973572 -402.80439453 234.03714722 -403.11816406 233.34417725 C-413.69761385 209.88298918 -422.83651965 185.73158762 -428.6875 160.625 C-428.86249023 159.90795898 -429.03748047 159.19091797 -429.21777344 158.45214844 C-431.53172711 148.66939381 -432.01962533 138.84663556 -432.15826416 128.81759644 C-432.18668975 126.80730173 -432.23345738 124.7972926 -432.28076172 122.78735352 C-432.28194404 113.48427147 -431.02712734 104.68559133 -424.77416992 97.39379883 C-413.22111095 86.26766401 -397.38515277 86.23416066 -382.3125 86.3125 C-381.16234406 86.31623123 -381.16234406 86.31623123 -379.98895264 86.32003784 C-356.09199757 86.43888363 -333.08470799 89.58950651 -309.71923828 94.37524414 C-308.94855515 94.5304805 -308.17787201 94.68571686 -307.38383484 94.84565735 C-305.93483913 95.13865087 -304.48729017 95.43892803 -303.0415802 95.74772644 C-297.62855889 96.83884395 -294.70695116 96.43213503 -290.08984375 93.578125 C-289.38545166 93.15200928 -288.68105957 92.72589355 -287.95532227 92.28686523 C-287.18631592 91.82094971 -286.41730957 91.35503418 -285.625 90.875 C-246.34233761 67.74115205 -199.60474826 50.30485208 -153.48828125 50.5859375 C-152.60222198 50.58590729 -151.71616272 50.58587708 -150.80325317 50.58584595 C-146.40487634 50.5883862 -142.02465551 50.65141495 -137.62988281 50.83056641 C-129.91036557 50.98918923 -124.14227725 50.83687038 -118.14222717 45.57223511 C-116.00600993 43.47092087 -113.97781079 41.29568499 -111.99349976 39.05090332 C-109.29462097 36.10424104 -106.033634 33.83750623 -102.8125 31.5 C-101.80183472 30.75919189 -101.80183472 30.75919189 -100.77075195 30.00341797 C-98.75056491 28.5331169 -96.71981448 27.07846822 -94.6875 25.625 C-94.11402832 25.20541016 -93.54055664 24.78582031 -92.94970703 24.35351562 C-75.88365959 11.91817921 -55.99449913 1.48053608 -35.6875 -4.375 C-34.82769531 -4.63539063 -33.96789062 -4.89578125 -33.08203125 -5.1640625 C-21.72665891 -8.17876312 -9.64340235 -7.06891937 0 0 Z M-112.50390625 53.65234375 C-113.58478516 54.62880859 -113.58478516 54.62880859 -114.6875 55.625 C-115.39616211 56.31674316 -116.10482422 57.00848633 -116.83496094 57.72119141 C-120.44009111 60.12728565 -123.32931512 60.14393638 -127.51171875 60.05859375 C-129.09725169 60.06414566 -130.68278242 60.07035951 -132.26831055 60.07714844 C-133.10051117 60.0738855 -133.93271179 60.07062256 -134.79013062 60.06726074 C-161.1150769 60.01877617 -187.42205544 62.9492403 -212.6875 70.625 C-213.68700684 70.9235791 -214.68651367 71.2221582 -215.71630859 71.52978516 C-240.37486623 79.00665821 -268.06223572 88.96772715 -288.671875 104.9375 C-295.27762063 108.63397942 -303.49261517 106.3317559 -310.6015625 104.9453125 C-312.50464866 104.59011206 -314.40780896 104.2353087 -316.31103516 103.88085938 C-317.29195129 103.69547607 -318.27286743 103.51009277 -319.2835083 103.3190918 C-343.8276668 98.69071293 -343.8276668 98.69071293 -368.6875 96.625 C-370.31292725 96.5636084 -370.31292725 96.5636084 -371.97119141 96.50097656 C-396.1722301 95.00175763 -396.1722301 95.00175763 -417.42578125 104.76953125 C-421.91365085 111.36933949 -422.20227348 117.26150083 -422.125 125.0625 C-422.11597656 126.16287598 -422.10695313 127.26325195 -422.09765625 128.39697266 C-421.36310298 164.11972648 -407.5749394 197.838046 -393.203125 230.015625 C-392.779104 230.9655835 -392.35508301 231.91554199 -391.91821289 232.89428711 C-391.11863722 234.66839023 -390.30849011 236.4377802 -389.48608398 238.20141602 C-389.12329346 238.98701904 -388.76050293 239.77262207 -388.38671875 240.58203125 C-388.06791748 241.25983643 -387.74911621 241.9376416 -387.4206543 242.63598633 C-385.25881156 248.50096561 -386.63757227 254.56652648 -387.77098083 260.53120422 C-389.7303321 271.04216154 -390.2007158 281.26590269 -390.125 291.9375 C-390.1236203 292.78308472 -390.1222406 293.62866943 -390.12081909 294.49987793 C-390.07846037 308.57094537 -389.17222668 322.17081996 -384.6875 335.625 C-383.72714844 335.480625 -382.76679688 335.33625 -381.77734375 335.1875 C-369.396908 333.46513808 -357.16985718 333.40987254 -344.6875 333.625 C-344.30531233 335.28114657 -343.97354898 336.94957024 -343.6875 338.625 C-345.65128786 340.58878786 -349.48596822 339.89820058 -352.1875 340 C-358.59060227 340.30200075 -364.81589286 340.98767175 -371.125 342.125 C-372.21554687 342.32101807 -372.21554687 342.32101807 -373.328125 342.52099609 C-377.11851156 343.22241126 -377.11851156 343.22241126 -380.6875 344.625 C-379.0216708 350.78856805 -375.80944714 356.10759656 -372.6875 361.625 C-368.00703846 360.98314934 -363.69522335 359.73857997 -359.25 358.1875 C-345.11397898 353.31151322 -345.11397898 353.31151322 -338.6875 353.625 C-338.6875 355.605 -338.6875 357.585 -338.6875 359.625 C-342.88861562 361.23711195 -347.08757323 362.78092845 -351.37109375 364.16015625 C-352.54381836 364.53817383 -352.54381836 364.53817383 -353.74023438 364.92382812 C-355.3560192 365.4412498 -356.97326246 365.95413515 -358.59179688 366.46289062 C-359.75098633 366.83897461 -359.75098633 366.83897461 -360.93359375 367.22265625 C-361.63154053 367.44445557 -362.3294873 367.66625488 -363.04858398 367.89477539 C-364.89418294 368.50920551 -364.89418294 368.50920551 -365.6875 370.625 C-363.9659103 372.61740157 -362.23679499 374.60190145 -360.4921875 376.57421875 C-359.15769721 378.09068499 -357.85195966 379.63256335 -356.5625 381.1875 C-354.77296167 382.89905484 -354.77296167 382.89905484 -352.3828125 382.39453125 C-349.43987552 381.55430142 -347.27551056 380.37559414 -344.6875 378.75 C-343.45 377.98042969 -343.45 377.98042969 -342.1875 377.1953125 C-340.47857851 376.12189619 -338.77703003 375.03667533 -337.08203125 373.94140625 C-334.12326949 372.31481129 -332.01256085 372.39301901 -328.6875 372.625 C-328.1875 374.8046875 -328.1875 374.8046875 -328.6875 377.625 C-331.11284135 379.7298047 -333.88457079 381.20176039 -336.6875 382.75 C-338.19309629 383.59689791 -339.69344033 384.4532243 -341.1875 385.3203125 C-341.8578125 385.69172363 -342.528125 386.06313477 -343.21875 386.44580078 C-343.7034375 386.83493652 -344.188125 387.22407227 -344.6875 387.625 C-344.6875 388.615 -344.6875 389.605 -344.6875 390.625 C-342.37636701 392.56022079 -342.37636701 392.56022079 -339.4375 394.3125 C-338.46296875 394.93511719 -337.4884375 395.55773437 -336.484375 396.19921875 C-333.61677683 397.92777872 -333.61677683 397.92777872 -329.6875 397.625 C-328.82583986 396.24634378 -327.9682642 394.86500297 -327.12890625 393.47265625 C-318.30380419 382.16026256 -302.25982445 376.91889335 -288.6875 374.625 C-283.44188014 374.06525552 -278.19370521 374.04516445 -272.92358398 374.10351562 C-270.6218178 374.12502974 -268.32315927 374.10353897 -266.02148438 374.078125 C-246.20683227 374.04138862 -223.26735608 380.26865728 -208.3203125 393.84375 C-204.5669177 397.93836251 -201.17496807 402.65006386 -198.6875 407.625 C-196.62507383 407.65217692 -194.56254297 407.6714758 -192.5 407.6875 C-191.35144531 407.69910156 -190.20289063 407.71070313 -189.01953125 407.72265625 C-184.77081259 407.61782641 -184.77081259 407.61782641 -180.6875 406.625 C-178.85282593 404.61944384 -178.85282593 404.61944384 -177.375 402.0625 C-166.45667975 385.57935846 -148.69482882 376.76292463 -129.6875 372.625 C-115.61892719 369.93787871 -101.53971512 368.57070321 -87.27734375 367.39550781 C-75.57279354 366.42012863 -64.17814488 365.10410704 -52.6875 362.625 C-51.72440918 362.4177832 -50.76131836 362.21056641 -49.76904297 361.99707031 C-39.69618021 359.73593135 -30.01961051 357.11959916 -20.6875 352.625 C-20.08518555 352.34285645 -19.48287109 352.06071289 -18.86230469 351.77001953 C-5.00679434 345.26254587 7.60823178 337.55218037 19.3125 327.625 C20.02019531 327.03976562 20.72789062 326.45453125 21.45703125 325.8515625 C28.6479952 319.77430425 35.21917218 312.57283022 40.3125 304.625 C40.3125 303.965 40.3125 303.305 40.3125 302.625 C29.6003233 300.71768074 19.07919274 299.28183204 8.1940918 298.91625977 C2.40106864 298.71356864 2.40106864 298.71356864 1.3125 297.625 C1.27186168 295.95882885 1.269779 294.29111905 1.3125 292.625 C5.24108919 292.57487569 9.16954984 292.53894498 13.09838867 292.51513672 C15.07802896 292.50035083 17.05758063 292.47491408 19.03710938 292.44921875 C25.87816676 292.41458048 32.26432758 292.69793778 38.9519043 294.19189453 C41.4532366 294.65082136 43.77507131 294.69665168 46.3125 294.625 C47.61453187 292.12994359 48.90410266 289.62962318 50.1875 287.125 C50.73470703 286.08085938 50.73470703 286.08085938 51.29296875 285.015625 C53.70728122 280.27479323 55.19882082 275.82998481 56.3125 270.625 C46.71510996 270.24392716 37.46393827 270.79297373 27.9375 272 C26.94041016 272.12608643 25.94332031 272.25217285 24.91601562 272.38208008 C19.37181624 273.12023221 13.91162687 274.0462497 8.4453125 275.23242188 C5.71234769 275.7354676 3.0823739 275.77078284 0.3125 275.625 C0.3125 273.975 0.3125 272.325 0.3125 270.625 C5.8667159 267.98731267 11.2208748 266.63074366 17.25 265.5 C18.10529297 265.33113281 18.96058594 265.16226562 19.84179688 264.98828125 C29.18986583 263.17713745 38.30590806 262.4093314 47.8125 262.0625 C48.92109375 262.01931641 50.0296875 261.97613281 51.171875 261.93164062 C53.88531506 261.82637786 56.59883417 261.72424154 59.3125 261.625 C59.81290822 259.39502549 60.31005995 257.16444942 60.80102539 254.93237305 C61.1647274 253.29163428 61.54389833 251.65429127 61.93359375 250.01953125 C62.44845325 246.76583155 62.4057618 243.60401299 62.375 240.3125 C62.36146484 238.43111328 62.36146484 238.43111328 62.34765625 236.51171875 C62.33605469 235.55910156 62.32445312 234.60648438 62.3125 233.625 C55.78617731 233.20394692 50.12919244 234.72534502 43.875 236.5 C42.78912598 236.80591064 41.70325195 237.11182129 40.58447266 237.42700195 C27.55265565 241.24181121 14.02179434 245.94476613 2.31640625 252.94140625 C-0.6875 254.625 -0.6875 254.625 -3.625 254.375 C-4.305625 254.1275 -4.98625 253.88 -5.6875 253.625 C-5.6875 251.4375 -5.6875 251.4375 -4.6875 248.625 C0.39813819 244.59405844 6.59100003 241.86340889 12.4375 239.125 C13.27007324 238.73481689 14.10264648 238.34463379 14.96044922 237.94262695 C27.40120405 232.19586412 39.95714125 228.53475186 53.3125 225.625 C55.16670625 225.20850951 57.0208824 224.79188493 58.875 224.375 C60.009375 224.1275 61.14375 223.88 62.3125 223.625 C62.03771198 219.95151804 61.69155169 216.28916633 61.3125 212.625 C61.22484375 211.72265625 61.1371875 210.8203125 61.046875 209.890625 C57.53906889 182.89576929 40.68054192 156.81259024 22.22070312 137.4284668 C19.79268552 133.86130633 19.80104626 131.65845503 19.7734375 127.3671875 C19.76246033 126.67082184 19.75148315 125.97445618 19.74017334 125.25698853 C19.71810026 123.77225424 19.70436382 122.28737622 19.69830322 120.80249023 C19.68017061 116.93788722 19.59479985 113.07469088 19.515625 109.2109375 C19.49455185 108.07800262 19.49455185 108.07800262 19.47305298 106.92218018 C19.29936971 98.41392202 18.52226365 90.04543411 17.3125 81.625 C17.21743164 80.92729492 17.12236328 80.22958984 17.02441406 79.51074219 C11.8449262 39.08773069 11.8449262 39.08773069 -9.05078125 5.81640625 C-40.98665473 -8.61387732 -91.02776939 33.73946122 -112.50390625 53.65234375 Z M74.3125 113.625 C73.39919922 113.86476563 72.48589844 114.10453125 71.54492188 114.3515625 C61.24845102 117.07731915 51.1184724 120.23942682 41.0625 123.75 C40.10255127 124.07468262 39.14260254 124.39936523 38.15356445 124.73388672 C37.27273193 125.05115723 36.39189941 125.36842773 35.484375 125.6953125 C34.3102002 126.10934326 34.3102002 126.10934326 33.11230469 126.53173828 C31.15512889 127.4897731 31.15512889 127.4897731 30.42944336 129.56054688 C30.22665602 133.14044198 32.92125083 135.41189686 35.125 138 C36.15320968 139.26256041 37.17920116 140.52693008 38.203125 141.79296875 C38.72583984 142.43411621 39.24855469 143.07526367 39.78710938 143.73583984 C51.07807568 157.71943416 60.35875357 173.26025446 65.3125 190.625 C65.82815525 192.0851723 66.34878274 193.54360072 66.875 195 C69.7507898 203.6273694 71.26640786 212.61479127 72.3125 221.625 C73.11993652 221.64481934 73.92737305 221.66463867 74.75927734 221.68505859 C78.40235875 221.78005899 82.04484686 221.88983912 85.6875 222 C86.95851563 222.0309375 88.22953125 222.061875 89.5390625 222.09375 C90.75078125 222.13242187 91.9625 222.17109375 93.2109375 222.2109375 C94.89195557 222.25806885 94.89195557 222.25806885 96.60693359 222.30615234 C99.3125 222.625 99.3125 222.625 101.3125 224.625 C101.4375 227.25 101.4375 227.25 101.3125 229.625 C98.6303719 230.96606405 96.42851968 230.83950419 93.4296875 230.94140625 C92.26308594 230.98330078 91.09648438 231.02519531 89.89453125 231.06835938 C88.67121094 231.10767578 87.44789063 231.14699219 86.1875 231.1875 C84.95644531 231.23068359 83.72539063 231.27386719 82.45703125 231.31835938 C79.40897147 231.42468704 76.3608281 231.52671781 73.3125 231.625 C72.80339578 235.12373754 72.306894 238.62415601 71.8125 242.125 C71.66941406 243.10726562 71.52632812 244.08953125 71.37890625 245.1015625 C70.59892017 250.67289162 70.151784 255.99993985 70.3125 261.625 C71.27905518 261.78319214 71.27905518 261.78319214 72.26513672 261.94458008 C75.24041281 262.43548732 78.21391808 262.93643687 81.1875 263.4375 C82.20070313 263.60314453 83.21390625 263.76878906 84.2578125 263.93945312 C98.77749219 266.40593717 98.77749219 266.40593717 103.3125 268.625 C104.80756766 271.07272588 104.98247859 272.70981088 105.3125 275.625 C99.55255079 275.94499718 95.21422522 275.12240235 89.7421875 273.359375 C82.42400397 271.14744814 74.87781778 271.51152023 67.3125 271.625 C67.00957031 272.36363281 66.70664062 273.10226562 66.39453125 273.86328125 C63.81861692 280.10095686 61.13735971 286.25660165 58.23046875 292.34765625 C57.12557101 294.6795106 57.12557101 294.6795106 57.3125 297.625 C57.9923999 297.87145264 58.6722998 298.11790527 59.37280273 298.37182617 C62.50143102 299.51093504 65.62568097 300.66162708 68.75 301.8125 C70.35391602 302.39354492 70.35391602 302.39354492 71.99023438 302.98632812 C77.77933827 305.1284736 83.1834887 307.44256474 88.49243164 310.6027832 C90.44197041 311.77306897 90.44197041 311.77306897 93.3125 312.625 C92.6525 314.605 91.9925 316.585 91.3125 318.625 C86.45659601 318.40427709 83.11801251 317.14412146 78.8125 314.875 C74.13085894 312.43701333 69.48581649 310.44587284 64.5 308.75 C63.29730469 308.34007812 62.09460938 307.93015625 60.85546875 307.5078125 C57.09344761 306.57041804 54.16627797 306.14500849 50.3125 306.625 C48.28344259 308.42074798 48.28344259 308.42074798 46.9375 311 C43.26662828 316.8047192 39.0218358 321.64186561 34.3125 326.625 C33.59835937 327.41519531 32.88421875 328.20539063 32.1484375 329.01953125 C18.44304624 343.59622745 -0.91804243 356.69081722 -20.0703125 362.75439453 C-22.5574044 363.5817238 -24.92861438 364.54169018 -27.33984375 365.56640625 C-32.55197848 367.66784026 -37.7644679 369.00950139 -43.25 370.1875 C-44.20600098 370.39802002 -45.16200195 370.60854004 -46.14697266 370.82543945 C-62.73425683 374.42649873 -79.39992572 377.30730822 -96.375 378.0625 C-122.71609057 379.31574763 -148.74566303 383.71270838 -167.6875 403.625 C-173.7081339 410.59925676 -174.90039996 416.73448201 -175.05078125 425.72265625 C-174.63615471 429.03521022 -173.6338968 430.93946517 -171.6875 433.625 C-171.3575 433.625 -171.0275 433.625 -170.6875 433.625 C-170.61273438 433.01914062 -170.53796875 432.41328125 -170.4609375 431.7890625 C-169.36467326 424.80306492 -166.96347061 419.28277282 -162.6875 413.625 C-159.6875 411.625 -159.6875 411.625 -155.6875 411.625 C-157.06628043 415.64644292 -159.00492634 418.35561335 -161.6875 421.625 C-163.87617558 425.09428363 -164.01590606 428.06200806 -164.0625 432.125 C-164.09085937 433.2490625 -164.11921875 434.373125 -164.1484375 435.53125 C-163.92622994 438.66678367 -163.92622994 438.66678367 -162.03125 440.890625 C-159.35412773 442.87169548 -156.98150901 443.85898184 -153.8125 444.875 C-152.30042969 445.37773438 -152.30042969 445.37773438 -150.7578125 445.890625 C-147.61943591 446.64127996 -144.90138355 446.75931155 -141.6875 446.625 C-141.72230469 445.69558594 -141.75710938 444.76617188 -141.79296875 443.80859375 C-142.11022516 429.32055108 -142.11022516 429.32055108 -137.0703125 423.87890625 C-132.49220554 419.625 -132.49220554 419.625 -127.6875 419.625 C-128.27864379 422.97974101 -129.39975441 424.75327765 -131.6875 427.25 C-135.05223375 430.95444245 -135.85606419 432.93740705 -135.9375 438 C-135.97617187 439.43472656 -135.97617187 439.43472656 -136.015625 440.8984375 C-135.62589719 444.13688999 -135.08699714 445.41705935 -132.6875 447.625 C-119.98942703 450.9619763 -103.93872425 448.5373287 -91.02667236 446.9362793 C-81.46803641 445.75309185 -71.91892078 445.03739102 -62.309021 444.4211731 C-40.75080387 443.01352205 -19.42710225 441.04496894 1.3125 434.625 C2.52550781 434.26792969 3.73851562 433.91085937 4.98828125 433.54296875 C34.05870565 424.51694913 55.85971735 406.77680166 71 380.5 C75.13820917 372.57660425 77.81882761 364.08456213 80.55395508 355.59521484 C81.3125 353.625 81.3125 353.625 83.3125 350.625 C84.6325 350.625 85.9525 350.625 87.3125 350.625 C88.144815 375.9785953 70.69668133 400.12304688 54.3125 417.625 C52.64876366 419.29459185 50.98244021 420.96161331 49.3125 422.625 C53.93489198 422.65002961 58.55724308 422.66801321 63.1796875 422.67993164 C64.7467518 422.684909 66.31381158 422.69169329 67.88085938 422.70043945 C77.08105053 422.75044049 86.15125192 422.61646255 95.3125 421.625 C95.28631592 420.96081055 95.26013184 420.29662109 95.2331543 419.61230469 C94.3876973 394.92924114 94.3876973 394.92924114 100.3125 385.625 C101.20195313 384.20380859 101.20195313 384.20380859 102.109375 382.75390625 C112.63311249 367.24191719 128.94999992 356.94941198 147.21875 352.99609375 C147.9096875 352.87363281 148.600625 352.75117187 149.3125 352.625 C149.02346738 351.12449022 148.73110081 349.62462262 148.4375 348.125 C148.27507812 347.2896875 148.11265625 346.454375 147.9453125 345.59375 C147.47016859 343.36467981 146.89411641 341.15673997 146.26953125 338.96484375 C141.52328336 320.0644476 146.18998739 300.63008424 155.734375 284.16601562 C159.29066804 278.35351701 163.42091604 273.37516062 168.3125 268.625 C169.07046875 267.85800781 169.8284375 267.09101562 170.609375 266.30078125 C180.87956118 256.41656612 192.84513562 250.80394347 206.3125 246.625 C207.04984375 246.37878906 207.7871875 246.13257813 208.546875 245.87890625 C214.36943105 244.13454545 220.30443701 244.44475811 226.3125 244.625 C226.3125 245.945 226.3125 247.265 226.3125 248.625 C225.24773437 248.91632813 224.18296875 249.20765625 223.0859375 249.5078125 C203.85335948 254.88598039 187.76603396 262.43142169 173.3125 276.625 C172.76078125 277.16382813 172.2090625 277.70265625 171.640625 278.2578125 C163.22412712 287.26256023 158.28420737 298.83890638 155.3125 310.625 C155.1381543 311.26244141 154.96380859 311.89988281 154.78417969 312.55664062 C152.19164451 323.92514892 154.47629716 335.88671334 158.3125 346.625 C158.6425 347.615 158.9725 348.605 159.3125 349.625 C160.70863065 349.48204109 162.10439308 349.33548442 163.5 349.1875 C164.66595703 349.06568359 164.66595703 349.06568359 165.85546875 348.94140625 C168.28614032 348.66424374 168.28614032 348.66424374 170.54150391 348.13989258 C180.97579701 346.20104464 191.96984339 346.46220289 202.55444336 346.49462891 C204.61384528 346.49997106 206.67302661 346.49464875 208.73242188 346.48828125 C215.90986308 346.48493297 223.04281441 346.68024351 230.20703125 347.12109375 C239.37032951 347.68268437 248.50840407 347.82539534 257.6875 347.8125 C258.89424377 347.81159363 258.89424377 347.81159363 260.12536621 347.81066895 C272.26660497 347.78600264 284.30724194 347.62773589 296.3125 345.625 C297.03695313 345.50672852 297.76140625 345.38845703 298.5078125 345.26660156 C315.94780045 342.23925383 333.14274794 334.56090204 343.7578125 319.91015625 C344.27085937 319.15605469 344.78390625 318.40195312 345.3125 317.625 C345.76367188 316.98433594 346.21484375 316.34367188 346.6796875 315.68359375 C359.19700304 295.81915822 359.28373833 264.94765609 354.625 242.625 C353.93640385 239.59874447 353.15944484 236.61053276 352.3125 233.625 C352.13058105 232.96725586 351.94866211 232.30951172 351.76123047 231.63183594 C345.94874872 211.19724864 335.96165153 191.90869002 322.3125 175.625 C321.45952925 174.58732684 320.60667376 173.54955893 319.75390625 172.51171875 C310.30431388 161.09276884 300.15222221 151.52161447 288.3125 142.625 C287.46816406 141.985625 286.62382813 141.34625 285.75390625 140.6875 C261.44482367 122.97835383 231.82004003 111.64300495 202.3125 106.625 C201.27689941 106.44308105 200.24129883 106.26116211 199.17431641 106.07373047 C157.3326016 98.90934364 115.20504778 102.72032059 74.3125 113.625 Z " fill="#552B1B" transform="translate(630.6875,382.375)"/>
<path d="M0 0 C17.72376566 5.67219433 32.60215714 14.78090373 41.90625 31.40625 C52.56978237 52.28191881 53.38514447 73.35911528 46.93359375 95.69140625 C37.76335523 123.26265144 17.00219501 140.6184734 -8.32162476 153.32832336 C-14.88684915 156.54102823 -21.68298762 158.91616718 -28.625 161.1875 C-29.82511719 161.59935547 -31.02523437 162.01121094 -32.26171875 162.43554688 C-48.93541615 167.9671468 -66.14762229 170.57558753 -83.5625 172.5 C-84.46622345 172.60227905 -85.3699469 172.70455811 -86.30105591 172.80993652 C-223.29790499 188.17153399 -223.29790499 188.17153399 -249.41015625 169.25390625 C-255.89026485 164.01713556 -259.55278884 158.12090103 -261.8125 150.125 C-261.874375 149.09375 -261.93625 148.0625 -262 147 C-262.061875 146.11570312 -262.12375 145.23140625 -262.1875 144.3203125 C-262.68574224 132.08223758 -258.10287115 123.05615011 -250 114 C-230.32670564 96.32737964 -203.47849871 90.72151822 -177.70532227 90.91821289 C-176.25880531 90.92281273 -176.25880531 90.92281273 -174.7830658 90.92750549 C-172.70813201 90.93460585 -170.63320492 90.94396623 -168.55829048 90.95540047 C-165.25442684 90.97298615 -161.95061289 90.98315288 -158.64671326 90.99131775 C-149.25897526 91.01558804 -139.871304 91.05100849 -130.48364258 91.09594727 C-124.7196948 91.1230212 -118.95578565 91.1398737 -113.19178581 91.15081596 C-111.01729853 91.15694668 -108.84281795 91.1668489 -106.66836739 91.18089485 C-88.15170606 91.29938062 -69.63697929 91.24046251 -52 85 C-51.38286133 84.78327637 -50.76572266 84.56655273 -50.12988281 84.34326172 C-33.26874005 78.32142502 -19.29292259 69.36975893 -10.52734375 53.26171875 C-2.49888034 36.11653475 -0.48358099 18.66462332 0 0 Z " fill="#F8AD60" transform="translate(997,648)"/>
<path d="M0 0 C0.33 0.66 0.66 1.32 1 2 C2.94006697 2.73646965 2.94006697 2.73646965 5.3125 3.3125 C15.13967083 6.13833882 23.93740327 9.31821671 31 17 C32.43304064 19.86608129 32.30644155 21.81300783 32 25 C25.43911855 38.12176291 8.12511143 43.1412662 -4.875 47.5625 C-66.292372 67.63516972 -134.91438687 73.12645606 -199.04248047 77.1003418 C-199.92278427 77.15508163 -200.80308807 77.20982147 -201.71006775 77.26622009 C-203.33486584 77.36594612 -204.95982642 77.4630792 -206.5849762 77.55690002 C-210.0147148 77.76378936 -213.36989949 78.04941551 -216.77929688 78.50488281 C-222.25913111 79.22538818 -227.76601588 79.32448448 -233.28515625 79.5 C-234.45904404 79.54060547 -235.63293182 79.58121094 -236.84239197 79.62304688 C-240.58232132 79.75209928 -244.32238468 79.87646352 -248.0625 80 C-251.77760419 80.1239417 -255.4926578 80.24900719 -259.20762634 80.37695312 C-261.51171293 80.45620072 -263.81587849 80.53320027 -266.12013245 80.60742188 C-271.70894085 80.7985648 -277.27359745 81.0814963 -282.8503418 81.49731445 C-293.42517829 82.22529279 -304.01346229 82.36123865 -314.609375 82.54296875 C-315.76403008 82.56354025 -316.91868515 82.58411175 -318.10832977 82.60530663 C-349.37435168 83.15303548 -380.64228715 83.28812656 -411.9125247 83.31077766 C-414.27185442 83.3125161 -416.6311835 83.31469792 -418.99051285 83.31687927 C-495.98270952 83.37965151 -573.31672282 82.50831172 -650 75 C-650.93342224 74.90996704 -651.86684448 74.81993408 -652.82855225 74.72717285 C-674.60160936 72.6159758 -696.25241348 69.80862119 -717.875 66.5 C-718.78428253 66.36242279 -719.69356506 66.22484558 -720.63040161 66.08309937 C-738.52486951 63.35168491 -756.46393067 59.99493467 -773.625 54.125 C-774.62208984 53.78984375 -775.61917969 53.4546875 -776.64648438 53.109375 C-784.00533519 50.5489377 -790.59414814 47.49533464 -797 43 C-789.94702948 29.35042765 -781.03726485 17.6658979 -769 8 C-767.66357295 6.8577765 -766.3301087 5.71207499 -765 4.5625 C-764.01 3.716875 -763.02 2.87125 -762 2 C-761.42330566 2.29245605 -760.84661133 2.58491211 -760.25244141 2.88623047 C-758.85229058 3.57856605 -757.44180553 4.25085075 -756.01708984 4.89111328 C-742.38365012 11.05222366 -742.38365012 11.05222366 -740.11279297 15.89013672 C-739.32723479 19.32310095 -739.28591709 22.70713619 -739.21875 26.21484375 C-738.89577972 31.80338304 -736.71935289 34.9772034 -733 39 C-732.51917969 39.53625 -732.03835938 40.0725 -731.54296875 40.625 C-721.64113714 50.2510844 -707.06441705 54.02382799 -694 57 C-693.31502441 57.16516113 -692.63004883 57.33032227 -691.92431641 57.50048828 C-680.25679534 60.21458327 -668.48011019 60.31045769 -656.5625 60.375 C-655.78473206 60.38294586 -655.00696411 60.39089172 -654.20562744 60.39907837 C-641.48968329 60.49883822 -624.65753901 60.1243386 -614.7980957 50.95141602 C-609.97279362 47.58620883 -604.41966485 48.56920274 -598.76269531 48.79589844 C-596.63783137 48.8745252 -594.51673986 48.90020006 -592.390625 48.921875 C-581.04789064 49.19799099 -581.04789064 49.19799099 -576.91796875 52.8984375 C-576.4178125 53.43678223 -575.91765625 53.97512695 -575.40234375 54.52978516 C-567.29061195 63.03411122 -548.64695153 63.7534457 -537.53198242 64.11181641 C-533.58350048 64.17062304 -529.63631122 64.19321338 -525.6875 64.1875 C-524.97537354 64.18722809 -524.26324707 64.18695618 -523.52954102 64.18667603 C-514.51453359 64.17092874 -505.59488496 63.94322054 -496.63085938 62.91601562 C-490.74241218 62.24369483 -484.86204461 61.76188496 -478.94921875 61.375 C-442.72615937 58.98467621 -406.96020189 55.48010095 -374 39 C-371.8687576 38.85687615 -369.73311158 38.77787469 -367.59765625 38.7277832 C-366.94043076 38.71157425 -366.28320526 38.6953653 -365.60606384 38.67866516 C-359.52642132 38.53811688 -353.4453258 38.46023896 -347.3644104 38.39974689 C-343.28324626 38.35886314 -339.20449753 38.29872918 -335.12451172 38.19067383 C-331.17320826 38.08639016 -327.22405295 38.03225901 -323.27145386 38.01228905 C-321.77224414 37.99644337 -320.27310517 37.96340791 -318.77468872 37.91213417 C-307.05491956 37.53053718 -307.05491956 37.53053718 -301.95654297 41.17636108 C-299.3046875 43.85229492 -299.3046875 43.85229492 -297.10107422 46.51847839 C-291.09175928 53.61591681 -281.7462357 56.68729345 -273 59 C-272.37496582 59.17732666 -271.74993164 59.35465332 -271.10595703 59.53735352 C-261.87863345 61.79807819 -252.31221117 61.43788755 -242.875 61.4375 C-241.86788971 61.43923218 -240.86077942 61.44096436 -239.82315063 61.44274902 C-220.00034465 61.42818991 -200.27764659 60.29201339 -180.51145172 58.91222 C-178.23338787 58.75320313 -175.95517114 58.59652326 -173.67694092 58.43991089 C-157.14097325 57.29267593 -140.65439221 55.84837988 -124.18359375 53.98046875 C-123.10690965 53.8595776 -123.10690965 53.8595776 -122.00847435 53.7362442 C-102.66033441 51.54443809 -83.47747197 48.25337837 -65 42 C-64.24702637 41.75024414 -63.49405273 41.50048828 -62.71826172 41.24316406 C-41.72857998 34.202076 -10.49479182 20.98958363 0 0 Z " fill="#C0BFBE" transform="translate(1037,776)"/>
<path d="M0 0 C6.76091955 5.85878786 12.43535036 12.48586959 15.98046875 20.7578125 C16.398125 21.61826172 16.398125 21.61826172 16.82421875 22.49609375 C20.84451911 32.0815321 20.77630325 47.06939681 16.98046875 56.7578125 C12.52475209 67.05300877 12.52475209 67.05300877 8.29296875 68.984375 C4.45436624 69.88065247 0.62157917 70.57466323 -3.26953125 71.1953125 C-19.40217508 73.96390006 -34.69884481 79.5850161 -47.01953125 90.7578125 C-47.65246094 91.32242188 -48.28539062 91.88703125 -48.9375 92.46875 C-52.69324534 96.00827972 -55.3242747 99.56178659 -57.68359375 104.15625 C-59.59288575 106.44516731 -61.09317725 106.42574396 -64.01953125 106.7578125 C-65.56447266 106.96277344 -65.56447266 106.96277344 -67.140625 107.171875 C-70.61640562 107.39294939 -73.59672517 107.43461421 -77.01953125 106.7578125 C-79.89097354 104.17791512 -81.36696672 101.20892782 -83.01953125 97.7578125 C-87.57754017 90.92079912 -94.64482506 86.62106004 -102.20703125 83.7578125 C-108.70923773 80.69614362 -110.98655729 74.11009072 -113.36035156 67.71655273 C-116.97861522 56.96494929 -117.38837299 45.65814525 -114.01953125 34.7578125 C-113.77460938 33.89800781 -113.5296875 33.03820312 -113.27734375 32.15234375 C-110.87203611 24.60648925 -106.95788055 18.8910743 -102.01953125 12.7578125 C-101.45105469 12.02433594 -100.88257813 11.29085937 -100.296875 10.53515625 C-76.82774577 -18.26030018 -29.00980255 -21.54156101 0 0 Z " fill="#FAD799" transform="translate(509.01953125,683.2421875)"/>
<path d="M0 0 C1.65543121 2.46495527 2.89133408 4.64759953 4.125 7.3125 C4.47119385 8.03219971 4.8173877 8.75189941 5.17407227 9.4934082 C7.96584534 15.48983625 9.79419989 21.49266554 11 28 C11.25583862 29.15193848 11.25583862 29.15193848 11.5168457 30.32714844 C13.75425533 42.70469296 13.09222529 57.11015139 9 69 C8.68374114 70.35329374 8.37073945 71.70735718 8.0625 73.0625 C6.82297531 76.48942121 6.25835873 77.41259446 3 79 C-3.15279462 80.680772 -9.40540161 81.53767573 -15.73046875 82.25390625 C-16.64218338 82.35968491 -17.55389801 82.46546356 -18.49324036 82.57444763 C-20.41830822 82.79614524 -22.34366471 83.01534946 -24.26928711 83.23217773 C-27.13571867 83.5566387 -30.00042172 83.89400367 -32.86523438 84.23242188 C-45.89903112 85.73543264 -58.88763896 86.57980862 -72 87 C-71.69892334 86.24855713 -71.39784668 85.49711426 -71.08764648 84.72290039 C-68.61025796 78.52080965 -66.24552792 72.28936123 -64 66 C-63.65066406 65.0409375 -63.30132813 64.081875 -62.94140625 63.09375 C-57.68655374 45.99662222 -59.8168733 25.01385491 -67.75 9.125 C-68.17796875 8.36445312 -68.6059375 7.60390625 -69.046875 6.8203125 C-70 5 -70 5 -70 3 C-68.24864746 2.970271 -68.24864746 2.970271 -66.46191406 2.93994141 C-62.02586397 2.86242591 -57.59008177 2.7739686 -53.15429688 2.68261719 C-51.25396101 2.64491718 -49.3535679 2.609976 -47.453125 2.578125 C-34.99109775 2.3669042 -10.78345235 -4.27732685 0 0 Z " fill="#F8AE60" transform="translate(939,737)"/>
<path d="M0 0 C1.13791992 0.00942627 2.27583984 0.01885254 3.44824219 0.02856445 C23.48489493 0.38443764 45.14551105 4.62901029 60.3125 18.75 C66.34237955 25.41538156 69.24116366 31.36173171 68.87890625 40.48828125 C68.1240476 44.81262652 66.29730693 48.11734637 63.375 51.375 C63.045 51.375 62.715 51.375 62.375 51.375 C62.37113281 50.23224609 62.37113281 50.23224609 62.3671875 49.06640625 C62.03488059 40.19381184 59.64582722 34.64582722 53.375 28.375 C52.385 28.375 51.395 28.375 50.375 28.375 C50.82768476 31.31745096 51.68380866 32.83821298 53.375 35.375 C56.23146257 39.65969385 56.5138751 42.83840039 56.5 47.9375 C56.50386719 49.36255859 56.50386719 49.36255859 56.5078125 50.81640625 C56.375 53.375 56.375 53.375 55.375 56.375 C49.70499846 59.26558902 44.55885325 60.42722489 38.18359375 60.39453125 C36.29833984 60.38486328 36.29833984 60.38486328 34.375 60.375 C34.44460938 59.3128125 34.51421875 58.250625 34.5859375 57.15625 C35.22286783 47.86123237 35.22286783 47.86123237 31.75 39.5 C29.00820095 36.53624579 26.39373567 35.14047346 22.375 34.375 C23.46859333 37.65578 24.82972777 39.98747369 27 42.625 C29.56722364 46.11125933 29.90633514 48.80279345 29.84375 53.06640625 C29.21931215 56.14176267 27.85779979 58.62629933 26.375 61.375 C5.26082648 62.62930734 -22.78432477 59.76219372 -40.625 47.375 C-41.19476563 46.98570312 -41.76453125 46.59640625 -42.3515625 46.1953125 C-47.1031078 42.61409855 -50.10783422 38.60849448 -51.04296875 32.76171875 C-51.46190865 24.57540667 -49.07779455 20.22260473 -43.74609375 14.28125 C-37.87002619 8.48093285 -31.43692208 5.77280255 -23.625 3.375 C-22.82626465 3.11460937 -22.0275293 2.85421875 -21.20458984 2.5859375 C-14.05210349 0.40623052 -7.4522384 -0.09606835 0 0 Z " fill="#F7AD5F" transform="translate(356.625,765.625)"/>
<path d="M0 0 C10.83595011 9.18700118 13.18163208 29.01462707 14.49609375 42.4921875 C15.09507765 50.29426552 15.06312698 58.11711625 15.0625 65.9375 C15.06340637 66.67683777 15.06431274 67.41617554 15.06524658 68.17791748 C15.06411832 76.32058409 14.8708461 84.34326291 13.875 92.4375 C10.10400391 93.54541016 10.10400391 93.54541016 8.04296875 92.57421875 C7.38941406 92.09597656 6.73585938 91.61773437 6.0625 91.125 C5.27746094 90.56941406 4.49242187 90.01382813 3.68359375 89.44140625 C2.29333984 88.44947266 2.29333984 88.44947266 0.875 87.4375 C-1.53025943 85.79534654 -3.95134383 84.17734643 -6.375 82.5625 C-7.01904785 82.13316162 -7.6630957 81.70382324 -8.32666016 81.26147461 C-20.87488773 72.92883832 -33.4358486 65.22517704 -47.75 60.3046875 C-50.125 59.4375 -50.125 59.4375 -53 57.875 C-57.31388342 55.89061363 -61.76024616 55.05992284 -66.39453125 54.0859375 C-69.125 53.4375 -69.125 53.4375 -70.125 52.4375 C-69.87133711 46.70190032 -68.14880293 43.44745111 -64.375 39.3125 C-63.88475342 38.75828369 -63.39450684 38.20406738 -62.8894043 37.63305664 C-61.32131128 35.88164473 -59.72786024 34.15710879 -58.125 32.4375 C-57.36533936 31.61209717 -57.36533936 31.61209717 -56.59033203 30.77001953 C-45.46539044 18.7895874 -18.14114642 -9.07057321 0 0 Z " fill="#F68D8A" transform="translate(610.125,410.5625)"/>
<path d="M0 0 C14.73691249 5.10989624 14.73691249 5.10989624 19.59765625 8.9921875 C19.02205719 12.32346708 18.08683486 13.80175038 15.59765625 16.0546875 C8.19890139 23.16537608 2.22381096 31.15601582 -2.9921875 39.97265625 C-3.45753906 40.63910156 -3.92289062 41.30554688 -4.40234375 41.9921875 C-5.06234375 41.9921875 -5.72234375 41.9921875 -6.40234375 41.9921875 C-6.66917969 42.72308594 -6.93601562 43.45398438 -7.2109375 44.20703125 C-8.73169623 47.76211641 -10.83485799 50.66593009 -13.0625 53.80859375 C-14.35566295 55.91611004 -14.95886063 57.57766832 -15.40234375 59.9921875 C-16.06234375 59.9921875 -16.72234375 59.9921875 -17.40234375 59.9921875 C-17.67046875 60.8790625 -17.93859375 61.7659375 -18.21484375 62.6796875 C-19.40234375 65.9921875 -19.40234375 65.9921875 -20.77734375 68.2421875 C-22.73231483 71.5506001 -24.02838866 74.96747229 -25.41796875 78.54296875 C-26.59033504 81.45992773 -27.93905002 84.21192942 -29.40234375 86.9921875 C-31.23046875 86.78515625 -31.23046875 86.78515625 -33.40234375 85.9921875 C-34.82421875 83.98046875 -34.82421875 83.98046875 -36.15234375 81.3046875 C-38.37829283 76.94227473 -40.74452152 72.74625998 -43.27734375 68.5546875 C-50.59088592 56.05191238 -55.63426359 41.94527641 -59.40234375 27.9921875 C-59.75554687 26.77402344 -60.10875 25.55585937 -60.47265625 24.30078125 C-61.69613646 19.32309272 -61.84459534 14.41181255 -61.90234375 9.3046875 C-61.94359375 8.38107422 -61.98484375 7.45746094 -62.02734375 6.50585938 C-62.10321168 -0.08042532 -62.10321168 -0.08042532 -60.1015625 -2.72900391 C-46.10714453 -14.59106074 -15.46870828 -5.0489635 0 0 Z " fill="#F68A87" transform="translate(289.40234375,507.0078125)"/>
<path d="M0 0 C14.52 0 29.04 0 44 0 C54.58789507 21.17579015 57.98217019 41.87747756 50.51977539 64.81640625 C49.94884254 66.46502462 49.36673478 68.10982779 48.77197266 69.75 C48.07032624 71.79502637 47.55169423 73.80029123 47.07421875 75.90625 C45.89485262 79.73122124 45.1326999 81.47762824 42 84 C34.61685982 86.29753311 26.65290833 85.99299932 19 86 C16.86587439 86.02781252 14.73175933 86.05644736 12.59765625 86.0859375 C7.3965603 86.13391199 2.20026203 86.09975418 -3 86 C-2.52949219 84.94941406 -2.05898438 83.89882813 -1.57421875 82.81640625 C8.32709871 60.56828119 13.43639747 37.4459209 5.0625 13.75 C4.79759766 12.97398437 4.53269531 12.19796875 4.25976562 11.3984375 C2.93555642 7.5473874 1.51427672 3.78569179 0 0 Z " fill="#F9AF61" transform="translate(825,740)"/>
<path d="M0 0 C0.495 0.99 0.495 0.99 1 2 C1.71800781 2.25910156 2.43601562 2.51820313 3.17578125 2.78515625 C6.8144144 4.3503221 9.35677204 6.74291758 12.1875 9.4375 C12.75847412 9.97608643 13.32944824 10.51467285 13.91772461 11.06958008 C43.51517248 39.28501375 66.88405007 82.31584931 68.0859375 123.97900391 C68.16992501 130.98671167 68.11226548 137.99290668 68 145 C66.68 145.33 65.36 145.66 64 146 C61.72635109 140.97161124 60.03702222 135.99889939 58.5625 130.6875 C56.72148746 124.28033703 54.72198969 118.09651116 52 112 C51.52046875 110.90945313 51.0409375 109.81890625 50.546875 108.6953125 C40.66825978 86.65040274 27.89476734 67.15063155 12 49 C10.93635074 47.70927955 9.87362367 46.41779758 8.8125 45.125 C6.16419645 42.0454013 3.20863236 39.4278664 0.11328125 36.8046875 C-1.28805941 35.60797884 -2.66644818 34.38382547 -4.01953125 33.1328125 C-13.25552306 24.59937294 -23.44219386 17.05986905 -35 12 C-31.9667686 9.97784574 -29.42313118 9.01678955 -25.9765625 7.87109375 C-24.790625 7.47599609 -23.6046875 7.08089844 -22.3828125 6.67382812 C-20.52269531 6.0618457 -20.52269531 6.0618457 -18.625 5.4375 C-17.39265625 5.02564453 -16.1603125 4.61378906 -14.890625 4.18945312 C-4.85809225 0.86522454 -4.85809225 0.86522454 0 0 Z " fill="#E47B36" transform="translate(702,497)"/>
<path d="M0 0 C10.55916625 5.18933384 17.75130102 19.21409531 21.54052734 29.86376953 C24.75610195 39.44670017 26.00898799 48.35904649 25.953125 58.4609375 C25.95892578 59.51571289 25.95892578 59.51571289 25.96484375 60.59179688 C25.96096937 62.69752466 25.9074907 64.79426657 25.828125 66.8984375 C25.80975586 67.62530762 25.79138672 68.35217773 25.77246094 69.10107422 C25.6328125 71.23828125 25.6328125 71.23828125 24.828125 74.8984375 C22.6796875 76.72265625 22.6796875 76.72265625 19.828125 77.8984375 C18.80460938 78.35863281 17.78109375 78.81882812 16.7265625 79.29296875 C9.54509556 82.1830713 2.32018499 84.8296142 -5.046875 87.2109375 C-5.81854004 87.46528564 -6.59020508 87.71963379 -7.38525391 87.98168945 C-12.6580021 89.64192161 -17.6621244 90.43290191 -23.171875 90.8984375 C-22.5221875 89.0421875 -22.5221875 89.0421875 -21.859375 87.1484375 C-21.29504859 85.39902561 -20.7326576 83.64898859 -20.171875 81.8984375 C-19.74261719 80.69767578 -19.74261719 80.69767578 -19.3046875 79.47265625 C-13.32056506 60.23797696 -16.55985114 37.730082 -25.171875 19.8984375 C-26.45637477 17.53247179 -27.80888225 15.2205733 -29.171875 12.8984375 C-29.171875 12.2384375 -29.171875 11.5784375 -29.171875 10.8984375 C-28.39585937 10.69089844 -27.61984375 10.48335937 -26.8203125 10.26953125 C-18.98193672 8.03400403 -12.28914818 5.11169231 -5.16796875 1.19140625 C-2.171875 -0.1015625 -2.171875 -0.1015625 0 0 Z " fill="#F8AE62" transform="translate(967.171875,724.1015625)"/>
<path d="M0 0 C2.48214587 2.5321975 4.44524043 5.28622008 6.42114258 8.21240234 C7.39825892 9.58272785 8.37617514 10.95248324 9.35473633 12.32177734 C16.02211859 21.83734142 21.60530874 31.65005895 26.42114258 42.21240234 C26.96383789 43.38287109 27.5065332 44.55333984 28.06567383 45.75927734 C39.27722118 70.85043649 49.92901751 108.98938308 40.42114258 136.21240234 C38.34301758 137.55224609 38.34301758 137.55224609 36.42114258 138.21240234 C33.91612579 135.70738555 34.0648388 134.6322392 33.67114258 131.14990234 C29.11110887 99.40505227 17.57311206 68.12611252 -1.57885742 42.21240234 C-2.34584961 41.16310547 -3.1128418 40.11380859 -3.90307617 39.03271484 C-11.59641529 28.68539502 -20.24817364 19.11174065 -29.57885742 10.21240234 C-30.13959961 9.64521484 -30.7003418 9.07802734 -31.27807617 8.49365234 C-35.60733524 4.36869539 -38.60273174 3.42209096 -44.57885742 3.21240234 C-44.57885742 2.88240234 -44.57885742 2.55240234 -44.57885742 2.21240234 C-40.20635454 1.52865891 -35.83055907 0.86868587 -31.45385742 0.21240234 C-29.62661133 -0.07376953 -29.62661133 -0.07376953 -27.76245117 -0.36572266 C-5.32337924 -3.69002961 -5.32337924 -3.69002961 0 0 Z " fill="#E57D38" transform="translate(774.578857421875,487.78759765625)"/>
<path d="M0 0 C-0.00112793 0.68956787 -0.00225586 1.37913574 -0.00341797 2.08959961 C0.08523048 26.26557345 2.31711878 50.21073617 4.70547009 74.24556255 C4.9820119 77.03568868 5.25405927 79.8262465 5.52597237 82.61682701 C5.71540764 84.53594138 5.9129554 86.45424968 6.11082458 88.37251282 C6.90964624 96.51463078 7.71341595 104.82727941 7 113 C5 115 5 115 2.6171875 115.0078125 C-1.17101913 113.54907025 -1.96803514 111.41198462 -3.875 107.875 C-4.49117188 106.75867188 -5.10734375 105.64234375 -5.7421875 104.4921875 C-11.60607633 93.02502712 -16.58259096 81.47517655 -20.625 69.25 C-20.86023376 68.54466125 -21.09546753 67.83932251 -21.33782959 67.11260986 C-27.45420912 48.62975159 -31.64002372 29.53689449 -32 10 C-5.35248256 0 -5.35248256 0 0 0 Z " fill="#E37935" transform="translate(421,453)"/>
<path d="M0 0 C2.1171875 2.2421875 2.1171875 2.2421875 2.74609375 4.35546875 C2.54648879 10.96591521 1.09777016 15.3573409 -3.70703125 20.0078125 C-5.39634188 21.47439455 -7.10791314 22.88109894 -8.8828125 24.2421875 C-8.01983573 30.533565 -8.01983573 30.533565 -4.5703125 35.6796875 C2.14892516 39.58622102 8.14350311 40.46187222 15.77734375 38.58984375 C21.78979291 36.47687142 25.68372932 33.63416759 29.1171875 28.2421875 C30.35735419 25.562723 30.35735419 25.562723 31.1171875 23.2421875 C31.7771875 22.5821875 32.4371875 21.9221875 33.1171875 21.2421875 C36.41433543 21.57190229 37.7398714 21.8648714 40.1171875 24.2421875 C41.06955552 29.32148358 39.99050882 31.99085755 37.1796875 36.3046875 C31.67721962 43.58964497 24.17764463 48.62758468 15.1171875 50.2421875 C6.36477842 51.00696111 -0.36562141 50.95885642 -7.8828125 46.2421875 C-8.5428125 46.2421875 -9.2028125 46.2421875 -9.8828125 46.2421875 C-10.4190625 47.0878125 -10.9553125 47.9334375 -11.5078125 48.8046875 C-15.46575606 54.96797969 -21.07078209 59.834114 -28.1953125 61.80078125 C-35.5954384 63.0162089 -43.91745461 64.02875296 -50.5703125 59.9921875 C-51.70309806 59.11113206 -52.8118909 58.1974826 -53.8828125 57.2421875 C-55.1203125 56.283125 -55.1203125 56.283125 -56.3828125 55.3046875 C-58.43053174 52.48907354 -58.3261609 50.64119189 -57.8828125 47.2421875 C-55.8828125 45.2421875 -55.8828125 45.2421875 -53.1328125 44.8046875 C-48.66439876 45.40620473 -47.15439403 47.19366834 -43.8828125 50.2421875 C-40.122461 52.12236325 -35.97746762 51.75620983 -31.8828125 51.2421875 C-27.24053212 49.57240603 -23.81314841 47.1282217 -20.2578125 43.7421875 C-18.1013248 38.25294609 -19.09784831 32.99290342 -19.8828125 27.2421875 C-21.09517578 27.00435547 -21.09517578 27.00435547 -22.33203125 26.76171875 C-30.71659203 24.93107279 -34.12421386 23.38008546 -38.8828125 16.2421875 C-39.35312033 12.63649416 -39.19799786 10.79376188 -37.3828125 7.6171875 C-28.95003494 -0.39395118 -10.44543389 -6.36916701 0 0 Z " fill="#552C1B" transform="translate(466.8828125,684.7578125)"/>
<path d="M0 0 C6.75135994 -0.3320341 13.09567635 0.32969458 19.75 1.375 C20.56573486 1.50108643 21.38146973 1.62717285 22.22192383 1.75708008 C31.56054153 3.28789143 31.56054153 3.28789143 35 5 C36.51616152 7.30322323 37.53042708 9.18261239 38.5625 11.6875 C38.85350586 12.35450928 39.14451172 13.02151855 39.44433594 13.70874023 C44.31130982 25.11453905 47.77540044 36.79684982 50 49 C50.16991455 49.87454834 50.3398291 50.74909668 50.51489258 51.65014648 C51.87195277 59.04167762 52.34974666 66.17891217 52.3125 73.6875 C52.30839111 75.37564819 52.30839111 75.37564819 52.30419922 77.09790039 C52.0262425 99.46063624 52.0262425 99.46063624 47 107 C46.01 106.67 45.02 106.34 44 106 C42.78019873 103.56039745 42.72645973 101.33320157 42.50756836 98.64550781 C39.42417571 62.75620663 24.08523822 30.47315584 1.46875 2.8984375 C0 1 0 1 0 0 Z " fill="#E7803A" transform="translate(810,487)"/>
<path d="M0 0 C-0.02800186 0.56305344 -0.05600372 1.12610687 -0.08485413 1.70622253 C-0.69375423 14.25746707 -1.09168244 26.79795131 -1.24609375 39.36328125 C-1.26274078 40.6669162 -1.27938782 41.97055115 -1.29653931 43.31369019 C-1.36305578 48.69483583 -1.42654495 54.07595523 -1.47680664 59.45727539 C-1.5145529 63.44692622 -1.56773382 67.43630801 -1.62109375 71.42578125 C-1.6295079 72.64743484 -1.63792206 73.86908844 -1.64659119 75.12776184 C-1.66323318 76.25131577 -1.67987518 77.37486969 -1.69702148 78.5324707 C-1.70732895 79.51931351 -1.71763641 80.50615631 -1.72825623 81.52290344 C-2 84 -2 84 -4 87 C-6.43416871 86.66425259 -7.70389263 86.30993656 -9.421875 84.51171875 C-11.68959365 80.90245367 -13.00818557 77.06521426 -14.4375 73.0625 C-14.72431641 72.28326172 -15.01113281 71.50402344 -15.30664062 70.70117188 C-19.4961096 59.15913818 -22.68180063 47.7484993 -24.6875 35.625 C-24.90317627 34.35873779 -25.11885254 33.09247559 -25.34106445 31.7878418 C-26.62766085 23.99970497 -27.58717959 16.34803839 -27.76171875 8.45703125 C-27.75458062 5.82171914 -27.75458062 5.82171914 -30 4 C-9.0943039 -0.07853458 -9.0943039 -0.07853458 0 0 Z " fill="#E37934" transform="translate(464,445)"/>
<path d="M0 0 C1.54147453 0.00212242 1.54147453 0.00212242 3.11408997 0.00428772 C6.35343504 0.00982559 9.59270754 0.02236595 12.83203125 0.03515625 C15.04622295 0.0401793 17.26041575 0.04474079 19.47460938 0.04882812 C24.86460753 0.05977456 30.2545642 0.07644935 35.64453125 0.09765625 C35.64453125 0.42765625 35.64453125 0.75765625 35.64453125 1.09765625 C25.74453125 1.42765625 15.84453125 1.75765625 5.64453125 2.09765625 C7.52503484 6.72051379 7.52503484 6.72051379 9.41357422 11.34008789 C17.94422972 32.48816464 16.29411066 55.80054507 7.51953125 76.53515625 C3.95658588 84.78560162 3.95658588 84.78560162 2.64453125 86.09765625 C6.10953125 86.59265625 6.10953125 86.59265625 9.64453125 87.09765625 C9.64453125 87.42765625 9.64453125 87.75765625 9.64453125 88.09765625 C2.71453125 88.09765625 -4.21546875 88.09765625 -11.35546875 88.09765625 C-10.04221408 84.15789224 -8.67627432 80.34256438 -7.14697266 76.49267578 C-0.15970917 58.66028279 1.61027553 39.26247007 -5.35546875 21.09765625 C-7.73982626 15.93854902 -10.52857115 11.02331116 -13.35546875 6.09765625 C-14.03492452 4.77079451 -14.70887482 3.44083848 -15.35546875 2.09765625 C-17.66546875 2.09765625 -19.97546875 2.09765625 -22.35546875 2.09765625 C-22.35546875 1.76765625 -22.35546875 1.43765625 -22.35546875 1.09765625 C-14.87959068 0.29563611 -7.51606205 -0.03993905 0 0 Z " fill="#E8833D" transform="translate(820.35546875,738.90234375)"/>
<path d="M0 0 C0.03440186 0.89154785 0.06880371 1.7830957 0.10424805 2.70166016 C0.91777062 22.52638532 2.50319142 42.04983109 5.32299805 61.69580078 C5.43293594 62.46829666 5.54287384 63.24079254 5.65614319 64.03669739 C5.86175549 65.46950154 6.07221836 66.90162281 6.2888031 68.33280945 C6.90663501 72.58771214 7.17651803 76.70188821 7 81 C6 82 6 82 3.65234375 82.359375 C1 82 1 82 -0.80859375 80.015625 C-6.88685752 69.69569514 -12.03048021 59.52581512 -15.91015625 48.171875 C-16.74675525 45.73704205 -17.64463153 43.37726654 -18.625 41 C-22.10857005 31.8088858 -23.267931 21.63948305 -25 12 C-21.21179916 9.99338316 -17.41888948 7.9958376 -13.625 6 C-12.54476563 5.42765625 -11.46453125 4.8553125 -10.3515625 4.265625 C-9.3203125 3.72421875 -8.2890625 3.1828125 -7.2265625 2.625 C-6.27346191 2.12226563 -5.32036133 1.61953125 -4.33837891 1.1015625 C-2 0 -2 0 0 0 Z " fill="#E37A36" transform="translate(375,470)"/>
<path d="M0 0 C0.88514747 5.60593398 -1.40281701 8.76569657 -4.39453125 13.2421875 C-8.9865571 21.13019297 -9.39694328 27.52079045 -9.1875 36.5 C-9.17396484 37.60859375 -9.16042969 38.7171875 -9.14648438 39.859375 C-9.11138881 42.57343232 -9.0622227 45.28645193 -9 48 C-18.93318484 49.07500426 -28.77602395 49.11816773 -38.75 49.0625 C-40.33333191 49.05747097 -41.91666537 49.05291057 -43.5 49.04882812 C-47.33337272 49.03794281 -51.16666854 49.02075696 -55 49 C-50.20849609 44.1953125 -50.20849609 44.1953125 -48.33203125 42.4375 C-39.44566694 34.0308623 -32.70965523 24.1545544 -27.04345703 13.38110352 C-25.06532948 9.66127243 -23.03573743 6.89774937 -20 4 C-19.67 3.01 -19.34 2.02 -19 1 C-16.58343806 0.83168225 -14.16676951 0.66528738 -11.75 0.5 C-11.06808594 0.45230469 -10.38617187 0.40460937 -9.68359375 0.35546875 C-6.44268497 0.13521281 -3.2506634 0 0 0 Z " fill="#F7D294" transform="translate(735,756)"/>
<path d="M0 0 C12.54 0 25.08 0 38 0 C38 0.33 38 0.66 38 1 C28.1 1.495 28.1 1.495 18 2 C18.8971875 4.289375 18.8971875 4.289375 19.8125 6.625 C28.72777356 31.59411135 26.00356677 56.19843865 15 80 C14.67 80.33 14.34 80.66 14 81 C15.98 81.33 17.96 81.66 20 82 C20 82.33 20 82.66 20 83 C9.11 83.495 9.11 83.495 -2 84 C-1.34 82.35 -0.68 80.7 0 79 C2.08577175 73.69551642 4.08347082 68.36788886 6 63 C6.34933594 62.0409375 6.69867187 61.081875 7.05859375 60.09375 C12.31344626 42.99662222 10.1831267 22.01385491 2.25 6.125 C1.60804688 4.98417969 1.60804688 4.98417969 0.953125 3.8203125 C0 2 0 2 0 0 Z " fill="#E7823C" transform="translate(869,740)"/>
<path d="M0 0 C1.65543121 2.46495527 2.89133408 4.64759953 4.125 7.3125 C4.47119385 8.03219971 4.8173877 8.75189941 5.17407227 9.4934082 C7.96584534 15.48983625 9.79419989 21.49266554 11 28 C11.17055908 28.76795898 11.34111816 29.53591797 11.5168457 30.32714844 C13.75425533 42.70469296 13.09222529 57.11015139 9 69 C8.68374114 70.35329374 8.37073945 71.70735718 8.0625 73.0625 C6.82297531 76.48942121 6.25835873 77.41259446 3 79 C-1.56947087 80.40534371 -5.34163072 81.48220841 -10 80 C-9.73445312 79.23816406 -9.46890625 78.47632813 -9.1953125 77.69140625 C-8.84210937 76.65886719 -8.48890625 75.62632812 -8.125 74.5625 C-7.77695312 73.55316406 -7.42890625 72.54382813 -7.0703125 71.50390625 C-0.90120647 51.30796423 -1.88903157 29.24552607 -11.1875 10.3125 C-11.69667969 9.35988281 -12.20585938 8.40726563 -12.73046875 7.42578125 C-14 5 -14 5 -15 2 C-15.99 1.67 -16.98 1.34 -18 1 C-15.93939936 0.63494484 -13.87640368 0.28339285 -11.8125 -0.0625 C-10.66394531 -0.25972656 -9.51539063 -0.45695313 -8.33203125 -0.66015625 C-2.80921675 -1.22344448 -2.80921675 -1.22344448 0 0 Z " fill="#E8823C" transform="translate(939,737)"/>
<path d="M0 0 C5.53517879 4.91876115 8.5666091 11.57593253 11.95214844 18.04785156 C12.83801405 19.69822002 13.80522332 21.30453211 14.7890625 22.8984375 C16.64694546 26.42950161 17.6118725 29.01808666 16.39550781 32.95800781 C12.54878337 42.24685285 6.67355821 50.54055946 0 58 C-1.06347656 59.25876953 -1.06347656 59.25876953 -2.1484375 60.54296875 C-8.38592739 67.77626843 -15.45742853 74.55187759 -24 79 C-25.32 79 -26.64 79 -28 79 C-27.46480435 74.79276756 -26.16957522 72.62722061 -23.5 69.375 C-8.57560034 49.52045755 -2.45673694 24.29712831 0 0 Z " fill="#E57E39" transform="translate(960,569)"/>
<path d="M0 0 C0.33 0.66 0.66 1.32 1 2 C1.71542969 2.25136719 2.43085937 2.50273438 3.16796875 2.76171875 C6.92165434 4.40298541 9.47392582 6.94086561 12.3125 9.8125 C12.88282959 10.3885498 13.45315918 10.96459961 14.04077148 11.55810547 C28.53814866 26.66492652 33.54213965 45.21670309 34.00732422 65.69946289 C33.81403126 72.81021318 33.81403126 72.81021318 31.74755859 75.83056641 C28.06174849 79.18824257 23.07042393 82 18 82 C18.01047363 81.31075439 18.02094727 80.62150879 18.03173828 79.91137695 C18.37119753 54.18767081 16.64446116 32.14923521 -1.35546875 12.41796875 C-3.19579478 10.55809943 -5.05741248 8.75203398 -7 7 C-4.66666667 4.66666667 -2.33333333 2.33333333 0 0 Z " fill="#E8813C" transform="translate(974,717)"/>
<path d="M0 0 C18.98716191 9.2815655 18.98716191 9.2815655 26 14 C26.91265625 14.46792969 27.8253125 14.93585937 28.765625 15.41796875 C32.50522665 19.7394315 31.42339777 24.58511632 31.0625 30.0625 C30.99820801 31.2282959 30.93391602 32.3940918 30.86767578 33.59521484 C29.79752885 50.07728749 26.27221402 64.19001359 19 79 C17.68 79 16.36 79 15 79 C14.98018066 78.30664551 14.96036133 77.61329102 14.93994141 76.89892578 C14.17557745 51.35396697 13.0137932 28.01487196 1.35546875 4.84375 C0 2 0 2 0 0 Z " fill="#E8813C" transform="translate(886,506)"/>
<path d="M0 0 C2.828125 0.3828125 2.828125 0.3828125 4.765625 1.4453125 C5.828125 3.3828125 5.828125 3.3828125 5.953125 6.5703125 C4.41617235 11.77887425 1.64050532 14.62255457 -2.171875 18.3828125 C-3.038125 19.28193359 -3.038125 19.28193359 -3.921875 20.19921875 C-15.90676889 31.74501093 -33.36133079 37.0196875 -49.68139648 36.86010742 C-57.47112199 36.5618919 -63.65930567 34.44902975 -70.359375 30.5078125 C-72.171875 28.3828125 -72.171875 28.3828125 -72.609375 25.2578125 C-72.171875 22.3828125 -72.171875 22.3828125 -70.171875 20.3828125 C-66.6337548 20.11064941 -63.90579595 20.10290872 -60.5703125 21.375 C-47.76352863 25.17287384 -33.00554481 22.89779929 -21.359375 16.9453125 C-14.80394356 13.15772989 -10.21296839 8.41427666 -5.55859375 2.54296875 C-3.171875 0.3828125 -3.171875 0.3828125 0 0 Z " fill="#552B19" transform="translate(572.171875,631.6171875)"/>
<path d="M0 0 C2.3515625 0.359375 2.3515625 0.359375 4.1640625 1.484375 C6.04814195 4.4592373 5.99915891 5.86235438 5.3515625 9.359375 C-2.3859524 23.33427437 -16.97367552 29.71634896 -31.56640625 33.91064453 C-42.48167897 36.26316227 -55.46603145 35.64010884 -65.50390625 30.74609375 C-67.5519371 29.42177508 -69.12057677 28.25821788 -70.6484375 26.359375 C-71.04154491 23.21451575 -71.12398963 21.22655829 -69.5859375 18.421875 C-66.45949121 16.70737219 -64.03533131 17.60024363 -60.6484375 18.359375 C-59.96652344 18.69839844 -59.28460938 19.03742187 -58.58203125 19.38671875 C-47.52567879 23.05254001 -31.92487089 21.44200048 -21.6484375 16.359375 C-20.35099609 15.740625 -20.35099609 15.740625 -19.02734375 15.109375 C-12.96744134 11.86266929 -8.98637059 7.71982272 -4.75390625 2.3359375 C-2.6484375 0.359375 -2.6484375 0.359375 0 0 Z " fill="#562C1A" transform="translate(391.6484375,681.640625)"/>
<path d="M0 0 C3.36589743 1.12196581 3.56173853 1.45617923 5.19140625 4.38671875 C5.57876953 5.07830078 5.96613281 5.76988281 6.36523438 6.48242188 C6.95788086 7.57393555 6.95788086 7.57393555 7.5625 8.6875 C7.96146484 9.39583984 8.36042969 10.10417969 8.77148438 10.83398438 C9.89633155 12.86772309 10.95389365 14.92491956 12 17 C12.54527344 18.01707031 13.09054687 19.03414062 13.65234375 20.08203125 C14 23 14 23 13.02124023 24.73339844 C9.60700187 28.9280179 5.49598188 32.28801078 1.125 35.4375 C0.47934082 35.90559082 -0.16631836 36.37368164 -0.83154297 36.85595703 C-9.34560613 42.85659823 -27.68753691 55.33494854 -38.359375 53.62109375 C-38.90078125 53.41613281 -39.4421875 53.21117187 -40 53 C-39.72151628 48.6317839 -38.03530347 46.64080192 -34.84179688 43.74804688 C-34.29587891 43.27431641 -33.74996094 42.80058594 -33.1875 42.3125 C-32.65318359 41.82716797 -32.11886719 41.34183594 -31.56835938 40.84179688 C-29.39155014 38.90060783 -27.38001129 37.1818016 -24.73828125 35.91796875 C-22.42589703 34.69682203 -22.07495557 33.34496356 -21 31 C-19.86772116 29.69843437 -18.69635043 28.43042965 -17.5 27.1875 C-13.83365133 23.14580303 -10.71673034 18.89929848 -7.6875 14.375 C-7.26726563 13.75391357 -6.84703125 13.13282715 -6.4140625 12.49291992 C-3.76523669 8.47124006 -1.77782022 4.47619461 0 0 Z " fill="#E47D38" transform="translate(669,543)"/>
<path d="M0 0 C0.66 0.33 1.32 0.66 2 1 C3.299375 0.95875 4.59875 0.9175 5.9375 0.875 C19.17416338 0.83297885 34.73017432 7.88205007 44.25390625 17.06640625 C52.72180451 26.44360902 52.72180451 26.44360902 55 31 C55.33 26.71 55.66 22.42 56 18 C56.33 18 56.66 18 57 18 C57.49048388 32.67818439 56.1993052 46.13518613 51 60 C48.93661129 56.90491694 48.2265597 54.56358627 47.25 51 C42.08682077 33.91595106 32.2300294 23.55079441 17 15 C12.33203988 12.75458615 8.1908581 11.49980573 3.0625 10.8125 C1.91910156 10.65394531 0.77570312 10.49539063 -0.40234375 10.33203125 C-1.25957031 10.22246094 -2.11679687 10.11289062 -3 10 C-2.01 6.7 -1.02 3.4 0 0 Z " fill="#E7823D" transform="translate(991,689)"/>
<path d="M0 0 C0.33 0 0.66 0 1 0 C1.02483806 4.3050091 1.04292512 8.60997951 1.05493164 12.91503906 C1.05994045 14.37761157 1.06674938 15.84017911 1.07543945 17.30273438 C1.08765698 19.41277291 1.09326295 21.52274487 1.09765625 23.6328125 C1.10289307 24.90012207 1.10812988 26.16743164 1.11352539 27.47314453 C1.00813747 30.747196 0.62450226 33.78889152 0 37 C-0.99 37 -1.98 37 -3 37 C-5.1177356 38.34512759 -5.1177356 38.34512759 -7.375 40.125 C-13.21577012 44.34333398 -19.39173218 47.18742547 -26 50 C-26.69738281 50.33128906 -27.39476562 50.66257812 -28.11328125 51.00390625 C-34.40578786 53.79309012 -41.21194789 53.72352035 -48 54 C-47.8359375 52.19921875 -47.8359375 52.19921875 -47 50 C-44.6640625 48.39453125 -44.6640625 48.39453125 -41.625 46.8125 C-24.53832133 37.29740643 -9.2518545 21.8849207 -1 4 C-0.63062066 2.67619949 -0.2857105 1.34434311 0 0 Z " fill="#E67F3B" transform="translate(986,636)"/>
<path d="M0 0 C10.28920988 5.88661527 17.38599201 22.2565271 20.4375 33.39453125 C20.6328125 36.16796875 20.6328125 36.16796875 20.5625 38.76953125 C20.54445313 39.64351562 20.52640625 40.5175 20.5078125 41.41796875 C20.48460937 42.07023438 20.46140625 42.7225 20.4375 43.39453125 C18.4575 43.88953125 18.4575 43.88953125 16.4375 44.39453125 C16.10878906 43.80027344 15.78007813 43.20601562 15.44140625 42.59375 C7.08451375 28.03146849 -3.57567376 18.37584708 -17.5625 9.39453125 C-18.5525 8.73453125 -19.5425 8.07453125 -20.5625 7.39453125 C-18.891875 6.80671875 -18.891875 6.80671875 -17.1875 6.20703125 C-12.85735634 4.62264476 -8.94592204 2.4880396 -4.95703125 0.1875 C-2.5625 -0.60546875 -2.5625 -0.60546875 0 0 Z " fill="#E47C38" transform="translate(632.5625,736.60546875)"/>
<path d="M0 0 C6.84481573 5.48775661 11.31082725 13.17312285 15 21 C15.41378906 21.85851562 15.82757812 22.71703125 16.25390625 23.6015625 C18.79579333 29.32302261 19.40289855 33.75507247 19 40 C16.73046875 39.83984375 16.73046875 39.83984375 14 39 C12.11328125 36.62890625 12.11328125 36.62890625 10.3125 33.5625 C2.44498045 21.2595027 -10.47293429 9.06303286 -25.04296875 5.19140625 C-25.68878906 5.12824219 -26.33460938 5.06507813 -27 5 C-27 4.67 -27 4.34 -27 4 C-25.83082031 3.79503906 -24.66164063 3.59007812 -23.45703125 3.37890625 C-21.90884878 3.10680145 -20.360672 2.83466433 -18.8125 2.5625 C-18.04357422 2.42779297 -17.27464844 2.29308594 -16.48242188 2.15429688 C-15.73154297 2.02216797 -14.98066406 1.89003906 -14.20703125 1.75390625 C-13.47436035 1.62516113 -12.74168945 1.49641602 -11.98681641 1.36376953 C-10.40579216 1.07429716 -8.8320564 0.74508506 -7.26171875 0.40234375 C-4.66803168 -0.05905481 -2.6250734 -0.35361528 0 0 Z " fill="#E37C38" transform="translate(586,754)"/>
<path d="M0 0 C3.24735134 1.55243579 5.65209465 3.32238256 8.375 5.6875 C15.95075676 11.85825736 24.68074997 16.09126438 34 19 C34 20.65 34 22.3 34 24 C28.44753077 26.34519986 23.35149258 26.2654777 17.4375 26.1875 C16.50486328 26.18685547 15.57222656 26.18621094 14.61132812 26.18554688 C10.25061908 26.15757369 6.27089244 25.95220053 2 25 C1.67 26.32 1.34 27.64 1 29 C-0.09857724 22.8323971 -0.11539104 16.81584877 -0.0625 10.5625 C-0.05798828 9.54478516 -0.05347656 8.52707031 -0.04882812 7.47851562 C-0.03712437 4.98561491 -0.02072848 2.49283926 0 0 Z " fill="#E67F3A" transform="translate(241,672)"/>
<path d="M0 0 C3.08926149 0.48269711 5.5689274 1.24089719 8.46875 2.46875 C13.69999221 4.45980773 18.9551797 4.79092165 24.5 5.1875 C25.51320313 5.26935547 26.52640625 5.35121094 27.5703125 5.43554688 C30.04625549 5.63408947 32.52251095 5.8219864 35 6 C34.29273802 7.48976459 33.55826094 8.96662996 32.8125 10.4375 C32.40644531 11.26121094 32.00039063 12.08492187 31.58203125 12.93359375 C30 15 30 15 27.51928711 15.75927734 C26.27223999 15.87843506 26.27223999 15.87843506 25 16 C23.97003906 16.13664063 22.94007813 16.27328125 21.87890625 16.4140625 C18.40312563 16.63513689 15.42280608 16.67680171 12 16 C9.12183194 13.41405973 7.68098305 10.44283814 6 7 C4.08507734 4.49996208 2.22308166 2.22308166 0 0 Z " fill="#F3AC63" transform="translate(420,774)"/>
<path d="M0 0 C0 2.31 0 4.62 0 7 C-14.32132199 12.52752778 -29.84269133 12.46124867 -45 13 C-36.57079117 7.38052745 -25.63968611 4.73222472 -15.9375 2.125 C-14.7609082 1.80245239 -14.7609082 1.80245239 -13.56054688 1.47338867 C-8.90203894 0.26841319 -4.8102529 -0.21719601 0 0 Z " fill="#E3813C" transform="translate(693,616)"/>
<path d="M0 0 C0.33 0 0.66 0 1 0 C1.33745354 2.39531756 1.6700829 4.79114268 2 7.1875 C2.09539063 7.86103516 2.19078125 8.53457031 2.2890625 9.22851562 C2.78324613 12.84664577 3.11346131 16.34796401 3 20 C2.44538086 20.11593506 1.89076172 20.23187012 1.31933594 20.35131836 C-1.20394445 20.87924434 -3.72697388 21.40836027 -6.25 21.9375 C-7.12269531 22.11990234 -7.99539063 22.30230469 -8.89453125 22.49023438 C-9.73886719 22.66748047 -10.58320312 22.84472656 -11.453125 23.02734375 C-12.61569824 23.27085571 -12.61569824 23.27085571 -13.80175781 23.51928711 C-15.87936437 23.97361933 -17.93984981 24.4726508 -20 25 C-16.78897601 21.14677121 -13.53571004 17.4957942 -9.9375 14 C-5.73938067 9.85817729 -1.89481705 5.68445114 0 0 Z " fill="#DE7635" transform="translate(690,586)"/>
<path d="M0 0 C3.63 0 7.26 0 11 0 C11.22786458 2.734375 11.45572917 5.46875 11.68359375 8.203125 C11.96346926 11.22771622 11.96346926 11.22771622 13 15 C8.38 15 3.76 15 -1 15 C-0.67 10.05 -0.34 5.1 0 0 Z " fill="#EFB56A" transform="translate(435,800)"/>
<path d="M0 0 C3.36591866 1.44253657 5.51047079 3.33264727 8 6 C7.28714844 6.12117187 6.57429688 6.24234375 5.83984375 6.3671875 C0.44765159 7.31063969 -4.77235672 8.37362209 -10 10 C-3.84965831 2.51708428 -3.84965831 2.51708428 0 0 Z " fill="#EEECEC" transform="translate(275,778)"/>
<path d="M0 0 C0.33 0 0.66 0 1 0 C1.9563948 5.8446349 2.15066164 11.15719588 1 17 C0.67 17.33 0.34 17.66 0 18 C-0.15686249 19.55948542 -0.25076639 21.12542668 -0.31640625 22.69140625 C-0.35830078 23.63564453 -0.40019531 24.57988281 -0.44335938 25.55273438 C-0.48267578 26.54595703 -0.52199219 27.53917969 -0.5625 28.5625 C-0.60568359 29.55958984 -0.64886719 30.55667969 -0.69335938 31.58398438 C-0.79980298 34.0558415 -0.90181928 36.5278031 -1 39 C-1.33 39 -1.66 39 -2 39 C-2.23896875 25.82546877 -1.93752108 13.04366873 0 0 Z " fill="#735349" transform="translate(232,646)"/>
<path d="M0 0 C0 3.80422993 -1.45229357 4.89627524 -4.02148438 7.52929688 C-4.57126953 8.07650391 -5.12105469 8.62371094 -5.6875 9.1875 C-6.21794922 9.74630859 -6.74839844 10.30511719 -7.29492188 10.88085938 C-11.30744986 14.91308075 -11.30744986 14.91308075 -14.89453125 15.36328125 C-15.93673828 15.18345703 -15.93673828 15.18345703 -17 15 C-16.67 14.01 -16.34 13.02 -16 12 C-15.24847656 11.91492188 -14.49695313 11.82984375 -13.72265625 11.7421875 C-10.43988675 10.8473149 -9.52005826 9.76322925 -7.4375 7.125 C-5.16326178 4.27826301 -2.9976607 2.08589957 0 0 Z " fill="#E6E1E0" transform="translate(225,777)"/>
<path d="M0 0 C1.32 0.33 2.64 0.66 4 1 C-0.95 5.29 -5.9 9.58 -11 14 C-11.66 13.67 -12.32 13.34 -13 13 C-10.93132437 10.79680067 -8.84718206 8.61327025 -6.75 6.4375 C-5.87021484 5.49487305 -5.87021484 5.49487305 -4.97265625 4.53320312 C-4.39902344 3.94345703 -3.82539063 3.35371094 -3.234375 2.74609375 C-2.71069336 2.19622803 -2.18701172 1.6463623 -1.64746094 1.07983398 C-1.10379883 0.72348877 -0.56013672 0.36714355 0 0 Z " fill="#573125" transform="translate(260,778)"/>
<path d="M0 0 C0 0.99 0 1.98 0 3 C-1.3921875 3.680625 -1.3921875 3.680625 -2.8125 4.375 C-6.03921389 5.9421633 -6.03921389 5.9421633 -9 8 C-9.66 6.68 -10.32 5.36 -11 4 C-9.5437455 3.32880451 -8.08492133 2.66318193 -6.625 2 C-5.81289063 1.62875 -5.00078125 1.2575 -4.1640625 0.875 C-2 0 -2 0 0 0 Z " fill="#E8A258" transform="translate(276,748)"/>
<path d="M0 0 C-1.15173355 2.46800047 -2.04783565 4.04783565 -4 6 C-4 4.35 -4 2.7 -4 1 C-4.76570312 1.24556641 -4.76570312 1.24556641 -5.546875 1.49609375 C-8.81291828 2.16698481 -11.9186747 2.0933456 -15.25 2.0625 C-16.51328125 2.05347656 -17.7765625 2.04445313 -19.078125 2.03515625 C-20.04234375 2.02355469 -21.0065625 2.01195312 -22 2 C-22 1.67 -22 1.34 -22 1 C-14.64479068 0.36338219 -7.38395674 -0.12515181 0 0 Z " fill="#F7BF78" transform="translate(739,755)"/>
<path d="M0 0 C0.66 0.33 1.32 0.66 2 1 C1.54625 1.4125 1.0925 1.825 0.625 2.25 C-1.1128692 3.89397841 -1.1128692 3.89397841 -1.75 6.0625 C-3.73595675 9.14073297 -6.57067428 9.23792762 -10 10 C-3.84965831 2.51708428 -3.84965831 2.51708428 0 0 Z " fill="#E8E3E0" transform="translate(275,778)"/>
<path d="M0 0 C0.66 0.66 1.32 1.32 2 2 C-0.97 4.97 -3.94 7.94 -7 11 C-7.66 10.34 -8.32 9.68 -9 9 C-6.03 6.03 -3.06 3.06 0 0 Z " fill="#5F301E" transform="translate(686,784)"/>
<path d="M0 0 C-2.63202705 2.9244745 -5.60837026 5.02154932 -9 7 C-9.99 6.67 -10.98 6.34 -12 6 C-4.89473684 -1.63157895 -4.89473684 -1.63157895 0 0 Z " fill="#593124" transform="translate(241,756)"/>
<path d="M0 0 C0.66 0.33 1.32 0.66 2 1 C-0.62637999 4.69638666 -2.52740559 6.8818514 -7 8 C-9.15625 7.5390625 -9.15625 7.5390625 -11 7 C-10.28972656 6.57847656 -9.57945312 6.15695312 -8.84765625 5.72265625 C-7.92855469 5.17480469 -7.00945313 4.62695312 -6.0625 4.0625 C-5.14597656 3.51722656 -4.22945312 2.97195313 -3.28515625 2.41015625 C-1.11587323 1.19267827 -1.11587323 1.19267827 0 0 Z " fill="#613421" transform="translate(964,712)"/>
<path d="M0 0 C0.99 0.66 1.98 1.32 3 2 C0.125 8.75 0.125 8.75 -1 11 C-1.66 11 -2.32 11 -3 11 C-2.01 7.37 -1.02 3.74 0 0 Z " fill="#613420" transform="translate(984,678)"/>
<path d="M0 0 C-0.33 0.99 -0.66 1.98 -1 3 C-2.77734375 3.80078125 -2.77734375 3.80078125 -4.9375 4.3125 C-5.64777344 4.49425781 -6.35804688 4.67601562 -7.08984375 4.86328125 C-8.03537109 4.93095703 -8.03537109 4.93095703 -9 5 C-9.66 4.34 -10.32 3.68 -11 3 C-7.16674383 0.29417212 -4.67461851 -0.32613618 0 0 Z " fill="#6A3821" transform="translate(302,754)"/>
<path d="M0 0 C0.33 0.99 0.66 1.98 1 3 C-5 7 -5 7 -7.6875 6.625 C-8.450625 6.41875 -9.21375 6.2125 -10 6 C-6.79663178 3.16625119 -4.21912747 2.4794463 0 2 C0 1.34 0 0.68 0 0 Z M-10 7 C-8 8 -8 8 -8 8 Z " fill="#6D4C3F" transform="translate(236,719)"/>
<path d="M0 0 C5.78591511 -0.10477512 11.29309366 0.00749455 17 1 C17 1.33 17 1.66 17 2 C12.545 2.495 12.545 2.495 8 3 C8 2.34 8 1.68 8 1 C5.36 1.33 2.72 1.66 0 2 C0 1.34 0 0.68 0 0 Z " fill="#684539" transform="translate(279,471)"/>
<path d="M0 0 C-1.125 2 -1.125 2 -3 4 C-6.1875 4.25 -6.1875 4.25 -9 4 C-8.67 3.01 -8.34 2.02 -8 1 C-2.59770115 -1.29885057 -2.59770115 -1.29885057 0 0 Z " fill="#ED9448" transform="translate(289,745)"/>
<path d="M0 0 C0.66 0.33 1.32 0.66 2 1 C-0.78999451 4.48749314 -3.25235831 7.50157221 -7 10 C-7.66 9.67 -8.32 9.34 -9 9 C-6.03 6.03 -3.06 3.06 0 0 Z " fill="#F7DCA3" transform="translate(693,792)"/>
<path d="M0 0 C-0.61875 0.28875 -1.2375 0.5775 -1.875 0.875 C-4.13325765 1.93720042 -4.13325765 1.93720042 -6 4 C-9.625 3.625 -9.625 3.625 -13 3 C-13 2.67 -13 2.34 -13 2 C-8.46298506 0.54815522 -4.81938524 -0.23509196 0 0 Z " fill="#7E492A" transform="translate(292,735)"/>
<path d="M0 0 C0.66 0.33 1.32 0.66 2 1 C1.34 3.31 0.68 5.62 0 8 C0.66 8.33 1.32 8.66 2 9 C1.34 9.66 0.68 10.32 0 11 C-0.38909985 9.54536519 -0.76088029 8.08608793 -1.125 6.625 C-1.33382813 5.81289063 -1.54265625 5.00078125 -1.7578125 4.1640625 C-1.83773438 3.44992187 -1.91765625 2.73578125 -2 2 C-1.34 1.34 -0.68 0.68 0 0 Z " fill="#E3C591" transform="translate(459,707)"/>
<path d="M0 0 C5.45769811 -0.11138159 10.61509359 0.08342019 16 1 C16 1.33 16 1.66 16 2 C12.7 2.33 9.4 2.66 6 3 C6 2.34 6 1.68 6 1 C4.02 1 2.04 1 0 1 C0 0.67 0 0.34 0 0 Z " fill="#D69452" transform="translate(276,481)"/>
<path d="M0 0 C-0.66 0.66 -1.32 1.32 -2 2 C-5.2578125 1.9765625 -5.2578125 1.9765625 -9.125 1.625 C-10.40632812 1.51414062 -11.68765625 1.40328125 -13.0078125 1.2890625 C-13.99523437 1.19367187 -14.98265625 1.09828125 -16 1 C-16 0.67 -16 0.34 -16 0 C-14.08416353 -0.1958009 -12.16727461 -0.38132214 -10.25 -0.5625 C-8.64898438 -0.71912109 -8.64898438 -0.71912109 -7.015625 -0.87890625 C-4.35858796 -0.98560074 -2.50039428 -0.81930395 0 0 Z " fill="#BAB8B7" transform="translate(733,816)"/>
<path d="M0 0 C0 0.66 0 1.32 0 2 C-1.28745036 2.38922918 -2.58019597 2.76098036 -3.875 3.125 C-4.59429688 3.33382812 -5.31359375 3.54265625 -6.0546875 3.7578125 C-6.69664062 3.83773437 -7.33859375 3.91765625 -8 4 C-8.66 3.34 -9.32 2.68 -10 2 C-6.49223216 0.39644899 -3.85645121 -0.22036864 0 0 Z " fill="#E4A65C" transform="translate(776,747)"/>
<path d="M0 0 C-0.8125 3.4375 -0.8125 3.4375 -2 7 C-2.99 7.33 -3.98 7.66 -5 8 C-5.36625971 3.48279689 -5.36625971 3.48279689 -3.625 1.1875 C-2 0 -2 0 0 0 Z " fill="#5E392B" transform="translate(197,740)"/>
<path d="M0 0 C0.33 0.66 0.66 1.32 1 2 C-0.65 3.98 -2.3 5.96 -4 8 C-4.99 7.67 -5.98 7.34 -7 7 C-4.69 4.69 -2.38 2.38 0 0 Z " fill="#E5A25C" transform="translate(807,656)"/>
<path d="M0 0 C3.82524236 1.450954 5.19090966 3.38181932 7 7 C7 7.66 7 8.32 7 9 C6.34 9 5.68 9 5 9 C4.67 7.68 4.34 6.36 4 5 C3.34 5 2.68 5 2 5 C1.34 3.35 0.68 1.7 0 0 Z " fill="#60311C" transform="translate(679,540)"/>
<path d="M0 0 C0.75 1.75 0.75 1.75 1 4 C-0.9375 6.25 -0.9375 6.25 -3 8 C-3.99 7.67 -4.98 7.34 -6 7 C-5.34 7 -4.68 7 -4 7 C-3.71125 6.401875 -3.4225 5.80375 -3.125 5.1875 C-2 3 -2 3 0 0 Z " fill="#683723" transform="translate(305,773)"/>
<path d="M0 0 C0 0.33 0 0.66 0 1 C-1.79008467 1.22151549 -3.58218162 1.42682213 -5.375 1.625 C-6.37273438 1.74101563 -7.37046875 1.85703125 -8.3984375 1.9765625 C-9.25695312 1.98429688 -10.11546875 1.99203125 -11 2 C-11.66 1.34 -12.32 0.68 -13 0 C-8.38926889 -1.29676812 -4.66159911 -0.71109139 0 0 Z " fill="#673A1F" transform="translate(525,761)"/>
<path d="M0 0 C0.66 1.32 1.32 2.64 2 4 C0 6 0 6 -3.125 6.125 C-4.548125 6.063125 -4.548125 6.063125 -6 6 C-5.195625 5.38125 -4.39125 4.7625 -3.5625 4.125 C-0.96125481 2.25835959 -0.96125481 2.25835959 0 0 Z " fill="#5F311E" transform="translate(291,738)"/>
<path d="M0 0 C0.66 0 1.32 0 2 0 C2.28875 1.11375 2.5775 2.2275 2.875 3.375 C3.69241329 7.00291092 3.69241329 7.00291092 6 9 C4.68 9 3.36 9 2 9 C1.34 6.03 0.68 3.06 0 0 Z " fill="#DB9D58" transform="translate(244,709)"/>
<path d="M0 0 C4.29 0.33 8.58 0.66 13 1 C13 1.33 13 1.66 13 2 C6.565 2.495 6.565 2.495 0 3 C0 2.01 0 1.02 0 0 Z " fill="#66321C" transform="translate(740,486)"/>
<path d="M0 0 C0.66 0.33 1.32 0.66 2 1 C0.68 3.64 -0.64 6.28 -2 9 C-2.33 9 -2.66 9 -3 9 C-2.25 2.25 -2.25 2.25 0 0 Z " fill="#BDBAB7" transform="translate(236,803)"/>
<path d="M0 0 C0.99 0.33 1.98 0.66 3 1 C2.1875 3.4375 2.1875 3.4375 1 6 C0.01 6.33 -0.98 6.66 -2 7 C-1.34 4.69 -0.68 2.38 0 0 Z " fill="#E2B678" transform="translate(713,757)"/>
<path d="M0 0 C3.3 0.66 6.6 1.32 10 2 C10 2.33 10 2.66 10 3 C6.37 3 2.74 3 -1 3 C-0.67 2.01 -0.34 1.02 0 0 Z " fill="#E4A45F" transform="translate(521,748)"/>
<path d="M0 0 C0.66 0.33 1.32 0.66 2 1 C-1.32307692 4.93846154 -1.32307692 4.93846154 -4.75 5.25 C-5.4925 5.1675 -6.235 5.085 -7 5 C-4.702779 3.25728062 -2.40133271 1.60088848 0 0 Z " fill="#E0A159" transform="translate(963,725)"/>
<path d="M0 0 C0.66 0 1.32 0 2 0 C1.67 2.97 1.34 5.94 1 9 C0.34 8.67 -0.32 8.34 -1 8 C-0.67 5.36 -0.34 2.72 0 0 Z " fill="#E6A15B" transform="translate(244,637)"/>
<path d="M0 0 C0.99 0.495 0.99 0.495 2 1 C2 1.66 2 2.32 2 3 C3.32 3.33 4.64 3.66 6 4 C6 4.66 6 5.32 6 6 C4.35 5.67 2.7 5.34 1 5 C0.67 3.35 0.34 1.7 0 0 Z " fill="#704126" transform="translate(624,632)"/>
<path d="M0 0 C0.79921875 0.01804687 1.5984375 0.03609375 2.421875 0.0546875 C3.02515625 0.07789063 3.6284375 0.10109375 4.25 0.125 C4.25 0.455 4.25 0.785 4.25 1.125 C1.94 1.125 -0.37 1.125 -2.75 1.125 C-2.75 1.785 -2.75 2.445 -2.75 3.125 C-5.72 2.63 -5.72 2.63 -8.75 2.125 C-5.68753253 0.34090198 -3.52920727 -0.10380021 0 0 Z " fill="#68453A" transform="translate(749.75,476.875)"/>
<path d="M0 0 C0.66 0 1.32 0 2 0 C1.375 1.9375 1.375 1.9375 0 4 C-3.125 4.75 -3.125 4.75 -6 5 C-5.195625 4.360625 -4.39125 3.72125 -3.5625 3.0625 C-1.7249496 1.59396498 -1.7249496 1.59396498 0 0 Z " fill="#ECA75B" transform="translate(759,753)"/>
<path d="M0 0 C0 0.99 0 1.98 0 3 C-2.3125 3.625 -2.3125 3.625 -5 4 C-5.99 3.34 -6.98 2.68 -8 2 C-2.25 0 -2.25 0 0 0 Z " fill="#DA8947" transform="translate(276,748)"/>
<path d="M0 0 C0.66 0.33 1.32 0.66 2 1 C1.01 2.485 1.01 2.485 0 4 C-3.625 4.6875 -3.625 4.6875 -7 5 C-4.702779 3.25728062 -2.40133271 1.60088848 0 0 Z " fill="#DBBD86" transform="translate(496,728)"/>
<path d="M0 0 C2.31 0 4.62 0 7 0 C4.37352812 1.75098126 1.71224618 3.38731308 -1 5 C-0.67 3.35 -0.34 1.7 0 0 Z " fill="#E9A55C" transform="translate(681,689)"/>
<path d="M0 0 C0.66 0.66 1.32 1.32 2 2 C-0.3125 4.0625 -0.3125 4.0625 -3 6 C-3.99 5.67 -4.98 5.34 -6 5 C-4.02 3.35 -2.04 1.7 0 0 Z " fill="#5F392A" transform="translate(525,416)"/>
</svg>
