<?xml version="1.0" encoding="UTF-8"?>
<svg version="1.1" xmlns="http://www.w3.org/2000/svg" width="1254" height="1254">
<path d="M0 0 C413.82 0 827.64 0 1254 0 C1254 413.82 1254 827.64 1254 1254 C840.18 1254 426.36 1254 0 1254 C0 840.18 0 426.36 0 0 Z " fill="#F4F4F4" transform="translate(0,0)"/>
<path d="M0 0 C21.58362832 12.5461206 39.99803346 31.23651412 55.07324219 50.96142578 C55.63914062 51.67169922 56.20503906 52.38197266 56.78808594 53.11376953 C58.07324219 54.96142578 58.07324219 54.96142578 58.07324219 56.96142578 C59.01941406 56.98720703 59.96558594 57.01298828 60.94042969 57.03955078 C101.06230252 58.56707241 141.59814975 78.27788094 171.07324219 104.96142578 C171.71704834 105.83331543 172.36085449 106.70520508 173.02416992 107.60351562 C177.7527969 111.26025991 182.36102224 110.65011084 188.17871094 110.59814453 C189.96853142 110.61371147 189.96853142 110.61371147 191.79450989 110.6295929 C195.6168779 110.65928836 199.43827991 110.65591295 203.26074219 110.64892578 C208.25435099 110.66078556 213.24772365 110.68655789 218.24121094 110.72314453 C220.05202148 110.73584129 220.05202148 110.73584129 221.89941406 110.74879456 C231.40604308 110.85832526 240.6736283 111.56947596 250.07324219 112.96142578 C251.05993896 113.10201416 252.04663574 113.24260254 253.06323242 113.38745117 C269.14719438 115.86951588 286.29368163 120.19921999 296.49902344 133.87158203 C301.58511107 142.94264554 300.0112899 155.25780011 297.47924805 164.91650391 C296.61787527 167.92986604 295.69487639 170.91915888 294.73144531 173.90136719 C294.12817603 175.78949263 293.57469001 177.69333651 293.02636719 179.59814453 C290.96601858 186.73336819 288.28757989 193.2785553 285.07324219 199.96142578 C284.41520255 201.38638195 283.75910988 202.8122381 283.10449219 204.23876953 C262.79365153 248.24101644 262.79365153 248.24101644 250.07324219 260.96142578 C249.56153795 263.80148075 249.56153795 263.80148075 249.32714844 267.15673828 C249.21387207 268.42267822 249.1005957 269.68861816 248.98388672 270.99291992 C248.92734924 271.66195343 248.87081177 272.33098694 248.81256104 273.02029419 C247.4106824 289.4012727 245.67389509 304.72513607 239.07324219 319.96142578 C240.19255127 319.79916504 241.31186035 319.6369043 242.46508789 319.46972656 C247.25437833 318.87406164 251.98270288 318.81724598 256.80371094 318.82861328 C257.71598953 318.82765656 258.62826813 318.82669983 259.56819153 318.82571411 C261.49020456 318.82503698 263.41221994 318.82685851 265.33422852 318.83105469 C268.23491727 318.83637838 271.135449 318.83110976 274.03613281 318.82470703 C287.0661722 318.81840898 299.87216305 318.92826851 312.63574219 321.83642578 C313.45381348 322.01786133 314.27188477 322.19929688 315.11474609 322.38623047 C316.7247647 322.74585115 318.33387187 323.10958461 319.94189453 323.47802734 C321.6959849 323.87586227 323.45619737 324.2466066 325.21777344 324.60986328 C342.76677255 328.47616638 361.24230484 335.96968154 375.44824219 347.08642578 C378.55652857 349.29936289 380.42351221 350.50405481 384.26074219 349.89892578 C402.22851748 343.8032862 415.06867975 332.27009442 423.83105469 315.62158203 C425.34322438 312.4262687 426.75831276 309.24319331 428.07324219 305.96142578 C428.39349365 305.16414063 428.71374512 304.36685547 429.04370117 303.54541016 C431.68083265 296.69046993 433.24348315 289.93287804 434.51074219 282.71142578 C434.93591399 280.41549805 435.36303709 278.11993092 435.79199219 275.82470703 C436.0046875 274.67824707 436.21738281 273.53178711 436.43652344 272.35058594 C441.09157201 247.57244782 446.94417898 222.40421865 464.07324219 202.96142578 C464.73710938 202.15576172 465.40097656 201.35009766 466.08496094 200.52001953 C476.22470482 188.59626326 491.12057181 177.25728646 507.26293945 175.75805664 C509.66156762 175.65793606 512.04764302 175.63933872 514.44824219 175.64892578 C515.24746094 175.6328125 516.04667969 175.61669922 516.87011719 175.60009766 C527.55599604 175.59145212 537.76526967 179.67144639 545.37792969 187.25830078 C551.88422735 194.93239545 554.74547627 202.03925764 554.42089844 212.12939453 C553.05508889 223.25537122 547.14986333 230.66951027 539.76074219 238.58642578 C529.40435447 249.93828416 521.71644154 263.68406215 518.01074219 278.58642578 C517.75671631 279.57715088 517.50269043 280.56787598 517.2409668 281.58862305 C515.4912868 288.64675775 514.22834622 295.71356545 513.13574219 302.89892578 C510.29500337 321.28194243 505.39915051 338.79404594 496.07324219 354.96142578 C495.49703125 355.96173828 494.92082031 356.96205078 494.32714844 357.99267578 C479.15803247 382.93588725 455.23163079 402.1549063 426.77636719 409.55908203 C426.21433594 409.69185547 425.65230469 409.82462891 425.07324219 409.96142578 C425.3271875 410.94240234 425.58113281 411.92337891 425.84277344 412.93408203 C426.19063203 414.29731166 426.5382763 415.660596 426.88574219 417.02392578 C427.13420898 417.98008789 427.13420898 417.98008789 427.38769531 418.95556641 C427.978316 421.28461779 428.5268851 423.62158285 429.07324219 425.96142578 C429.33492187 427.019021 429.59660156 428.07661621 429.86621094 429.16625977 C432.09271021 438.95821801 432.53803526 448.29578379 432.46435547 458.30395508 C432.44828029 460.8927901 432.46429299 463.48005971 432.48339844 466.06884766 C432.494014 475.46138311 431.80215539 484.23064418 429.77734375 493.40991211 C427.65688914 504.10556163 428.56031847 512.37703837 432.57324219 522.39892578 C443.13092399 549.38315688 433.85818546 585.03541477 423.38964844 611.05908203 C417.77778371 623.43182829 410.27395578 632.5851446 397.56933594 638.03564453 C389.08756106 640.97771534 380.78809001 641.17278293 371.88574219 641.21142578 C370.13293945 641.24236328 370.13293945 641.24236328 368.34472656 641.27392578 C356.28040998 641.3277543 344.27327533 639.12857619 335.26074219 630.58642578 C330.65412745 625.96886897 328.7101167 621.2326375 328.60449219 614.79541016 C328.61480469 614.06644531 328.62511719 613.33748047 328.63574219 612.58642578 C328.64476562 611.82910156 328.65378906 611.07177734 328.66308594 610.29150391 C328.96358277 600.63386951 332.92773106 595.73150614 339.26855469 588.64892578 C341.07324219 586.96142578 341.07324219 586.96142578 343.07324219 586.96142578 C342.0879534 577.31441912 341.07716008 570.08315006 333.37011719 563.73486328 C328.4131387 560.04437114 328.4131387 560.04437114 323.07324219 556.96142578 C323.01136719 558.09580078 322.94949219 559.23017578 322.88574219 560.39892578 C321.68188997 571.25079359 317.84214183 582.19455272 313.07324219 591.96142578 C312.36167969 593.66298828 312.36167969 593.66298828 311.63574219 595.39892578 C305.25302881 609.95151229 297.94108207 620.12499325 283.69824219 627.77392578 C268.04073202 632.90311015 248.3849511 633.49469127 233.07324219 626.96142578 C225.95904071 623.35758941 220.65805206 618.71585541 218.07324219 610.96142578 C217.2588709 602.45691553 217.14409379 595.32546606 222.22558594 588.11767578 C226.57705793 583.03942517 230.73031105 579.24795902 237.07324219 576.96142578 C237.95383771 565.49238012 237.95383771 565.49238012 233.16699219 555.37939453 C232.07324219 553.96142578 232.07324219 553.96142578 232.07324219 551.96142578 C231.02007813 552.16638672 229.96691406 552.37134766 228.88183594 552.58251953 C227.42488966 552.85510948 225.96785327 553.12721816 224.51074219 553.39892578 C223.82560547 553.53363281 223.14046875 553.66833984 222.43457031 553.80712891 C209.63157896 556.16104211 196.6045388 556.10533597 183.63574219 556.02392578 C182.21061359 556.01888999 180.78548323 556.01433084 179.36035156 556.01025391 C175.93127726 555.9994376 172.50227187 555.98229339 169.07324219 555.96142578 C169.03658447 556.71351318 168.99992676 557.46560059 168.9621582 558.24047852 C168.40270808 567.35280757 166.9153565 576.1191772 165.01074219 585.02392578 C164.78223068 586.10285599 164.78223068 586.10285599 164.54910278 587.20358276 C162.62029851 596.20321352 160.44081525 604.95666573 157.01074219 613.52392578 C156.7070874 614.28261963 156.40343262 615.04131348 156.09057617 615.82299805 C150.33740789 629.11177184 140.35704764 638.49061787 127.07324219 643.96142578 C117.60738149 647.32239712 109.02153292 648.16811246 99.01074219 648.21142578 C97.26374023 648.24236328 97.26374023 648.24236328 95.48144531 648.27392578 C83.37663824 648.32787478 72.03278875 646.19619073 62.07324219 638.96142578 C55.57383967 632.43864412 52.80876694 626.08077241 52.57324219 616.83642578 C52.69545305 609.05312147 54.53372454 603.29585732 59.07324219 596.96142578 C60.50519322 595.72194129 61.96345564 594.51210196 63.44824219 593.33642578 C66.74487395 590.23519666 67.58237373 587.83340836 67.77490234 583.30419922 C67.69852727 571.34228261 65.90885641 559.35629835 64.34863281 547.51660156 C64.07324219 544.96142578 64.07324219 544.96142578 64.07324219 540.96142578 C63.45449219 540.81705078 62.83574219 540.67267578 62.19824219 540.52392578 C60.07324219 539.96142578 60.07324219 539.96142578 58.07324219 538.96142578 C57.99074219 540.26080078 57.90824219 541.56017578 57.82324219 542.89892578 C55.28993221 566.9653706 47.23683297 601.94738681 30.07324219 619.96142578 C29.54214844 620.52087891 29.01105469 621.08033203 28.46386719 621.65673828 C18.02085377 631.55273671 4.36238429 633.3503214 -9.37817383 633.38696289 C-11.46135444 633.39876766 -13.54147341 633.44796986 -15.62402344 633.49853516 C-27.68045131 633.64521332 -38.92294418 631.54259365 -48.61425781 623.83642578 C-54.1839668 618.2667168 -56.94212193 611.70066087 -57.36425781 603.83642578 C-56.16284006 593.19529713 -51.57725644 584.61122131 -43.17675781 577.89892578 C-39.26009115 574.96142578 -39.26009115 574.96142578 -36.92675781 574.96142578 C-35.01929054 554.77775675 -34.64172411 534.78653957 -34.73114014 514.5324707 C-34.7420491 511.41332725 -34.74160539 508.29422715 -34.74100208 505.1750679 C-34.74127655 502.11202814 -34.74679874 499.04901544 -34.75400352 495.9859848 C-34.75712655 494.55260164 -34.75914217 493.11921552 -34.75989723 491.68582916 C-34.76796168 484.4018979 -34.87797994 477.12250589 -35.23803711 469.84716797 C-35.29235397 468.66741394 -35.34667084 467.48765991 -35.40263367 466.27215576 C-36.16564679 461.45243807 -38.39617833 458.06199249 -41.02832031 454.02783203 C-44.14642142 448.99139299 -46.17883954 443.54750697 -48.18847656 437.99951172 C-48.6782487 436.64745558 -49.17817703 435.29903283 -49.68847656 433.95458984 C-53.66943288 423.36059821 -55.95202714 412.55186941 -57.73925781 401.39892578 C-57.84947266 400.71573273 -57.9596875 400.03253967 -58.07324219 399.3286438 C-59.41959016 390.77578188 -60.07286112 382.53349419 -60.01074219 373.85595703 C-59.5843594 364.30933258 -59.5843594 364.30933258 -63.22363281 355.89501953 C-66.36379488 353.81649257 -69.45982691 352.41865771 -72.92675781 350.96142578 C-74.94903131 349.58522927 -76.92924666 348.14533441 -78.86425781 346.64892578 C-79.85683594 345.89224609 -80.84941406 345.13556641 -81.87207031 344.35595703 C-114.26388065 318.96442284 -142.80632485 284.94306226 -148.92675781 242.96142578 C-149.12052555 239.60553352 -149.13983829 236.31547031 -148.92675781 232.96142578 C-166.54590698 233.00211666 -184.25829484 235.760348 -199.58691406 244.95751953 C-202.47852468 246.19816048 -203.97039227 245.90930728 -206.92675781 244.96142578 C-207.92675781 243.96142578 -207.92675781 243.96142578 -208.25097656 241.58642578 C-207.92675781 238.96142578 -207.92675781 238.96142578 -206.19628906 237.33642578 C-191.20109773 228.94484017 -175.2345676 223.70834192 -157.98925781 223.89892578 C-155.32863281 223.91955078 -152.66800781 223.94017578 -149.92675781 223.96142578 C-149.92675781 218.02142578 -149.92675781 212.08142578 -149.92675781 205.96142578 C-164.83157 202.40206765 -178.50397982 201.59885276 -193.72314453 201.93408203 C-194.44918381 201.94738556 -195.17522308 201.96068909 -195.92326355 201.97439575 C-197.9197047 202.01388748 -199.91581953 202.06897858 -201.91186523 202.125 C-204.92675781 201.96142578 -204.92675781 201.96142578 -206.92675781 199.96142578 C-207.17675781 197.46142578 -207.17675781 197.46142578 -206.92675781 194.96142578 C-201.79502057 189.82968854 -191.62192361 191.67529317 -184.73925781 191.64892578 C-183.66353012 191.64350266 -183.66353012 191.64350266 -182.56607056 191.63796997 C-170.0884161 191.61263197 -158.79181692 193.00640608 -146.92675781 196.96142578 C-146.745 195.78386719 -146.745 195.78386719 -146.55957031 194.58251953 C-145.65489698 188.91091365 -144.66882791 183.43650324 -142.92675781 177.96142578 C-143.58804688 177.72166016 -144.24933594 177.48189453 -144.93066406 177.23486328 C-147.99023023 175.93444793 -150.80198621 174.40714116 -153.69995117 172.7878418 C-164.47895745 166.8043686 -174.95621678 163.48156916 -187.13378906 161.35595703 C-188.92675781 160.96142578 -188.92675781 160.96142578 -189.92675781 159.96142578 C-190.05175781 156.96142578 -190.05175781 156.96142578 -189.92675781 153.96142578 C-188.92675781 152.96142578 -188.92675781 152.96142578 -185.61425781 152.71142578 C-171.03364039 152.96948981 -155.47646138 159.92416272 -143.28222656 167.54345703 C-140.90992504 169.08834637 -140.90992504 169.08834637 -137.92675781 169.96142578 C-137.84039062 169.28724609 -137.75402344 168.61306641 -137.66503906 167.91845703 C-136.72440869 164.15095864 -135.01839547 160.9982593 -133.11425781 157.64892578 C-132.52028198 156.60321411 -132.52028198 156.60321411 -131.91430664 155.53637695 C-121.86487064 138.29744643 -108.49185241 123.81198419 -93.73925781 110.52001953 C-92.81113281 109.67568359 -91.88300781 108.83134766 -90.92675781 107.96142578 C-90.24919434 107.38851807 -89.57163086 106.81561035 -88.87353516 106.2253418 C-86.37594716 103.32088563 -85.83913146 100.90007368 -84.96582031 97.18017578 C-84.63359121 95.8281003 -84.29921466 94.47655099 -83.96289062 93.12548828 C-83.79374146 92.43422852 -83.62459229 91.74296875 -83.45031738 91.03076172 C-75.70149279 60.40402485 -62.93028092 13.62067017 -34.77441406 -4.41748047 C-22.93882664 -10.38727588 -10.97910583 -5.91803297 0 0 Z " fill="#F7AD61" transform="translate(448.9267578125,288.03857421875)"/>
<path d="M0 0 C21.58362832 12.5461206 39.99803346 31.23651412 55.07324219 50.96142578 C55.63914062 51.67169922 56.20503906 52.38197266 56.78808594 53.11376953 C58.07324219 54.96142578 58.07324219 54.96142578 58.07324219 56.96142578 C59.01941406 56.98720703 59.96558594 57.01298828 60.94042969 57.03955078 C101.06230252 58.56707241 141.59814975 78.27788094 171.07324219 104.96142578 C171.71704834 105.83331543 172.36085449 106.70520508 173.02416992 107.60351562 C177.7527969 111.26025991 182.36102224 110.65011084 188.17871094 110.59814453 C189.96853142 110.61371147 189.96853142 110.61371147 191.79450989 110.6295929 C195.6168779 110.65928836 199.43827991 110.65591295 203.26074219 110.64892578 C208.25435099 110.66078556 213.24772365 110.68655789 218.24121094 110.72314453 C220.05202148 110.73584129 220.05202148 110.73584129 221.89941406 110.74879456 C231.40604308 110.85832526 240.6736283 111.56947596 250.07324219 112.96142578 C251.05993896 113.10201416 252.04663574 113.24260254 253.06323242 113.38745117 C269.14719438 115.86951588 286.29368163 120.19921999 296.49902344 133.87158203 C301.58511107 142.94264554 300.0112899 155.25780011 297.47924805 164.91650391 C296.61787527 167.92986604 295.69487639 170.91915888 294.73144531 173.90136719 C294.12817603 175.78949263 293.57469001 177.69333651 293.02636719 179.59814453 C290.96601858 186.73336819 288.28757989 193.2785553 285.07324219 199.96142578 C284.41520255 201.38638195 283.75910988 202.8122381 283.10449219 204.23876953 C262.79365153 248.24101644 262.79365153 248.24101644 250.07324219 260.96142578 C249.56153795 263.80148075 249.56153795 263.80148075 249.32714844 267.15673828 C249.21387207 268.42267822 249.1005957 269.68861816 248.98388672 270.99291992 C248.92734924 271.66195343 248.87081177 272.33098694 248.81256104 273.02029419 C247.4106824 289.4012727 245.67389509 304.72513607 239.07324219 319.96142578 C240.19255127 319.79916504 241.31186035 319.6369043 242.46508789 319.46972656 C247.25437833 318.87406164 251.98270288 318.81724598 256.80371094 318.82861328 C257.71598953 318.82765656 258.62826813 318.82669983 259.56819153 318.82571411 C261.49020456 318.82503698 263.41221994 318.82685851 265.33422852 318.83105469 C268.23491727 318.83637838 271.135449 318.83110976 274.03613281 318.82470703 C287.0661722 318.81840898 299.87216305 318.92826851 312.63574219 321.83642578 C313.45381348 322.01786133 314.27188477 322.19929688 315.11474609 322.38623047 C316.7247647 322.74585115 318.33387187 323.10958461 319.94189453 323.47802734 C321.6959849 323.87586227 323.45619737 324.2466066 325.21777344 324.60986328 C342.76677255 328.47616638 361.24230484 335.96968154 375.44824219 347.08642578 C378.55652857 349.29936289 380.42351221 350.50405481 384.26074219 349.89892578 C402.22851748 343.8032862 415.06867975 332.27009442 423.83105469 315.62158203 C425.34322438 312.4262687 426.75831276 309.24319331 428.07324219 305.96142578 C428.39349365 305.16414063 428.71374512 304.36685547 429.04370117 303.54541016 C431.68083265 296.69046993 433.24348315 289.93287804 434.51074219 282.71142578 C434.93591399 280.41549805 435.36303709 278.11993092 435.79199219 275.82470703 C436.0046875 274.67824707 436.21738281 273.53178711 436.43652344 272.35058594 C441.09157201 247.57244782 446.94417898 222.40421865 464.07324219 202.96142578 C464.73710938 202.15576172 465.40097656 201.35009766 466.08496094 200.52001953 C476.22470482 188.59626326 491.12057181 177.25728646 507.26293945 175.75805664 C509.66156762 175.65793606 512.04764302 175.63933872 514.44824219 175.64892578 C515.24746094 175.6328125 516.04667969 175.61669922 516.87011719 175.60009766 C527.55599604 175.59145212 537.76526967 179.67144639 545.37792969 187.25830078 C551.88422735 194.93239545 554.74547627 202.03925764 554.42089844 212.12939453 C553.05508889 223.25537122 547.14986333 230.66951027 539.76074219 238.58642578 C529.40435447 249.93828416 521.71644154 263.68406215 518.01074219 278.58642578 C517.75671631 279.57715088 517.50269043 280.56787598 517.2409668 281.58862305 C515.4912868 288.64675775 514.22834622 295.71356545 513.13574219 302.89892578 C510.29500337 321.28194243 505.39915051 338.79404594 496.07324219 354.96142578 C495.49703125 355.96173828 494.92082031 356.96205078 494.32714844 357.99267578 C479.15803247 382.93588725 455.23163079 402.1549063 426.77636719 409.55908203 C426.21433594 409.69185547 425.65230469 409.82462891 425.07324219 409.96142578 C425.3271875 410.94240234 425.58113281 411.92337891 425.84277344 412.93408203 C426.19063203 414.29731166 426.5382763 415.660596 426.88574219 417.02392578 C427.13420898 417.98008789 427.13420898 417.98008789 427.38769531 418.95556641 C427.978316 421.28461779 428.5268851 423.62158285 429.07324219 425.96142578 C429.33492187 427.019021 429.59660156 428.07661621 429.86621094 429.16625977 C432.09271021 438.95821801 432.53803526 448.29578379 432.46435547 458.30395508 C432.44828029 460.8927901 432.46429299 463.48005971 432.48339844 466.06884766 C432.494014 475.46138311 431.80215539 484.23064418 429.77734375 493.40991211 C427.65688914 504.10556163 428.56031847 512.37703837 432.57324219 522.39892578 C443.13092399 549.38315688 433.85818546 585.03541477 423.38964844 611.05908203 C417.77778371 623.43182829 410.27395578 632.5851446 397.56933594 638.03564453 C389.08756106 640.97771534 380.78809001 641.17278293 371.88574219 641.21142578 C370.13293945 641.24236328 370.13293945 641.24236328 368.34472656 641.27392578 C356.28040998 641.3277543 344.27327533 639.12857619 335.26074219 630.58642578 C330.65412745 625.96886897 328.7101167 621.2326375 328.60449219 614.79541016 C328.61480469 614.06644531 328.62511719 613.33748047 328.63574219 612.58642578 C328.64476562 611.82910156 328.65378906 611.07177734 328.66308594 610.29150391 C328.96358277 600.63386951 332.92773106 595.73150614 339.26855469 588.64892578 C341.07324219 586.96142578 341.07324219 586.96142578 343.07324219 586.96142578 C342.0879534 577.31441912 341.07716008 570.08315006 333.37011719 563.73486328 C328.4131387 560.04437114 328.4131387 560.04437114 323.07324219 556.96142578 C323.01136719 558.09580078 322.94949219 559.23017578 322.88574219 560.39892578 C321.68188997 571.25079359 317.84214183 582.19455272 313.07324219 591.96142578 C312.36167969 593.66298828 312.36167969 593.66298828 311.63574219 595.39892578 C305.25302881 609.95151229 297.94108207 620.12499325 283.69824219 627.77392578 C268.04073202 632.90311015 248.3849511 633.49469127 233.07324219 626.96142578 C225.95904071 623.35758941 220.65805206 618.71585541 218.07324219 610.96142578 C217.2588709 602.45691553 217.14409379 595.32546606 222.22558594 588.11767578 C226.57705793 583.03942517 230.73031105 579.24795902 237.07324219 576.96142578 C237.95383771 565.49238012 237.95383771 565.49238012 233.16699219 555.37939453 C232.07324219 553.96142578 232.07324219 553.96142578 232.07324219 551.96142578 C231.02007813 552.16638672 229.96691406 552.37134766 228.88183594 552.58251953 C227.42488966 552.85510948 225.96785327 553.12721816 224.51074219 553.39892578 C223.82560547 553.53363281 223.14046875 553.66833984 222.43457031 553.80712891 C209.63157896 556.16104211 196.6045388 556.10533597 183.63574219 556.02392578 C182.21061359 556.01888999 180.78548323 556.01433084 179.36035156 556.01025391 C175.93127726 555.9994376 172.50227187 555.98229339 169.07324219 555.96142578 C169.03658447 556.71351318 168.99992676 557.46560059 168.9621582 558.24047852 C168.40270808 567.35280757 166.9153565 576.1191772 165.01074219 585.02392578 C164.78223068 586.10285599 164.78223068 586.10285599 164.54910278 587.20358276 C162.62029851 596.20321352 160.44081525 604.95666573 157.01074219 613.52392578 C156.7070874 614.28261963 156.40343262 615.04131348 156.09057617 615.82299805 C150.33740789 629.11177184 140.35704764 638.49061787 127.07324219 643.96142578 C117.60738149 647.32239712 109.02153292 648.16811246 99.01074219 648.21142578 C97.26374023 648.24236328 97.26374023 648.24236328 95.48144531 648.27392578 C83.37663824 648.32787478 72.03278875 646.19619073 62.07324219 638.96142578 C55.57383967 632.43864412 52.80876694 626.08077241 52.57324219 616.83642578 C52.69545305 609.05312147 54.53372454 603.29585732 59.07324219 596.96142578 C60.50519322 595.72194129 61.96345564 594.51210196 63.44824219 593.33642578 C66.74487395 590.23519666 67.58237373 587.83340836 67.77490234 583.30419922 C67.69852727 571.34228261 65.90885641 559.35629835 64.34863281 547.51660156 C64.07324219 544.96142578 64.07324219 544.96142578 64.07324219 540.96142578 C63.45449219 540.81705078 62.83574219 540.67267578 62.19824219 540.52392578 C60.07324219 539.96142578 60.07324219 539.96142578 58.07324219 538.96142578 C57.99074219 540.26080078 57.90824219 541.56017578 57.82324219 542.89892578 C55.28993221 566.9653706 47.23683297 601.94738681 30.07324219 619.96142578 C29.54214844 620.52087891 29.01105469 621.08033203 28.46386719 621.65673828 C18.02085377 631.55273671 4.36238429 633.3503214 -9.37817383 633.38696289 C-11.46135444 633.39876766 -13.54147341 633.44796986 -15.62402344 633.49853516 C-27.68045131 633.64521332 -38.92294418 631.54259365 -48.61425781 623.83642578 C-54.1839668 618.2667168 -56.94212193 611.70066087 -57.36425781 603.83642578 C-56.16284006 593.19529713 -51.57725644 584.61122131 -43.17675781 577.89892578 C-39.26009115 574.96142578 -39.26009115 574.96142578 -36.92675781 574.96142578 C-35.01929054 554.77775675 -34.64172411 534.78653957 -34.73114014 514.5324707 C-34.7420491 511.41332725 -34.74160539 508.29422715 -34.74100208 505.1750679 C-34.74127655 502.11202814 -34.74679874 499.04901544 -34.75400352 495.9859848 C-34.75712655 494.55260164 -34.75914217 493.11921552 -34.75989723 491.68582916 C-34.76796168 484.4018979 -34.87797994 477.12250589 -35.23803711 469.84716797 C-35.29235397 468.66741394 -35.34667084 467.48765991 -35.40263367 466.27215576 C-36.16564679 461.45243807 -38.39617833 458.06199249 -41.02832031 454.02783203 C-44.14642142 448.99139299 -46.17883954 443.54750697 -48.18847656 437.99951172 C-48.6782487 436.64745558 -49.17817703 435.29903283 -49.68847656 433.95458984 C-53.66943288 423.36059821 -55.95202714 412.55186941 -57.73925781 401.39892578 C-57.84947266 400.71573273 -57.9596875 400.03253967 -58.07324219 399.3286438 C-59.41959016 390.77578188 -60.07286112 382.53349419 -60.01074219 373.85595703 C-59.5843594 364.30933258 -59.5843594 364.30933258 -63.22363281 355.89501953 C-66.36379488 353.81649257 -69.45982691 352.41865771 -72.92675781 350.96142578 C-74.94903131 349.58522927 -76.92924666 348.14533441 -78.86425781 346.64892578 C-79.85683594 345.89224609 -80.84941406 345.13556641 -81.87207031 344.35595703 C-114.26388065 318.96442284 -142.80632485 284.94306226 -148.92675781 242.96142578 C-149.12052555 239.60553352 -149.13983829 236.31547031 -148.92675781 232.96142578 C-166.54590698 233.00211666 -184.25829484 235.760348 -199.58691406 244.95751953 C-202.47852468 246.19816048 -203.97039227 245.90930728 -206.92675781 244.96142578 C-207.92675781 243.96142578 -207.92675781 243.96142578 -208.25097656 241.58642578 C-207.92675781 238.96142578 -207.92675781 238.96142578 -206.19628906 237.33642578 C-191.20109773 228.94484017 -175.2345676 223.70834192 -157.98925781 223.89892578 C-155.32863281 223.91955078 -152.66800781 223.94017578 -149.92675781 223.96142578 C-149.92675781 218.02142578 -149.92675781 212.08142578 -149.92675781 205.96142578 C-164.83157 202.40206765 -178.50397982 201.59885276 -193.72314453 201.93408203 C-194.44918381 201.94738556 -195.17522308 201.96068909 -195.92326355 201.97439575 C-197.9197047 202.01388748 -199.91581953 202.06897858 -201.91186523 202.125 C-204.92675781 201.96142578 -204.92675781 201.96142578 -206.92675781 199.96142578 C-207.17675781 197.46142578 -207.17675781 197.46142578 -206.92675781 194.96142578 C-201.79502057 189.82968854 -191.62192361 191.67529317 -184.73925781 191.64892578 C-183.66353012 191.64350266 -183.66353012 191.64350266 -182.56607056 191.63796997 C-170.0884161 191.61263197 -158.79181692 193.00640608 -146.92675781 196.96142578 C-146.745 195.78386719 -146.745 195.78386719 -146.55957031 194.58251953 C-145.65489698 188.91091365 -144.66882791 183.43650324 -142.92675781 177.96142578 C-143.58804688 177.72166016 -144.24933594 177.48189453 -144.93066406 177.23486328 C-147.99023023 175.93444793 -150.80198621 174.40714116 -153.69995117 172.7878418 C-164.47895745 166.8043686 -174.95621678 163.48156916 -187.13378906 161.35595703 C-188.92675781 160.96142578 -188.92675781 160.96142578 -189.92675781 159.96142578 C-190.05175781 156.96142578 -190.05175781 156.96142578 -189.92675781 153.96142578 C-188.92675781 152.96142578 -188.92675781 152.96142578 -185.61425781 152.71142578 C-171.03364039 152.96948981 -155.47646138 159.92416272 -143.28222656 167.54345703 C-140.90992504 169.08834637 -140.90992504 169.08834637 -137.92675781 169.96142578 C-137.84039062 169.28724609 -137.75402344 168.61306641 -137.66503906 167.91845703 C-136.72440869 164.15095864 -135.01839547 160.9982593 -133.11425781 157.64892578 C-132.52028198 156.60321411 -132.52028198 156.60321411 -131.91430664 155.53637695 C-121.86487064 138.29744643 -108.49185241 123.81198419 -93.73925781 110.52001953 C-92.81113281 109.67568359 -91.88300781 108.83134766 -90.92675781 107.96142578 C-90.24919434 107.38851807 -89.57163086 106.81561035 -88.87353516 106.2253418 C-86.37594716 103.32088563 -85.83913146 100.90007368 -84.96582031 97.18017578 C-84.63359121 95.8281003 -84.29921466 94.47655099 -83.96289062 93.12548828 C-83.79374146 92.43422852 -83.62459229 91.74296875 -83.45031738 91.03076172 C-75.70149279 60.40402485 -62.93028092 13.62067017 -34.77441406 -4.41748047 C-22.93882664 -10.38727588 -10.97910583 -5.91803297 0 0 Z M-103.92675781 132.96142578 C-113.18425062 143.42494059 -120.92222479 154.93218224 -127.55175781 167.21142578 C-127.894729 167.84338867 -128.2377002 168.47535156 -128.59106445 169.12646484 C-130.07118141 171.95021494 -130.92675781 173.72472833 -130.92675781 176.96142578 C-129.39995955 178.63047225 -129.39995955 178.63047225 -127.36425781 180.21142578 C-116.11182549 189.71882849 -116.11182549 189.71882849 -115.48925781 193.89892578 C-115.63363281 194.57955078 -115.77800781 195.26017578 -115.92675781 195.96142578 C-120.6063617 195.49262825 -122.67361646 193.70019755 -125.98925781 190.46142578 C-129.85591592 186.56822902 -129.85591592 186.56822902 -134.92675781 184.96142578 C-135.42175781 186.11642578 -135.91675781 187.27142578 -136.42675781 188.46142578 C-136.84441406 189.43595703 -136.84441406 189.43595703 -137.27050781 190.43017578 C-138.26137402 193.81626563 -138.26137402 193.81626563 -137.92675781 200.96142578 C-132.97675781 203.60142578 -128.02675781 206.24142578 -122.92675781 208.96142578 C-123.25675781 210.61142578 -123.58675781 212.26142578 -123.92675781 213.96142578 C-127.48348635 213.5276784 -130.23904064 212.82682112 -133.55175781 211.39892578 C-136.92871002 209.7001844 -136.92871002 209.7001844 -140.92675781 209.96142578 C-140.92675781 214.91142578 -140.92675781 219.86142578 -140.92675781 224.96142578 C-136.63675781 225.62142578 -132.34675781 226.28142578 -127.92675781 226.96142578 C-127.43175781 229.43642578 -127.43175781 229.43642578 -126.92675781 231.96142578 C-127.92675781 232.96142578 -127.92675781 232.96142578 -130.64941406 233.05908203 C-132.30263672 233.04167969 -132.30263672 233.04167969 -133.98925781 233.02392578 C-135.09398437 233.01490234 -136.19871094 233.00587891 -137.33691406 232.99658203 C-138.61888672 232.97917969 -138.61888672 232.97917969 -139.92675781 232.96142578 C-140.30357408 240.49775103 -139.01635016 246.73922259 -136.92675781 253.96142578 C-136.73871582 254.66090332 -136.55067383 255.36038086 -136.35693359 256.08105469 C-129.79141939 280.41576484 -115.26147646 300.01036158 -97.92675781 317.96142578 C-96.72986328 319.23566406 -96.72986328 319.23566406 -95.50878906 320.53564453 C-84.03631884 332.45728161 -70.07527574 342.72603132 -56.00488281 351.41064453 C-55.04388672 352.0069165 -55.04388672 352.0069165 -54.06347656 352.61523438 C-52.83960204 353.36685297 -51.60813024 354.10629044 -50.36816406 354.83105469 C-46.71347222 357.06625229 -45.05932488 358.80141982 -43.92675781 362.96142578 C-46.23675781 363.29142578 -48.54675781 363.62142578 -50.92675781 363.96142578 C-52.188994 407.06445395 -39.89478735 450.76037336 -9.98925781 482.74267578 C-8.15230032 484.71879671 -6.44864617 486.75097199 -4.73925781 488.83642578 C12.11290153 508.05176149 37.74922701 523.67227554 62.07324219 530.96142578 C61.45402419 522.84844788 60.36347731 514.86767195 59.07324219 506.83642578 C57.91141897 499.55398314 56.8178974 492.29938239 56.07324219 484.96142578 C57.72324219 484.96142578 59.37324219 484.96142578 61.07324219 484.96142578 C64.70311074 493.60396995 66.88373391 502.78754631 67.51074219 512.14892578 C67.87072414 517.25616971 68.90364542 522.10101201 70.01074219 527.08642578 C72.79832234 539.78943352 74.15160536 552.44642005 74.73217773 565.43066406 C74.88852417 568.75453307 75.26379932 571.74837012 76.07324219 574.96142578 C77.66363814 589.53005286 77.66363814 589.53005286 74.24121094 594.76220703 C72.67395111 596.22550269 71.06193183 597.64230374 69.40917969 599.00830078 C64.77402544 602.88384781 62.48662003 607.18393666 61.60058594 613.13720703 C61.27586643 620.35597143 62.17607972 625.52013415 67.07324219 630.96142578 C69.6922184 633.46549302 69.6922184 633.46549302 73.07324219 633.96142578 C73.02683594 632.80384766 72.98042969 631.64626953 72.93261719 630.45361328 C72.89507971 628.91457672 72.85868167 627.37551208 72.82324219 625.83642578 C72.77296875 624.69560547 72.77296875 624.69560547 72.72167969 623.53173828 C72.62677421 618.02722056 73.59580547 615.24661355 77.07324219 610.96142578 C78.39324219 611.29142578 79.71324219 611.62142578 81.07324219 611.96142578 C80.61303591 614.10905506 80.12367872 615.87005807 79.05761719 617.80126953 C77.03756442 622.2341631 77.28315816 627.50588054 78.76074219 632.09814453 C80.23427031 635.02678167 81.73608175 636.76755853 84.57324219 638.39892578 C89.74272189 639.22973502 94.85015086 639.11355465 100.07324219 638.96142578 C99.74324219 638.15705078 99.41324219 637.35267578 99.07324219 636.52392578 C96.95379065 628.97337966 97.84824816 623.031605 101.07324219 615.96142578 C103.43277313 613.60189484 104.85219836 613.47001165 108.07324219 612.96142578 C106.27435951 618.61505707 106.27435951 618.61505707 104.94824219 620.89892578 C103.61437711 624.04303633 103.78191697 626.58205329 104.07324219 629.96142578 C105.43139472 633.2333387 106.57219725 635.46038084 109.07324219 637.96142578 C120.0163586 638.52261124 129.74882524 633.74370121 138.07324219 626.96142578 C153.81085146 610.72420987 156.60874655 582.13455217 160.07324219 560.96142578 C160.18236938 560.30428589 160.29149658 559.647146 160.40393066 558.97009277 C163.36679508 541.12768265 165.63057134 523.4167412 166.52905273 505.34326172 C166.62053589 503.51263184 166.62053589 503.51263184 166.71386719 501.64501953 C166.7605957 500.56792725 166.80732422 499.49083496 166.85546875 498.38110352 C167.07324219 495.96142578 167.07324219 495.96142578 168.07324219 494.96142578 C169.73941334 494.92078746 171.40712314 494.91870478 173.07324219 494.96142578 C173.40835176 512.39485695 172.46152367 529.59129223 171.07324219 546.96142578 C202.60945922 547.60211642 234.74908502 544.51885208 265.08447266 535.54345703 C267.0545181 534.96690555 269.03129343 534.42768793 271.01464844 533.89892578 C276.98591143 532.27788302 282.6390019 530.51199837 288.20605469 527.79345703 C290.14020057 526.93158868 292.00876276 526.41561125 294.07324219 525.96142578 C293.4594395 521.58296662 291.82639436 518.28695204 289.76074219 514.39892578 C285.5775228 506.29226095 281.73146139 498.25786342 282.07324219 488.96142578 C283.72324219 488.63142578 285.37324219 488.30142578 287.07324219 487.96142578 C287.65657552 489.41975911 288.23990885 490.87809245 288.82324219 492.33642578 C289.19320313 493.25552734 289.56316406 494.17462891 289.94433594 495.12158203 C290.64053515 496.87292053 291.32320886 498.62979161 291.98339844 500.39501953 C301.04217844 524.27725772 317.00858028 540.99171729 337.07324219 555.96142578 C343.91843855 561.18539143 347.68370436 565.59804338 350.07324219 573.96142578 C350.34974609 574.91855469 350.34974609 574.91855469 350.63183594 575.89501953 C351.64131798 580.62082485 351.9521765 585.19634619 351.07324219 589.96142578 C349.31632898 592.20873952 347.47289544 593.64714253 345.18261719 595.33642578 C340.0798084 599.26747847 337.89614556 604.17679789 337.01074219 610.46142578 C336.75448588 615.72566255 337.68134338 619.84269152 341.07324219 623.96142578 C343.65083421 625.53212027 343.65083421 625.53212027 346.07324219 625.96142578 C346.05003906 625.39294922 346.02683594 624.82447266 346.00292969 624.23876953 C345.85236547 617.79677194 346.40581137 612.46257201 350.07324219 606.96142578 C352.69824219 606.77392578 352.69824219 606.77392578 355.07324219 606.96142578 C354.52600535 610.33605293 354.01834219 612.04377578 352.07324219 614.96142578 C351.25569309 620.53562415 351.84809155 625.23888378 355.07324219 629.96142578 C358.44662829 632.22312783 361.33269299 632.17317685 365.32324219 632.08642578 C366.93972656 632.05935547 366.93972656 632.05935547 368.58886719 632.03173828 C369.40871094 632.00853516 370.22855469 631.98533203 371.07324219 631.96142578 C370.74324219 630.97142578 370.41324219 629.98142578 370.07324219 628.96142578 C369.0704346 616.64826371 369.0704346 616.64826371 371.76074219 612.21142578 C374.27736756 609.76281731 375.60590681 609.15405552 379.07324219 608.96142578 C378.52600535 612.33605293 378.01834219 614.04377578 376.07324219 616.96142578 C375.38549531 621.67968924 375.55542604 625.76103381 377.44824219 630.14892578 C380.93776482 632.55835808 382.96226183 632.44698119 387.08496094 631.79345703 C396.61326532 629.14047816 405.71583668 624.53630995 411.07324219 615.96142578 C413.05408097 612.39591597 414.60401415 608.76384651 416.07324219 604.96142578 C416.67072266 603.5015625 416.67072266 603.5015625 417.28027344 602.01220703 C426.32648339 577.74538985 433.01159311 546.15418437 422.58666992 521.71069336 C418.10152724 510.90246316 419.31461636 500.33785307 421.57324219 489.08642578 C428.33009361 454.69512329 422.52284687 416.28754579 403.07324219 386.96142578 C387.65192572 364.89377101 367.58893367 350.51553651 343.07324219 339.96142578 C341.64044922 339.31560547 341.64044922 339.31560547 340.17871094 338.65673828 C333.23898397 335.72804617 326.22484369 333.90948658 318.88574219 332.27392578 C317.54310303 331.97023071 317.54310303 331.97023071 316.17333984 331.66040039 C300.71396633 328.38936167 285.28215168 327.63088944 269.52075195 327.70068359 C266.61421295 327.71150594 263.70827949 327.70066242 260.80175781 327.68798828 C247.20476128 327.22819414 247.20476128 327.22819414 234.07324219 329.96142578 C231.85329549 332.02429087 231.85329549 332.02429087 230.94824219 334.83642578 C221.37989296 355.68564128 202.92036229 370.15245738 182.63305664 379.78051758 C178.3219446 381.87616179 178.3219446 381.87616179 175.58496094 385.72705078 C175.41609375 386.46439453 175.24722656 387.20173828 175.07324219 387.96142578 C170.5122844 388.08811905 170.5122844 388.08811905 168.16625977 387.41113281 C165.74515579 386.89093294 164.23858233 387.14907595 161.83496094 387.70361328 C161.02124023 387.8824707 160.20751953 388.06132813 159.36914062 388.24560547 C158.50836914 388.44057617 157.64759766 388.63554688 156.76074219 388.83642578 C148.15798307 390.68638019 139.86788185 391.69492155 131.07324219 391.96142578 C131.40324219 389.98142578 131.73324219 388.00142578 132.07324219 385.96142578 C132.66226318 385.85072754 133.25128418 385.7400293 133.8581543 385.62597656 C136.57597093 385.11430612 139.29335618 384.60037806 142.01074219 384.08642578 C142.93693359 383.91240234 143.863125 383.73837891 144.81738281 383.55908203 C147.5715521 383.03723943 150.32300843 382.5036133 153.07324219 381.96142578 C153.92934082 381.79352539 154.78543945 381.625625 155.66748047 381.45263672 C156.86026611 381.20562012 156.86026611 381.20562012 158.07714844 380.95361328 C159.12817749 380.73874268 159.12817749 380.73874268 160.20043945 380.51953125 C162.37814146 379.97047052 162.37814146 379.97047052 165.07324219 377.96142578 C164.52815893 373.14806347 162.3020512 369.53534547 159.76074219 365.52392578 C159.31706299 364.82235352 158.87338379 364.12078125 158.41625977 363.39794922 C147.61445904 346.74400043 132.05452211 329.95206574 114.07324219 320.96142578 C114.07324219 319.31142578 114.07324219 317.66142578 114.07324219 315.96142578 C120.24543024 315.13911233 123.47141381 317.76456528 128.19824219 321.27392578 C128.94525391 321.81718506 129.69226563 322.36044434 130.46191406 322.92016602 C148.74911682 336.43739132 163.74906076 354.10470418 173.07324219 374.96142578 C186.27610887 370.61117247 197.19852508 362.55944329 207.07324219 352.96142578 C207.75773437 352.33880859 208.44222656 351.71619141 209.14746094 351.07470703 C221.78268157 339.23384211 229.3592356 323.43335686 234.07324219 306.96142578 C234.40066406 305.86830078 234.72808594 304.77517578 235.06542969 303.64892578 C238.00759834 293.34059766 240.39301787 282.65562701 239.95605469 271.87548828 C239.60905041 259.14298513 245.05606387 251.79222162 252.24169922 241.64746094 C255.34773196 237.09233267 258.06228987 232.32848723 260.76074219 227.52392578 C261.29723389 226.56977783 261.83372559 225.61562988 262.38647461 224.63256836 C267.34483809 215.68150101 271.75186639 206.49551621 276.02124023 197.20019531 C277.0547506 195.00077781 278.14443101 192.83868842 279.25292969 190.67626953 C280.69437215 187.81939827 281.80288712 185.06237042 282.63574219 181.96142578 C283.49936434 178.88242506 284.44004036 175.92676632 285.63574219 172.96142578 C289.53373994 162.55992652 292.10139043 147.83461121 287.99902344 137.16845703 C279.56052492 126.17927886 260.76157153 123.53064574 247.82022095 121.63064575 C230.41774831 119.40359413 213.00235246 119.87492763 195.49902344 120.22875977 C191.69818589 120.30085277 187.89799648 120.3423015 184.09667969 120.37939453 C182.93123627 120.41147507 181.76579285 120.4435556 180.56503296 120.47660828 C179.49185822 120.48344131 178.41868347 120.49027435 177.31298828 120.49731445 C176.37039154 120.51444992 175.4277948 120.53158539 174.45663452 120.54924011 C172.07324219 119.96142578 172.07324219 119.96142578 170.38150024 117.55732727 C169.73391251 116.27235603 169.73391251 116.27235603 169.07324219 114.96142578 C165.63749339 111.6863415 161.83325916 108.85340585 158.07324219 105.96142578 C157.24469727 105.31463867 157.24469727 105.31463867 156.39941406 104.65478516 C141.3231339 92.94022389 125.14953227 83.71220821 107.3359375 76.8359375 C105.87267076 76.27039785 104.41332363 75.69456264 102.95898438 75.10644531 C32.86332281 46.77096707 -54.91937055 79.0843827 -103.92675781 132.96142578 Z " fill="#6A3E32" transform="translate(448.9267578125,288.03857421875)"/>
<path d="M0 0 C1.98 0.66 3.96 1.32 6 2 C6.48157839 5.31215393 6.95981111 8.62478306 7.4375 11.9375 C7.57220703 12.86369141 7.70691406 13.78988281 7.84570312 14.74414062 C12.37155553 46.2043342 12.37155553 46.2043342 8.42578125 52.51953125 C7.0507849 53.76357557 5.63340341 54.96220727 4.1796875 56.11328125 C-1.0757029 60.66230197 -3.60025524 67.01728913 -4.5078125 73.7890625 C-4.81363746 83.96283958 -2.91554173 91.44391066 4 99 C7.14355309 101.02636596 7.14355309 101.02636596 10.6875 102.6875 C11.84636719 103.26886719 13.00523437 103.85023438 14.19921875 104.44921875 C22.69566532 108.15102706 31.14870786 108.33799747 40.3125 108.3125 C41.45912109 108.32861328 42.60574219 108.34472656 43.78710938 108.36132812 C59.49144992 108.3702157 74.29990954 104.20941897 85.84375 93.28125 C104.2353695 73.82344966 107.3287777 42.35181484 111 17 C111.82387207 16.98018066 112.64774414 16.96036133 113.49658203 16.93994141 C129.59567296 16.53472162 145.58758216 15.96026882 161.61181641 14.25390625 C164.27532016 13.97072859 166.94015253 13.70304984 169.60546875 13.4375 C170.4461792 13.35371094 171.28688965 13.26992188 172.15307617 13.18359375 C172.76256104 13.12300781 173.3720459 13.06242188 174 13 C179.10558877 20.00498936 181.09533519 25.32050848 180 34 C179.86851562 35.06154297 179.86851562 35.06154297 179.734375 36.14453125 C178.69958957 38.75901573 177.21854081 39.41401397 174.8125 40.8125 C168.25607766 44.95065528 164.02008758 49.81755675 161 57 C160.13862634 64.12379297 159.71062356 72.06034855 163.61328125 78.359375 C168.63284466 84.2980134 174.63907536 87.01121641 182 89 C183.03640625 89.350625 184.0728125 89.70125 185.140625 90.0625 C189.90597468 91.22007482 194.30425846 91.30182323 199.1875 91.25 C200.12005615 91.24178223 201.0526123 91.23356445 202.01342773 91.22509766 C215.86374405 91.00102539 228.79095084 88.69881096 239.34765625 78.890625 C247.30353916 69.78743982 252.40076964 59.44818292 255.97265625 48.02734375 C257 45 257 45 258.453125 41.78125 C260.45781709 37.20350257 261.53225889 32.41032448 262.6875 27.5625 C262.91244141 26.64017578 263.13738281 25.71785156 263.36914062 24.76757812 C263.91818939 22.51297361 264.46166299 20.25718159 265 18 C271.97033754 20.45645169 278.77150385 25.29694405 282.5625 31.75 C284.86228194 36.949507 286.22656324 42.33209082 285 48 C283.43653708 49.87701455 281.78516998 51.16177973 279.81640625 52.6015625 C275.7942545 55.69818685 273.54045639 60.26113839 272 65 C270.73609155 77.39321777 270.73609155 77.39321777 275.44921875 88.4296875 C275.96097656 88.94789063 276.47273438 89.46609375 277 90 C277.54269531 90.55945313 278.08539062 91.11890625 278.64453125 91.6953125 C288.35118219 100.76653934 300.69265778 101.34761364 313.3125 101.3125 C314.45912109 101.32861328 315.60574219 101.34472656 316.78710938 101.36132812 C329.99519446 101.36880299 341.35705616 98.29126881 352.25 90.75 C355.79996161 87.20003839 358.38021034 83.26412573 361 79 C361.33 79.66 361.66 80.32 362 81 C364.59918228 81.40801117 367.13409918 81.70394744 369.75 81.9375 C377.34738525 82.72209053 384.59961299 84.07782156 392 86 C393.01320313 86.2371875 394.02640625 86.474375 395.0703125 86.71875 C404.37674802 89.00192885 404.37674802 89.00192885 408 93 C408 93.99 408 94.98 408 96 C402.41771281 99.58425543 397.21013748 101.23654746 390.75 102.625 C389.78707031 102.83809814 388.82414063 103.05119629 387.83203125 103.27075195 C380.17145875 104.89837195 372.54853746 105.89817949 364.75 106.54296875 C360.93067202 106.87095008 357.15938141 107.39363407 353.3671875 107.953125 C345.9704864 109.03367017 338.56485551 109.8441169 331.125 110.5625 C330.46200897 110.62725525 329.79901794 110.6920105 329.11593628 110.75872803 C318.97572845 111.74106019 308.84826778 112.41338273 298.66259766 112.70922852 C297.76460449 112.73557373 296.86661133 112.76191895 295.94140625 112.7890625 C294.79200562 112.81540771 294.79200562 112.81540771 293.61938477 112.84228516 C291.5906646 112.9644357 289.56818233 113.19249146 287.5539093 113.46328735 C277.26338022 114.76447783 266.8290727 115.0256198 256.4765625 115.546875 C255.8024371 115.58086616 255.1283117 115.61485731 254.43375826 115.6498785 C216.61362923 117.53461073 178.78463113 117.3880699 140.92778134 117.27262259 C132.2545638 117.24713249 123.58138214 117.24153081 114.90813255 117.2375679 C106.50485618 117.23358531 98.1015954 117.221135 89.6983304 117.20722103 C87.04788404 117.20316243 84.39743817 117.20021812 81.7469902 117.19742584 C77.59789181 117.1924995 73.44883732 117.18224129 69.29976082 117.16798782 C67.79259322 117.16351528 66.28541979 117.16063834 64.77824593 117.15958023 C56.7135656 117.15265137 48.71972554 116.93766293 40.68148613 116.22848701 C37.23249665 115.93460173 33.82051841 115.84101301 30.359375 115.7890625 C28.97166813 115.76322753 27.58397317 115.73674665 26.19628906 115.7097168 C25.47606567 115.69645355 24.75584229 115.68319031 24.01379395 115.66952515 C-0.03242375 115.19657514 -24.01198161 113.67872205 -48 112 C-49.59171021 111.8891507 -49.59171021 111.8891507 -51.21557617 111.77606201 C-138.33213723 105.66786277 -138.33213723 105.66786277 -148 96 C-147.82842464 93.34058187 -147.31873127 92.28596451 -145.328125 90.5 C-135.50122568 84.16857493 -121.46009686 82.56110267 -110 83 C-109.67 82.34 -109.34 81.68 -109 81 C-108.59652344 81.44730469 -108.19304687 81.89460937 -107.77734375 82.35546875 C-99.25795285 90.83868389 -87.66643509 93.54338134 -75.97102356 93.64677429 C-74.61748557 93.63876579 -73.26397127 93.62214211 -71.91064453 93.59692383 C-69.8674237 93.56237188 -67.82850591 93.57641703 -65.78515625 93.59570312 C-52.05553554 93.58095528 -39.37748848 90.25033548 -28.8515625 81.140625 C-16.48968429 68.5419292 -12.74343126 49.39391884 -8 33 C-7.73912598 32.1121582 -7.47825195 31.22431641 -7.20947266 30.30957031 C-4.2690942 20.28799607 -1.86478915 10.27908168 0 0 Z " fill="#D6D5D5" transform="translate(507,827)"/>
<path d="M0 0 C6.17219642 3.88799774 9.64748746 9.12983063 12 16 C13.44359429 23.54721225 10.76452158 29.7145714 6.71484375 35.9921875 C4.0136286 39.73927704 1.00313112 43.04192999 -2.1875 46.375 C-12.77031035 58.04826885 -19.76441249 71.91879433 -24 87 C-24.19674316 87.6997998 -24.39348633 88.39959961 -24.59619141 89.12060547 C-26.95274105 97.76261102 -28.50219551 106.37142651 -29.31738281 115.29296875 C-29.71493614 119.46829807 -30.58905709 123.06021325 -32 127 C-32.38719745 128.72647632 -32.76178207 130.45582015 -33.125 132.1875 C-37.49350006 149.90419469 -46.31487549 166.11296766 -58 180 C-58.763125 181.010625 -59.52625 182.02125 -60.3125 183.0625 C-70.98837804 194.73148298 -85.20048206 203.63360256 -100 209 C-100.84820313 209.33 -101.69640625 209.66 -102.5703125 210 C-109.76243185 212.65847316 -109.76243185 212.65847316 -114 211 C-115.66796875 208.33203125 -115.66796875 208.33203125 -117.1875 204.8125 C-122.61413338 193.05655836 -130.2501219 183.34548935 -139.2409668 174.08569336 C-143 170.19198978 -143 170.19198978 -143 168 C-141.90042969 167.52691406 -140.80085937 167.05382812 -139.66796875 166.56640625 C-117.59286157 156.80583195 -104.37313171 141.2370441 -95.56542969 118.84545898 C-90.89597387 105.97537053 -88.77781385 92.15872085 -86.42431641 78.71044922 C-86.16207275 77.21215576 -86.16207275 77.21215576 -85.89453125 75.68359375 C-85.66987183 74.35992798 -85.66987183 74.35992798 -85.44067383 73.00952148 C-85 71 -85 71 -84 70 C-83.74665901 68.48300635 -83.52364736 66.96093959 -83.3125 65.4375 C-80.48152586 49.36755856 -72.68951252 32.27397053 -62 20 C-61.31035156 19.16726563 -60.62070312 18.33453125 -59.91015625 17.4765625 C-45.94697756 1.13301767 -20.76490169 -12.30512693 0 0 Z " fill="#F6AA5D" transform="translate(982,477)"/>
<path d="M0 0 C3.25828802 3.21776038 6.20138994 6.43851861 9 10.0625 C25.51013557 30.35337501 48.11712629 44.78078952 71.7109375 55.46875 C75 57 75 57 76 58 C75.49093718 65.8415254 73.24554839 73.36939847 71.25 80.9375 C71.06848389 81.62941437 70.88696777 82.32132874 70.69995117 83.03421021 C69.79678893 86.47510097 68.88760701 89.91430797 67.97070312 93.3515625 C67.39537719 95.51395456 66.82455836 97.67756771 66.26367188 99.84375 C62.32183219 115.06740672 56.62996764 131.88533014 42.875 140.875 C34.87038245 145.4622616 26.22326608 147.21625487 17 146 C15.19140625 144.82421875 15.19140625 144.82421875 14 143 C13.6015625 140.44140625 13.6015625 140.44140625 13.625 137.5625 C13.61339844 136.14130859 13.61339844 136.14130859 13.6015625 134.69140625 C14.0568233 131.61616421 15.08737441 130.38319221 17 128 C17 127.01 17 126.02 17 125 C14.6147267 124.87184635 14.6147267 124.87184635 12 126 C8.45462924 130.64409588 7.45306922 135.20253371 8 141 C8.28520405 142.67557379 8.59955696 144.34817245 9 146 C-0.67907548 146.68862988 -0.67907548 146.68862988 -4.5625 144.125 C-7.36381343 141.68282932 -7.92581 140.97873727 -8.203125 137.3203125 C-8.22632813 135.73863281 -8.22632813 135.73863281 -8.25 134.125 C-8.27578125 133.07570313 -8.3015625 132.02640625 -8.328125 130.9453125 C-7.96010447 127.64189013 -7.06484778 126.5104202 -5 124 C-5 123.01 -5 122.02 -5 121 C-8.00418869 121.32477716 -9.57970965 121.57970965 -11.75 123.75 C-14.59025059 128.86245107 -14.11153375 134.31177867 -14 140 C-19.875 135.375 -19.875 135.375 -21 132 C-21.84184994 124.30613091 -21.75654521 118.26204904 -16.921875 112 C-14.19665108 109.16399462 -11.24688342 106.79310835 -8.05078125 104.5078125 C-4.19748561 101.74838237 -4.19748561 101.74838237 -2.38700867 97.49069214 C-2.27822891 96.48426666 -2.16944916 95.47784119 -2.05737305 94.44091797 C-1.93239944 93.2874588 -1.80742584 92.13399963 -1.67866516 90.94558716 C-1.56169785 89.68221527 -1.44473053 88.41884338 -1.32421875 87.1171875 C-1.2610465 86.46279568 -1.19787426 85.80840385 -1.1327877 85.13418198 C0.43559642 68.60450414 0.35013405 52.07768919 0.20599365 35.49072266 C0.17453512 31.46652231 0.16144369 27.44225825 0.14648438 23.41796875 C0.11492122 15.61181555 0.06417254 7.80596084 0 0 Z " fill="#EFA55D" transform="translate(423,766)"/>
<path d="M0 0 C1.15242188 0.01804687 2.30484375 0.03609375 3.4921875 0.0546875 C4.36101562 0.07789063 5.22984375 0.10109375 6.125 0.125 C5.88716797 0.99898438 5.88716797 0.99898438 5.64453125 1.890625 C4.12752148 8.41490764 4.99058021 12.77958773 8.25 18.4609375 C9.125 20.125 9.125 20.125 9.125 22.125 C9.785 22.125 10.445 22.125 11.125 22.125 C10.83753906 22.96804688 10.55007813 23.81109375 10.25390625 24.6796875 C9.49998577 26.98057977 8.79930708 29.29958731 8.15234375 31.6328125 C5.30254789 41.09127476 5.30254789 41.09127476 2.078125 43.921875 C-0.26610323 45.0374043 -2.32233766 45.66825273 -4.875 46.125 C-5.93847656 46.31642578 -5.93847656 46.31642578 -7.0234375 46.51171875 C-10.78577876 46.83605851 -12.97131164 46.07149353 -16.25 44.25 C-19.52717995 41.17708872 -19.95785144 37.54427338 -20.55078125 33.234375 C-20.65929624 31.14354513 -20.65929624 31.14354513 -21.875 30.125 C-24.375 29.95833333 -24.375 29.95833333 -26.875 30.125 C-28.56054595 31.81054595 -28.20648937 33.81204073 -28.3125 36.125 C-28.2460111 42.50793483 -26.27267585 46.55023653 -21.875 51.125 C-14.7278131 56.03869099 -4.77667661 54.77360002 3.5 53.625 C4.799375 53.3775 4.799375 53.3775 6.125 53.125 C6.47691406 53.77726563 6.82882812 54.42953125 7.19140625 55.1015625 C11.83506468 63.32192912 16.77946718 69.36730179 26.125 72.125 C34.60059473 73.10996868 41.3789242 71.54059248 49.125 68.125 C49.50633299 66.1335944 49.83825582 64.13220923 50.125 62.125 C49.0206608 60.80079751 49.0206608 60.80079751 46.25 60.9375 C42.95929242 60.87156487 42.95929242 60.87156487 40.125 63.125 C34.3994475 63.78240656 28.97758322 63.96708328 23.6875 61.5625 C18.1596283 56.30428058 13.79944573 51.84612008 12.6875 44.0625 C13.40277412 37.62503294 16.24517247 31.88465505 19.125 26.125 C22.42545855 25.43928829 25.71033049 24.91338889 29.046875 24.4453125 C33.73947075 23.68621613 36.68744922 22.64882136 40.125 19.125 C40.84399881 15.88950537 40.67015633 14.05928516 38.9921875 11.18359375 C37.760117 9.44109404 36.48610671 7.76805025 35.125 6.125 C49.23371907 9.74262028 59.1741615 21.85692438 66.43359375 33.75390625 C70.04178755 40.94529483 71.66668734 47.39440305 71.5625 55.4375 C71.55492676 56.26564209 71.54735352 57.09378418 71.53955078 57.94702148 C71.19744213 70.76361006 66.26621399 82.52524645 56.9375 91.4375 C44.2133957 102.04092025 28.98097321 103.29792443 13.125 102.125 C-5.56978721 99.83533993 -22.93249492 89.7794088 -35.0546875 75.546875 C-43.95470941 63.70564413 -46.21408599 51.5710036 -44.875 37.125 C-42.61431586 25.54972489 -34.52219515 14.75537467 -24.875 8.125 C-16.83279486 3.54157966 -9.39918264 -0.19182005 0 0 Z " fill="#F9D598" transform="translate(414.875,482.875)"/>
<path d="M0 0 C37.68338423 14.31876765 76.18198758 29.18173175 97 66 C97.92619141 67.50240234 97.92619141 67.50240234 98.87109375 69.03515625 C101.69288357 73.77289574 103.50112194 77.09383984 103.0234375 82.7578125 C102.99252917 85.71470897 103.64168517 88.30773935 104.3125 91.1875 C105.73825325 97.44723569 106.780849 103.70716718 107.6875 110.0625 C107.81874268 110.96701904 107.94998535 111.87153809 108.08520508 112.8034668 C108.65949261 116.91592019 109.06470718 120.83992469 109 125 C90.29235065 119.5090176 73.0924352 109.20529797 58 97 C57.40783691 96.52594727 56.81567383 96.05189453 56.20556641 95.56347656 C28.72497162 73.3804351 4.30942618 39.69595909 0.25390625 3.6953125 C0.17011719 2.47585938 0.08632813 1.25640625 0 0 Z " fill="#F9D69A" transform="translate(402,694)"/>
<path d="M0 0 C23.27483762 9.54454968 46.02209098 29.20185158 60 50.0625 C60.33 51.0525 60.66 52.0425 61 53.0625 C60.25242432 53.09166504 59.50484863 53.12083008 58.73461914 53.15087891 C40.84704307 53.92343656 24.2372242 56.03570691 7 61.0625 C6.0934668 61.32160156 5.18693359 61.58070313 4.25292969 61.84765625 C-17.08676984 68.06750276 -36.46347399 78.17709144 -55.18847656 90.02197266 C-57 91.0625 -57 91.0625 -60 92.0625 C-59.44443505 85.77650109 -58.40121986 80.03117427 -56.5625 74 C-56.30227051 73.14639893 -56.04204102 72.29279785 -55.77392578 71.41333008 C-50.88476702 55.93285336 -44.26988767 41.12059738 -36.875 26.6875 C-36.40884277 25.76735107 -35.94268555 24.84720215 -35.46240234 23.89916992 C-27.89575204 9.53355756 -17.67190573 -6.25879994 0 0 Z " fill="#F5AA5E" transform="translate(435,291.9375)"/>
<path d="M0 0 C3.91422211 1.52155222 6.05148831 4.26693021 8.7578125 7.3984375 C9.80176249 8.57320186 10.84602345 9.74768997 11.890625 10.921875 C12.3458252 11.44442871 12.80102539 11.96698242 13.27001953 12.50537109 C14.61813845 14.08041362 14.61813845 14.08041362 16.33398438 15.44091797 C17.6328125 17.0234375 17.6328125 17.0234375 17.65380859 19.08886719 C17.48961426 19.86649414 17.32541992 20.64412109 17.15625 21.4453125 C16.97964844 22.30640625 16.80304688 23.1675 16.62109375 24.0546875 C16.41871094 24.951875 16.21632813 25.8490625 16.0078125 26.7734375 C15.82863281 27.65515625 15.64945313 28.536875 15.46484375 29.4453125 C14.36285631 34.62388286 12.81145931 39.17954257 10.6328125 44.0234375 C10.13329089 45.47665235 9.64977961 46.93543762 9.1796875 48.3984375 C5.0056327 61.19164441 -0.43657732 76.34262868 -12.234375 83.9609375 C-20.08771659 87.87322488 -29.56401632 90.7257929 -38.3671875 89.0234375 C-40.1484375 87.80859375 -40.1484375 87.80859375 -41.3671875 86.0234375 C-41.765625 83.6484375 -41.765625 83.6484375 -41.7421875 81.0234375 C-41.74992188 80.1571875 -41.75765625 79.2909375 -41.765625 78.3984375 C-41.28988458 75.56265149 -40.36931816 74.97260174 -38.3671875 73.0234375 C-38.3671875 71.7034375 -38.3671875 70.3834375 -38.3671875 69.0234375 C-41.32745826 69.34060937 -42.35147023 70.00772023 -44.4921875 72.1484375 C-46.79208835 75.67495214 -46.78548018 77.67069368 -46.6171875 81.8359375 C-46.56304688 83.57810547 -46.56304688 83.57810547 -46.5078125 85.35546875 C-46.46140625 86.23589844 -46.415 87.11632812 -46.3671875 88.0234375 C-55.63832453 88.17795645 -55.63832453 88.17795645 -58.3671875 87.0234375 C-61.47987921 82.35439994 -60.85370176 77.49496022 -60.3671875 72.0234375 C-59.61330612 69.40882001 -58.67810905 67.42679367 -57.3671875 65.0234375 C-60.33536393 65.90586833 -62.06016946 66.67255973 -64.1171875 69.0234375 C-65.8866918 73.27024783 -66.11028161 77.46114318 -66.3671875 82.0234375 C-67.0271875 82.0234375 -67.6871875 82.0234375 -68.3671875 82.0234375 C-71.31946798 76.94920542 -73.22743927 73.0451999 -72.3671875 67.0234375 C-69.95867472 59.43662223 -64.45910286 54.15834986 -57.4921875 50.5234375 C-54.42954127 48.36156957 -54.06310698 45.53984245 -53.3671875 42.0234375 C-53.13526893 39.30513615 -52.98701603 36.73652054 -52.9921875 34.0234375 C-52.99089844 33.32009277 -52.98960937 32.61674805 -52.98828125 31.89208984 C-53.1007087 26.40997422 -54.0906417 23.32390387 -57.3671875 19.0234375 C-57.3671875 18.3634375 -57.3671875 17.7034375 -57.3671875 17.0234375 C-56.19929687 16.77851562 -55.03140625 16.53359375 -53.828125 16.28125 C-42.41913099 13.7776836 -31.36765206 10.54944795 -20.3046875 6.8359375 C-19.6414447 6.61415833 -18.9782019 6.39237915 -18.29486084 6.16387939 C-11.07317684 3.86528192 -11.07317684 3.86528192 -4.12670898 0.88696289 C-2.3671875 0.0234375 -2.3671875 0.0234375 0 0 Z " fill="#EDA45D" transform="translate(747.3671875,820.9765625)"/>
<path d="M0 0 C2.70031062 3.59484076 1.74916597 8.43193315 1.26171875 12.6796875 C0.21688023 16.80010197 -1.22761486 20.71028133 -2.73828125 24.6796875 C-3.20621094 26.09121094 -3.20621094 26.09121094 -3.68359375 27.53125 C-5.91424855 34.18572441 -8.9437488 39.79688887 -12.73828125 45.6796875 C-13.38667969 46.72769531 -14.03507813 47.77570313 -14.703125 48.85546875 C-18.88999503 55.57723336 -23.36498893 62.02893015 -28.11328125 68.3671875 C-28.88115967 69.39223389 -28.88115967 69.39223389 -29.66455078 70.43798828 C-34.44086299 76.73511632 -34.44086299 76.73511632 -36.73828125 78.6796875 C-39.42578125 78.3671875 -39.42578125 78.3671875 -41.73828125 77.6796875 C-41.94130859 76.62007812 -41.94130859 76.62007812 -42.1484375 75.5390625 C-43.66399474 68.31520884 -45.70779613 61.40267269 -48.11328125 54.4296875 C-48.39308838 53.60307617 -48.67289551 52.77646484 -48.96118164 51.92480469 C-50.73255522 46.8998162 -52.89880781 42.38466142 -55.57055664 37.77807617 C-56.73828125 35.6796875 -56.73828125 35.6796875 -58.2734375 32.05859375 C-59.90782049 28.28861699 -61.91148523 25.03064211 -64.17578125 21.6171875 C-64.55798828 21.03130859 -64.94019531 20.44542969 -65.33398438 19.84179688 C-66.09340845 18.68009724 -66.85660542 17.52085421 -67.6237793 16.36425781 C-68.71089304 14.72108479 -69.77953783 13.06573981 -70.84765625 11.41015625 C-72.69864059 8.53020623 -72.69864059 8.53020623 -75.55078125 6.0546875 C-77.73828125 3.6796875 -77.73828125 3.6796875 -77.6796875 1.66015625 C-76.73828125 -0.3203125 -76.73828125 -0.3203125 -74.68359375 -1.48046875 C-54.1955376 -8.03551164 -18.6184939 -14.1416875 0 0 Z " fill="#F68684" transform="translate(712.73828125,435.3203125)"/>
<path d="M0 0 C0.21914063 0.51046875 0.43828125 1.0209375 0.6640625 1.546875 C3.16705493 7.28544302 5.93115889 12.84830936 8.828125 18.3984375 C10 21 10 21 10 24 C-6.5 29.5 -6.5 29.5 -8.53710938 30.17333984 C-10.24279478 30.74584686 -11.94364964 31.33287317 -13.64038086 31.93139648 C-20.71062977 34.38580425 -27.71443859 36.1691527 -35.0625 37.5625 C-36.15248291 37.77302002 -37.24246582 37.98354004 -38.36547852 38.20043945 C-41.57477813 38.81293354 -44.78656127 39.4096504 -48 40 C-48.85045898 40.15887695 -49.70091797 40.31775391 -50.57714844 40.48144531 C-71.17458268 44.26918436 -92.08605414 45.42488829 -113 45 C-112.73729847 40.97955769 -112.47064351 36.95939836 -112.20043945 32.93945312 C-112.10920231 31.57396416 -112.01901594 30.20840454 -111.92993164 28.84277344 C-111.80115521 26.87155885 -111.66819413 24.90061907 -111.53515625 22.9296875 C-111.456604 21.74616699 -111.37805176 20.56264648 -111.29711914 19.34326172 C-111.01660648 16.18686037 -110.56644464 13.11648297 -110 10 C-108.70191406 10.01571045 -107.40382813 10.0314209 -106.06640625 10.04760742 C-72.38755999 10.71709581 -72.38755999 10.71709581 -39 7 C-37.33227539 6.70270996 -37.33227539 6.70270996 -35.63085938 6.39941406 C-22.18917563 4.1215519 -22.18917563 4.1215519 -8.96875 0.85546875 C-5.84380937 -0.04500756 -3.23468215 -0.15778937 0 0 Z " fill="#F9D59A" transform="translate(733,790)"/>
<path d="M0 0 C4.33339026 4.64854592 6.37780949 9.53927845 6.4375 15.875 C6.30859375 18.5546875 6.30859375 18.5546875 6 21 C5.91234375 21.70769531 5.8246875 22.41539062 5.734375 23.14453125 C4.69958957 25.75901573 3.21854081 26.41401397 0.8125 27.8125 C-6.09484675 32.17214493 -9.34660024 36.69320047 -13 44 C-13.66 48.62 -14.32 53.24 -15 58 C-34.14 58 -53.28 58 -73 58 C-73 53.00228957 -72.69625899 50.39039042 -71.3125 45.8125 C-67.39770154 32.17263136 -65.31182942 17.98403395 -63 4 C-61.76419189 3.970271 -61.76419189 3.970271 -60.50341797 3.93994141 C-39.88384822 3.43307467 -39.88384822 3.43307467 -19.3125 2 C-17.97131104 1.8755249 -17.97131104 1.8755249 -16.60302734 1.74853516 C-11.21588304 1.21077158 -5.19587725 -1.143093 0 0 Z " fill="#F3F3F3" transform="translate(681,840)"/>
<path d="M0 0 C7.97274227 2.84016264 13.40468836 8.62699279 17.63671875 15.7578125 C20.38622417 22.2967509 20.11505155 31.56288592 18 38.375 C14.54865576 45.74321862 8.39424678 51.90238491 0.96875 55.1796875 C-7.14248567 57.42094999 -16.15232506 57.63664664 -23.625 53.4375 C-30.19309612 48.72392514 -35.4087577 43.11272714 -37 35 C-37.95919196 25.98359558 -37.42556835 19.37118033 -32 12 C-31.1646875 10.6696875 -31.1646875 10.6696875 -30.3125 9.3125 C-21.74723097 0.74723097 -11.68999062 -1.58703267 0 0 Z " fill="#6B3E32" transform="translate(540,478)"/>
<path d="M0 0 C1.33335154 0.71227097 2.64959762 1.45850539 3.9375 2.25 C5.29875 3.0853125 5.29875 3.0853125 6.6875 3.9375 C12.31387646 9.72016469 14.45181334 15.06385584 14.5625 23.1875 C14.42471206 31.27387118 12.56502349 37.25121611 7.10546875 43.26953125 C5.13885897 45.11201576 3.13791343 46.6965246 0.9375 48.25 C0.33164062 48.68441406 -0.27421875 49.11882812 -0.8984375 49.56640625 C-6.85342459 53.17206299 -13.3051992 53.16665665 -20.0625 52.25 C-27.47855382 50.04247781 -32.36991659 46.01364288 -36.0625 39.25 C-39.67019993 31.527053 -40.3622012 24.25594648 -37.5 16.1875 C-34.19179746 8.73826072 -29.04882179 2.79598706 -21.71484375 -0.90234375 C-14.67030218 -3.15369209 -6.81685467 -2.85647833 0 0 Z " fill="#6B3E32" transform="translate(403.0625,423.75)"/>
<path d="M0 0 C11.96002646 5.19540156 21.24264828 16.48529657 27 28 C27.30808594 28.59554688 27.61617188 29.19109375 27.93359375 29.8046875 C29.81878773 33.70913369 30.03785768 35.8626898 29 40 C28.4423999 40.15557373 27.8847998 40.31114746 27.31030273 40.47143555 C21.75520715 42.0264058 16.20909694 43.61018597 10.67041016 45.22265625 C9.08265959 45.68484292 7.49408697 46.14424355 5.90380859 46.59765625 C-8.1157026 50.63850816 -21.00090267 57.49014797 -34 64 C-33.36137422 44.52191383 -23.30366486 15.35774116 -8.9375 1.8125 C-5.39785457 -0.37153654 -4.0830918 -0.80060623 0 0 Z " fill="#F58684" transform="translate(428,309)"/>
<path d="M0 0 C12.45054488 2.96046289 21.23692876 8.72906209 28.30078125 19.28515625 C32.72067943 27.25852095 34.46704562 36.08881039 34.875 45.125 C29.77737456 48.73581802 24.62584964 51.17691088 18.8125 53.375 C18.14025391 53.63297363 17.46800781 53.89094727 16.77539062 54.15673828 C12.46745302 55.73905261 8.43808901 56.62656115 3.875 57.125 C3.41351562 56.20460938 2.95203125 55.28421875 2.4765625 54.3359375 C-4.23154505 41.21001068 -12.08370387 29.80049955 -22.36621094 19.21044922 C-26.125 15.31697639 -26.125 15.31697639 -26.125 13.125 C-24.96742188 12.60550781 -23.80984375 12.08601562 -22.6171875 11.55078125 C-21.07790271 10.84684004 -19.53885256 10.14238559 -18 9.4375 C-17.23945312 9.09783203 -16.47890625 8.75816406 -15.6953125 8.40820312 C-12.01203493 6.70945011 -8.82747343 5.04654972 -5.765625 2.36328125 C-3.125 0.125 -3.125 0.125 0 0 Z " fill="#F6AA5D" transform="translate(865.125,631.875)"/>
<path d="M0 0 C8.61633514 1.35759283 16.71819465 5.51949084 23.07421875 11.484375 C25.42470413 15.01010307 25.73819692 16.33451145 25.07421875 20.484375 C20.45803457 25.5621776 15.56408443 27.26218028 8.78515625 27.59765625 C6.88116269 27.60774809 4.97702591 27.5523324 3.07421875 27.484375 C2.80609375 28.309375 2.53796875 29.134375 2.26171875 29.984375 C1.64205068 31.81076509 1.01139001 33.63608341 0.2734375 35.41796875 C-1.84029514 40.55704384 -3.07528923 44.97427027 -1.26953125 50.48828125 C1.27979396 56.27920533 5.38887481 60.64170303 11.07421875 63.484375 C13.21745181 63.60709008 15.36500877 63.65990895 17.51171875 63.671875 C18.66542969 63.68605469 19.81914062 63.70023438 21.0078125 63.71484375 C24.24702043 63.72362588 24.24702043 63.72362588 27.07421875 61.484375 C30.13671875 61.234375 30.13671875 61.234375 33.07421875 61.484375 C35.07421875 63.484375 35.07421875 63.484375 35.19921875 66.359375 C33.92632349 69.89519516 33.45639187 70.17276744 30.26171875 71.796875 C23.0245282 75.01491283 15.03046894 75.94000722 7.34765625 73.68359375 C-0.2516799 70.26036338 -6.1775368 64.63645556 -9.42578125 56.921875 C-9.67328125 55.7153125 -9.67328125 55.7153125 -9.92578125 54.484375 C-11.22515625 54.979375 -11.22515625 54.979375 -12.55078125 55.484375 C-19.63838176 57.47640936 -28.55436567 57.94637406 -35.42578125 55.046875 C-39.93760165 52.26588225 -42.92357935 48.35738109 -44.92578125 43.484375 C-45.47888137 39.74107239 -45.58942294 36.21735953 -44.92578125 32.484375 C-42.92578125 30.484375 -42.92578125 30.484375 -40.42578125 30.234375 C-37.92578125 30.484375 -37.92578125 30.484375 -35.92578125 32.484375 C-35.59674985 34.09859742 -35.3337067 35.7267733 -35.11328125 37.359375 C-34.45324573 40.84597484 -34.08059621 42.29313299 -31.80078125 45.109375 C-26.22537182 47.77587516 -21.56038814 46.83599896 -15.92578125 44.984375 C-14.58804343 44.49628147 -13.25295648 44.0004987 -11.92578125 43.484375 C-11.82394531 42.47246094 -11.72210938 41.46054687 -11.6171875 40.41796875 C-10.89970498 36.33602015 -9.66505592 33.26543124 -7.86328125 29.546875 C-7.31542969 28.40347656 -6.76757812 27.26007813 -6.203125 26.08203125 C-5.78160156 25.22480469 -5.36007812 24.36757813 -4.92578125 23.484375 C-5.58578125 23.484375 -6.24578125 23.484375 -6.92578125 23.484375 C-10.44494171 17.35098105 -13.0159412 12.63097912 -11.92578125 5.484375 C-9.43017207 -0.21987455 -5.67243277 -0.27264029 0 0 Z " fill="#673C30" transform="translate(430.92578125,481.515625)"/>
<path d="M0 0 C0 0.33 0 0.66 0 1 C-3.63 1 -7.26 1 -11 1 C-10.40832031 2.11632812 -9.81664062 3.23265625 -9.20703125 4.3828125 C0.92624625 24.19285563 4.24926424 44.34493569 4.375 66.4375 C4.38184311 67.59261078 4.38184311 67.59261078 4.38882446 68.77105713 C4.46488714 104.7725014 4.46488714 104.7725014 -4 115 C-4.99 115 -5.98 115 -7 115 C-7.01401855 113.75017334 -7.01401855 113.75017334 -7.02832031 112.47509766 C-7.49174824 79.34000118 -10.9591403 48.57097614 -27 19 C-30.07680723 13.30722892 -30.07680723 13.30722892 -29.375 10.5 C-28.92125 9.675 -28.4675 8.85 -28 8 C-27.5359375 6.4221875 -27.5359375 6.4221875 -27.0625 4.8125 C-24.68058751 1.56443751 -23.99198743 1.41155825 -20.1875 0.625 C-13.48007052 -0.27411923 -6.75287196 -0.17744773 0 0 Z " fill="#E78844" transform="translate(708,616)"/>
<path d="M0 0 C9.44573505 -0.30470113 18.6421436 0.85830074 28 2 C27.67 2.66 27.34 3.32 27 4 C27.73941903 5.99791446 28.49027628 7.99239775 29.30053711 9.96264648 C35.60452911 25.37967108 36.12908624 39.86210199 36.25 56.375 C36.2595874 57.52734131 36.2691748 58.67968262 36.27905273 59.86694336 C36.2382741 70.21211298 35.06994776 80.27137705 32.0625 90.1875 C31.71445312 91.34378906 31.36640625 92.50007812 31.0078125 93.69140625 C30.67523437 94.78324219 30.34265625 95.87507812 30 97 C29.72929688 97.97839844 29.45859375 98.95679688 29.1796875 99.96484375 C28.93476562 100.84269531 28.68984375 101.72054687 28.4375 102.625 C28.22996094 103.38039063 28.02242187 104.13578125 27.80859375 104.9140625 C26.86184023 107.35641217 25.7795355 109.07688339 24 111 C23.01 111 22.02 111 21 111 C21.00666183 110.10702713 21.00666183 110.10702713 21.01345825 109.1960144 C21.05811617 102.93294708 21.08804033 96.66992585 21.10986328 90.40673828 C21.11984708 88.07729247 21.13343883 85.74785895 21.15087891 83.41845703 C21.32040626 65.11601744 21.32040626 65.11601744 19 47 C18.782229 45.79162476 18.782229 45.79162476 18.56005859 44.55883789 C15.82846398 29.92171523 9.7279232 15.81909248 1.1015625 3.7421875 C0 2 0 2 0 0 Z " fill="#E68541" transform="translate(728,616)"/>
<path d="M0 0 C5.76065111 0.67941234 10.95115325 2.60883195 16.375 4.5625 C17.30183594 4.89185547 18.22867188 5.22121094 19.18359375 5.56054688 C21.45735647 6.3692563 23.7293813 7.18251358 26 8 C24.62012881 12.13961358 21.80467545 13.10134055 18.1875 15.125 C-1.81053001 26.74525252 -19.80270288 42.86294239 -34.73046875 60.51171875 C-36 62 -36 62 -38 64 C-40.125 63.625 -40.125 63.625 -42 63 C-41.51937689 58.09764428 -40.59180148 55.12768383 -38 51 C-37.49062913 49.56579375 -36.99207885 48.12773077 -36.5 46.6875 C-31.84248434 34.74927019 -22.84006923 24.07580441 -14 15 C-13.39542969 14.35675781 -12.79085937 13.71351563 -12.16796875 13.05078125 C-8.13316893 8.85203923 -3.7459334 5.36529823 1 2 C0.505 1.01 0.505 1.01 0 0 Z " fill="#E07836" transform="translate(533,358)"/>
<path d="M0 0 C6.97033754 2.45645169 13.77150385 7.29694405 17.5625 13.75 C19.86228194 18.949507 21.22656324 24.33209082 20 30 C18.43579776 31.87790214 16.77607867 33.16825647 14.8125 34.6171875 C7.96250699 39.84325975 6.33185568 49.00886593 5 57 C-3.25 56.67 -11.5 56.34 -20 56 C-19.01640733 52.06562932 -17.68803946 49.4955893 -15.6875 46 C-12.79032378 40.72702079 -10.64101565 35.60906183 -8.921875 29.8515625 C-8 27 -8 27 -6.55859375 23.80078125 C-4.54735838 19.21621854 -3.4697889 14.41891777 -2.3125 9.5625 C-2.08755859 8.64017578 -1.86261719 7.71785156 -1.63085938 6.76757812 C-1.08181061 4.51297361 -0.53833701 2.25718159 0 0 Z " fill="#F1F0F0" transform="translate(772,845)"/>
<path d="M0 0 C1.98 0.66 3.96 1.32 6 2 C6.48157839 5.31215393 6.95981111 8.62478306 7.4375 11.9375 C7.57220703 12.86369141 7.70691406 13.78988281 7.84570312 14.74414062 C12.37155553 46.2043342 12.37155553 46.2043342 8.42578125 52.51953125 C6.375 54.375 6.375 54.375 4.171875 56.07421875 C-1.11151139 60.75894805 -3.43303275 68.58258188 -6 75 C-11.28 75 -16.56 75 -22 75 C-21.13415978 70.67079891 -20.05720568 67.64526898 -18.25390625 63.68359375 C-14.85361322 55.98631634 -12.33223317 48.12007138 -9.9375 40.0625 C-9.6169162 38.99855515 -9.6169162 38.99855515 -9.28985596 37.91311646 C-5.52873961 25.40744845 -2.45977377 12.82966212 0 0 Z " fill="#EFEEED" transform="translate(507,827)"/>
<path d="M0 0 C5.62376872 0.59054114 10.24760072 2.56954789 15.3125 4.9375 C16.13556641 5.27845703 16.95863281 5.61941406 17.80664062 5.97070312 C20.22994587 7.11543017 22.06467679 8.14210102 24 10 C25.18450963 13.33669557 25.07601093 16.48914963 25 20 C25.07669744 21.97276426 25.15621838 23.94542039 25.23828125 25.91796875 C25.4475469 38.01142088 25.08363334 48.50919232 21 60 C20.74992188 60.81855469 20.49984375 61.63710938 20.2421875 62.48046875 C18.08427875 69.48747131 15.27797566 76.44404868 12 83 C10.68 83 9.36 83 8 83 C7.82445332 78.96242628 8.04574996 75.53666347 8.9921875 71.60546875 C10.32692218 65.13704787 10.29267471 58.7700736 10.25 52.1875 C10.25773438 51.00607422 10.26546875 49.82464844 10.2734375 48.60742188 C10.24637162 36.25861583 8.37887208 25.06096505 4.4375 13.375 C4.12103516 12.40949219 3.80457031 11.44398438 3.47851562 10.44921875 C2.66185497 7.96282518 1.83424903 5.48053419 1 3 C0.67 2.01 0.34 1.02 0 0 Z " fill="#E6843F" transform="translate(789,628)"/>
<path d="M0 0 C4.35862962 4.68149107 6.57345861 10.17310784 9 16 C9.37125 16.83789062 9.7425 17.67578125 10.125 18.5390625 C10.434375 19.30992187 10.74375 20.08078125 11.0625 20.875 C11.34222656 21.55304687 11.62195313 22.23109375 11.91015625 22.9296875 C12.05248508 26.2094389 10.12290037 27.61581958 8 30 C6.78618044 31.72531994 5.57802316 33.45463472 4.375 35.1875 C-5.63521775 48.88955952 -18.30661004 58.29134013 -33.6875 65.1875 C-34.69417725 65.64322388 -34.69417725 65.64322388 -35.72119141 66.1081543 C-38.46601925 67.26856648 -40.46322361 68.07083059 -43.45703125 67.67578125 C-44.22080078 67.34126953 -44.22080078 67.34126953 -45 67 C-43.44978113 62.82409792 -40.37362861 60.62041139 -37 57.9375 C-19.25544662 43.32058372 -4.18568346 23.02125905 0 0 Z " fill="#E5833F" transform="translate(854,680)"/>
<path d="M0 0 C27.30955606 0.47085441 53.95966365 23.75093249 72 42 C72.60585938 42.6084375 73.21171875 43.216875 73.8359375 43.84375 C78.01434117 48.34030623 78.01434117 48.34030623 77.9375 51.875 C77 54 77 54 76 55 C73.703125 55.33984375 73.703125 55.33984375 71 55 C68.859375 53.12890625 68.859375 53.12890625 66.75 50.5625 C65.96109375 49.64339844 65.1721875 48.72429688 64.359375 47.77734375 C63.58078125 46.86082031 62.8021875 45.94429687 62 45 C46.90031071 27.90881625 25.44237716 16.52211271 4.125 9.15625 C1 8 1 8 -2 6 C-1.125 1.125 -1.125 1.125 0 0 Z " fill="#6E4132" transform="translate(573,586)"/>
<path d="M0 0 C5.32781298 22.77005783 6.00792733 48.77042586 -5 70 C-5.99 70 -6.98 70 -8 70 C-8.04487549 69.10394043 -8.08975098 68.20788086 -8.13598633 67.28466797 C-8.31155801 63.88824145 -8.49739276 60.4926732 -8.68969727 57.09716797 C-8.77016876 55.64100194 -8.84680714 54.18461787 -8.91918945 52.72802734 C-9.54027498 40.31488346 -11.36064544 28.50144518 -15.1875 16.625 C-15.53167969 15.54476562 -15.87585938 14.46453125 -16.23046875 13.3515625 C-16.48441406 12.57554687 -16.73835937 11.79953125 -17 11 C-16.18015625 10.45730469 -15.3603125 9.91460938 -14.515625 9.35546875 C-13.43796875 8.64003906 -12.3603125 7.92460938 -11.25 7.1875 C-10.18265625 6.47980469 -9.1153125 5.77210938 -8.015625 5.04296875 C-6.20532607 3.81656157 -4.41552864 2.55772385 -2.671875 1.23828125 C-1 0 -1 0 0 0 Z " fill="#E58542" transform="translate(657,653)"/>
<path d="M0 0 C3.73215139 0.00803477 7.46016094 0.04954348 11.19140625 0.1328125 C12.02285156 0.14957031 12.85429688 0.16632812 13.7109375 0.18359375 C22.43810923 0.71853422 30.88362094 3.57483429 39.19140625 6.1328125 C39.9184375 6.35598145 40.64546875 6.57915039 41.39453125 6.80908203 C54.82648631 11.02188728 72.77893658 17.15159789 82.19140625 28.1328125 C82.75390625 31.5703125 82.75390625 31.5703125 82.19140625 34.1328125 C80.078125 34.87890625 80.078125 34.87890625 77.19140625 35.1328125 C74.94523814 33.90899668 73.05185097 32.69130572 71.00390625 31.1953125 C51.59974995 17.91672577 27.72173613 10.73179809 4.46191406 8.86645508 C-1.6014113 8.33999495 -1.6014113 8.33999495 -3.80859375 6.1328125 C-3.99609375 3.5703125 -3.99609375 3.5703125 -3.80859375 1.1328125 C-2.80859375 0.1328125 -2.80859375 0.1328125 0 0 Z " fill="#6F4132" transform="translate(581.80859375,567.8671875)"/>
<path d="M0 0 C12.66970387 6.15034169 12.66970387 6.15034169 18 10 C15.25648246 13.36003834 11.52361696 14.77758665 7.6875 16.5625 C-7.09667867 23.73606682 -19.45548085 33.90823363 -30.68359375 45.85546875 C-33 48 -33 48 -36 48 C-36.5401128 42.37237313 -34.88164796 39.07627774 -32.125 34.375 C-31.72659912 33.68148437 -31.32819824 32.98796875 -30.91772461 32.2734375 C-26.99566399 25.64606114 -22.46157584 19.4512515 -17 14 C-16.34 14 -15.68 14 -15 14 C-14.67 13.01 -14.34 12.02 -14 11 C-12.05098973 9.33803101 -10.12647627 7.81553498 -8.0625 6.3125 C-7.51142578 5.89677734 -6.96035156 5.48105469 -6.39257812 5.05273438 C-2.26712592 2 -2.26712592 2 0 2 C0 1.34 0 0.68 0 0 Z " fill="#E17A37" transform="translate(572,372)"/>
<path d="M0 0 C0.33 0 0.66 0 1 0 C1 11.88 1 23.76 1 36 C-0.32 35.34 -1.64 34.68 -3 34 C-3 34.66 -3 35.32 -3 36 C-5.05328373 37.5460376 -7.08278522 38.94210498 -9.25 40.3125 C-9.88389648 40.71549316 -10.51779297 41.11848633 -11.17089844 41.53369141 C-16.86113515 45.06414062 -22.68567529 47.75744735 -29 50 C-29.86367188 50.31839844 -30.72734375 50.63679687 -31.6171875 50.96484375 C-37.50295328 52.95426925 -42.81242752 53.35545629 -49 53 C-48.79296875 51.16015625 -48.79296875 51.16015625 -48 49 C-45.98828125 47.68359375 -45.98828125 47.68359375 -43.3125 46.4375 C-28.25736337 38.66584711 -15.5058787 26.44062195 -5.875 12.625 C-5.40102783 11.94671143 -4.92705566 11.26842285 -4.4387207 10.56958008 C-2.09981298 7.08649581 -0.41312593 4.27998462 0 0 Z " fill="#E58441" transform="translate(871,731)"/>
<path d="M0 0 C0.33 0 0.66 0 1 0 C1.25991325 10.85859801 0.6000144 21.25704615 -1 32 C-1.495 31.01 -1.495 31.01 -2 30 C-2.83917969 30.06960938 -3.67835938 30.13921875 -4.54296875 30.2109375 C-20.2557469 30.91826513 -39.23370493 26.50583918 -51.8046875 16.57421875 C-53 15 -53 15 -53 11 C-47.25 10.875 -47.25 10.875 -45 12 C-41.46467543 12.2463713 -37.9179373 12.19002606 -34.375 12.1875 C-33.34060791 12.18741943 -32.30621582 12.18733887 -31.24047852 12.18725586 C-20.61774201 12.10905671 -10.46592356 10.7682154 0 9 C0 6.03 0 3.06 0 0 Z " fill="#E47F3B" transform="translate(688,548)"/>
<path d="M0 0 C11.93164902 7.7157997 20.59764354 15.44349737 26.65234375 28.55859375 C28.6279479 32.13758678 31.33821783 34.85690492 34.12890625 37.81640625 C36.82493703 40.96271357 38.34867732 44.21571886 40 48 C38.42040347 49.29623379 36.83616587 50.58681327 35.25 51.875 C34.36828125 52.59429688 33.4865625 53.31359375 32.578125 54.0546875 C30.41823076 55.68442588 28.460234 56.90784005 26 58 C24.20735349 56.20735349 24.44563089 53.43004465 24.125 51 C22.33147599 39.23960685 18.6917439 30.15008503 9.68359375 21.87109375 C6.56398815 19.69599756 3.45620776 18.31258969 -0.0625 16.875 C-7.69526486 13.7306593 -7.69526486 13.7306593 -11 12 C-10.29875 11.319375 -9.5975 10.63875 -8.875 9.9375 C-5.72065663 6.79219487 -2.86065696 3.4111614 0 0 Z " fill="#E3813E" transform="translate(874,619)"/>
<path d="M0 0 C0 0.33 0 0.66 0 1 C-1.17820312 1.24492187 -2.35640625 1.48984375 -3.5703125 1.7421875 C-7.82312991 2.81053714 -11.2640273 4.67194139 -14.875 7.125 C-15.47868408 7.52533447 -16.08236816 7.92566895 -16.7043457 8.33813477 C-22.04998654 11.93194429 -27.11332688 15.80137046 -32 20 C-32.93972656 20.80566406 -33.87945312 21.61132812 -34.84765625 22.44140625 C-39.80491458 26.81153304 -44.14706286 30.99189281 -47.68359375 36.6015625 C-48.11800781 37.06304687 -48.55242187 37.52453125 -49 38 C-50.32 38 -51.64 38 -53 38 C-51.65042189 22.14245724 -40.40228195 9.23134054 -29 -1 C-21.12973161 -4.9351342 -8.28496783 -1.54138936 0 0 Z " fill="#E07938" transform="translate(527,356)"/>
<path d="M0 0 C0.33 0.66 0.66 1.32 1 2 C2.82351871 2.16375119 2.82351871 2.16375119 5.0625 2.125 C18.41437976 3.2360603 30.48337818 12.45858685 38.9375 22.2421875 C43 27.37673611 43 27.37673611 43 31 C39.95088487 30.6515297 38.2712034 30.22334397 35.875 28.25 C25.00392684 19.74220361 10.53247829 16.83272483 -3 18 C-5.40133271 19.60088848 -7.702779 21.25728062 -10 23 C-7.60292686 14.82175048 -3.91141228 7.53348722 0 0 Z " fill="#E4823D" transform="translate(913,506)"/>
<path d="M0 0 C0.33 0.99 0.66 1.98 1 3 C1.71285156 2.97679687 2.42570313 2.95359375 3.16015625 2.9296875 C8.86107108 2.82226784 13.59013651 3.0068924 19 5 C19.91652344 5.33 20.83304688 5.66 21.77734375 6 C28.81836278 8.69920528 34.38297258 11.98123586 40 17 C40.62261719 17.55300781 41.24523437 18.10601563 41.88671875 18.67578125 C43.5625 20.25 43.5625 20.25 46 23 C46 23.99 46 24.98 46 26 C40.12344114 25.21168113 34.96105381 23.23969574 29.4375 21.15625 C23.40975979 19.12873738 17.78883728 18.84184269 11.5 18.875 C10.76652344 18.87113281 10.03304687 18.86726562 9.27734375 18.86328125 C5.07569666 18.87079761 1.13858733 19.17490189 -3 20 C-2.33644956 13.25390382 -1.28134207 6.65551466 0 0 Z " fill="#E5803C" transform="translate(897,548)"/>
<path d="M0 0 C0 0.99 0 1.98 0 3 C-1.13695312 2.97679687 -2.27390625 2.95359375 -3.4453125 2.9296875 C-17.49986743 2.72624216 -30.06080643 3.86663568 -43.234375 8.9765625 C-46 10 -46 10 -48 10 C-48 11.98 -48 13.96 -48 16 C-48.33 16 -48.66 16 -49 16 C-49.50734284 13.6263603 -50.00602386 11.25142575 -50.5 8.875 C-50.64308594 8.20984375 -50.78617188 7.5446875 -50.93359375 6.859375 C-51.7612283 2.83943578 -52.15330658 -0.89904899 -52 -5 C-34.9733738 -11.30060176 -15.63763254 -8.93579002 0 0 Z " fill="#E48341" transform="translate(569,805)"/>
<path d="M0 0 C14.54260785 1.12081756 28.89852294 7.68120255 38.5078125 18.734375 C39.6842147 20.14605764 40.84378598 21.57173562 42 23 C42.66 23.33 43.32 23.66 44 24 C42.00386732 30.7186905 39.2708579 36.80734808 36 43 C35.67 43 35.34 43 35 43 C34.690625 41.783125 34.38125 40.56625 34.0625 39.3125 C29.0935531 24.45253615 17.08093496 13.72342199 4 6 C2.33333333 5 0.66666667 4 -1 3 C-0.67 2.01 -0.34 1.02 0 0 Z " fill="#E5823F" transform="translate(900,598)"/>
<path d="M0 0 C1.12547241 0.00737183 1.12547241 0.00737183 2.27368164 0.01489258 C12.57412412 0.23061444 20.8382623 3.38737606 29.8125 8.3125 C29.8125 9.3025 29.8125 10.2925 29.8125 11.3125 C27.96398437 11.38597656 27.96398437 11.38597656 26.078125 11.4609375 C13.18300789 12.02210543 1.13337948 13.22371256 -11.1875 17.3125 C-11.5175 19.6225 -11.8475 21.9325 -12.1875 24.3125 C-12.5175 24.3125 -12.8475 24.3125 -13.1875 24.3125 C-13.5175 17.0525 -13.8475 9.7925 -14.1875 2.3125 C-9.05729396 0.60243132 -5.25589892 -0.0407251 0 0 Z " fill="#E4813D" transform="translate(537.1875,834.6875)"/>
<path d="M0 0 C0.33 0.99 0.66 1.98 1 3 C6.28 3.33 11.56 3.66 17 4 C15.49073103 8.52780692 13.89033388 12.58146261 11.875 16.875 C11.33617187 18.02742187 10.79734375 19.17984375 10.2421875 20.3671875 C9.83226562 21.23601563 9.42234375 22.10484375 9 23 C8.67 22.34 8.34 21.68 8 21 C7.16597656 20.88269531 6.33195313 20.76539063 5.47265625 20.64453125 C0.94148223 19.8035372 -2.54513765 17.88038338 -6.5625 15.6875 C-7.30435547 15.29626953 -8.04621094 14.90503906 -8.81054688 14.50195312 C-12.83323165 12.34195409 -16.73662342 10.23832186 -20 7 C-20.8125 4.25 -20.8125 4.25 -21 2 C-19.08404032 1.91866209 -17.16708068 1.86065633 -15.25 1.8125 C-13.64898438 1.76029297 -13.64898438 1.76029297 -12.015625 1.70703125 C-8.6218189 2.03674039 -7.5931115 2.92442126 -5 5 C-3.68 5 -2.36 5 -1 5 C-0.67 3.35 -0.34 1.7 0 0 Z " fill="#E3813E" transform="translate(664,597)"/>
<path d="M0 0 C4.08594655 0.81718931 6.88775555 1.70063853 10.59765625 3.3984375 C11.64630859 3.87796875 12.69496094 4.3575 13.77539062 4.8515625 C14.86013672 5.35429688 15.94488281 5.85703125 17.0625 6.375 C18.15111328 6.87 19.23972656 7.365 20.36132812 7.875 C29.19693991 11.94210007 29.19693991 11.94210007 33 15 C32.67 15.99 32.34 16.98 32 18 C21.03892859 18.53132662 10.75852688 16.90858766 0 15 C0 10.05 0 5.1 0 0 Z " fill="#E38240" transform="translate(424,798)"/>
<path d="M0 0 C6.5150489 0.51363456 11.86962107 2.8167273 17.8125 5.4375 C19.24239258 6.04948242 19.24239258 6.04948242 20.70117188 6.67382812 C27.72550517 9.72550517 27.72550517 9.72550517 30 12 C30 12.99 30 13.98 30 15 C26.70835283 15.02952761 23.41674062 15.04697292 20.125 15.0625 C18.74828125 15.07506836 18.74828125 15.07506836 17.34375 15.08789062 C11.1664353 15.10964173 5.13278165 14.73930108 -1 14 C-1.13392857 3.82142857 -1.13392857 3.82142857 0 0 Z " fill="#E48240" transform="translate(424,832)"/>
<path d="M0 0 C3.71317907 1.14770989 5.2692056 1.85342428 7.4375 5.0625 C8.07674557 8.8180677 7.72758409 10.54034863 5.875 13.875 C2.65216844 16.76728473 0.74942698 17.21379568 -3.5625 17.0625 C-6.5 15.0625 -6.5 15.0625 -8.5625 12.0625 C-9.36035988 7.59448469 -9.07984028 5.81499495 -6.5 2.0625 C-3.5625 0.0625 -3.5625 0.0625 0 0 Z " fill="#F4F1F1" transform="translate(540.5625,485.9375)"/>
<path d="M0 0 C2.1640625 0.41796875 2.1640625 0.41796875 4.7265625 2.60546875 C6.30563888 5.69496601 6.92580144 7.03246236 6.1640625 10.41796875 C4.15254419 13.24666637 2.63677104 15.08560651 -0.84375 15.87109375 C-4.03020134 16.03570747 -6.25403366 15.85439663 -8.8359375 13.91796875 C-10.33831967 10.16201333 -10.22160763 7.46750512 -9.8359375 3.41796875 C-7.12948058 -0.30659109 -4.32459794 -0.1479097 0 0 Z " fill="#F6F3F2" transform="translate(402.8359375,430.58203125)"/>
<path d="M0 0 C2.2550104 2.91864709 4.26493521 5.91519023 6.1875 9.0625 C6.71730469 9.91972656 7.24710937 10.77695312 7.79296875 11.66015625 C9 14 9 14 9 17 C2.92671312 17.50610724 -0.77228537 16.04157942 -6 13 C-4.58707905 8.1725201 -2.57025846 4.2837641 0 0 Z " fill="#E2813E" transform="translate(326,447)"/>
<path d="M0 0 C4.75481646 0.57634139 7.97048212 2.55068521 12 5 C8.6189962 9.13621084 5.33409466 12.81316569 1 16 C0.67 15.01 0.34 14.02 0 13 C-0.66 12.67 -1.32 12.34 -2 12 C-2.33 11.34 -2.66 10.68 -3 10 C-1.35 9.34 0.3 8.68 2 8 C1.47731534 5.23723823 0.89130413 2.6739124 0 0 Z " fill="#EB954F" transform="translate(648,631)"/>
<path d="M0 0 C1.66611905 -0.042721 3.33382885 -0.04063832 5 0 C5.33 0.33 5.66 0.66 6 1 C16.62265908 1.62056771 27.39565406 0.62707853 38 0 C34.36656529 3.63343471 29.6576088 3.12768068 24.74609375 3.1328125 C23.56208984 3.13410156 22.37808594 3.13539063 21.15820312 3.13671875 C19.93037109 3.13285156 18.70253906 3.12898437 17.4375 3.125 C16.20580078 3.12886719 14.97410156 3.13273438 13.70507812 3.13671875 C11.93100586 3.13478516 11.93100586 3.13478516 10.12109375 3.1328125 C9.0427124 3.13168457 7.96433105 3.13055664 6.85327148 3.12939453 C4.39053394 3.01771053 2.34715529 2.71353521 0 2 C0 1.34 0 0.68 0 0 Z " fill="#6F4238" transform="translate(530,933)"/>
<path d="M0 0 C0.33 0 0.66 0 1 0 C1.19393875 2.14526099 1.37998676 4.29123677 1.5625 6.4375 C1.66691406 7.63246094 1.77132812 8.82742188 1.87890625 10.05859375 C1.91886719 11.02925781 1.95882812 11.99992188 2 13 C1.67 13.33 1.34 13.66 1 14 C1.0059542 15.66717679 1.05559408 17.33425791 1.125 19 C1.19728163 24.52954453 0.10652194 28.92177746 -2 34 C-3.28650358 30.23502467 -2.85638127 26.96423918 -2.44140625 23.046875 C-2.37340317 22.38665344 -2.30540009 21.72643188 -2.2353363 21.04620361 C-2.01757942 18.94672582 -1.79018171 16.84842232 -1.5625 14.75 C-1.41277333 13.32298348 -1.26367768 11.89590059 -1.11523438 10.46875 C-0.75079669 6.97836816 -0.3777083 3.48897361 0 0 Z " fill="#E0D9D7" transform="translate(698,549)"/>
<path d="M0 0 C0.33 0 0.66 0 1 0 C2.14884998 9.35689865 1.91613586 17.00446227 -1 26 C-1.33 26 -1.66 26 -2 26 C-2.12559809 19.46889952 -2.12559809 19.46889952 -1.53125 17.25 C-0.75276278 13.95287766 -0.63187476 10.62128689 -0.4375 7.25 C-0.39431641 6.55261719 -0.35113281 5.85523438 -0.30664062 5.13671875 C-0.20110404 3.42468078 -0.1001009 1.71236439 0 0 Z " fill="#784733" transform="translate(738,432)"/>
<path d="M0 0 C0.598125 0.226875 1.19625 0.45375 1.8125 0.6875 C1.4825 2.3375 1.1525 3.9875 0.8125 5.6875 C-1.95014289 6.28482819 -4.34782769 6.6875 -7.1875 6.6875 C-3.9375 -0.5625 -3.9375 -0.5625 0 0 Z " fill="#6F4233" transform="translate(708.1875,889.3125)"/>
<path d="M0 0 C2.33944736 0.28730055 4.6739143 0.61936779 7 1 C6.01 1.495 6.01 1.495 5 2 C5.33 3.65 5.66 5.3 6 7 C3.0625 6.25 3.0625 6.25 0 5 C-0.9375 2.9375 -0.9375 2.9375 -1 1 C-0.67 0.67 -0.34 0.34 0 0 Z " fill="#F0994F" transform="translate(638,597)"/>
<path d="M0 0 C3.00117879 1.5005894 3.59903432 3.83882403 5.0625 6.8125 C5.58972656 7.87082031 6.11695313 8.92914062 6.66015625 10.01953125 C7.72736146 12.39351834 8.50231085 14.46239975 9 17 C9.66 17 10.32 17 11 17 C10.67 18.32 10.34 19.64 10 21 C8.7069894 18.75076296 7.41555023 16.50064815 6.125 14.25 C5.76019531 13.61578125 5.39539063 12.9815625 5.01953125 12.328125 C0 3.56676136 0 3.56676136 0 0 Z " fill="#5B362E" transform="translate(311,563)"/>
<path d="M0 0 C0.66 0.99 1.32 1.98 2 3 C1.34 3 0.68 3 0 3 C0.0825 3.928125 0.165 4.85625 0.25 5.8125 C0.29451603 11.22119732 -1.99996233 16.06240701 -4 21 C-5.6442602 16.94138305 -4.28397525 13.3815237 -3.125 9.375 C-2.93808594 8.694375 -2.75117187 8.01375 -2.55859375 7.3125 C-1.17672294 2.35344587 -1.17672294 2.35344587 0 0 Z " fill="#7A5952" transform="translate(893,529)"/>
<path d="M0 0 C0.33 0 0.66 0 1 0 C1.06058594 0.61488281 1.12117187 1.22976563 1.18359375 1.86328125 C1.26738281 2.67152344 1.35117187 3.47976563 1.4375 4.3125 C1.51871094 5.11300781 1.59992187 5.91351562 1.68359375 6.73828125 C1.95265693 9.16087179 1.95265693 9.16087179 3 12 C-0.96 12 -4.92 12 -9 12 C-9 11.67 -9 11.34 -9 11 C-7.02 11 -5.04 11 -3 11 C-3 10.34 -3 9.68 -3 9 C-2.34 9 -1.68 9 -1 9 C-0.67 6.03 -0.34 3.06 0 0 Z " fill="#E39954" transform="translate(817,908)"/>
<path d="M0 0 C0 0.66 0 1.32 0 2 C-6.5 6 -6.5 6 -11 6 C-11.33 6.66 -11.66 7.32 -12 8 C-12.66 7.34 -13.32 6.68 -14 6 C-12.2335343 4.9923048 -10.46166177 3.99408286 -8.6875 3 C-7.20830078 2.1646875 -7.20830078 2.1646875 -5.69921875 1.3125 C-3 0 -3 0 0 0 Z " fill="#6C483F" transform="translate(256,520)"/>
<path d="M0 0 C4.41889613 1.35021826 6.34345343 3.26115668 9 7 C4.32165993 7 3.2690159 6.1782099 0 3 C0 2.01 0 1.02 0 0 Z " fill="#EF9B56" transform="translate(314,473)"/>
<path d="M0 0 C0.99 0.33 1.98 0.66 3 1 C2.57847656 1.48210937 2.15695312 1.96421875 1.72265625 2.4609375 C1.17480469 3.09257812 0.62695312 3.72421875 0.0625 4.375 C-0.48277344 5.00148438 -1.02804687 5.62796875 -1.58984375 6.2734375 C-3.06958624 7.95632334 -3.06958624 7.95632334 -4 10 C-4.99 9.67 -5.98 9.34 -7 9 C-4.69 6.03 -2.38 3.06 0 0 Z " fill="#6E483F" transform="translate(405,292)"/>
<path d="M0 0 C0 0.66 0 1.32 0 2 C1.32 2.33 2.64 2.66 4 3 C2.56260487 3.02712066 1.12506137 3.04645067 -0.3125 3.0625 C-1.51326172 3.07990234 -1.51326172 3.07990234 -2.73828125 3.09765625 C-5 3 -5 3 -8 2 C-8 4.64 -8 7.28 -8 10 C-8.33 10 -8.66 10 -9 10 C-9 7.03 -9 4.06 -9 1 C-2.25 0 -2.25 0 0 0 Z " fill="#98603C" transform="translate(317,519)"/>
<path d="M0 0 C0.66 0.66 1.32 1.32 2 2 C-1.3 4.97 -4.6 7.94 -8 11 C-8 8 -8 8 -6.25 5.95703125 C-5.5075 5.24933594 -4.765 4.54164063 -4 3.8125 C-2.88625 2.73935547 -2.88625 2.73935547 -1.75 1.64453125 C-1.1725 1.10183594 -0.595 0.55914063 0 0 Z " fill="#ECA459" transform="translate(525,880)"/>
<path d="M0 0 C2 1 2 1 3 3 C-0.90480249 4.35862973 -4.7101776 3.89469712 -8.75 3.5625 C-9.44738281 3.51029297 -10.14476562 3.45808594 -10.86328125 3.40429688 C-12.57596203 3.27525928 -14.28805066 3.13840386 -16 3 C-16 2.67 -16 2.34 -16 2 C-14.64455078 1.90912109 -14.64455078 1.90912109 -13.26171875 1.81640625 C-11.49248047 1.69072266 -11.49248047 1.69072266 -9.6875 1.5625 C-7.92986328 1.44068359 -7.92986328 1.44068359 -6.13671875 1.31640625 C-2.97409042 1.1132629 -2.97409042 1.1132629 0 0 Z " fill="#CCA679" transform="translate(417,536)"/>
<path d="M0 0 C0 0.66 0 1.32 0 2 C-4.96993194 4.43425238 -8.34605369 5.34615998 -14 5 C-4.38461538 0 -4.38461538 0 0 0 Z " fill="#E8E2E1" transform="translate(892,692)"/>
<path d="M0 0 C0.33 0 0.66 0 1 0 C1.223293 2.06093408 1.42802887 4.1238839 1.625 6.1875 C1.74101563 7.33605469 1.85703125 8.48460937 1.9765625 9.66796875 C2.00023426 13.03330416 1.47419799 15.01221706 0 18 C-0.33 18 -0.66 18 -1 18 C-0.505 9.09 -0.505 9.09 0 0 Z " fill="#D2C8C7" transform="translate(698,549)"/>
<path d="M0 0 C0 4.38968456 -2.12805101 5.76905739 -5 9 C-5.99 8.34 -6.98 7.68 -8 7 C-5.36 4.69 -2.72 2.38 0 0 Z " fill="#C7C1C2" transform="translate(593,920)"/>
<path d="M0 0 C2.625 0.375 2.625 0.375 5 1 C4.67 1.66 4.34 2.32 4 3 C2.35 3 0.7 3 -1 3 C-1 4.65 -1 6.3 -1 8 C-1.33 8 -1.66 8 -2 8 C-2.125 5.125 -2.125 5.125 -2 2 C-1.34 1.34 -0.68 0.68 0 0 Z " fill="#935D40" transform="translate(732,775)"/>
<path d="M0 0 C0.33 0 0.66 0 1 0 C1.33 4.29 1.66 8.58 2 13 C-0.475 12.01 -0.475 12.01 -3 11 C-2.34 10.34 -1.68 9.68 -1 9 C-0.53993654 6.79749008 -0.53993654 6.79749008 -0.375 4.375 C-0.30023437 3.55773437 -0.22546875 2.74046875 -0.1484375 1.8984375 C-0.09945312 1.27195312 -0.05046875 0.64546875 0 0 Z " fill="#C7864E" transform="translate(520,909)"/>
<path d="M0 0 C0.66 0.66 1.32 1.32 2 2 C-1.465 4.97 -1.465 4.97 -5 8 C-5 5 -5 5 -2.5 2.3125 C-1.675 1.549375 -0.85 0.78625 0 0 Z " fill="#754C41" transform="translate(678,869)"/>
<path d="M0 0 C2.64 0 5.28 0 8 0 C7.67 0.99 7.34 1.98 7 3 C4.69 3 2.38 3 0 3 C0 2.01 0 1.02 0 0 Z " fill="#724132" transform="translate(435,506)"/>
<path d="M0 0 C4.33168317 -0.26252625 7.8803623 0.70756464 12 2 C12 2.33 12 2.66 12 3 C3.42857143 3.14285714 3.42857143 3.14285714 0 2 C0 1.34 0 0.68 0 0 Z " fill="#7D574E" transform="translate(530,933)"/>
<path d="M0 0 C0.66 0.33 1.32 0.66 2 1 C-0.31 3.64 -2.62 6.28 -5 9 C-5.33 8.01 -5.66 7.02 -6 6 C-4.02 4.02 -2.04 2.04 0 0 Z " fill="#F1B16C" transform="translate(671,638)"/>
<path d="M0 0 C5.75 1.625 5.75 1.625 8 5 C5.69 4.67 3.38 4.34 1 4 C0.67 2.68 0.34 1.36 0 0 Z " fill="#F4B16C" transform="translate(646,595)"/>
<path d="M0 0 C0.6875 1.6875 0.6875 1.6875 1 4 C-0.3125 6.75 -0.3125 6.75 -2 9 C-2.66 9 -3.32 9 -4 9 C-2.94124926 5.59687262 -1.99097846 2.98646769 0 0 Z " fill="#E0D9D7" transform="translate(724,507)"/>
<path d="M0 0 C-3.44175522 2.14699969 -5.7720292 2.09856795 -9.75 1.625 C-10.73484375 1.51414062 -11.7196875 1.40328125 -12.734375 1.2890625 C-13.48203125 1.19367187 -14.2296875 1.09828125 -15 1 C-15 0.67 -15 0.34 -15 0 C-13.25093341 -0.19601608 -11.50068154 -0.38147403 -9.75 -0.5625 C-8.77546875 -0.66691406 -7.8009375 -0.77132812 -6.796875 -0.87890625 C-4.2368648 -0.98974468 -2.41851841 -0.77738092 0 0 Z " fill="#8E583D" transform="translate(455,912)"/>
<path d="M0 0 C0.66 0 1.32 0 2 0 C2.33 1.65 2.66 3.3 3 5 C1.35 5 -0.3 5 -2 5 C-1.34 3.35 -0.68 1.7 0 0 Z " fill="#E5C38F" transform="translate(740,809)"/>
<path d="M0 0 C3.36720387 1.39332574 4.9859524 2.9789286 7 6 C4 6 4 6 1.8125 4.125 C0 2 0 2 0 0 Z " fill="#F3A352" transform="translate(633,630)"/>
<path d="M0 0 C1 2 1 2 0.44140625 3.9453125 C0.15136719 4.66460937 -0.13867188 5.38390625 -0.4375 6.125 C-0.72496094 6.84945313 -1.01242187 7.57390625 -1.30859375 8.3203125 C-1.53675781 8.87460937 -1.76492188 9.42890625 -2 10 C-2.33 10 -2.66 10 -3 10 C-2.88637738 8.5199159 -2.75877092 7.04089926 -2.625 5.5625 C-2.55539062 4.73878906 -2.48578125 3.91507812 -2.4140625 3.06640625 C-2.27742187 2.38449219 -2.14078125 1.70257813 -2 1 C-1.34 0.67 -0.68 0.34 0 0 Z " fill="#7E5D54" transform="translate(741,467)"/>
<path d="M0 0 C0.33 0.99 0.66 1.98 1 3 C-0.32 4.32 -1.64 5.64 -3 7 C-3.99 6.67 -4.98 6.34 -6 6 C-4.02 4.02 -2.04 2.04 0 0 Z " fill="#E29C57" transform="translate(351,415)"/>
<path d="M0 0 C0.66 0.99 1.32 1.98 2 3 C1.01 4.485 1.01 4.485 0 6 C-0.66 6 -1.32 6 -2 6 C-2 6.66 -2 7.32 -2 8 C-2.66 8 -3.32 8 -4 8 C-2.87548273 5.0280615 -1.77706209 2.66559313 0 0 Z " fill="#704840" transform="translate(784,881)"/>
<path d="M0 0 C0.66 0 1.32 0 2 0 C0.70700306 2.88437779 -0.65941363 4.87219421 -3 7 C-3.66 6.67 -4.32 6.34 -5 6 C-3.38405168 3.95880212 -1.7143618 1.95927063 0 0 Z " fill="#785349" transform="translate(403,868)"/>
<path d="M0 0 C2.0625 0.4375 2.0625 0.4375 4 1 C3.34 1 2.68 1 2 1 C1.71125 1.61875 1.4225 2.2375 1.125 2.875 C0 5 0 5 -2 7 C-1.125 1.125 -1.125 1.125 0 0 Z " fill="#EB9A50" transform="translate(895,567)"/>
<path d="M0 0 C0.66 0 1.32 0 2 0 C2 1.65 2 3.3 2 5 C0.35 5.33 -1.3 5.66 -3 6 C-3 5.34 -3 4.68 -3 4 C-2.01 4 -1.02 4 0 4 C0 2.68 0 1.36 0 0 Z " fill="#764330" transform="translate(332,479)"/>
</svg>
