<?xml version="1.0" encoding="UTF-8"?>
<svg version="1.1" xmlns="http://www.w3.org/2000/svg" width="1254" height="1254">
<path d="M0 0 C413.82 0 827.64 0 1254 0 C1254 413.82 1254 827.64 1254 1254 C840.18 1254 426.36 1254 0 1254 C0 840.18 0 426.36 0 0 Z " fill="#F6F6F6" transform="translate(0,0)"/>
<path d="M0 0 C8.00875547 6.90185431 13.86465032 15.81271518 15.625 26.3125 C16.05061047 32.93420708 15.752168 39.01657173 13.625 45.3125 C13.38007812 46.06917969 13.13515625 46.82585937 12.8828125 47.60546875 C10.66287058 53.78397966 7.40769267 58.86130067 3.70703125 64.2578125 C-9.6602464 83.86984087 -14.84490275 106.44687244 -20.9296875 129.09765625 C-29.04622644 158.84386482 -42.7777304 185.39843428 -63.375 208.3125 C-64.01566406 209.03695312 -64.65632812 209.76140625 -65.31640625 210.5078125 C-84.3461167 230.81165043 -112.26219253 243.12434275 -139.375 247.3125 C-140.695 247.3125 -142.015 247.3125 -143.375 247.3125 C-142.60463343 249.16686064 -141.83368202 251.02097833 -141.0625 252.875 C-140.60488281 253.97585938 -140.14726563 255.07671875 -139.67578125 256.2109375 C-138.7219185 258.48531295 -137.74901922 260.74552882 -136.75 263 C-129.99862429 279.26467785 -125.73171126 297.20810572 -123.35644531 314.60107422 C-121.26365101 329.7867337 -118.68960959 345.51823421 -106.39501953 355.85839844 C-103.03411968 358.27772639 -99.33886904 359.63446791 -95.5 361.125 C-85.1971045 365.44095075 -78.02744568 371.03674162 -73.45410156 381.52319336 C-70.04270243 390.34111986 -68.85092359 398.9701047 -68.9375 408.375 C-68.94217285 409.53749268 -68.9468457 410.69998535 -68.95166016 411.89770508 C-69.24343243 430.42287209 -71.38839474 448.90638619 -73.375 467.3125 C-73.46063202 468.11500183 -73.54626404 468.91750366 -73.63449097 469.74432373 C-73.8816916 472.03991406 -74.13649515 474.33451108 -74.39453125 476.62890625 C-74.53995361 477.92900635 -74.68537598 479.22910645 -74.83520508 480.56860352 C-77.07590323 496.10958324 -82.00452008 515.01272147 -94.76171875 525.22265625 C-106.33204123 532.61531128 -118.69941103 533.50137667 -132.0625 533.5625 C-133.17044922 533.583125 -134.27839844 533.60375 -135.41992188 533.625 C-148.74274018 533.68729255 -160.33540265 530.89299317 -170.25 521.625 C-175.94532521 512.74699306 -177.37718657 504.6262754 -175.75 494.375 C-173.8057096 487.54958894 -170.07987613 481.55252406 -164.5625 477.125 C-161.39083534 474.24674925 -160.89111186 471.7071834 -160.53833008 467.47729492 C-160.39154221 464.41678574 -160.34739461 461.37669776 -160.375 458.3125 C-161.35388184 458.22331299 -161.35388184 458.22331299 -162.35253906 458.13232422 C-178.93950003 456.55496523 -194.19794874 453.65596724 -209.74609375 447.625 C-213.2020306 446.14244148 -213.2020306 446.14244148 -216.375 446.3125 C-216.95354736 447.48530518 -217.53209473 448.65811035 -218.12817383 449.86645508 C-220.32658759 454.31858446 -222.53360128 458.76640815 -224.74291992 463.21313477 C-225.68854152 465.11924071 -226.63198727 467.02642802 -227.57299805 468.93481445 C-236.00156737 486.0217003 -244.53661123 503.28381047 -256.375 518.3125 C-257.00921875 519.15941406 -257.6434375 520.00632812 -258.296875 520.87890625 C-265.69644271 529.54418949 -277.4078509 533.35421554 -288.47421265 534.53683472 C-292.77503078 534.82373022 -297.06525496 534.84128537 -301.3737793 534.77905273 C-303.57221233 534.74987108 -305.76824869 534.7585503 -307.96679688 534.77148438 C-320.49008832 534.75306003 -333.44335304 533.42663072 -343.15625 524.71484375 C-349.53145923 517.85524362 -351.02447507 510.80779365 -350.7890625 501.5625 C-349.79302689 493.74456013 -345.24016644 486.51320314 -339.375 481.3125 C-335.53560236 478.63460081 -331.57732235 476.11405195 -327.1640625 474.5078125 C-321.78138572 472.50735408 -320.28792949 469.7773593 -317.875 464.5625 C-317.01653418 462.48939637 -316.17479671 460.40893684 -315.375 458.3125 C-320.66965474 458.89169428 -325.64668643 459.77576045 -330.8125 461.125 C-332.21988736 461.48371982 -333.6274453 461.84177089 -335.03515625 462.19921875 C-337.18293584 462.74907736 -339.33014875 463.30085723 -341.47607422 463.85791016 C-343.56464751 464.39609118 -345.6562929 464.91967268 -347.75 465.4375 C-348.44673828 465.61466553 -349.14347656 465.79183105 -349.86132812 465.97436523 C-353.64643701 466.87865303 -357.20274951 467.41663577 -361.09765625 467.515625 C-368.99815002 467.48081959 -368.99815002 467.48081959 -375.98925781 470.58642578 C-378.97365058 473.88275816 -381.14019792 477.64944767 -383.31005859 481.51123047 C-384.87601254 484.1599256 -386.77509317 486.45874781 -388.75 488.8125 C-389.48734375 489.69550781 -390.2246875 490.57851563 -390.984375 491.48828125 C-391.77328125 492.42027344 -392.5621875 493.35226562 -393.375 494.3125 C-393.81005859 494.83247559 -394.24511719 495.35245117 -394.69335938 495.88818359 C-402.90231665 505.69782965 -411.53898338 515.06631635 -420.375 524.3125 C-421.1484375 525.12847656 -421.921875 525.94445312 -422.71875 526.78515625 C-427.8793657 532.10439743 -433.53086047 536.76341523 -439.375 541.3125 C-440.20128906 541.95574219 -441.02757812 542.59898437 -441.87890625 543.26171875 C-456.67829259 554.21278954 -473.62375381 556.90913306 -491.625 556.75 C-492.3450119 556.74729095 -493.0650238 556.74458191 -493.80685425 556.74179077 C-508.83007058 556.65616763 -524.85467566 556.35585418 -536.32421875 545.4609375 C-540.3115127 541.27144811 -541.96270826 538.00280169 -543.375 532.3125 C-544.60734375 532.63863281 -545.8396875 532.96476563 -547.109375 533.30078125 C-548.78123917 533.74222853 -550.45311479 534.18363242 -552.125 534.625 C-552.93066406 534.83833984 -553.73632812 535.05167969 -554.56640625 535.27148438 C-557.16777169 535.95767132 -559.77129413 536.63525166 -562.375 537.3125 C-563.32576416 537.56491455 -564.27652832 537.8173291 -565.25610352 538.07739258 C-572.39536745 539.93073731 -579.52245564 541.27046492 -586.8125 542.375 C-587.91360107 542.54563965 -589.01470215 542.7162793 -590.14916992 542.89208984 C-592.29476563 543.22423524 -594.4406667 543.55441605 -596.58691406 543.88232422 C-598.7866512 544.22172324 -600.98371972 544.57841774 -603.1796875 544.94140625 C-654.72923003 553.44373339 -719.01229514 554.48689998 -768.92578125 537.44140625 C-772.63984774 537.24592907 -774.83379859 539.32171223 -777.6875 541.4375 C-790.82800551 550.5565577 -805.44093719 552.52253202 -821.15771484 552.60766602 C-822.62168094 552.61911081 -824.08560783 552.63944195 -825.54931641 552.66918945 C-838.38840937 552.92922539 -852.0922314 551.99306977 -862.375 543.3125 C-867.76370685 538.05669847 -870.56192836 533.40846812 -870.85717773 525.69116211 C-870.9288197 517.38560077 -869.88371834 511.89134464 -864.375 505.3125 C-863.82199219 504.64605469 -863.26898437 503.97960937 -862.69921875 503.29296875 C-858.88615769 499.12928138 -854.6815974 496.27655099 -849.375 494.3125 C-848.715 494.3125 -848.055 494.3125 -847.375 494.3125 C-848.365 492.6625 -849.355 491.0125 -850.375 489.3125 C-870.33220264 490.00666357 -889.53536741 495.76889672 -906.60546875 506.08984375 C-909.75683883 507.48106919 -911.14894508 507.35639711 -914.375 506.3125 C-915 503.6875 -915 503.6875 -914.375 500.3125 C-911.39148943 497.69935626 -907.90936885 496.07093599 -904.375 494.3125 C-903.2509375 493.73242188 -902.126875 493.15234375 -900.96875 492.5546875 C-886.71088731 485.40446421 -872.21344418 481.74073117 -856.375 480.3125 C-856.71273437 479.61125 -857.05046875 478.91 -857.3984375 478.1875 C-860.02715941 472.59576785 -862.11896182 467.36432031 -863.375 461.3125 C-871.84781131 460.35705069 -880.22854601 460.16075904 -888.75 460.1875 C-889.97460938 460.18363281 -891.19921875 460.17976563 -892.4609375 460.17578125 C-899.67239859 460.18342051 -906.76895653 460.49827022 -913.94775391 461.19580078 C-915.14924072 461.25356689 -915.14924072 461.25356689 -916.375 461.3125 C-917.375 460.3125 -917.375 460.3125 -917.625 457.375 C-917.5425 456.364375 -917.46 455.35375 -917.375 454.3125 C-912.00594083 450.73312722 -906.48863086 451.16463005 -900.2421875 451.1796875 C-899.36853546 451.17873077 -898.49488342 451.17777405 -897.59475708 451.17678833 C-895.75408862 451.17610969 -893.91341773 451.17794192 -892.07275391 451.18212891 C-889.25287529 451.18749453 -886.43315502 451.18216661 -883.61328125 451.17578125 C-881.82291632 451.17644183 -880.03255148 451.17772259 -878.2421875 451.1796875 C-876.97651443 451.17665115 -876.97651443 451.17665115 -875.68527222 451.17355347 C-872.33251802 451.1870256 -869.57773449 451.24492184 -866.375 452.3125 C-866.86033203 450.47171875 -866.86033203 450.47171875 -867.35546875 448.59375 C-874.49795481 416.25994929 -861.54743299 379.5644354 -845.89160156 351.66943359 C-842.54602161 345.68133034 -841.82569071 341.98305556 -843.375 335.3125 C-843.51647461 334.58385742 -843.65794922 333.85521484 -843.80371094 333.10449219 C-844.25693549 330.7919366 -844.75203268 328.4908047 -845.25 326.1875 C-846.82855337 318.59544433 -848.06853343 311.00279532 -849.0625 303.3125 C-849.24111572 301.93553955 -849.24111572 301.93553955 -849.42333984 300.53076172 C-850.74353125 289.92541457 -851.53214117 279.38372096 -851.578125 268.6953125 C-851.58382507 267.63569305 -851.58952515 266.57607361 -851.59539795 265.48434448 C-851.6047688 263.26089452 -851.61135003 261.03743116 -851.61523438 258.81396484 C-851.62495647 255.45254926 -851.65606328 252.09174199 -851.6875 248.73046875 C-851.7591374 234.17358654 -851.45574183 220.44307105 -844.375 207.3125 C-843.7975 206.24 -843.22 205.1675 -842.625 204.0625 C-838.87901156 199.48406969 -834.17860867 196.52204626 -828.375 195.3125 C-815.34112626 194.30754855 -802.82260508 195.04596295 -790.29199219 198.74804688 C-788.39394641 199.30692128 -786.48198934 199.81782112 -784.5703125 200.328125 C-778.55017957 201.95938683 -772.7579544 203.82412666 -767.01171875 206.24609375 C-763.77528486 207.55505146 -760.48800175 208.67523544 -757.1875 209.8125 C-752.17362067 211.58146608 -747.89244876 213.54671505 -743.375 216.3125 C-742.38371094 216.71855469 -741.39242187 217.12460937 -740.37109375 217.54296875 C-737.15321012 218.89288129 -734.1590855 220.50769544 -731.125 222.23046875 C-730.1865625 222.76220703 -729.248125 223.29394531 -728.28125 223.84179688 C-726.33868569 224.95015514 -724.40117231 226.0674117 -722.46875 227.19335938 C-714.50114436 231.67513755 -709.48452285 231.9972127 -700.5625 229.9375 C-698.16757725 229.3918214 -695.77164314 228.8505723 -693.375 228.3125 C-692.65293365 228.1441716 -691.93086731 227.9758432 -691.18692017 227.80241394 C-685.01499099 226.44922054 -679.16298558 226.00540548 -672.85546875 226.01171875 C-671.87620926 226.00743362 -670.89694977 226.0031485 -669.88801575 225.99873352 C-667.82321947 225.99302386 -665.75840308 225.99246494 -663.69360352 225.99682617 C-660.6085158 225.99995336 -657.52442045 225.97659811 -654.43945312 225.95117188 C-639.88455763 225.90467806 -625.28397931 226.61934798 -611.15698242 230.4128418 C-606.62521452 231.49085901 -603.23550831 232.12491463 -598.89648438 230.23022461 C-598.09533203 229.73014893 -597.29417969 229.23007324 -596.46875 228.71484375 C-595.56680908 228.16368896 -594.66486816 227.61253418 -593.7355957 227.04467773 C-592.79159912 226.45243408 -591.84760254 225.86019043 -590.875 225.25 C-588.90175779 224.04876179 -586.92649756 222.85083218 -584.94921875 221.65625 C-583.51521729 220.78806641 -583.51521729 220.78806641 -582.05224609 219.90234375 C-574.03549917 215.1417149 -565.73277556 211.16851315 -556.875 208.234375 C-554.31749409 207.356574 -554.31749409 207.356574 -551.84375 205.95703125 C-537.42781911 199.1224514 -519.52892024 193.80041751 -503.48046875 194.4921875 C-502.60632324 194.52119141 -501.73217773 194.55019531 -500.83154297 194.58007812 C-499.13175005 194.64913712 -497.43285312 194.75671985 -495.73876953 194.91210938 C-488.93355513 195.22689714 -485.44923393 192.65710644 -480.21655273 188.50927734 C-475.6174307 184.95373992 -470.58164737 182.23849342 -465.5 179.4375 C-464.41211182 178.83526611 -463.32422363 178.23303223 -462.20336914 177.61254883 C-433.95965268 162.13030449 -403.77907001 149.5129655 -371.76074219 144.69970703 C-369.14188471 144.27466528 -366.54755011 143.76301373 -363.9453125 143.24609375 C-350.17200934 140.65024337 -336.7918779 139.9302043 -322.8125 139.9375 C-321.97290741 139.93577789 -321.13331482 139.93405579 -320.26828003 139.93228149 C-303.44741577 139.9361905 -287.56773686 141.68719451 -271.1875 145.625 C-269.95064453 145.90794922 -268.71378906 146.19089844 -267.43945312 146.48242188 C-249.25434049 150.77414652 -233.30825809 158.16981827 -217.25 167.5 C-216.55156982 167.90371826 -215.85313965 168.30743652 -215.13354492 168.72338867 C-211.91126794 170.63240929 -209.08028162 172.51852492 -206.34375 175.08203125 C-200.50962917 179.46529835 -192.19325643 177.91137317 -185.21826172 177.04443359 C-163.95793881 173.90830429 -144.76328669 165.55635027 -131.25 148.25 C-129.56841213 145.97437841 -127.96354653 143.65374976 -126.375 141.3125 C-125.96008301 140.71679199 -125.54516602 140.12108398 -125.11767578 139.50732422 C-111.75797732 119.99425445 -106.81715422 96.30412466 -101.55639648 73.59277344 C-95.05040011 45.54803935 -95.05040011 45.54803935 -89.625 34.5625 C-89.28847412 33.86769531 -88.95194824 33.17289062 -88.60522461 32.45703125 C-80.09612977 15.40363962 -66.90708581 -0.18368004 -48.4375 -6.6875 C-32.05365069 -11.53200575 -13.85094024 -10.23765148 0 0 Z " fill="#F6AD5F" transform="translate(1078.375,332.6875)"/>
<path d="M0 0 C1.32330322 0.30478271 1.32330322 0.30478271 2.67333984 0.61572266 C11.70671425 2.73720955 20.54207544 5.12871115 29 9 C29.95261719 9.41765625 30.90523437 9.8353125 31.88671875 10.265625 C35.28609125 11.78760728 38.64979077 13.37353887 42 15 C42.65419922 15.31565918 43.30839844 15.63131836 43.98242188 15.95654297 C55.2957482 21.48209142 65.21815021 28.0903478 75 36 C75.5986084 36.48291504 76.1972168 36.96583008 76.81396484 37.46337891 C100.91313471 57.05690647 120.21704046 82.70470283 131 112 C131.37382813 112.87398437 131.74765625 113.74796875 132.1328125 114.6484375 C138.77382271 130.56180159 142.05399297 147.95806234 145.04296875 164.8828125 C148.96997188 188.93708306 148.96997188 188.93708306 163 208 C168.15043569 211.02324018 173.58356976 213.49824713 179 216 C187.18331437 219.85429585 192.022071 224.36306502 195.8125 232.6875 C206.345457 262.06890637 198.51733461 321.27959078 186.33984375 349.3359375 C182.46434361 357.04174243 178.8364072 362.1144481 171 366 C170.154375 366.433125 169.30875 366.86625 168.4375 367.3125 C165.10940471 368.25119354 162.43942709 368.37521023 159 368 C156.09282927 365.78136971 155.16018357 364.48055071 154 361 C153.90601771 359.18945873 153.87008013 357.37547219 153.875 355.5625 C153.87242187 354.61503906 153.86984375 353.66757812 153.8671875 352.69140625 C153.98526525 350.29859541 154.31887365 348.28663847 155 346 C153.16299211 345.22757731 153.16299211 345.22757731 151 345 C148.52415121 346.55886775 148.05207536 347.8011668 147.3125 350.625 C146.62894165 358.00743016 146.57688479 363.29639939 150 370 C147.60225255 370.13572155 145.21224755 370.23436868 142.8125 370.3125 C142.13896484 370.35439453 141.46542969 370.39628906 140.77148438 370.43945312 C136.79737461 370.53638263 135.20721624 370.16961652 132.09375 367.62109375 C127.80433656 362.25132431 127.5914824 357.65300098 128 351 C128.28181161 348.9920923 128.59256816 346.9862302 129 345 C127.35 345 125.7 345 124 345 C121.43219529 348.8415976 121.77311118 352.8139175 121.875 357.25 C121.88402344 357.99507812 121.89304687 358.74015625 121.90234375 359.5078125 C121.92581642 361.33868059 121.96168475 363.16938238 122 365 C116.90822617 363.16527819 114.6930866 360.82587115 111.9140625 356.1875 C109.71972565 350.93609557 110.19078071 344.62713985 111.83984375 339.2734375 C114.36912258 333.77204314 117.74524893 329.81975717 122.23046875 325.7890625 C127.01057137 320.95619936 126.36655757 315.44236594 126.47851562 309.0234375 C126.55019615 307.00938955 126.76584967 305.00167452 127 303 C127.99 302.34 128.98 301.68 130 301 C130.33343551 298.45792029 130.33343551 298.45792029 130 296 C128.14731859 294.14731859 125.49301118 294.8618445 123.02075195 294.81176758 C104.09479047 294.35923301 85.47461096 290.26909967 68 283 C67.30358398 282.71286133 66.60716797 282.42572266 65.88964844 282.12988281 C51.42661309 276.04606849 38.50804484 267.80071756 27.11328125 256.97265625 C24.97700985 254.92576697 24.97700985 254.92576697 22.42578125 252.95703125 C12.54380031 244.98461185 3.62262727 232.49175806 -2.5859375 221.4765625 C-3.96869369 219.70704016 -3.96869369 219.70704016 -6.6640625 219.7734375 C-7.43492187 219.84820313 -8.20578125 219.92296875 -9 220 C-9.57063518 225.52749596 -7.74367571 228.94133231 -4.8125 233.4375 C-4.37123779 234.12835693 -3.92997559 234.81921387 -3.4753418 235.53100586 C3.44399772 246.05409331 12.04552896 255.19579977 21 264 C19.52917786 267.90736203 17.66789837 269.03173019 13.9765625 270.83984375 C12.95433594 271.34580078 11.93210937 271.85175781 10.87890625 272.37304688 C9.80511719 272.88931641 8.73132813 273.40558594 7.625 273.9375 C6.07232422 274.70610352 6.07232422 274.70610352 4.48828125 275.49023438 C-5.13206314 280.20456254 -14.93075539 284.36079922 -25.0390625 287.91015625 C-26.71164326 288.52578954 -28.37772993 289.16283909 -30.0144043 289.8684082 C-37.64406942 293.1126614 -45.53084731 295.10394188 -53.5625 297.0625 C-54.26877533 297.2370874 -54.97505066 297.4116748 -55.70272827 297.59155273 C-81.64450254 304 -81.64450254 304 -90 304 C-89.67386719 302.72382812 -89.34773437 301.44765625 -89.01171875 300.1328125 C-87.87359654 294.99971056 -87.73674085 290.11434305 -87.8125 284.875 C-87.81314453 284.02035156 -87.81378906 283.16570312 -87.81445312 282.28515625 C-87.84804536 277.42547908 -88.18840919 272.79163215 -89 268 C-91.64 268 -94.28 268 -97 268 C-96.97381592 268.69448242 -96.94763184 269.38896484 -96.9206543 270.10449219 C-96.07924575 295.77703858 -96.07924575 295.77703858 -102 305 C-102.36528809 305.58442871 -102.73057617 306.16885742 -103.10693359 306.77099609 C-111.66126846 320.32136448 -121.95755852 332.82439548 -132.8046875 344.59375 C-134.64279595 346.60847386 -136.42699205 348.65322078 -138.20703125 350.71875 C-147.71786389 361.61002366 -158.13572016 372.65271118 -170 381 C-170.65613281 381.47308594 -171.31226563 381.94617188 -171.98828125 382.43359375 C-183.20115409 390.00621528 -196.22321665 392.01831542 -209.46875 392.55859375 C-212 392 -212 392 -213.81640625 389.75390625 C-215.54086525 385.74155116 -215.75065954 382.29283426 -215 378 C-212.9375 375.1875 -212.9375 375.1875 -211 373 C-211.12563582 370.73575649 -211.12563582 370.73575649 -212 369 C-214.99517324 369.31713599 -216.5442674 369.48575359 -218.58203125 371.78515625 C-222.42073589 378.88980643 -222.98815508 384.04737969 -221 392 C-232.30975009 392.40232313 -232.30975009 392.40232313 -237 390 C-240.57966783 385.92658488 -240.67148736 381.19956219 -241 376 C-242.65 376.33 -244.3 376.66 -246 377 C-246 380.63 -246 384.26 -246 388 C-251.00624087 385.99750365 -252.31608027 385.4092967 -255 381 C-255.51007356 378.34160911 -255.72420147 375.69730963 -256 373 C-255.18716553 372.66959717 -255.18716553 372.66959717 -254.35791016 372.33251953 C-243.42611073 367.85529277 -232.8663551 363.1949774 -222.77587891 357.01220703 C-217.6977514 354 -217.6977514 354 -214.48046875 354 C-211.01261927 355.39806215 -207.64499006 356.93433824 -204.3125 358.625 C-203.60496582 358.98182861 -202.89743164 359.33865723 -202.16845703 359.70629883 C-195.08927475 363.35082653 -188.63942755 367.56150973 -182.75 372.9375 C-179.53975079 375.34518691 -177.92064556 375.46674352 -174 375 C-174.6771101 369.82934105 -176.455284 368.17178302 -180.3671875 364.9609375 C-189.03847711 358.50249924 -197.9618655 353.07671177 -208 349 C-208 348.34 -208 347.68 -208 347 C-206.3794576 345.59096222 -204.70117544 344.24805227 -203 342.9375 C-197.719231 338.72928046 -193.29003633 334.19967154 -189 329 C-180.40216757 330.61841552 -172.98432879 333.58459119 -165.14501953 337.39453125 C-164.40622559 337.74386719 -163.66743164 338.09320312 -162.90625 338.453125 C-162.24947266 338.77442383 -161.59269531 339.09572266 -160.91601562 339.42675781 C-158.58966124 340.122767 -157.26871885 339.77096063 -155 339 C-154.96757595 336.60316134 -154.96757595 336.60316134 -156 334 C-158.3152968 332.52885369 -160.31392237 331.48302576 -162.8125 330.4375 C-163.481604 330.14157959 -164.15070801 329.84565918 -164.84008789 329.54077148 C-170.76160297 326.97368127 -176.81848462 324.85330349 -183 323 C-181.57628539 319.13764552 -179.75602785 315.76759182 -177.625 312.25 C-174.6788389 307.28027522 -172.22062239 302.32949374 -170 297 C-164.72 297.33 -159.44 297.66 -154 298 C-154 296.35 -154 294.7 -154 293 C-158.29 291.68 -162.58 290.36 -167 289 C-166.125 277.375 -166.125 277.375 -165 274 C-162.54123097 243.11910587 -169.65147609 208.66959154 -186.71484375 182.35546875 C-190.69089226 175.0680607 -187.60571477 163.73143219 -186.53515625 155.76171875 C-182.83487954 125.39498505 -178.9737966 78.84517676 -197 52 C-198.57620908 50.11718587 -200.12843445 48.60419904 -202 47 C-200.73037778 43.19113334 -199.51752562 42.83302858 -196.09375 40.84765625 C-195.05186523 40.24163574 -194.00998047 39.63561523 -192.93652344 39.01123047 C-191.8024707 38.36814941 -190.66841797 37.72506836 -189.5 37.0625 C-188.92254028 36.73252014 -188.34508057 36.40254028 -187.75012207 36.06256104 C-172.23430278 27.21049817 -156.20489419 18.5682027 -139.16015625 13.0625 C-136.54407162 12.18292643 -134.06799911 11.1968348 -131.52734375 10.12890625 C-125.00951121 7.49788812 -118.28928596 5.72417676 -111.5 3.9375 C-110.5075528 3.67512039 -110.5075528 3.67512039 -109.49505615 3.40744019 C-74.75631296 -5.74026464 -35.19009085 -8.28352129 0 0 Z " fill="#F6AD5F" transform="translate(801,487)"/>
<path d="M0 0 C8.00875547 6.90185431 13.86465032 15.81271518 15.625 26.3125 C16.05061047 32.93420708 15.752168 39.01657173 13.625 45.3125 C13.38007812 46.06917969 13.13515625 46.82585937 12.8828125 47.60546875 C10.66287058 53.78397966 7.40769267 58.86130067 3.70703125 64.2578125 C-9.6602464 83.86984087 -14.84490275 106.44687244 -20.9296875 129.09765625 C-29.04622644 158.84386482 -42.7777304 185.39843428 -63.375 208.3125 C-64.01566406 209.03695312 -64.65632812 209.76140625 -65.31640625 210.5078125 C-84.3461167 230.81165043 -112.26219253 243.12434275 -139.375 247.3125 C-140.695 247.3125 -142.015 247.3125 -143.375 247.3125 C-142.60463343 249.16686064 -141.83368202 251.02097833 -141.0625 252.875 C-140.60488281 253.97585938 -140.14726563 255.07671875 -139.67578125 256.2109375 C-138.7219185 258.48531295 -137.74901922 260.74552882 -136.75 263 C-129.99862429 279.26467785 -125.73171126 297.20810572 -123.35644531 314.60107422 C-121.26365101 329.7867337 -118.68960959 345.51823421 -106.39501953 355.85839844 C-103.03411968 358.27772639 -99.33886904 359.63446791 -95.5 361.125 C-85.1971045 365.44095075 -78.02744568 371.03674162 -73.45410156 381.52319336 C-70.04270243 390.34111986 -68.85092359 398.9701047 -68.9375 408.375 C-68.94217285 409.53749268 -68.9468457 410.69998535 -68.95166016 411.89770508 C-69.24343243 430.42287209 -71.38839474 448.90638619 -73.375 467.3125 C-73.46063202 468.11500183 -73.54626404 468.91750366 -73.63449097 469.74432373 C-73.8816916 472.03991406 -74.13649515 474.33451108 -74.39453125 476.62890625 C-74.53995361 477.92900635 -74.68537598 479.22910645 -74.83520508 480.56860352 C-77.07590323 496.10958324 -82.00452008 515.01272147 -94.76171875 525.22265625 C-106.33204123 532.61531128 -118.69941103 533.50137667 -132.0625 533.5625 C-133.17044922 533.583125 -134.27839844 533.60375 -135.41992188 533.625 C-148.74274018 533.68729255 -160.33540265 530.89299317 -170.25 521.625 C-175.94532521 512.74699306 -177.37718657 504.6262754 -175.75 494.375 C-173.8057096 487.54958894 -170.07987613 481.55252406 -164.5625 477.125 C-161.39083534 474.24674925 -160.89111186 471.7071834 -160.53833008 467.47729492 C-160.39154221 464.41678574 -160.34739461 461.37669776 -160.375 458.3125 C-161.35388184 458.22331299 -161.35388184 458.22331299 -162.35253906 458.13232422 C-178.93950003 456.55496523 -194.19794874 453.65596724 -209.74609375 447.625 C-213.2020306 446.14244148 -213.2020306 446.14244148 -216.375 446.3125 C-216.95354736 447.48530518 -217.53209473 448.65811035 -218.12817383 449.86645508 C-220.32658759 454.31858446 -222.53360128 458.76640815 -224.74291992 463.21313477 C-225.68854152 465.11924071 -226.63198727 467.02642802 -227.57299805 468.93481445 C-236.00156737 486.0217003 -244.53661123 503.28381047 -256.375 518.3125 C-257.00921875 519.15941406 -257.6434375 520.00632812 -258.296875 520.87890625 C-265.69644271 529.54418949 -277.4078509 533.35421554 -288.47421265 534.53683472 C-292.77503078 534.82373022 -297.06525496 534.84128537 -301.3737793 534.77905273 C-303.57221233 534.74987108 -305.76824869 534.7585503 -307.96679688 534.77148438 C-320.49008832 534.75306003 -333.44335304 533.42663072 -343.15625 524.71484375 C-349.53145923 517.85524362 -351.02447507 510.80779365 -350.7890625 501.5625 C-349.79302689 493.74456013 -345.24016644 486.51320314 -339.375 481.3125 C-335.53560236 478.63460081 -331.57732235 476.11405195 -327.1640625 474.5078125 C-321.78138572 472.50735408 -320.28792949 469.7773593 -317.875 464.5625 C-317.01653418 462.48939637 -316.17479671 460.40893684 -315.375 458.3125 C-320.66965474 458.89169428 -325.64668643 459.77576045 -330.8125 461.125 C-332.21988736 461.48371982 -333.6274453 461.84177089 -335.03515625 462.19921875 C-337.18293584 462.74907736 -339.33014875 463.30085723 -341.47607422 463.85791016 C-343.56464751 464.39609118 -345.6562929 464.91967268 -347.75 465.4375 C-348.44673828 465.61466553 -349.14347656 465.79183105 -349.86132812 465.97436523 C-353.64643701 466.87865303 -357.20274951 467.41663577 -361.09765625 467.515625 C-368.99815002 467.48081959 -368.99815002 467.48081959 -375.98925781 470.58642578 C-378.97365058 473.88275816 -381.14019792 477.64944767 -383.31005859 481.51123047 C-384.87601254 484.1599256 -386.77509317 486.45874781 -388.75 488.8125 C-389.48734375 489.69550781 -390.2246875 490.57851563 -390.984375 491.48828125 C-391.77328125 492.42027344 -392.5621875 493.35226562 -393.375 494.3125 C-393.81005859 494.83247559 -394.24511719 495.35245117 -394.69335938 495.88818359 C-402.90231665 505.69782965 -411.53898338 515.06631635 -420.375 524.3125 C-421.1484375 525.12847656 -421.921875 525.94445312 -422.71875 526.78515625 C-427.8793657 532.10439743 -433.53086047 536.76341523 -439.375 541.3125 C-440.20128906 541.95574219 -441.02757812 542.59898437 -441.87890625 543.26171875 C-456.67829259 554.21278954 -473.62375381 556.90913306 -491.625 556.75 C-492.3450119 556.74729095 -493.0650238 556.74458191 -493.80685425 556.74179077 C-508.83007058 556.65616763 -524.85467566 556.35585418 -536.32421875 545.4609375 C-540.3115127 541.27144811 -541.96270826 538.00280169 -543.375 532.3125 C-544.60734375 532.63863281 -545.8396875 532.96476563 -547.109375 533.30078125 C-548.78123917 533.74222853 -550.45311479 534.18363242 -552.125 534.625 C-552.93066406 534.83833984 -553.73632812 535.05167969 -554.56640625 535.27148438 C-557.16777169 535.95767132 -559.77129413 536.63525166 -562.375 537.3125 C-563.32576416 537.56491455 -564.27652832 537.8173291 -565.25610352 538.07739258 C-572.39536745 539.93073731 -579.52245564 541.27046492 -586.8125 542.375 C-587.91360107 542.54563965 -589.01470215 542.7162793 -590.14916992 542.89208984 C-592.29476563 543.22423524 -594.4406667 543.55441605 -596.58691406 543.88232422 C-598.7866512 544.22172324 -600.98371972 544.57841774 -603.1796875 544.94140625 C-654.72923003 553.44373339 -719.01229514 554.48689998 -768.92578125 537.44140625 C-772.63984774 537.24592907 -774.83379859 539.32171223 -777.6875 541.4375 C-790.82800551 550.5565577 -805.44093719 552.52253202 -821.15771484 552.60766602 C-822.62168094 552.61911081 -824.08560783 552.63944195 -825.54931641 552.66918945 C-838.38840937 552.92922539 -852.0922314 551.99306977 -862.375 543.3125 C-867.76370685 538.05669847 -870.56192836 533.40846812 -870.85717773 525.69116211 C-870.9288197 517.38560077 -869.88371834 511.89134464 -864.375 505.3125 C-863.82199219 504.64605469 -863.26898437 503.97960937 -862.69921875 503.29296875 C-858.88615769 499.12928138 -854.6815974 496.27655099 -849.375 494.3125 C-848.715 494.3125 -848.055 494.3125 -847.375 494.3125 C-848.365 492.6625 -849.355 491.0125 -850.375 489.3125 C-870.33220264 490.00666357 -889.53536741 495.76889672 -906.60546875 506.08984375 C-909.75683883 507.48106919 -911.14894508 507.35639711 -914.375 506.3125 C-915 503.6875 -915 503.6875 -914.375 500.3125 C-911.39148943 497.69935626 -907.90936885 496.07093599 -904.375 494.3125 C-903.2509375 493.73242188 -902.126875 493.15234375 -900.96875 492.5546875 C-886.71088731 485.40446421 -872.21344418 481.74073117 -856.375 480.3125 C-856.71273437 479.61125 -857.05046875 478.91 -857.3984375 478.1875 C-860.02715941 472.59576785 -862.11896182 467.36432031 -863.375 461.3125 C-871.84781131 460.35705069 -880.22854601 460.16075904 -888.75 460.1875 C-889.97460938 460.18363281 -891.19921875 460.17976563 -892.4609375 460.17578125 C-899.67239859 460.18342051 -906.76895653 460.49827022 -913.94775391 461.19580078 C-915.14924072 461.25356689 -915.14924072 461.25356689 -916.375 461.3125 C-917.375 460.3125 -917.375 460.3125 -917.625 457.375 C-917.5425 456.364375 -917.46 455.35375 -917.375 454.3125 C-912.00594083 450.73312722 -906.48863086 451.16463005 -900.2421875 451.1796875 C-899.36853546 451.17873077 -898.49488342 451.17777405 -897.59475708 451.17678833 C-895.75408862 451.17610969 -893.91341773 451.17794192 -892.07275391 451.18212891 C-889.25287529 451.18749453 -886.43315502 451.18216661 -883.61328125 451.17578125 C-881.82291632 451.17644183 -880.03255148 451.17772259 -878.2421875 451.1796875 C-876.97651443 451.17665115 -876.97651443 451.17665115 -875.68527222 451.17355347 C-872.33251802 451.1870256 -869.57773449 451.24492184 -866.375 452.3125 C-866.86033203 450.47171875 -866.86033203 450.47171875 -867.35546875 448.59375 C-874.49795481 416.25994929 -861.54743299 379.5644354 -845.89160156 351.66943359 C-842.54602161 345.68133034 -841.82569071 341.98305556 -843.375 335.3125 C-843.51647461 334.58385742 -843.65794922 333.85521484 -843.80371094 333.10449219 C-844.25693549 330.7919366 -844.75203268 328.4908047 -845.25 326.1875 C-846.82855337 318.59544433 -848.06853343 311.00279532 -849.0625 303.3125 C-849.24111572 301.93553955 -849.24111572 301.93553955 -849.42333984 300.53076172 C-850.74353125 289.92541457 -851.53214117 279.38372096 -851.578125 268.6953125 C-851.58382507 267.63569305 -851.58952515 266.57607361 -851.59539795 265.48434448 C-851.6047688 263.26089452 -851.61135003 261.03743116 -851.61523438 258.81396484 C-851.62495647 255.45254926 -851.65606328 252.09174199 -851.6875 248.73046875 C-851.7591374 234.17358654 -851.45574183 220.44307105 -844.375 207.3125 C-843.7975 206.24 -843.22 205.1675 -842.625 204.0625 C-838.87901156 199.48406969 -834.17860867 196.52204626 -828.375 195.3125 C-815.34112626 194.30754855 -802.82260508 195.04596295 -790.29199219 198.74804688 C-788.39394641 199.30692128 -786.48198934 199.81782112 -784.5703125 200.328125 C-778.55017957 201.95938683 -772.7579544 203.82412666 -767.01171875 206.24609375 C-763.77528486 207.55505146 -760.48800175 208.67523544 -757.1875 209.8125 C-752.17362067 211.58146608 -747.89244876 213.54671505 -743.375 216.3125 C-742.38371094 216.71855469 -741.39242187 217.12460937 -740.37109375 217.54296875 C-737.15321012 218.89288129 -734.1590855 220.50769544 -731.125 222.23046875 C-730.1865625 222.76220703 -729.248125 223.29394531 -728.28125 223.84179688 C-726.33868569 224.95015514 -724.40117231 226.0674117 -722.46875 227.19335938 C-714.50114436 231.67513755 -709.48452285 231.9972127 -700.5625 229.9375 C-698.16757725 229.3918214 -695.77164314 228.8505723 -693.375 228.3125 C-692.65293365 228.1441716 -691.93086731 227.9758432 -691.18692017 227.80241394 C-685.01499099 226.44922054 -679.16298558 226.00540548 -672.85546875 226.01171875 C-671.87620926 226.00743362 -670.89694977 226.0031485 -669.88801575 225.99873352 C-667.82321947 225.99302386 -665.75840308 225.99246494 -663.69360352 225.99682617 C-660.6085158 225.99995336 -657.52442045 225.97659811 -654.43945312 225.95117188 C-639.88455763 225.90467806 -625.28397931 226.61934798 -611.15698242 230.4128418 C-606.62521452 231.49085901 -603.23550831 232.12491463 -598.89648438 230.23022461 C-598.09533203 229.73014893 -597.29417969 229.23007324 -596.46875 228.71484375 C-595.56680908 228.16368896 -594.66486816 227.61253418 -593.7355957 227.04467773 C-592.79159912 226.45243408 -591.84760254 225.86019043 -590.875 225.25 C-588.90175779 224.04876179 -586.92649756 222.85083218 -584.94921875 221.65625 C-583.51521729 220.78806641 -583.51521729 220.78806641 -582.05224609 219.90234375 C-574.03549917 215.1417149 -565.73277556 211.16851315 -556.875 208.234375 C-554.31749409 207.356574 -554.31749409 207.356574 -551.84375 205.95703125 C-537.42781911 199.1224514 -519.52892024 193.80041751 -503.48046875 194.4921875 C-502.60632324 194.52119141 -501.73217773 194.55019531 -500.83154297 194.58007812 C-499.13175005 194.64913712 -497.43285312 194.75671985 -495.73876953 194.91210938 C-488.93355513 195.22689714 -485.44923393 192.65710644 -480.21655273 188.50927734 C-475.6174307 184.95373992 -470.58164737 182.23849342 -465.5 179.4375 C-464.41211182 178.83526611 -463.32422363 178.23303223 -462.20336914 177.61254883 C-433.95965268 162.13030449 -403.77907001 149.5129655 -371.76074219 144.69970703 C-369.14188471 144.27466528 -366.54755011 143.76301373 -363.9453125 143.24609375 C-350.17200934 140.65024337 -336.7918779 139.9302043 -322.8125 139.9375 C-321.97290741 139.93577789 -321.13331482 139.93405579 -320.26828003 139.93228149 C-303.44741577 139.9361905 -287.56773686 141.68719451 -271.1875 145.625 C-269.95064453 145.90794922 -268.71378906 146.19089844 -267.43945312 146.48242188 C-249.25434049 150.77414652 -233.30825809 158.16981827 -217.25 167.5 C-216.55156982 167.90371826 -215.85313965 168.30743652 -215.13354492 168.72338867 C-211.91126794 170.63240929 -209.08028162 172.51852492 -206.34375 175.08203125 C-200.50962917 179.46529835 -192.19325643 177.91137317 -185.21826172 177.04443359 C-163.95793881 173.90830429 -144.76328669 165.55635027 -131.25 148.25 C-129.56841213 145.97437841 -127.96354653 143.65374976 -126.375 141.3125 C-125.96008301 140.71679199 -125.54516602 140.12108398 -125.11767578 139.50732422 C-111.75797732 119.99425445 -106.81715422 96.30412466 -101.55639648 73.59277344 C-95.05040011 45.54803935 -95.05040011 45.54803935 -89.625 34.5625 C-89.28847412 33.86769531 -88.95194824 33.17289062 -88.60522461 32.45703125 C-80.09612977 15.40363962 -66.90708581 -0.18368004 -48.4375 -6.6875 C-32.05365069 -11.53200575 -13.85094024 -10.23765148 0 0 Z M-365.75 152.9375 C-367.11185425 153.19309692 -367.11185425 153.19309692 -368.5012207 153.45385742 C-386.91303355 157.06331426 -405.00980136 162.19662749 -422.375 169.3125 C-423.09494141 169.60705078 -423.81488281 169.90160156 -424.55664062 170.20507812 C-443.69775069 178.1533597 -462.05278897 187.94872731 -479.375 199.3125 C-478.58488597 202.46578127 -478.58488597 202.46578127 -476.0078125 204.5625 C-458.1698109 223.19447793 -461.78900511 263.19739622 -462.25244141 286.55517578 C-462.67473823 299.50168593 -464.06471014 312.35699869 -465.75390625 325.19140625 C-466.24342737 332.34674684 -464.29440185 337.07919947 -460.79003906 343.12036133 C-448.58622024 364.37083174 -441.95979096 390.54163136 -442.125 414.9375 C-442.11339844 416.66226563 -442.11339844 416.66226563 -442.1015625 418.421875 C-442.11546437 424.52479586 -442.49368479 430.17014759 -443.94628906 436.10693359 C-444.53400473 438.75604888 -444.53400473 438.75604888 -444.375 443.3125 C-440.085 444.6325 -435.795 445.9525 -431.375 447.3125 C-431.375 448.9625 -431.375 450.6125 -431.375 452.3125 C-436.655 451.9825 -441.935 451.6525 -447.375 451.3125 C-447.89449219 452.3746875 -448.41398437 453.436875 -448.94921875 454.53125 C-455.28983335 467.40415804 -455.28983335 467.40415804 -458.375 472.1875 C-460.55468457 474.97488955 -460.55468457 474.97488955 -460.375 477.3125 C-459.27542969 477.67601562 -458.17585938 478.03953125 -457.04296875 478.4140625 C-448.34706689 481.34977849 -440.2549764 484.51303273 -432.375 489.3125 C-432.705 490.9625 -433.035 492.6125 -433.375 494.3125 C-437.93413711 493.66244962 -441.80333343 491.86067868 -445.9375 489.9375 C-452.60897094 486.91208341 -459.16757334 484.74579507 -466.375 483.3125 C-466.90867187 483.9415625 -467.44234375 484.570625 -467.9921875 485.21875 C-472.77560617 490.7138884 -477.65266754 495.37262444 -483.50390625 499.71875 C-484.43009766 500.50765625 -484.43009766 500.50765625 -485.375 501.3125 C-485.375 501.9725 -485.375 502.6325 -485.375 503.3125 C-484.38242187 503.77398438 -483.38984375 504.23546875 -482.3671875 504.7109375 C-471.57990409 509.84544932 -459.12185322 515.91097911 -451.375 525.3125 C-451.375 526.6325 -451.375 527.9525 -451.375 529.3125 C-454.93537598 529.63757781 -456.79996479 529.70356093 -459.8046875 527.66015625 C-461.01511719 526.52900391 -461.01511719 526.52900391 -462.25 525.375 C-466.78810497 521.4399035 -471.37394286 518.34995829 -476.625 515.4375 C-477.28612793 515.06890869 -477.94725586 514.70031738 -478.62841797 514.32055664 C-480.52886137 513.28466506 -482.44315747 512.2884516 -484.375 511.3125 C-484.99052734 510.99635742 -485.60605469 510.68021484 -486.24023438 510.35449219 C-488.82040737 509.12298259 -490.92663461 508.30745409 -493.8046875 508.33984375 C-497.61219405 509.78067829 -500.99867439 511.81284625 -504.5 513.875 C-513.79665655 519.21530302 -523.42215675 523.36225844 -533.375 527.3125 C-533.24609375 528.57320312 -533.1171875 529.83390625 -532.984375 531.1328125 C-532.91186523 531.84195801 -532.83935547 532.55110352 -532.76464844 533.28173828 C-532.15532568 536.45739412 -530.69032766 538.12580165 -528.375 540.3125 C-526.725 540.9725 -525.075 541.6325 -523.375 542.3125 C-523.375 538.6825 -523.375 535.0525 -523.375 531.3125 C-521.725 530.9825 -520.075 530.6525 -518.375 530.3125 C-518.33632813 531.18261719 -518.33632813 531.18261719 -518.296875 532.0703125 C-517.90413092 537.47946961 -517.13407626 541.13574859 -513.375 545.3125 C-508.8636354 547.17012072 -503.20873698 546.39697307 -498.375 546.3125 C-498.54 545.6525 -498.705 544.9925 -498.875 544.3125 C-500.11232826 536.88853042 -499.50922963 532.67204246 -495.95703125 526.09765625 C-493.9192674 523.79825359 -492.37017324 523.62963599 -489.375 523.3125 C-488.625 525 -488.625 525 -488.375 527.3125 C-489.014375 528.034375 -489.65375 528.75625 -490.3125 529.5 C-492.83155952 532.93508116 -492.81587022 534.89821488 -492.80859375 539.03125 C-492.23382482 542.05525953 -491.30001461 543.90727567 -489.375 546.3125 C-477.94431921 549.15149261 -463.05067723 544.40746931 -453.0703125 538.96484375 C-435.46922582 528.17461235 -418.98926718 510.89673999 -406.29296875 494.72265625 C-404.51000662 492.4821519 -402.6403382 490.40453422 -400.6875 488.3125 C-382.00495776 467.45392211 -382.00495776 467.45392211 -374.27734375 441.55078125 C-374.28056641 440.43251953 -374.28378906 439.31425781 -374.28710938 438.16210938 C-374.29548828 436.99486328 -374.30386719 435.82761719 -374.3125 434.625 C-374.31926758 432.85672852 -374.31926758 432.85672852 -374.32617188 431.05273438 C-374.33796727 428.13927211 -374.3544273 425.22591137 -374.375 422.3125 C-371.735 422.3125 -369.095 422.3125 -366.375 422.3125 C-365.41714512 427.96767521 -365.19182174 433.45686621 -365.1875 439.1875 C-365.17525391 440.03441406 -365.16300781 440.88132812 -365.15039062 441.75390625 C-365.13704234 447.56485985 -365.93581599 452.68091038 -367.375 458.3125 C-357.40739219 457.13509223 -347.71511236 455.49706976 -337.9375 453.1875 C-336.98077896 452.96323334 -336.98077896 452.96323334 -336.00473022 452.73443604 C-320.1697489 448.99923111 -304.63593037 444.3431422 -289.86474609 437.4675293 C-287.89235757 436.55250967 -285.89695867 435.68711102 -283.89453125 434.83984375 C-278.87810759 432.66290518 -273.97151438 430.28277002 -269.0625 427.875 C-268.06154297 427.39740234 -267.06058594 426.91980469 -266.02929688 426.42773438 C-264.5974707 425.72293945 -264.5974707 425.72293945 -263.13671875 425.00390625 C-262.27006592 424.58310791 -261.40341309 424.16230957 -260.51049805 423.72875977 C-258.13047831 422.15033351 -257.3847856 420.94594503 -256.375 418.3125 C-257.04144531 417.68085937 -257.70789063 417.04921875 -258.39453125 416.3984375 C-285.79270773 389.80496271 -285.79270773 389.80496271 -286.58203125 376.9375 C-286.51371094 376.07125 -286.44539062 375.205 -286.375 374.3125 C-284.2265625 373.828125 -284.2265625 373.828125 -281.375 374.3125 C-279.12267344 376.63111901 -277.48435768 379.34555945 -275.75 382.0625 C-269.83197317 390.90121942 -263.29978587 398.402459 -255.765625 405.9140625 C-254.38148309 407.30272774 -253.01490152 408.71037105 -251.69921875 410.1640625 C-233.05120995 430.36978087 -205.38479935 440.13688464 -179.375 446.3125 C-178.40304687 446.5496875 -177.43109375 446.786875 -176.4296875 447.03125 C-169.37236312 448.53563263 -162.2056226 448.71756031 -155.01391602 448.97167969 C-153.75019165 449.01856934 -153.75019165 449.01856934 -152.4609375 449.06640625 C-151.3169751 449.10229858 -151.3169751 449.10229858 -150.14990234 449.13891602 C-148.375 449.3125 -148.375 449.3125 -147.375 450.3125 C-147.125 452.75 -147.125 452.75 -147.375 455.3125 C-148.365 455.9725 -149.355 456.6325 -150.375 457.3125 C-150.72965221 460.85155576 -150.81140742 464.28854851 -150.81445312 467.83984375 C-151.00471402 475.35842927 -154.33752534 479.39453528 -159.4375 484.75 C-165.2262263 491.23941011 -167.01393383 496.70654016 -166.796875 505.3671875 C-166.00076191 510.92523628 -163.25231831 514.59609468 -159.1875 518.3125 C-157.42815109 519.47352578 -157.42815109 519.47352578 -155.375 519.3125 C-155.39820313 518.20390625 -155.42140625 517.0953125 -155.4453125 515.953125 C-155.46407577 514.48959008 -155.48227537 513.02604786 -155.5 511.5625 C-155.51675781 510.83289063 -155.53351563 510.10328125 -155.55078125 509.3515625 C-155.58572239 505.5080376 -155.54999684 502.56643228 -153.375 499.3125 C-151.725 499.3125 -150.075 499.3125 -148.375 499.3125 C-148.54 500.116875 -148.705 500.92125 -148.875 501.75 C-149.8438537 508.65308259 -150.32612785 514.24469652 -146.375 520.3125 C-144.80258454 522.58909592 -144.80258454 522.58909592 -142.375 524.3125 C-139.63817029 524.6036521 -137.33559961 524.69572418 -134.625 524.5625 C-133.92761719 524.54445313 -133.23023438 524.52640625 -132.51171875 524.5078125 C-130.79888461 524.46088554 -129.08676176 524.38914605 -127.375 524.3125 C-128.1175 522.8584375 -128.1175 522.8584375 -128.875 521.375 C-131.71951603 514.70184629 -130.82045832 507.96958097 -128.375 501.3125 C-127.715 500.6525 -127.055 499.9925 -126.375 499.3125 C-124.25 499.6875 -124.25 499.6875 -122.375 500.3125 C-122.53484375 500.86035156 -122.6946875 501.40820312 -122.859375 501.97265625 C-124.05656087 507.40534061 -124.29012787 513.27426066 -122 518.375 C-119.38860935 521.61605278 -119.38860935 521.61605278 -115.5 522.8125 C-108.9305886 522.59214238 -102.1798283 518.91860565 -97.4453125 514.51953125 C-95.8615538 512.52957538 -94.60812372 510.53603737 -93.375 508.3125 C-92.93800781 507.5803125 -92.50101563 506.848125 -92.05078125 506.09375 C-83.6034809 490.06163643 -83.22103436 469.001118 -81.375 451.3125 C-81.26913574 450.34505859 -81.16327148 449.37761719 -81.05419922 448.38085938 C-79.77161007 436.45339011 -79.16752095 424.55694718 -79.07846069 412.56570435 C-79.06797068 411.16696176 -79.05314675 409.76824372 -79.03359985 408.36959839 C-78.91241226 398.4037628 -79.35163765 388.98165312 -85.125 380.5 C-85.79789063 379.46939453 -85.79789063 379.46939453 -86.484375 378.41796875 C-91.18360064 373.1847402 -96.94053665 370.4333083 -103.375 367.875 C-114.99511456 362.97164571 -120.54185624 356.9259306 -125.71875 345.29296875 C-129.43705159 335.73648021 -131.17107226 325.91333534 -132.9230957 315.84765625 C-135.93238328 298.9657318 -139.64894599 282.13003986 -146.375 266.3125 C-146.63909668 265.67812012 -146.90319336 265.04374023 -147.17529297 264.39013672 C-163.5411568 225.24414843 -191.52597924 192.18109026 -229.375 172.3125 C-229.97086914 171.99941895 -230.56673828 171.68633789 -231.18066406 171.36376953 C-238.4117487 167.58976945 -245.70570843 164.10578831 -253.375 161.3125 C-254.20257812 160.99796875 -255.03015625 160.6834375 -255.8828125 160.359375 C-262.55423917 157.96450389 -269.35228653 156.27923487 -276.25 154.6875 C-277.13461914 154.48133057 -278.01923828 154.27516113 -278.93066406 154.06274414 C-291.93166795 151.1503964 -304.50519399 150.00500472 -317.78759766 150.10668945 C-320.24001583 150.12492576 -322.69205222 150.12719823 -325.14453125 150.12695312 C-338.73397944 150.15594413 -352.36341143 150.3804219 -365.75 152.9375 Z M-531.375 209.3125 C-532.24447266 209.57482422 -533.11394531 209.83714844 -534.00976562 210.10742188 C-556.91934324 217.11644159 -578.86650309 226.99063243 -598.26733398 241.20654297 C-600.89572958 242.58574279 -602.43580906 242.64617287 -605.375 242.3125 C-607.05664976 241.68458575 -608.72397487 241.01701278 -610.375 240.3125 C-623.46005655 237.17118474 -636.93500599 235.55754898 -650.375 235.3125 C-651.11588867 235.29735352 -651.85677734 235.28220703 -652.62011719 235.26660156 C-657.87487625 235.17550426 -663.1207783 235.20591078 -668.375 235.3125 C-669.48617187 235.32925781 -670.59734375 235.34601563 -671.7421875 235.36328125 C-714.21784645 237.18069942 -754.98436026 256.01048019 -785.375 285.3125 C-785.93541992 285.84713867 -786.49583984 286.38177734 -787.07324219 286.93261719 C-796.01007372 295.49335902 -804.04458088 304.34538118 -811.375 314.3125 C-811.80119629 314.88323242 -812.22739258 315.45396484 -812.66650391 316.04199219 C-819.18106153 324.78229538 -825.00546611 333.82808195 -830.375 343.3125 C-830.76123535 343.98780762 -831.1474707 344.66311523 -831.54541016 345.35888672 C-837.34966499 355.60602184 -842.20684526 366.20920361 -846.75 377.0625 C-847.24991455 378.24537598 -847.7498291 379.42825195 -848.26489258 380.64697266 C-855.21558204 397.590085 -858.74292755 414.28372955 -858.625 432.5625 C-858.63273437 433.77679687 -858.64046875 434.99109375 -858.6484375 436.2421875 C-858.63454801 442.61746337 -858.28503147 448.21859008 -856.375 454.3125 C-855.45460938 454.54324219 -854.53421875 454.77398438 -853.5859375 455.01171875 C-846.83575344 456.75081912 -840.13006907 458.59454545 -833.5 460.75 C-832.34757812 461.11996094 -831.19515625 461.48992187 -830.0078125 461.87109375 C-827.375 463.3125 -827.375 463.3125 -826.4921875 465.97265625 C-826.45351563 466.74480469 -826.41484375 467.51695312 -826.375 468.3125 C-833.1449206 467.85352233 -839.02601236 466.31138354 -845.45703125 464.15234375 C-848.50958785 463.12810692 -848.50958785 463.12810692 -852.375 463.3125 C-851.775327 467.42026006 -850.4032733 470.45451384 -848.375 474.0625 C-847.83875 475.02671875 -847.3025 475.9909375 -846.75 476.984375 C-845.57378872 479.19679796 -845.57378872 479.19679796 -844.375 480.3125 C-843.03484779 480.46832303 -841.68741097 480.56294142 -840.33984375 480.62890625 C-839.53095703 480.67080078 -838.72207031 480.71269531 -837.88867188 480.75585938 C-836.6134668 480.81483398 -836.6134668 480.81483398 -835.3125 480.875 C-834.45849609 480.91818359 -833.60449219 480.96136719 -832.72460938 481.00585938 C-830.60827963 481.11226702 -828.49166187 481.21291731 -826.375 481.3125 C-825.8125 483.25 -825.8125 483.25 -825.375 485.3125 C-827.11456658 487.05206658 -829.5686622 486.68440386 -831.9375 486.875 C-833.45537109 487.00068359 -833.45537109 487.00068359 -835.00390625 487.12890625 C-835.78636719 487.18949219 -836.56882812 487.25007813 -837.375 487.3125 C-830.37300845 504.31177947 -802.81564191 514.86890324 -787.1875 521.4375 C-770.00188014 528.2167922 -746.93958861 536.58988901 -728.375 535.3125 C-726.3376908 533.70093509 -726.3376908 533.70093509 -724.6875 531.5 C-723.81544922 530.43845703 -723.81544922 530.43845703 -722.92578125 529.35546875 C-719.2336412 524.49151598 -718.92077643 521.86936673 -719.578125 515.890625 C-720.13081902 513.26649893 -720.13081902 513.26649893 -721.984375 511.984375 C-723.36426162 511.39605125 -724.75887816 510.84144805 -726.1640625 510.31640625 C-730.30290711 508.43710755 -733.07271127 505.17057779 -735.375 501.3125 C-736.13652722 498.21672629 -735.92513326 496.55828626 -735.375 493.3125 C-733.44814015 490.27008972 -730.72699434 489.41025556 -727.375 488.3125 C-724.59868944 488.0959084 -721.9603803 487.97947376 -719.1875 488 C-718.4344458 488.00346436 -717.6813916 488.00692871 -716.90551758 488.01049805 C-709.38625801 488.15669914 -702.16733685 489.12988281 -696.375 494.3125 C-695.58971519 497.95336595 -695.68618672 500.1970803 -697.66796875 503.40625 C-701.63885923 508.27672436 -705.61702617 510.88808997 -711.375 513.3125 C-711.95286536 517.27500534 -712.21634358 520.78593846 -710.23828125 524.375 C-708.42948493 526.54730744 -706.43716698 528.37815868 -704.375 530.3125 C-703.66835205 531.08094238 -702.9617041 531.84938477 -702.23364258 532.64111328 C-692.10775566 542.12612128 -679.93630113 540.52029454 -666.8125 540.1875 C-664.3455528 540.15346481 -661.87859268 540.12035381 -659.41162109 540.08813477 C-609.69091161 539.20256908 -550.17588778 533.15235674 -507.375 505.3125 C-507.045 504.6525 -506.715 503.9925 -506.375 503.3125 C-515.67639973 500.79464409 -524.78265734 498.79643269 -534.36328125 497.70703125 C-537.375 497.3125 -537.375 497.3125 -540.375 496.3125 C-539.715 494.6625 -539.055 493.0125 -538.375 491.3125 C-528.36634856 491.6439123 -518.9113088 493.21726355 -509.13671875 495.27734375 C-507.95070068 495.52061401 -507.95070068 495.52061401 -506.74072266 495.76879883 C-504.375 496.3125 -504.375 496.3125 -502.00537109 497.06518555 C-497.74965619 498.40999792 -497.74965619 498.40999792 -493.53198242 497.51879883 C-491.73825863 496.21186582 -490.19872604 494.81401168 -488.625 493.25 C-488.08746094 492.75822266 -487.54992187 492.26644531 -486.99609375 491.75976562 C-485.42327038 490.30748712 -483.89787763 488.81686696 -482.375 487.3125 C-481.42109375 486.40628906 -480.4671875 485.50007813 -479.484375 484.56640625 C-477.14723017 482.58362337 -477.14723017 482.58362337 -477.375 480.3125 C-478.68588682 479.99330061 -479.99885248 479.68264053 -481.3125 479.375 C-482.40884766 479.11396484 -482.40884766 479.11396484 -483.52734375 478.84765625 C-492.08398206 477.2396186 -500.50686194 477.15966257 -509.1875 477.1875 C-510.38181641 477.18363281 -511.57613281 477.17976563 -512.80664062 477.17578125 C-520.37883818 477.18402534 -527.84101176 477.5529591 -535.375 478.3125 C-535.705 476.9925 -536.035 475.6725 -536.375 474.3125 C-517.98232877 467.78872093 -497.34812337 469.61331215 -478.375 472.3125 C-475.70936608 472.65472146 -473.04236002 472.98389072 -470.375 473.3125 C-466.33361995 468.54574404 -463.27895614 463.50684537 -460.5 457.9375 C-460.1898999 457.31858887 -459.8797998 456.69967773 -459.56030273 456.06201172 C-457.90446132 452.83733896 -457.90446132 452.83733896 -457.375 449.3125 C-481.35637457 448.73517061 -507.53714327 450.00305812 -530.02758789 459.42358398 C-532.87870767 460.50324359 -534.48746879 460.13750892 -537.375 459.3125 C-537.375 457.9925 -537.375 456.6725 -537.375 455.3125 C-533.72571552 453.92855525 -530.05425872 452.61452078 -526.375 451.3125 C-525.22515625 450.89226562 -524.0753125 450.47203125 -522.890625 450.0390625 C-500.82319188 442.48485822 -477.4441367 442.69511832 -454.375 442.3125 C-452.05584226 433.6574808 -450.88191165 425.64241952 -451 416.6875 C-451.00942627 415.56158447 -451.01885254 414.43566895 -451.02856445 413.27563477 C-451.50097066 386.78889174 -459.27101182 361.94599862 -473.125 339.40234375 C-475.77542359 332.85082794 -474.30854131 325.54463373 -473.4375 318.6875 C-471.5599971 303.75092139 -471.13491428 288.8480909 -471.125 273.8125 C-471.12432526 272.88762787 -471.12365051 271.96275574 -471.12295532 271.00985718 C-470.37244261 237.88248647 -470.37244261 237.88248647 -483.5546875 208.609375 C-489.14510726 204.62650083 -494.37036431 203.75721045 -501.0625 203.8125 C-502.2992749 203.82108032 -502.2992749 203.82108032 -503.56103516 203.82983398 C-513.22688894 204.10112094 -522.17542359 206.49744359 -531.375 209.3125 Z " fill="#5F3627" transform="translate(1078.375,332.6875)"/>
<path d="M0 0 C4.11782381 0.56460107 7.90153755 1.943875 11.8125 3.3125 C24.26573917 7.53578577 36.45576053 10.32222549 49.55078125 11.60546875 C53 12 53 12 56 13 C57.23061224 26.12653061 57.23061224 26.12653061 54.4296875 30.390625 C53.04457937 31.64406886 51.62489948 32.8602061 50.17578125 34.0390625 C44.01717857 39.58954463 41.63945324 47.1820238 40.76171875 55.16796875 C40.47390748 62.99946478 42.98406698 69.66111093 47 76.3125 C53.63926751 83.3820904 64.51437434 86.55148564 73.93017578 87.20263672 C77.18574068 87.30426252 80.43040556 87.32882332 83.6875 87.3125 C84.83927734 87.30758545 85.99105469 87.3026709 87.17773438 87.29760742 C100.03718526 87.12061752 114.39015891 85.88769571 124 76.25 C124.66 75.5075 125.32 74.765 126 74 C128.93756599 72.53121701 131.3836614 73.03137733 134.65625 73.19921875 C135.33831512 73.23404358 136.02038025 73.26886841 136.72311401 73.30474854 C138.98260275 73.42425858 141.24126302 73.5545653 143.5 73.6875 C144.27321594 73.73190216 145.04643188 73.77630432 145.84307861 73.822052 C157.72779213 74.5185019 169.55057933 75.55746372 181.375 76.9375 C182.07085205 77.01672699 182.7667041 77.09595398 183.48364258 77.17758179 C206.7986737 79.86578246 206.7986737 79.86578246 213 84 C212.7734375 86.37109375 212.7734375 86.37109375 212 89 C201.74826946 95.82721629 184.40053032 96.75304099 172.4140625 98.44140625 C171.51596863 98.56842926 170.61787476 98.69545227 169.69256592 98.82632446 C158.56802322 100.37213611 147.41288822 101.64199541 136.25 102.875 C135.09582581 103.00283875 133.94165161 103.13067749 132.75250244 103.26239014 C76.97820614 109.40766728 21.0070962 113.48705127 -35.0246582 116.4050293 C-41.02153674 116.71784697 -47.00839489 117.06561624 -52.99609375 117.5234375 C-60.38964693 118.06720332 -67.77759235 118.25805453 -75.1875 118.4375 C-86.41170355 118.73580024 -97.56772929 119.33359519 -108.76184082 120.23838806 C-115.99083459 120.80780549 -123.20645491 121.24159662 -130.453125 121.49609375 C-132.15493675 121.55669228 -132.15493675 121.55669228 -133.89112854 121.61851501 C-153.23510619 122.2743138 -172.5864835 122.68132657 -191.9375 123.0625 C-193.05784889 123.08457016 -194.17819778 123.10664032 -195.33249664 123.12937927 C-280.66575427 124.7880513 -366.13419368 125.05127745 -454.3125 123.125 C-455.22568748 123.10528641 -456.13887497 123.08557281 -457.0797348 123.06526184 C-480.9650375 122.54577139 -504.8039386 121.54919051 -528.65817261 120.23614502 C-533.73487719 119.95786584 -538.81273996 119.70446613 -543.89082336 119.45274353 C-571.27279303 118.08999067 -598.5333086 116.24425897 -625.78662109 113.2414856 C-628.06413645 112.99300254 -630.34247885 112.75355453 -632.62109375 112.51538086 C-641.969116 111.52677334 -651.23623406 110.30656316 -660.5 108.6875 C-661.67046875 108.49994141 -662.8409375 108.31238281 -664.046875 108.11914062 C-671.06464271 106.89575175 -678.22752106 105.43132721 -684 101 C-684.76367188 98.83862305 -684.76367188 98.83862305 -685 97 C-681.36374683 93.73596172 -677.41138023 92.67304282 -672.8125 91.375 C-672.05380615 91.15481201 -671.2951123 90.93462402 -670.51342773 90.70776367 C-665.33050625 89.24921683 -660.36530339 88.47064065 -655 88 C-654.01 87.01 -654.01 87.01 -653 86 C-652.484375 87.19625 -651.96875 88.3925 -651.4375 89.625 C-647.72336027 96.94974944 -642.2436066 100.27789265 -634.72265625 103.140625 C-633.82417969 103.42421875 -632.92570312 103.7078125 -632 104 C-630.90429688 104.35835937 -629.80859375 104.71671875 -628.6796875 105.0859375 C-621.95935149 106.71034007 -614.93699686 106.39387891 -608.0625 106.375 C-607.32456207 106.37445618 -606.58662415 106.37391235 -605.82632446 106.37335205 C-588.7491922 106.31531789 -571.959966 104.54093176 -558.375 93 C-554.80205613 90.88269993 -554.42181043 90.71763494 -550.625 91.4375 C-548.74359213 91.93468887 -546.86928617 92.45901796 -545 93 C-532.07982558 96.31995917 -519.2550986 98.4989768 -506 100 C-504.80874512 100.13825195 -503.61749023 100.27650391 -502.39013672 100.41894531 C-470.18503023 104.05520431 -438.27261119 103.754979 -406 101 C-405.04867188 100.92523437 -404.09734375 100.85046875 -403.1171875 100.7734375 C-390.21026567 99.75744074 -377.66975923 97.63477925 -365 95 C-363.72253906 94.74089844 -362.44507813 94.48179687 -361.12890625 94.21484375 C-353.62008375 92.65512239 -346.20457092 90.81545753 -338.7890625 88.8671875 C-334.84136088 87.9636929 -331.02212269 87.43699337 -327 87 C-326.731875 87.64066406 -326.46375 88.28132812 -326.1875 88.94140625 C-321.9647994 98.26190658 -316.57717138 103.37757874 -307 107 C-296.57684126 109.87196241 -286.37827461 110.53425163 -275.625 110.4375 C-274.90454498 110.43445862 -274.18408997 110.43141724 -273.44180298 110.42828369 C-240.25844621 110.22136191 -220.03332063 94.18767 -197.51586914 71.55371094 C-195.82067833 69.81620179 -194.20063574 68.03407839 -192.625 66.1875 C-190.05251027 63.19769527 -187.42009885 60.27790107 -184.75 57.375 C-181.22545968 53.46216287 -177.8854385 49.44457504 -174.625 45.3125 C-174.15876221 44.73129395 -173.69252441 44.15008789 -173.2121582 43.55126953 C-170.73974547 40.42002877 -168.51790811 37.27687027 -166.48828125 33.83984375 C-160.34834085 23.7429204 -160.34834085 23.7429204 -154.39453125 21.859375 C-151.48387308 21.50733911 -148.58509136 21.45274362 -145.65625 21.375 C-138.18884768 21.09719485 -130.99528672 19.19739745 -123.75 17.5 C-122.37933119 17.18641406 -121.00856473 16.87325464 -119.63769531 16.56054688 C-112.63581282 14.96174283 -112.63581282 14.96174283 -105.75878906 12.90429688 C-102.98992095 11.99669621 -100.88986924 11.83000769 -98 12 C-98.76359871 13.9195604 -99.53618478 15.83554712 -100.3125 17.75 C-100.74175781 18.81734375 -101.17101562 19.8846875 -101.61328125 20.984375 C-104.2697566 26.76127351 -107.0798097 28.85028585 -112.8125 31.4375 C-119.91137702 34.65737485 -125.34278588 38.1271751 -129.3125 45.125 C-129.80363281 45.97320313 -130.29476562 46.82140625 -130.80078125 47.6953125 C-134.08175027 54.00075785 -134.12981045 61.84303437 -132.28125 68.64453125 C-129.36369887 75.55018653 -125.45787614 81.00934094 -118.42749023 84.05957031 C-108.89981041 87.75067186 -99.49630962 88.50548667 -89.39233398 88.44604492 C-87.20004706 88.43754863 -85.01039018 88.46638503 -82.81835938 88.49804688 C-68.90892897 88.56771893 -54.88036098 86.42393471 -44 77 C-40.56878597 73.27468191 -37.71985249 69.26031044 -35 65 C-34.43877441 64.12335693 -34.43877441 64.12335693 -33.86621094 63.22900391 C-22.54175631 45.24676551 -13.31567345 25.86678583 -3.93164062 6.8269043 C-1.10130951 1.10130951 -1.10130951 1.10130951 0 0 Z " fill="#CECDCD" transform="translate(862,778)"/>
<path d="M0 0 C6.80771727 4.57685854 11.41043346 11.23130039 14 19 C15.25163952 33.26048303 11.00244966 42.89422064 3.28320312 54.44482422 C-7.36187712 70.43725004 -12.83028489 87.209154 -17.45068359 105.74169922 C-22.46181371 125.77770219 -29.12077728 144.8317715 -39 163 C-39.31259766 163.59425781 -39.62519531 164.18851563 -39.94726562 164.80078125 C-56.02703661 195.36233357 -82.41118743 217.00256736 -115.08496094 227.81347656 C-123.6084416 230.43196545 -132.12576477 231.46906285 -141 232 C-141.38220703 231.41621582 -141.76441406 230.83243164 -142.15820312 230.23095703 C-150.49741348 217.52394727 -158.88035661 205.43307486 -169.125 194.1875 C-169.61629395 193.64738281 -170.10758789 193.10726562 -170.61376953 192.55078125 C-173.06867388 189.90412608 -175.54816113 187.49763582 -178.3671875 185.23828125 C-179.23601563 184.49964844 -180.10484375 183.76101563 -181 183 C-181 182.34 -181 181.68 -181 181 C-179.59814453 180.90525391 -179.59814453 180.90525391 -178.16796875 180.80859375 C-158.29531677 178.95589312 -140.04715748 171.15002018 -125 158 C-124.40832031 157.49210938 -123.81664062 156.98421875 -123.20703125 156.4609375 C-107.87067322 142.25385999 -98.59408499 122.76304476 -93 103 C-92.52321064 101.57080505 -92.03977713 100.14381467 -91.55078125 98.71875 C-89.80390792 93.54201314 -88.42204198 88.28963529 -87.0625 83 C-86.80017578 81.99106689 -86.53785156 80.98213379 -86.26757812 79.94262695 C-84.92005385 74.72262584 -83.63612596 69.49660531 -82.45947266 64.2355957 C-78.20609852 45.27621437 -72.26221485 26.66765187 -59 12 C-58.36191406 11.28070313 -57.72382812 10.56140625 -57.06640625 9.8203125 C-42.17289806 -6.06210066 -19.1548813 -11.63938461 0 0 Z " fill="#F6AC5E" transform="translate(1070,339)"/>
<path d="M0 0 C26.43170983 5.77611383 51.49607586 16.84819695 75.0625 29.9375 C72.22243672 32.77756328 68.70842023 33.89572701 65.0625 35.4375 C43.83206485 44.69781041 25.69546001 56.81257822 9.0625 72.9375 C8.50320801 73.47101074 7.94391602 74.00452148 7.36767578 74.55419922 C-1.24250865 82.78434792 -8.83430378 91.38625168 -15.9375 100.9375 C-16.92031624 102.2371733 -17.90339462 103.53664842 -18.88671875 104.8359375 C-23.74856805 111.31197222 -28.25424227 117.69799343 -31.9375 124.9375 C-32.5975 124.9375 -33.2575 124.9375 -33.9375 124.9375 C-36.83896969 112.76168968 -38.30750454 100.33560922 -39.9375 87.9375 C-40.1240918 86.52766846 -40.1240918 86.52766846 -40.31445312 85.08935547 C-43.35760281 61.18605245 -47.97485303 23.81114541 -33.875 2.875 C-26.20596919 -4.79403081 -9.98174189 -1.67742965 0 0 Z " fill="#F5AB5E" transform="translate(277.9375,539.0625)"/>
<path d="M0 0 C2.54905136 1.45426648 4.89069187 3.01996567 7.25 4.765625 C11.49668255 7.81534156 15.69803059 10.1964262 20.4375 12.390625 C19.85467094 15.80953855 18.99765855 18.67829317 17.50390625 21.8046875 C17.1078418 22.63782471 16.71177734 23.47096191 16.30371094 24.3293457 C15.65837402 25.65905396 15.65837402 25.65905396 15 27.015625 C14.55043945 27.94785889 14.10087891 28.88009277 13.63769531 29.84057617 C7.00384848 43.50292123 -0.14017109 56.83603634 -7.6875 70.015625 C-8.53006348 71.50896362 -8.53006348 71.50896362 -9.38964844 73.0324707 C-14.15359313 81.24480824 -19.49499833 89.48027017 -28.1875 93.890625 C-29.06664062 94.3546875 -29.94578125 94.81875 -30.8515625 95.296875 C-35.67204418 97.24173792 -40.52753675 97.57775505 -45.6875 97.703125 C-47.20730469 97.75919922 -47.20730469 97.75919922 -48.7578125 97.81640625 C-51.5625 97.390625 -51.5625 97.390625 -53.8984375 95.6796875 C-56.34524126 92.31389641 -56.11111547 89.83258908 -55.96875 85.79296875 C-55.41251401 82.5036886 -53.81310295 80.78189063 -51.5625 78.390625 C-51.5625 77.070625 -51.5625 75.750625 -51.5625 74.390625 C-53.89321879 73.97191947 -53.89321879 73.97191947 -56.5625 74.390625 C-59.64129155 77.55738203 -62.31232532 81.05848814 -62.79296875 85.5390625 C-62.70842743 89.91983995 -62.44681798 94.07957485 -61.5625 98.390625 C-68.01881274 98.64381373 -72.66365055 98.74104347 -77.875 94.515625 C-80.46792245 89.71391675 -80.2182771 84.74359625 -79.5625 79.390625 C-78.9025 78.400625 -78.2425 77.410625 -77.5625 76.390625 C-77.17750109 74.73512969 -76.83456865 73.0683817 -76.5625 71.390625 C-79.43561572 71.33886948 -79.43561572 71.33886948 -82.5625 72.390625 C-87.73126658 78.37551262 -86.97306486 84.80657972 -86.5625 92.390625 C-90.55379577 90.56267862 -92.98551262 88.55323127 -94.5625 84.390625 C-95.4494266 78.59712282 -95.50073739 73.1824576 -92.5 68.015625 C-87.23306819 60.94915816 -81.62536424 57.66811144 -73.33203125 54.76171875 C-67.68395458 51.96556232 -65.42220268 46.51593895 -62.8125 41.078125 C-62.49667969 40.43294922 -62.18085937 39.78777344 -61.85546875 39.12304688 C-61.08558292 37.54828041 -60.32325109 35.9698246 -59.5625 34.390625 C-55.6025 34.390625 -51.6425 34.390625 -47.5625 34.390625 C-47.2325 33.070625 -46.9025 31.750625 -46.5625 30.390625 C-50.00700737 28.09428676 -52.50062283 27.85046015 -56.5625 27.390625 C-56.5625 26.730625 -56.5625 26.070625 -56.5625 25.390625 C-55.88896484 25.09929688 -55.21542969 24.80796875 -54.52148438 24.5078125 C-38.52979149 17.62222998 -38.52979149 17.62222998 -22.8125 10.140625 C-22.18883545 9.82754395 -21.5651709 9.51446289 -20.92260742 9.19189453 C-17.8599559 7.63099074 -14.85160345 5.9975861 -11.87890625 4.2734375 C-10.99187012 3.76731934 -10.99187012 3.76731934 -10.08691406 3.25097656 C-8.49194105 2.33293448 -6.91133469 1.39005628 -5.33203125 0.4453125 C-2.5625 -0.609375 -2.5625 -0.609375 0 0 Z " fill="#F6AC5E" transform="translate(832.5625,759.609375)"/>
<path d="M0 0 C7.40948389 6.30916544 13.07118223 13.49089043 16.1796875 22.81640625 C16.66200129 31.15486967 17.12523721 39.22881065 13.1796875 46.81640625 C9.22837026 50.76772349 0.92781094 49.44194396 -4.49243164 49.51660156 C-6.23354073 49.54944356 -7.97439597 49.60365784 -9.71411133 49.68066406 C-21.20993426 50.18626484 -28.38429659 49.28006571 -37.18041992 41.56347656 C-44.63016041 33.81128198 -44.63016041 33.81128198 -45.30859375 30.26171875 C-45.22158203 29.11316406 -45.22158203 29.11316406 -45.1328125 27.94140625 C-45.08769531 27.16023437 -45.04257812 26.3790625 -44.99609375 25.57421875 C-44.90908203 24.70410156 -44.90908203 24.70410156 -44.8203125 23.81640625 C-44.24023438 23.53667969 -43.66015625 23.25695312 -43.0625 22.96875 C-37.58901841 20.15975202 -32.9290946 17.27715085 -29.8203125 11.81640625 C-28.81899765 8.18588954 -28.81899765 8.18588954 -29.8203125 4.81640625 C-36.04090071 -0.93763785 -44.35269532 -1.53248142 -52.4453125 -1.49609375 C-53.16976562 -1.51220703 -53.89421875 -1.52832031 -54.640625 -1.54492188 C-59.43284145 -1.54926265 -62.64453731 -0.7605361 -66.8203125 1.81640625 C-69.18035163 3.78289965 -69.18035163 3.78289965 -69.3828125 7.44140625 C-69.25283591 12.20721462 -67.09163993 14.71983699 -63.90625 18.09375 C-61.78209094 19.84797124 -60.00715512 20.67168347 -57.4453125 21.62890625 C-54.75158998 22.82787686 -53.9996559 23.40141397 -52.8125 26.1484375 C-52.00180847 30.74879024 -52.13022117 33.64419632 -54.53125 37.72265625 C-56.81551127 40.59241409 -59.22952331 43.22561706 -61.8203125 45.81640625 C-68.63532417 45.60524906 -75.44638646 44.32742044 -82.1328125 43.06640625 C-82.99970703 42.92203125 -83.86660156 42.77765625 -84.75976562 42.62890625 C-91.53976541 41.34044652 -94.66774045 38.93392439 -98.6328125 33.19140625 C-101.3037224 25.60039916 -100.35728553 18.39729973 -97.07421875 11.15625 C-90.89224548 -0.37958174 -81.00713392 -8.55404384 -68.8203125 -13.18359375 C-44.75463563 -20.01896821 -19.80356207 -15.33267479 0 0 Z " fill="#FAD496" transform="translate(411.8203125,822.18359375)"/>
<path d="M0 0 C4.11782381 0.56460107 7.90153755 1.943875 11.8125 3.3125 C24.26573917 7.53578577 36.45576053 10.32222549 49.55078125 11.60546875 C53 12 53 12 56 13 C57.23061224 26.12653061 57.23061224 26.12653061 54.4296875 30.390625 C53.04457937 31.64406886 51.62489948 32.8602061 50.17578125 34.0390625 C44.10700793 39.50858532 41.33359786 47.28958954 40.8671875 55.2734375 C40.88129816 59.06920485 41.04318121 62.73662487 41.5625 66.5 C41.7790625 68.2325 41.7790625 68.2325 42 70 C40.30331793 71.69668207 38.18867982 71.11968993 35.92559814 71.12442017 C35.19983582 71.12082489 34.47407349 71.11722961 33.72631836 71.11352539 C32.58493156 71.11374443 32.58493156 71.11374443 31.42048645 71.1139679 C28.89357702 71.11326862 26.36674038 71.10547555 23.83984375 71.09765625 C22.0924941 71.09579212 20.34514393 71.0943682 18.59779358 71.09336853 C13.98968066 71.08954293 9.38159905 71.07971229 4.77349854 71.06866455 C0.07491479 71.05845134 -4.62367399 71.0538711 -9.32226562 71.04882812 C-18.54819087 71.03809005 -27.77409284 71.02101313 -37 71 C-36.31080525 67.15691694 -35.4184039 64.78129809 -33.1875 61.5625 C-22.79183906 45.65335086 -14.57497501 28.36449804 -6.16821289 11.35083008 C-5.83202942 10.67170563 -5.49584595 9.99258118 -5.1494751 9.2928772 C-4.51313609 8.00629808 -3.87865558 6.71879763 -3.24627686 5.43026733 C-1.11101948 1.11101948 -1.11101948 1.11101948 0 0 Z " fill="#F5F5F5" transform="translate(862,778)"/>
<path d="M0 0 C5.47151813 4.65079041 6.27781443 9.13998953 7.5 16.125 C7.90693393 21.29513008 7.93486943 26.44260993 7.875 31.625 C7.87101196 32.32510193 7.86702393 33.02520386 7.86291504 33.746521 C7.75092726 50.55473776 5.58263541 66.09514985 0.5 82.125 C-0.17997535 84.45475162 -0.84061073 86.78929669 -1.5 89.125 C-6.07782964 87.69803689 -8.53107885 85.38038036 -11.8125 81.9375 C-29.9036039 63.35289293 -51.9462809 50.56949079 -74.5 38.125 C-73.40324371 30.35925789 -64.19931933 24.51556923 -58.2980957 19.95214844 C-44.82570262 9.88983884 -17.13887394 -9.18153961 0 0 Z " fill="#F08987" transform="translate(576.5,560.875)"/>
<path d="M0 0 C1.33984375 1.73046875 1.33984375 1.73046875 2.9375 4.1875 C9.32096083 13.56945496 16.7995163 22.16398224 25 30 C23.52917786 33.90736203 21.66789837 35.03173019 17.9765625 36.83984375 C16.95433594 37.34580078 15.93210937 37.85175781 14.87890625 38.37304688 C13.80511719 38.88931641 12.73132813 39.40558594 11.625 39.9375 C10.58988281 40.44990234 9.55476562 40.96230469 8.48828125 41.49023438 C-1.13206314 46.20456254 -10.93075539 50.36079922 -21.0390625 53.91015625 C-22.71164326 54.52578954 -24.37772993 55.16283909 -26.0144043 55.8684082 C-33.64406942 59.1126614 -41.53084731 61.10394188 -49.5625 63.0625 C-50.26877533 63.2370874 -50.97505066 63.4116748 -51.70272827 63.59155273 C-77.64450254 70 -77.64450254 70 -86 70 C-85.67515625 68.72253906 -85.3503125 67.44507813 -85.015625 66.12890625 C-83.88453039 61.02199409 -83.70212573 56.15180548 -83.75 50.9375 C-83.74226562 50.09123047 -83.73453125 49.24496094 -83.7265625 48.37304688 C-83.74337265 42.92235537 -84.47510769 38.23425336 -86 33 C-85.24460937 32.79246094 -84.48921875 32.58492187 -83.7109375 32.37109375 C-76.05809775 30.22937396 -68.45710393 27.94154218 -60.875 25.5625 C-59.53574463 25.14859009 -59.53574463 25.14859009 -58.16943359 24.72631836 C-45.06628519 20.57886003 -32.76726489 14.62430661 -20.375 8.75 C-18.80870874 8.01017318 -17.24230319 7.27058827 -15.67578125 6.53125 C-1.84696327 0 -1.84696327 0 0 0 Z " fill="#FBD598" transform="translate(797,721)"/>
<path d="M0 0 C6.70150547 5.27997401 11.15235157 11.95600977 12.2578125 20.4765625 C12.73524077 30.21194769 11.07421282 38.53800391 5.0625 46.375 C-1.34995678 53.25943964 -9.14929273 55.62529636 -18.3125 56 C-26.80412132 55.90394094 -33.18388444 52.99640446 -39.63671875 47.546875 C-45.92744357 41.08173082 -49.33699973 33.48040707 -49.6875 24.4375 C-49.24957273 14.92390748 -45.41833593 7.36009376 -38.5 0.875 C-27.30329579 -8.41107395 -12.05593412 -7.70240236 0 0 Z " fill="#5E3526" transform="translate(471.25,776.4375)"/>
<path d="M0 0 C31.10980079 24.73540954 54.89603345 59.18659198 65.54296875 97.6953125 C66.19034831 99.79766126 66.9672827 101.85952455 67.7734375 103.90625 C69.4849062 108.42122232 70.47423108 112.97274955 71.37890625 117.70703125 C71.5480957 118.58069336 71.71728516 119.45435547 71.89160156 120.35449219 C74.41066575 133.67786635 75.6407487 146.65672445 75.31640625 160.20703125 C73.66640625 159.87703125 72.01640625 159.54703125 70.31640625 159.20703125 C70.16945313 158.27246094 70.0225 157.33789062 69.87109375 156.375 C68.15531348 146.10022304 65.4248385 136.37961239 62.09277344 126.51806641 C61.36837731 124.36173505 60.67168213 122.1983951 59.98046875 120.03125 C54.23323265 102.44403337 46.13314957 85.24953273 35.31640625 70.20703125 C34.85089355 69.55653809 34.38538086 68.90604492 33.90576172 68.23583984 C27.8267738 59.80522782 21.53043226 51.70524617 14.31640625 44.20703125 C13.76533203 43.61954102 13.21425781 43.03205078 12.64648438 42.42675781 C0.68263055 29.7096243 -12.40797925 18.08517792 -28.68359375 11.20703125 C-25.99159293 9.06150965 -23.45069871 7.52463334 -20.27734375 6.19921875 C-19.45105469 5.85246094 -18.62476563 5.50570313 -17.7734375 5.1484375 C-16.49146484 4.62056641 -16.49146484 4.62056641 -15.18359375 4.08203125 C-13.90162109 3.54255859 -13.90162109 3.54255859 -12.59375 2.9921875 C-2.53913677 -1.19592753 -2.53913677 -1.19592753 0 0 Z " fill="#E0853D" transform="translate(666.68359375,499.79296875)"/>
<path d="M0 0 C2.3401706 1.01480295 4.57666278 2.1668959 6.83984375 3.34375 C7.92523438 3.84132813 9.010625 4.33890625 10.12890625 4.8515625 C18.39920516 8.72544979 24.93126749 13.31005894 31.83984375 19.34375 C34.79396321 21.70405783 37.75611114 24.05377437 40.72265625 26.3984375 C42.83984375 28.34375 42.83984375 28.34375 43.83984375 31.34375 C42.98003906 31.92640625 42.12023437 32.5090625 41.234375 33.109375 C32.39094508 39.20185212 24.53271561 45.86745165 16.83984375 53.34375 C16.26202148 53.89579102 15.68419922 54.44783203 15.08886719 55.01660156 C6.50864511 63.22193682 -1.06976956 71.82237359 -8.16015625 81.34375 C-11.81090875 78.909915 -11.77617364 78.00686754 -12.6953125 73.84765625 C-12.94732422 72.73068359 -13.19933594 71.61371094 -13.45898438 70.46289062 C-13.71099609 69.28919922 -13.96300781 68.11550781 -14.22265625 66.90625 C-14.47853516 65.76736328 -14.73441406 64.62847656 -14.99804688 63.45507812 C-15.74567067 60.08981008 -16.4565833 56.71846792 -17.16015625 53.34375 C-17.46578491 51.9815332 -17.46578491 51.9815332 -17.77758789 50.59179688 C-19.2916286 43.33738477 -19.49977972 36.15080576 -19.47583008 28.76367188 C-19.47264936 26.71431184 -19.49629749 24.66637257 -19.52148438 22.6171875 C-19.60544168 6.04476795 -19.60544168 6.04476795 -14.265625 0.30859375 C-9.74512084 -1.76295454 -4.70048549 -1.42799559 0 0 Z " fill="#EE8685" transform="translate(270.16015625,558.65625)"/>
<path d="M0 0 C-0.76359871 1.9195604 -1.53618478 3.83554712 -2.3125 5.75 C-2.74175781 6.81734375 -3.17101562 7.8846875 -3.61328125 8.984375 C-6.2697566 14.76127351 -9.0798097 16.85028585 -14.8125 19.4375 C-21.91137702 22.65737485 -27.34278588 26.1271751 -31.3125 33.125 C-32.04919922 34.39730469 -32.04919922 34.39730469 -32.80078125 35.6953125 C-36.99484254 43.75556058 -35 47.38336382 -35 59 C-55.46 59 -75.92 59 -97 59 C-95.95661819 54.82647276 -95.4893988 54.18371358 -92.5 51.4375 C-87.53004756 46.64378701 -83.30050481 41.39248252 -79 36 C-78.00343093 34.77016292 -77.00599285 33.54102966 -76.0078125 32.3125 C-75.4936377 31.67602539 -74.97946289 31.03955078 -74.44970703 30.38378906 C-73.4008962 29.0874914 -72.34717934 27.79514762 -71.28857422 26.50683594 C-68.34710228 22.87923836 -66.07422981 19.32300824 -63.875 15.1875 C-61.62296363 11.96275309 -60.5336245 11.12871973 -56.6640625 10.1953125 C-54.52577324 9.95397709 -52.39924033 9.8071088 -50.25048828 9.69213867 C-41.87558946 9.2096445 -33.89325191 7.39188695 -25.75 5.5 C-24.3795679 5.1872094 -23.00912538 4.8744644 -21.63867188 4.56176758 C-14.63640206 2.96188186 -14.63640206 2.96188186 -7.75878906 0.90429688 C-4.98992095 -0.00330379 -2.88986924 -0.16999231 0 0 Z " fill="#F4F3F3" transform="translate(764,790)"/>
<path d="M0 0 C0.495 0.99 0.495 0.99 1 2 C1.66 2 2.32 2 3 2 C4.48046875 3.46875 4.48046875 3.46875 6.1875 5.5 C8.9021513 8.7139103 8.9021513 8.7139103 11.69921875 11.85546875 C33.41520688 35.59625764 44.73592834 66.20484651 52 97 C52.26103516 98.08595459 52.26103516 98.08595459 52.52734375 99.19384766 C55.56235404 111.92019762 56.14725164 124.12922831 56.0625 137.1875 C56.05746963 138.53450352 56.05290947 139.88150889 56.04882812 141.22851562 C56.03715354 144.48572537 56.02077883 147.74283778 56 151 C54.68 151.33 53.36 151.66 52 152 C50.01060635 146.82420467 49.39501442 141.83320164 48.75 136.375 C47.43290059 126.25085436 44.87165255 116.84270351 41.69482422 107.16113281 C40.76021167 104.25417908 39.95357428 101.31367676 39.125 98.375 C28.39749767 63.79875281 5.38007649 29.12945627 -25 9 C-25.70125 8.4534375 -26.4025 7.906875 -27.125 7.34375 C-29.37917054 5.72826112 -31.27887522 5.377934 -34 5 C-34 4.67 -34 4.34 -34 4 C-22.65574983 1.91234285 -11.52898621 0.4555049 0 0 Z " fill="#E0853D" transform="translate(739,483)"/>
<path d="M0 0 C7.73243993 7.73243993 10.18730834 15.49141009 10.625 26.1875 C10.48546236 33.48996991 8.3426809 39.73661912 4 45.625 C-1.48063725 50.85651737 -6.0001101 52.5107273 -13.625 52.875 C-21.64820422 52.62588552 -26.74773298 49.9663908 -32.5546875 44.57421875 C-40.11352854 36.39487583 -42.2065382 27.77071132 -42.08203125 16.859375 C-41.36649571 9.08108276 -37.90499136 4.02130098 -32.3125 -1.25 C-21.14511685 -10.37524224 -11.19881429 -7.12651819 0 0 Z " fill="#5E3425" transform="translate(313.75,771.75)"/>
<path d="M0 0 C-1.44098728 3.97363159 -3.3525363 7.31691939 -5.625 10.875 C-17.6639936 30.13076127 -25.5436031 50.27246223 -32 72 C-32.27231445 72.88864746 -32.54462891 73.77729492 -32.82519531 74.69287109 C-38.13047274 92.18360739 -40.15074259 109.88424944 -42 128 C-43.65 128.33 -45.3 128.66 -47 129 C-51.0934258 117.68724008 -51.33328627 105.55797867 -51.26074219 93.64819336 C-51.2500211 91.56659732 -51.26071965 89.48586717 -51.2734375 87.40429688 C-51.30105324 61.8195323 -45.20746778 37.32184707 -33.375 14.625 C-33.01510986 13.92963135 -32.65521973 13.2342627 -32.28442383 12.51782227 C-29.66972269 7.69813778 -26.91105977 3.10564289 -21.5625 1.07421875 C-14.342573 -0.01537389 -7.29661548 -0.20880617 0 0 Z " fill="#DF833B" transform="translate(409,569)"/>
<path d="M0 0 C2.87483167 1.95287399 5.73420685 3.91441459 8.5546875 5.9453125 C9.31652344 6.48027344 10.07835937 7.01523437 10.86328125 7.56640625 C37.64029518 27.66076852 56.33151415 56.13369061 68.5546875 86.9453125 C68.86776855 87.73228516 69.18084961 88.51925781 69.50341797 89.33007812 C74.7342332 102.73253557 80.30420358 118.34473929 79.5546875 132.9453125 C78.2346875 132.9453125 76.9146875 132.9453125 75.5546875 132.9453125 C73.55911724 128.53405192 71.91906219 124.09527992 70.3671875 119.5078125 C67.71472146 112.03196328 64.37522863 105.06657307 60.67138672 98.05908203 C59.92128004 96.63922554 59.17820245 95.21563523 58.44189453 93.78857422 C47.04431433 71.754562 30.76986866 47.68176073 9.5546875 33.9453125 C8.5646875 33.9453125 7.5746875 33.9453125 6.5546875 33.9453125 C6.32394531 32.97851562 6.09320312 32.01171875 5.85546875 31.015625 C3.34423251 20.84767004 0.7961392 11.00941395 -7.4453125 3.9453125 C-6.4453125 0.9453125 -6.4453125 0.9453125 -4.703125 -0.421875 C-2.4453125 -1.0546875 -2.4453125 -1.0546875 0 0 Z " fill="#E1853E" transform="translate(606.4453125,530.0546875)"/>
<path d="M0 0 C14.42749017 -0.33166644 28.636175 0.68753385 43 2 C42.01 2.33 41.02 2.66 40 3 C38.93149088 4.85976778 38.93149088 4.85976778 38 7 C37.13250581 8.2518908 36.23456334 9.48305183 35.3125 10.6953125 C15.28770534 37.43672526 2.64733457 67.30354882 -3.2734375 100.203125 C-4 104 -4 104 -5 106 C-6.32 105.67 -7.64 105.34 -9 105 C-12.48693637 86.64225396 -11.36452872 64.81270383 -6 47 C-5.81808105 46.35015137 -5.63616211 45.70030273 -5.44873047 45.03076172 C-1.37544975 30.56133289 5.6090574 17.40498812 14 5 C14.66 4.01 15.32 3.02 16 2 C10.72 1.67 5.44 1.34 0 1 C0 0.67 0 0.34 0 0 Z " fill="#DF833C" transform="translate(410,568)"/>
<path d="M0 0 C14.88392508 11.0519635 31.75532767 20.16097208 49.48535156 25.72607422 C44.15129743 31.94913738 33.46027422 34.8399717 25.48535156 35.72607422 C15.30967877 36.40865289 15.30967877 36.40865289 10.48535156 35.72607422 C8.26407323 33.71247638 7.61374846 32.44106869 7.08691406 29.50732422 C7.13480228 24.84620416 7.28516166 22.32628786 10.48535156 18.72607422 C10.48535156 17.40607422 10.48535156 16.08607422 10.48535156 14.72607422 C8.15575686 14.223661 8.15575686 14.223661 5.48535156 14.72607422 C1.65036358 19.22801664 0.94636345 22.86577165 1.23535156 28.60107422 C1.26242188 29.63361328 1.26242188 29.63361328 1.29003906 30.68701172 C1.33671408 32.36731231 1.40844217 34.04688584 1.48535156 35.72607422 C-8.80036272 36.12943556 -8.80036272 36.12943556 -12.51464844 33.72607422 C-15.78379703 28.99144522 -16.04389222 25.28313389 -15.51464844 19.72607422 C-14.55446674 18.03615443 -13.5610891 16.36398134 -12.51464844 14.72607422 C-12.72108042 12.4727901 -12.72108042 12.4727901 -13.51464844 10.72607422 C-15.40123718 10.6908229 -15.40123718 10.6908229 -17.51464844 11.72607422 C-21.82834583 17.39550508 -22.26168123 22.73153084 -22.51464844 29.72607422 C-25.34605195 28.46247265 -26.43182567 27.84439245 -28.26464844 25.22607422 C-30.15329065 19.93787601 -30.75359546 14.8427143 -28.63574219 9.51513672 C-24.34610044 2.12506083 -18.64607298 -2.28949681 -10.62792969 -5.02392578 C-6.28648071 -5.53751679 -3.33770137 -2.48170039 0 0 Z " fill="#F4AA5C" transform="translate(246.5146484375,839.27392578125)"/>
<path d="M0 0 C6.94269391 0.63701006 13.58457144 1.87433423 20.375 3.4375 C21.85033203 3.76331055 21.85033203 3.76331055 23.35546875 4.09570312 C24.29777344 4.31033203 25.24007812 4.52496094 26.2109375 4.74609375 C27.05962402 4.93872803 27.90831055 5.1313623 28.78271484 5.32983398 C31 6 31 6 34 8 C34 8.99 34 9.98 34 11 C35.11296791 13.00985428 36.29177404 14.98342686 37.5 16.9375 C53.67683299 44.51280071 58.26573364 75.48112755 56 107 C55.67 107.66 55.34 108.32 55 109 C53.68 108.67 52.36 108.34 51 108 C50.86537354 107.11985229 50.86537354 107.11985229 50.72802734 106.22192383 C44.64971578 67.23519442 30.74764384 33.62387483 3.40234375 4.69189453 C0 1.09108073 0 1.09108073 0 0 Z " fill="#E0843C" transform="translate(786,485)"/>
<path d="M0 0 C-1.46752277 2.98698186 -3.0312609 5.90574474 -4.64453125 8.81640625 C-5.15693359 9.74646484 -5.66933594 10.67652344 -6.19726562 11.63476562 C-7.25978956 13.56067056 -8.32482533 15.48519222 -9.39257812 17.40820312 C-15.28362507 28.12387778 -19.85855442 38.84237788 -23.5625 50.5 C-23.95308594 51.72452881 -24.34367187 52.94905762 -24.74609375 54.21069336 C-28.91304125 67.53740947 -32.37038068 80.99097004 -33 95 C-34.32 95 -35.64 95 -37 95 C-39.51325602 85.84938982 -40.44267281 77.40887329 -40.3125 67.9375 C-40.31572266 66.76123047 -40.31894531 65.58496094 -40.32226562 64.37304688 C-40.27577371 56.72724068 -39.49084868 49.49382971 -38 42 C-37.77699219 40.8140625 -37.55398438 39.628125 -37.32421875 38.40625 C-35.89397237 31.87800886 -33.93796349 25.94378218 -31.18359375 19.8515625 C-29.8496607 16.9496529 -29.8496607 16.9496529 -29.42578125 13.41796875 C-27.8411449 9.61918299 -27.391092 9.30981486 -23.859375 7.63671875 C-22.16680633 6.95995616 -20.46291913 6.3109616 -18.75 5.6875 C-17.90308594 5.35427734 -17.05617188 5.02105469 -16.18359375 4.67773438 C-13.8005443 3.74934575 -11.40672267 2.86488306 -9 2 C-7.87078125 1.59394531 -6.7415625 1.18789063 -5.578125 0.76953125 C-3 0 -3 0 0 0 Z " fill="#DF823B" transform="translate(366,576)"/>
<path d="M0 0 C2.19304383 3.68355414 2.83147593 7.58819102 3.5625 11.75 C3.75102539 12.76707031 3.75102539 12.76707031 3.94335938 13.8046875 C4.7995886 18.52067253 5.43969199 23.24005005 6 28 C-17.88726915 42.90311925 -41.80597642 50.32663351 -70 49 C-70.33 47.68 -70.66 46.36 -71 45 C-69.453125 44.4121875 -69.453125 44.4121875 -67.875 43.8125 C-67.13507812 43.53019531 -66.39515625 43.24789062 -65.6328125 42.95703125 C-63.78844642 42.28660144 -61.9268206 41.66267438 -60.0546875 41.07421875 C-38.16837744 33.95987446 -17.24476823 20.24476823 -1 4 C-0.3574765 1.93125966 -0.3574765 1.93125966 0 0 Z " fill="#E0843D" transform="translate(621,709)"/>
<path d="M0 0 C1.55544893 2.84517534 2.41251498 5.378541 3 8.5625 C3.24363281 9.87154297 3.24363281 9.87154297 3.4921875 11.20703125 C3.74355469 12.58955078 3.74355469 12.58955078 4 14 C4.18820312 14.95261719 4.37640625 15.90523437 4.5703125 16.88671875 C4.75335937 17.83160156 4.93640625 18.77648437 5.125 19.75 C5.37636719 21.04164063 5.37636719 21.04164063 5.6328125 22.359375 C6.61167316 29.39884101 5.56764981 32.55714003 1.36328125 38.16015625 C-12.52024079 54.84333067 -31.47859215 68.97988759 -53 74 C-56.0625 74.1875 -56.0625 74.1875 -58 74 C-57.9140625 72.2421875 -57.9140625 72.2421875 -57 70 C-54.8081214 68.5647699 -52.68302809 67.34123045 -50.375 66.125 C-25.64962599 52.18454184 -8.84073946 26.41820969 0 0 Z " fill="#DF833C" transform="translate(941,632)"/>
<path d="M0 0 C2.41245275 2.33467283 4.56954381 4.60000187 6.4375 7.390625 C7.06785156 8.33228516 7.06785156 8.33228516 7.7109375 9.29296875 C8.13632812 9.93878906 8.56171875 10.58460938 9 11.25 C9.42539062 11.88035156 9.85078125 12.51070312 10.2890625 13.16015625 C11.56673939 15.08451009 12.79544836 17.02909255 14 19 C14.4115332 19.67289063 14.82306641 20.34578125 15.24707031 21.0390625 C17.14557869 24.42427642 18.04114185 26.33540093 17.796875 30.28125 C14.97649369 38.95287014 11.41807848 46.93303692 7.09863281 54.95458984 C6.00133775 56.9975094 4.93405955 59.05434531 3.8671875 61.11328125 C-1.69460119 71.62612782 -8.44389846 80.69888162 -17 89 C-17.99 88.67 -18.98 88.34 -20 88 C-18.60120784 84.41992305 -17.09171139 80.89691763 -15.53833008 77.38134766 C-14.29005359 74.55378954 -13.05932052 71.71866991 -11.82666016 68.88427734 C-11.16278478 67.37104931 -10.48077976 65.86578104 -9.79296875 64.36328125 C-6.75662585 57.4317096 -5.36161335 50.15886339 -3.83203125 42.78125 C-3 39 -3 39 -2 37 C-0.88894775 29.17325413 -0.68380946 21.33151621 -0.4375 13.4375 C-0.39431641 12.14263672 -0.35113281 10.84777344 -0.30664062 9.51367188 C-0.20132615 6.34253616 -0.09919383 3.17133207 0 0 Z " fill="#DF823B" transform="translate(905,553)"/>
<path d="M0 0 C0.51175781 0.62519531 1.02351562 1.25039063 1.55078125 1.89453125 C4.69297491 4.59571527 7.13071931 4.91846133 11.1875 5.6875 C27.63701556 9.32924208 42.03399372 18.54892506 52.25 32 C54 35 54 35 54 38 C50.07991843 37.36228338 47.40092228 35.42305568 44.125 33.25 C34.89223523 27.32310491 24.22261459 22.84580299 13.140625 22.90234375 C12.02558594 22.90556641 10.91054688 22.90878906 9.76171875 22.91210938 C8.02341797 22.92467773 8.02341797 22.92467773 6.25 22.9375 C5.07566406 22.94201172 3.90132812 22.94652344 2.69140625 22.95117188 C-0.20578072 22.96294906 -3.10286454 22.97939674 -6 23 C-5.38334864 17.60607261 -4.12077204 12.71604717 -2.4375 7.5625 C-2.20353516 6.83095703 -1.96957031 6.09941406 -1.72851562 5.34570312 C-1.15732778 3.56219821 -0.57936877 1.78086417 0 0 Z " fill="#E0853D" transform="translate(995,377)"/>
<path d="M0 0 C14.73537297 0.25405815 29.67859009 8.55844026 39.890625 18.8125 C44.02475311 23.26091855 47.93756094 27.73260481 51 33 C50.67 33.99 50.34 34.98 50 36 C46.39947717 34.70960283 43.74701859 33.16807036 40.75 30.8125 C27.02042345 20.97331321 11.51721452 17.89282241 -5 17 C-4.31115236 13.37030282 -3.46387675 9.81634398 -2.5 6.25 C-2.11328125 4.80367188 -2.11328125 4.80367188 -1.71875 3.328125 C-1 1 -1 1 0 0 Z " fill="#E0843C" transform="translate(982,429)"/>
<path d="M0 0 C0.66 0.70125 1.32 1.4025 2 2.125 C5.34985941 5.49416695 9.15652564 8.22468725 13 11 C12.34 11.33 11.68 11.66 11 12 C10.85304688 12.74121094 10.70609375 13.48242188 10.5546875 14.24609375 C8.12555235 26.30623657 -4.59176745 38.02381529 -14.4375 44.875 C-29.87397541 55 -29.87397541 55 -36 55 C-35.49429811 50.908412 -33.51828923 49.39471876 -30.4375 46.8125 C-17.65103987 35.60394346 -2.78854366 17.38923294 0 0 Z " fill="#DF843D" transform="translate(956,687)"/>
<path d="M0 0 C10.38074335 0.23592599 19.37350047 7.62156486 26.61328125 14.48828125 C33.89508547 22.15145656 39.12234304 29.77727459 42 40 C40.02404535 42.1696757 38.04445723 44.33581969 36.0625 46.5 C35.21655273 47.43005859 35.21655273 47.43005859 34.35351562 48.37890625 C32.92272025 49.93821618 31.46353265 51.47137479 30 53 C29.67 53 29.34 53 29 53 C28.87625 52.030625 28.7525 51.06125 28.625 50.0625 C26.15382112 33.1477066 19.14820703 20.84179825 7 9 C5.6037161 7.62545754 4.20780633 6.25053478 2.8125 4.875 C1.98685547 4.09769531 1.98685547 4.09769531 1.14453125 3.3046875 C0 2 0 2 0 0 Z " fill="#DE833B" transform="translate(976,483)"/>
<path d="M0 0 C-0.78125 3.390625 -0.78125 3.390625 -2 7 C-5.21417145 8.60708572 -7.52166749 9.29457287 -11 10 C-11.63035156 10.13390137 -12.26070312 10.26780273 -12.91015625 10.40576172 C-31.2682319 14.21892276 -48.82478651 13.98927429 -67 9 C-67 8.67 -67 8.34 -67 8 C-44.12220658 2.43244176 -23.55119241 -0.36622668 0 0 Z " fill="#DE843D" transform="translate(621,782)"/>
<path d="M0 0 C11.24406701 6.52155887 18.52742341 16.84493882 23.125 28.8125 C23.5375 29.84375 23.95 30.875 24.375 31.9375 C25.25543345 35.31249488 25.26392434 38.33939158 25.125 41.8125 C23.30078125 41.59765625 23.30078125 41.59765625 21.125 40.8125 C19.66796875 38.80859375 19.66796875 38.80859375 18.3125 36.25 C10.50288933 22.57831249 -1.25674514 15.8350797 -14.875 8.8125 C-14.12089844 8.21179688 -13.36679687 7.61109375 -12.58984375 6.9921875 C-11.06519214 5.76807872 -9.54913323 4.53238126 -8.06640625 3.2578125 C-3.74576612 -0.24428909 -3.74576612 -0.24428909 0 0 Z " fill="#DF833B" transform="translate(942.875,501.1875)"/>
<path d="M0 0 C3.05533136 1.27926476 3.81524971 2.25505733 6 5 C6.98409145 8.87931703 6.73319797 12.21260196 5.21484375 15.9140625 C3.48592074 18.52913601 1.65491799 19.85183823 -1.3828125 20.5390625 C-6.05053334 20.80379891 -8.29725512 20.54498582 -12.0625 17.625 C-14.89570668 13.78646191 -15.37530664 11.78515965 -15 7 C-11.69904248 0.08370806 -7.19507889 -1.1502337 0 0 Z " fill="#F7F6F6" transform="translate(463,779)"/>
<path d="M0 0 C0.24363281 0.56074219 0.48726562 1.12148438 0.73828125 1.69921875 C3.31275403 6.39384559 7.36291541 10.11084024 11 14 C11.92425781 15.00546875 11.92425781 15.00546875 12.8671875 16.03125 C16.81558089 20.17979236 21.01557381 23.19059615 26 26 C25.67 26.99 25.34 27.98 25 29 C13.58442415 29.41511185 5.21298701 26.01967522 -5 21 C-4.35610937 18.0620618 -3.70997221 15.124649 -3.0625 12.1875 C-2.78889648 10.93743164 -2.78889648 10.93743164 -2.50976562 9.66210938 C-2.33251953 8.85966797 -2.15527344 8.05722656 -1.97265625 7.23046875 C-1.81031494 6.49207764 -1.64797363 5.75368652 -1.48071289 4.99291992 C-1 3 -1 3 0 0 Z " fill="#DF863F" transform="translate(226,724)"/>
<path d="M0 0 C3.4375 2 3.4375 2 6 5 C6.99442198 9.04289593 6.39803266 12.12811893 4.6875 15.875 C2.41761904 18.73336862 0.76554847 19.90014585 -2.875 20.375 C-6.71852258 19.91377729 -8.25600111 18.66559892 -11 16 C-12.85898753 12.28202494 -12.5681869 8.04914801 -12 4 C-8.61332422 -0.31031463 -5.30082804 -0.83697285 0 0 Z " fill="#F5F3F3" transform="translate(307,774)"/>
<path d="M0 0 C1.155 0.825 2.31 1.65 3.5 2.5 C10.98699253 7.50722431 19.42710443 12.0032941 27.921875 15.046875 C28.60765625 15.36140625 29.2934375 15.6759375 30 16 C30.33 16.99 30.66 17.98 31 19 C24.02867631 22.48566185 12.17817088 20.03381508 5 18 C4.01 17.67 3.02 17.34 2 17 C1.34 17.66 0.68 18.32 0 19 C0 12.73 0 6.46 0 0 Z " fill="#DF843D" transform="translate(220,760)"/>
<path d="M0 0 C0.33 0.66 0.66 1.32 1 2 C1.89138672 2.22236328 1.89138672 2.22236328 2.80078125 2.44921875 C5.42576383 3.10663002 7.01918279 4.20558574 9.1875 5.8125 C9.88230469 6.31394531 10.57710937 6.81539062 11.29296875 7.33203125 C13.21295682 9.20808367 13.61932203 10.38070828 14 13 C10.62142646 14.15683584 8.86317451 13.81486385 5.5625 12.5625 C-2.47479346 9.96675189 -11.13241787 9.74484541 -19 13 C-19.33 13.66 -19.66 14.32 -20 15 C-20.66 15 -21.32 15 -22 15 C-20.65731345 10.66208962 -19.06787321 7.13574643 -17 3 C-11.72 3.33 -6.44 3.66 -1 4 C-0.67 2.68 -0.34 1.36 0 0 Z " fill="#E38C44" transform="translate(648,781)"/>
<path d="M0 0 C-0.66 3.63 -1.32 7.26 -2 11 C-11.24 11 -20.48 11 -30 11 C-30 10.67 -30 10.34 -30 10 C-28.2365625 9.9690625 -28.2365625 9.9690625 -26.4375 9.9375 C-18.30771781 9.08309614 -10.80612674 4.52826499 -3.67578125 0.77734375 C-2 0 -2 0 0 0 Z " fill="#CF7B3A" transform="translate(626,764)"/>
<path d="M0 0 C6.4 -0.36923077 6.4 -0.36923077 9.4375 1.5 C9.953125 1.995 10.46875 2.49 11 3 C10.125 6.875 10.125 6.875 9 8 C1.54135338 8.36090226 1.54135338 8.36090226 -2 6 C-1.34 4.02 -0.68 2.04 0 0 Z " fill="#7D4529" transform="translate(776,787)"/>
<path d="M0 0 C4.875 4.75 4.875 4.75 6 7 C2.7 7 -0.6 7 -4 7 C-2.92598892 4.08482708 -2.22189824 2.22189824 0 0 Z " fill="#EAC995" transform="translate(364,863)"/>
<path d="M0 0 C0.77734375 1.671875 0.77734375 1.671875 1 4 C-0.87109375 6.578125 -0.87109375 6.578125 -3.4375 9.25 C-4.70400391 10.58804688 -4.70400391 10.58804688 -5.99609375 11.953125 C-6.65738281 12.62859375 -7.31867187 13.3040625 -8 14 C-8.33 13.01 -8.66 12.02 -9 11 C-8.27683594 10.31164062 -8.27683594 10.31164062 -7.5390625 9.609375 C-6.59160156 8.68898438 -6.59160156 8.68898438 -5.625 7.75 C-4.99851562 7.14671875 -4.37203125 6.5434375 -3.7265625 5.921875 C-2.02689839 4.0299412 -1.01540134 2.31798691 0 0 Z " fill="#E8A45E" transform="translate(927,807)"/>
<path d="M0 0 C0.33 0 0.66 0 1 0 C1 4.62 1 9.24 1 14 C1.66 14.33 2.32 14.66 3 15 C1.02 16.65 -0.96 18.3 -3 20 C-3 17 -3 17 -1 15 C-0.69400937 12.43083343 -0.48912913 9.95241616 -0.375 7.375 C-0.33632813 6.66859375 -0.29765625 5.9621875 -0.2578125 5.234375 C-0.16352276 3.49001476 -0.08067109 1.74504309 0 0 Z " fill="#725045" transform="translate(918,791)"/>
<path d="M0 0 C1.44977894 2.34112451 2.04314411 3.5796929 1.7578125 6.359375 C1.54898438 7.14828125 1.34015625 7.9371875 1.125 8.75 C0.92132812 9.54921875 0.71765625 10.3484375 0.5078125 11.171875 C0.34023438 11.77515625 0.17265625 12.3784375 0 13 C-0.99 13 -1.98 13 -3 13 C-2.68817931 11.58318366 -2.37551263 10.16655349 -2.0625 8.75 C-1.88847656 7.96109375 -1.71445312 7.1721875 -1.53515625 6.359375 C-1.052444 4.23121297 -0.53836822 2.11467158 0 0 Z " fill="#694337" transform="translate(972,426)"/>
<path d="M0 0 C0.99 0.33 1.98 0.66 3 1 C2.49202991 5.3177458 1.80317221 9.03302114 0 13 C-0.66 13 -1.32 13 -2 13 C-1.34 8.71 -0.68 4.42 0 0 Z " fill="#6B4539" transform="translate(976,409)"/>
<path d="M0 0 C0.88365234 0.00451172 1.76730469 0.00902344 2.67773438 0.01367188 C4.84768559 0.02540134 7.01760172 0.04333505 9.1875 0.0625 C9.1875 0.3925 9.1875 0.7225 9.1875 1.0625 C3.5775 1.0625 -2.0325 1.0625 -7.8125 1.0625 C-7.8125 1.7225 -7.8125 2.3825 -7.8125 3.0625 C-10.1225 2.7325 -12.4325 2.4025 -14.8125 2.0625 C-14.8125 1.7325 -14.8125 1.4025 -14.8125 1.0625 C-9.89747242 -0.22985715 -5.03959898 -0.04885517 0 0 Z " fill="#CD8F53" transform="translate(576.8125,536.9375)"/>
<path d="M0 0 C0.99 0.33 1.98 0.66 3 1 C2.01 2.32 1.02 3.64 0 5 C0.99 5.99 1.98 6.98 3 8 C1.35 7.67 -0.3 7.34 -2 7 C-2.33 5.35 -2.66 3.7 -3 2 C-2.01 1.34 -1.02 0.68 0 0 Z " fill="#6E412C" transform="translate(543,786)"/>
<path d="M0 0 C-2.02196167 2.02196167 -3.25864486 2.67551358 -5.875 3.6875 C-6.55304687 3.95949219 -7.23109375 4.23148437 -7.9296875 4.51171875 C-10.31107782 5.07336741 -11.70430191 4.76694846 -14 4 C-12.42466914 3.13116294 -10.83935491 2.28040932 -9.25 1.4375 C-8.36828125 0.96183594 -7.4865625 0.48617188 -6.578125 -0.00390625 C-3.79298812 -1.07998186 -2.73019786 -1.06528748 0 0 Z " fill="#725144" transform="translate(644,499)"/>
<path d="M0 0 C4.81449408 0.48144941 7.60171741 0.8008587 12 3 C8.7 3 5.4 3 2 3 C1.67 3.66 1.34 4.32 1 5 C0.67 3.35 0.34 1.7 0 0 Z " fill="#D47E3D" transform="translate(226,796)"/>
<path d="M0 0 C-0.33 0.99 -0.66 1.98 -1 3 C-5.455 3.495 -5.455 3.495 -10 4 C-10.33 3.01 -10.66 2.02 -11 1 C-7.27569643 0.30710631 -3.78916254 -0.11144596 0 0 Z " fill="#6A3E2A" transform="translate(579,777)"/>
<path d="M0 0 C0.66 0.99 1.32 1.98 2 3 C1.360625 3.66 0.72125 4.32 0.0625 5 C-2.58912502 8.85690912 -2.68667121 11.37840033 -3 16 C-3.33 16 -3.66 16 -4 16 C-4.54330269 9.34454208 -3.77304004 5.54165256 0 0 Z " fill="#7A472E" transform="translate(773,836)"/>
<path d="M0 0 C0.33 0 0.66 0 1 0 C1.33 4.29 1.66 8.58 2 13 C0.68 12.34 -0.64 11.68 -2 11 C-1.34 7.37 -0.68 3.74 0 0 Z " fill="#D18C49" transform="translate(921,839)"/>
<path d="M0 0 C-0.33 0.99 -0.66 1.98 -1 3 C-2.84765625 3.73046875 -2.84765625 3.73046875 -5.0625 4.1875 C-5.79597656 4.34605469 -6.52945313 4.50460937 -7.28515625 4.66796875 C-8.13400391 4.83232422 -8.13400391 4.83232422 -9 5 C-9.33 4.01 -9.66 3.02 -10 2 C-3.375 0 -3.375 0 0 0 Z " fill="#674032" transform="translate(546,533)"/>
<path d="M0 0 C-3.37097383 1.49821059 -5.20442119 2 -9 2 C-9.66 2.66 -10.32 3.32 -11 4 C-12.98 3.34 -14.96 2.68 -17 2 C-17 1.67 -17 1.34 -17 1 C-14.91835982 0.63601378 -12.83459438 0.28416713 -10.75 -0.0625 C-9.00976562 -0.35833984 -9.00976562 -0.35833984 -7.234375 -0.66015625 C-4.37477376 -0.9606216 -2.66674071 -0.9439206 0 0 Z " fill="#BF723B" transform="translate(722,486)"/>
<path d="M0 0 C0.33 0.99 0.66 1.98 1 3 C-3.95 3 -8.9 3 -14 3 C-14 2.67 -14 2.34 -14 2 C-12.04200486 1.66468585 -10.08359226 1.33180857 -8.125 1 C-6.48917969 0.7215625 -6.48917969 0.7215625 -4.8203125 0.4375 C-2 0 -2 0 0 0 Z " fill="#D39151" transform="translate(950,854)"/>
<path d="M0 0 C0.33 0 0.66 0 1 0 C1.34833144 4.87664009 0.41685712 7.77050005 -2 12 C-2.66 12 -3.32 12 -4 12 C-2.66666667 8 -1.33333333 4 0 0 Z " fill="#6C402B" transform="translate(703,780)"/>
<path d="M0 0 C1.0326802 2.78823655 1.04509293 3.8677274 0.0625 6.75 C-0.288125 7.4925 -0.63875 8.235 -1 9 C-1.66 8.67 -2.32 8.34 -3 8 C-2.74438677 5.6568787 -2.40729228 3.32156597 -2 1 C-1.34 0.67 -0.68 0.34 0 0 Z " fill="#653E31" transform="translate(982,392)"/>
<path d="M0 0 C0 0.66 0 1.32 0 2 C-3.4019487 4.09350689 -6.05272412 4.17942163 -10 4 C-4.7826087 0 -4.7826087 0 0 0 Z " fill="#6A473A" transform="translate(515,545)"/>
<path d="M0 0 C-1.49920512 3.11373372 -3.08152136 6.12228205 -5 9 C-5.66 9 -6.32 9 -7 9 C-4.4 0 -4.4 0 0 0 Z " fill="#E7A45C" transform="translate(248,540)"/>
<path d="M0 0 C-0.33 0.99 -0.66 1.98 -1 3 C-3.31 3.33 -5.62 3.66 -8 4 C-8 3.34 -8 2.68 -8 2 C-4.91190305 0.23537317 -3.76687864 0 0 0 Z " fill="#623D31" transform="translate(250,529)"/>
<path d="M0 0 C0.99 0.33 1.98 0.66 3 1 C3.33 2.65 3.66 4.3 4 6 C2.35 6.33 0.7 6.66 -1 7 C-0.67 4.69 -0.34 2.38 0 0 Z " fill="#E9C78C" transform="translate(712,784)"/>
<path d="M0 0 C0.33 1.32 0.66 2.64 1 4 C-1.31 4 -3.62 4 -6 4 C-6 3.34 -6 2.68 -6 2 C-2.25 0 -2.25 0 0 0 Z " fill="#DF9953" transform="translate(782,783)"/>
<path d="M0 0 C0.66 0 1.32 0 2 0 C2.625 1.875 2.625 1.875 3 4 C1 6 1 6 -2 7 C-1.34 4.69 -0.68 2.38 0 0 Z " fill="#EA9B4A" transform="translate(922,581)"/>
<path d="M0 0 C-2.91765 1.9451 -4.62537285 2.45276317 -8 3 C-8 2.34 -8 1.68 -8 1 C-8.66 0.67 -9.32 0.34 -10 0 C-6.42355152 -1.2380014 -3.66305234 -0.74926071 0 0 Z " fill="#694336" transform="translate(556,532)"/>
<path d="M0 0 C0.66 0.99 1.32 1.98 2 3 C0.02 5.97 0.02 5.97 -2 9 C-2.66 8.34 -3.32 7.68 -4 7 C-2.68 4.69 -1.36 2.38 0 0 Z " fill="#ECA75A" transform="translate(965,471)"/>
<path d="M0 0 C-0.969375 0.45375 -1.93875 0.9075 -2.9375 1.375 C-6.07079582 2.65786221 -6.07079582 2.65786221 -7 5 C-7.66 5 -8.32 5 -9 5 C-8.875 3.125 -8.875 3.125 -8 1 C-2.71910112 -1.35955056 -2.71910112 -1.35955056 0 0 Z " fill="#683B2A" transform="translate(550,805)"/>
<path d="M0 0 C0.66 0.33 1.32 0.66 2 1 C-1.32307692 4.93846154 -1.32307692 4.93846154 -4.75 5.25 C-5.4925 5.1675 -6.235 5.085 -7 5 C-4.702779 3.25728062 -2.40133271 1.60088848 0 0 Z " fill="#6A483B" transform="translate(926,499)"/>
<path d="M0 0 C0.93065133 2.60582371 1.14917407 3.64198224 0.0625 6.25 C-0.4634375 7.11625 -0.4634375 7.11625 -1 8 C-1.99 8 -2.98 8 -4 8 C-2.87548273 5.0280615 -1.77706209 2.66559313 0 0 Z " fill="#68453B" transform="translate(955,469)"/>
<path d="M0 0 C0.66 0.66 1.32 1.32 2 2 C1.625 4.625 1.625 4.625 1 7 C0.01 7 -0.98 7 -2 7 C-1.34 4.69 -0.68 2.38 0 0 Z " fill="#E19A52" transform="translate(976,446)"/>
</svg>
