<svg width="461" height="427" viewBox="0 0 461 427" fill="none" xmlns="http://www.w3.org/2000/svg">
<g clip-path="url(#clip0_904_404)">
<path d="M0 0C151.8 0 303.6 0 460 0C460 140.58 460 281.16 460 426C308.2 426 156.4 426 0 426C0 285.42 0 144.84 0 0Z" fill="#F8D9B2"/>
<path d="M0 0C81.18 0 162.36 0 246 0C242.867 1.56641 240.108 2.60098 236.772 3.54614C223.901 7.23099 212.044 12.5273 201.918 21.4336C200 23 200 23 197 24C194.31 23.1226 191.741 22.1856 189.125 21.125C187.712 20.5615 186.298 20.0015 184.883 19.4453C184.258 19.1928 183.633 18.9403 182.989 18.6802C158.807 10.4099 127.009 18.5812 104.932 28.9736C79.2458 41.79 60.0942 64.0089 50.7717 91.0537C47.5553 101.044 45.9243 111.122 46.0156 121.621C46.0553 136.663 46.0553 136.663 43.1719 140.316C40.75 141.625 40.75 141.625 38.0195 142.688C22.7267 149.335 11.2979 168.258 5 183C3.34868 187.584 2.11079 192.257 1 197C0.67 197 0.34 197 0 197C0 131.99 0 66.98 0 0Z" fill="#F8F5F1"/>
<path d="M459 207C459.33 207 459.66 207 460 207C460 279.27 460 351.54 460 426C394.33 426 328.66 426 261 426C261 425.67 261 425.34 261 425C262.584 424.654 262.584 424.654 264.199 424.301C268.258 423.41 272.312 422.499 276.366 421.585C278.858 421.032 281.354 420.5 283.852 419.973C315.208 413.158 346.395 401.103 373 383C373.574 382.612 374.149 382.224 374.74 381.824C409.75 357.711 432.001 317.129 439.75 275.875C440.656 270.826 441.089 265.847 441.305 260.723C441.909 247.229 443.277 237.902 450.921 226.693C454.706 220.754 456.824 213.655 459 207Z" fill="#F8F5F1"/>
<path d="M0 247C1.76045 250.521 2.63111 253.287 3.5625 257.062C7.25825 270.26 13.397 283.294 22 294C22.6826 294.907 22.6826 294.907 23.3789 295.832C27.1173 300.55 31.6732 304.111 36.4141 307.789C41.2521 311.926 43.9378 316.561 46.625 322.25C67.8437 365.746 100.543 402.284 146.965 418.684C155.767 421.645 164.791 423.803 174 425C174 425.33 174 425.66 174 426C116.58 426 59.16 426 0 426C0 366.93 0 307.86 0 247Z" fill="#F8F5F1"/>
<path d="M304 0C355.48 0 406.96 0 460 0C460 49.83 460 99.66 460 151C458.133 148.199 456.992 145.53 455.794 142.403C445.886 116.773 427.476 97.7813 402.484 86.2422C399.217 85.0775 396.405 84.5539 392.998 84.1343C384.854 83.0775 384.854 83.0775 382.328 79.8906C381.322 77.3102 380.519 74.7142 379.726 72.0625C369.718 43.6338 348.477 20.5488 321.59 7.57422C315.835 5.05063 309.967 2.96779 304 1C304 0.67 304 0.34 304 0Z" fill="#F8F5F1"/>
</g>
<path d="M307.689 242.313C324.448 255.626 339.662 275.338 343.001 297C343.966 308.953 342.803 318.612 334.962 327.957C328.916 334.257 322.99 337.998 314.087 338.266C312.184 338.274 310.28 338.268 308.376 338.25C307.361 338.247 306.345 338.243 305.299 338.239C297.903 338.156 290.653 337.566 283.311 336.719C277.424 336.067 271.611 335.808 265.689 335.813C264.533 335.812 264.533 335.812 263.354 335.811C255.416 335.888 248.415 337.232 241.001 340C240.187 340.305 239.372 340.609 238.533 340.922C232.491 343.318 226.748 346.119 220.966 349.079C194.37 362.676 194.37 362.676 181.443 359.34C171.671 355.904 164.766 349.113 160.001 340C152.503 321.138 155.453 300.712 163.013 282.473C174.217 256.612 193.57 234.543 220.001 224C249.886 213.025 283.227 223.69 307.689 242.313Z" fill="#EAB7C5"/>
<path d="M339.437 21.9995C340.968 23.321 342.49 24.654 344 25.9995C344.743 26.6015 345.487 27.2035 346.254 27.8237C362.592 41.3774 373.664 62.4097 381 81.9995C381 82.6595 381 83.3195 381 83.9995C381.582 84.0253 382.165 84.0511 382.765 84.0776C404.799 85.602 422.872 99.9127 437 116C455.07 137.74 461.697 164.083 460 192C457.88 210.265 450.072 225.892 440 241C439.713 243.236 439.713 243.236 439.761 245.734C439.749 246.688 439.737 247.643 439.724 248.626C439.712 249.657 439.7 250.688 439.687 251.75C438.427 294.552 418.478 338.264 387.504 367.839C371.854 382.247 353.329 392.432 334 401C332.953 401.471 331.906 401.943 330.828 402.429C323.46 405.635 315.892 408.033 308.205 410.327C305.953 411.014 303.717 411.739 301.48 412.472C255.287 427.379 197.59 431.852 151 417C150.332 416.79 149.665 416.58 148.978 416.364C101.683 401.108 71.785 364.352 48.9996 322C48.026 319.84 47.065 317.674 46.1246 315.5C43.4464 309.91 39.6412 306.774 34.89 302.995C17.0609 288.803 7.62268 264.721 2.99964 243C2.77405 242.093 2.54847 241.187 2.31605 240.253C-3.21092 215.82 3.03282 189.93 15.9996 169C23.6548 158.276 34.1019 146.082 45.9996 140C46.6596 140 47.3196 140 47.9996 140C47.9839 139.387 47.9682 138.774 47.952 138.142C47.6687 125.357 47.8425 113.437 50.9996 101C51.2665 99.909 51.5333 98.8184 51.8082 97.6948C59.0849 71.2401 77.5323 48.8752 101.043 35.0991C111.512 29.2156 122.252 24.6187 134 21.9995C135.122 21.7368 135.122 21.7368 136.267 21.4688C144.037 19.8281 151.736 19.6272 159.642 19.6289C161.865 19.6245 164.086 19.5881 166.308 19.5503C176.7 19.468 185.845 20.8014 195.225 25.6753C197.853 27.3091 197.853 27.3091 200.203 26.3511C202.235 24.8774 202.235 24.8774 204.75 22.3745C217.02 11.628 235.485 6.43299 251 2.99952C251.798 2.79327 252.595 2.58702 253.418 2.37452C281.762 -4.11444 316.592 3.99177 339.437 21.9995ZM212 30.9995C211.422 31.4004 210.845 31.8013 210.25 32.2144C208.47 33.652 208.47 33.652 207 36.9995C206.961 40.7151 207.252 44.265 207.703 47.9526C208 50.9995 208 50.9995 207 52.9995C204.69 52.9995 202.38 52.9995 200 52.9995C198.908 50.3485 197.928 47.7547 197.125 44.9995C195.122 39.6603 192.095 36.4879 187 33.9995C163.866 26.143 135.56 31.0577 113.858 40.9785C105.838 44.9808 98.7603 50.1455 91.9996 55.9995C90.7699 56.9953 90.7699 56.9953 89.5153 58.0112C75.3496 69.9113 66.6184 86.2572 61.9996 104C61.7728 104.834 61.5459 105.668 61.3121 106.527C59.1269 116.133 59.8224 126.21 59.9996 136C61.0476 136.037 62.0957 136.074 63.1754 136.113C64.5544 136.178 65.9333 136.245 67.3121 136.312C68.0024 136.335 68.6927 136.357 69.4039 136.38C72.3471 136.537 74.5161 136.672 76.9918 138.347C77.9996 140 77.9996 140 77.8121 143.125C77.544 144.073 77.2759 145.022 76.9996 146C74.4186 147.29 72.0767 147.156 69.236 147.238C54.0626 147.725 44.6004 153.684 34.1012 164.601C27.3559 172.299 21.9462 180.227 17.9996 189.687C17.7211 190.351 17.4426 191.015 17.1556 191.698C13.4803 201.111 12.631 210.719 12.6871 220.75C12.6921 221.799 12.697 222.849 12.702 223.931C12.8275 232.296 13.7167 239.917 15.9996 248C16.5101 249.821 16.5101 249.821 17.0309 251.679C22.6297 269.875 31.6904 286.484 46.8661 298.474C52.2036 302.797 54.9306 306.891 57.6871 313.125C68.1561 335.284 82.0278 355.348 98.9996 373C99.5771 373.64 100.155 374.281 100.75 374.941C115.488 390.821 137.58 401.012 157.937 407.125C158.716 407.366 159.495 407.608 160.297 407.858C177.012 412.658 194.28 413.523 211.562 413.375C212.513 413.371 213.464 413.367 214.443 413.362C230.442 413.284 246.172 412.493 262 410C263.333 409.791 263.333 409.791 264.693 409.578C279.072 407.216 293.038 403.106 307 399C307.912 398.734 308.825 398.468 309.766 398.194C322.158 394.546 333.585 388.971 345 383C345.681 382.643 346.363 382.287 347.066 381.92C356.777 376.794 365.61 371.092 374 364C374.51 363.569 375.02 363.139 375.546 362.695C386.886 352.998 396.543 341.962 404 329C404.951 327.375 404.951 327.375 405.922 325.718C414.572 310.511 420.226 293.888 424.499 276.974C424.833 275.656 425.18 274.341 425.54 273.029C427.26 266.608 428.308 260.32 427.675 253.667C426.544 241.149 430.094 234.113 436.937 223.816C441.229 217.317 443.744 210.432 446 203C446.371 201.82 446.742 200.641 447.125 199.425C452.864 175.564 446.175 152.963 434.535 132.414C424.318 116.007 407.465 101.147 388.687 96.062C378.364 93.8895 369.978 95.6735 360 98.9995C356.375 99.1245 356.375 99.1245 353 98.9995C352 97.9995 352 97.9995 351.625 95.1245C351.748 94.0933 351.872 93.062 352 91.9995C355.503 89.4343 359.2 88.1226 363.312 86.812C364.381 86.4678 365.449 86.1237 366.55 85.7691C367.359 85.5151 368.167 85.2612 369 84.9995C361.881 61.404 346.099 38.2478 324.492 25.812C289.195 7.49233 245.235 7.17677 212 30.9995Z" fill="#090707"/>
<path d="M339.437 21.9995C340.968 23.321 342.49 24.654 344 25.9995C344.743 26.6015 345.487 27.2035 346.254 27.8237C362.592 41.3774 373.664 62.4097 381 81.9995C381 82.6595 381 83.3195 381 83.9995C381.582 84.0253 382.165 84.0511 382.765 84.0776C404.799 85.602 422.872 99.9127 437 116C455.07 137.74 461.697 164.083 460 192C457.88 210.265 450.072 225.892 440 241C439.713 243.236 439.713 243.236 439.761 245.734C439.749 246.688 439.737 247.643 439.724 248.626C439.712 249.657 439.7 250.688 439.687 251.75C438.427 294.552 418.478 338.264 387.504 367.839C371.854 382.247 353.329 392.432 334 401C332.953 401.471 331.906 401.943 330.828 402.429C323.46 405.635 315.892 408.033 308.205 410.327C305.953 411.014 303.717 411.739 301.48 412.472C255.287 427.379 197.59 431.852 151 417C150.332 416.79 149.665 416.58 148.978 416.364C101.683 401.108 71.785 364.352 48.9996 322C48.026 319.84 47.065 317.674 46.1246 315.5C43.4464 309.91 39.6412 306.774 34.89 302.995C17.0609 288.803 7.62268 264.721 2.99964 243C2.77405 242.093 2.54847 241.187 2.31605 240.253C-3.21092 215.82 3.03282 189.93 15.9996 169C23.6548 158.276 34.1019 146.082 45.9996 140C46.6596 140 47.3196 140 47.9996 140C47.9839 139.387 47.9682 138.774 47.952 138.142C47.6687 125.357 47.8425 113.437 50.9996 101C51.2665 99.909 51.5333 98.8184 51.8082 97.6948C59.0849 71.2401 77.5323 48.8752 101.043 35.0991C111.512 29.2156 122.252 24.6187 134 21.9995C135.122 21.7368 135.122 21.7368 136.267 21.4688C144.037 19.8281 151.736 19.6272 159.642 19.6289C161.865 19.6245 164.086 19.5881 166.308 19.5503C176.7 19.468 185.845 20.8014 195.225 25.6753C197.853 27.3091 197.853 27.3091 200.203 26.3511C202.235 24.8774 202.235 24.8774 204.75 22.3745C217.02 11.628 235.485 6.43299 251 2.99952C251.798 2.79327 252.595 2.58702 253.418 2.37452C281.762 -4.11444 316.592 3.99177 339.437 21.9995ZM212 30.9995C211.422 31.4004 210.845 31.8013 210.25 32.2144C208.47 33.652 208.47 33.652 207 36.9995C206.961 40.7151 207.252 44.265 207.703 47.9526C208 50.9995 208 50.9995 207 52.9995C204.69 52.9995 202.38 52.9995 200 52.9995C198.908 50.3485 197.928 47.7547 197.125 44.9995C195.122 39.6603 192.095 36.4879 187 33.9995C163.866 26.143 135.56 31.0577 113.858 40.9785C105.838 44.9808 98.7603 50.1455 91.9996 55.9995C90.7699 56.9953 90.7699 56.9953 89.5153 58.0112C75.3496 69.9113 66.6184 86.2572 61.9996 104C61.7728 104.834 61.5459 105.668 61.3121 106.527C59.1269 116.133 59.8224 126.21 59.9996 136C61.0476 136.037 62.0957 136.074 63.1754 136.113C64.5544 136.178 65.9333 136.245 67.3121 136.312C68.0024 136.335 68.6927 136.357 69.4039 136.38C72.3471 136.537 74.5161 136.672 76.9918 138.347C77.9996 140 77.9996 140 77.8121 143.125C77.544 144.073 77.2759 145.022 76.9996 146C74.4186 147.29 72.0767 147.156 69.236 147.238C54.0626 147.725 44.6004 153.684 34.1012 164.601C27.3559 172.299 21.9462 180.227 17.9996 189.687C17.7211 190.351 17.4426 191.015 17.1556 191.698C13.4803 201.111 12.631 210.719 12.6871 220.75C12.6921 221.799 12.697 222.849 12.702 223.931C12.8275 232.296 13.7167 239.917 15.9996 248C16.5101 249.821 16.5101 249.821 17.0309 251.679C22.6297 269.875 31.6904 286.484 46.8661 298.474C52.2036 302.797 54.9306 306.891 57.6871 313.125C68.1561 335.284 82.0278 355.348 98.9996 373C99.5771 373.64 100.155 374.281 100.75 374.941C115.488 390.821 137.58 401.012 157.937 407.125C158.716 407.366 159.495 407.608 160.297 407.858C177.012 412.658 194.28 413.523 211.562 413.375C212.513 413.371 213.464 413.367 214.443 413.362C230.442 413.284 246.172 412.493 262 410C263.333 409.791 263.333 409.791 264.693 409.578C279.072 407.216 293.038 403.106 307 399C307.912 398.734 308.825 398.468 309.766 398.194C322.158 394.546 333.585 388.971 345 383C345.681 382.643 346.363 382.287 347.066 381.92C356.777 376.794 365.61 371.092 374 364C374.51 363.569 375.02 363.139 375.546 362.695C386.886 352.998 396.543 341.962 404 329C404.951 327.375 404.951 327.375 405.922 325.718C414.572 310.511 420.226 293.888 424.499 276.974C424.833 275.656 425.18 274.341 425.54 273.029C427.26 266.608 428.308 260.32 427.675 253.667C426.544 241.149 430.094 234.113 436.937 223.816C441.229 217.317 443.744 210.432 446 203C446.371 201.82 446.742 200.641 447.125 199.425C452.864 175.564 446.175 152.963 434.535 132.414C424.318 116.007 407.465 101.147 388.687 96.062C378.364 93.8895 369.978 95.6735 360 98.9995C356.375 99.1245 356.375 99.1245 353 98.9995C352 97.9995 352 97.9995 351.625 95.1245C351.748 94.0933 351.872 93.062 352 91.9995C355.503 89.4343 359.2 88.1226 363.312 86.812C364.381 86.4678 365.449 86.1237 366.55 85.7691C367.359 85.5151 368.167 85.2612 369 84.9995C361.881 61.404 346.099 38.2478 324.492 25.812C289.195 7.49233 245.235 7.17677 212 30.9995Z" fill="#090707"/>
<path d="M182.626 96.1249C197.257 106.055 205.394 119.379 209.587 136.375C212.062 152.065 208.696 166.338 200.314 179.687C190.907 189.094 180.935 193.21 167.876 193.312C155.012 193.312 145.655 189.762 136.001 181C123.064 166.087 118.744 149.447 120.001 130C122.028 116.222 129.522 103.744 140.368 95.1171C154.095 85.55 168.706 87.8434 182.626 96.1249Z" fill="#E9B6C4"/>
<path d="M298.429 81.0234C309.346 89.4184 317.024 102.601 319.999 116C321.311 129.441 320.206 142.178 312.062 153.437C311.053 154.635 310.032 155.823 308.999 157C308.342 157.886 308.342 157.886 307.671 158.789C301.35 167.035 291.095 172.837 280.999 175C269.215 176.156 259.064 174.906 249.249 167.812C238.598 158.873 231.643 146.299 230.159 132.43C229.589 123.779 229.404 115.332 231.999 107C232.267 106.117 232.535 105.234 232.812 104.324C236.772 92.3943 243.775 82.5748 254.948 76.3593C270.647 69.0655 284.186 71.4877 298.429 81.0234Z" fill="#E9B6C4"/>
<path d="M295 220.999C295.646 221.328 296.292 221.657 296.957 221.996C322.85 235.439 343.609 258.971 352.528 286.909C353.848 292.749 354.183 298.481 354.188 304.437C354.2 305.149 354.212 305.861 354.225 306.595C354.258 318.704 349.57 329.659 341.25 338.437C329.305 349.578 315.893 350.624 300.301 350.126C296.819 349.934 293.39 349.479 289.938 348.999C266.836 345.893 247.782 348.009 227.189 358.861C223.185 360.943 219.128 362.914 215.063 364.874C213.91 365.446 213.91 365.446 212.734 366.029C201.556 371.404 188.737 373.058 176.586 370.195C165.296 365.964 155.9 356.929 150.598 346.148C142.005 326.472 142.245 302.971 150 282.999C152.299 277.457 155.054 272.219 158 266.999C158.351 266.36 158.702 265.721 159.063 265.062C164.376 255.422 170.578 247.114 178 238.999C178.74 238.177 179.48 237.354 180.243 236.507C211.225 203.709 256.603 201.378 295 220.999ZM195 238.999C194.12 239.738 193.24 240.476 192.332 241.238C174.851 256.356 158.403 282.148 156.125 305.687C155.207 322.679 156.469 337.787 168 350.999C173.69 356.689 180.722 360.118 188.813 360.499C201.812 359.714 213.204 353.109 224.452 347.132C231.664 343.395 238.504 340.726 246.335 338.726C248.902 338.263 248.902 338.263 250 336.999C255.247 336.042 260.363 335.807 265.688 335.812C266.514 335.811 267.34 335.81 268.191 335.81C274.1 335.859 279.883 336.324 285.75 336.999C293.233 337.836 300.658 338.277 308.188 338.374C309.132 338.4 310.076 338.426 311.048 338.452C320.403 338.479 327.39 335.333 334.211 328.988C341.453 320.939 343.562 311.473 343.371 300.874C341.589 282.262 331.394 266.394 319 252.999C318.282 252.188 317.564 251.378 316.825 250.542C302.643 235.292 277.682 221.348 256.575 220.062C255.725 220.041 254.876 220.02 254 219.999C252.03 219.906 252.03 219.906 250.02 219.812C229.496 219.108 210.527 225.233 195 238.999Z" fill="#0A0706"/>
<path d="M384.466 154.848C392.599 161.753 400.288 172.172 402.001 183.001C403.158 198.447 400.186 209.432 390.771 222.051C390.187 222.695 389.603 223.338 389.001 224.001C388.341 224.001 387.681 224.001 387.001 224.001C387.001 224.661 387.001 225.321 387.001 226.001C384.819 227.302 382.631 228.592 380.439 229.876C379.525 230.423 379.525 230.423 378.593 230.981C368.781 236.692 358.122 237.369 347.001 236.001C337.37 233.178 330.041 227.17 324.993 218.587C318.618 206.592 316.833 194.434 320.689 181.188C325.905 166.143 334.489 155.951 348.314 148.126C361.176 142.741 373.92 146.646 384.466 154.848Z" fill="#E9B6C4"/>
<path d="M118 195C132.891 203.656 142.582 216.686 147.51 233.066C149.777 242.025 148.072 251.34 143.711 259.375C136.988 270.016 129.259 276.044 117 279C104.669 280.37 93.5409 279.536 83.2966 272.015C73.5478 263.784 66.7724 253.516 63.9997 241C63.2076 225.493 64.6369 213.535 74.5935 200.992C86.1092 188.444 103.151 187.818 118 195Z" fill="#EAB7C4"/>
<path d="M182.626 96.1249C197.257 106.055 205.394 119.379 209.587 136.375C212.062 152.065 208.696 166.338 200.314 179.687C190.907 189.094 180.935 193.21 167.876 193.312C155.012 193.312 145.655 189.762 136.001 181C123.064 166.087 118.744 149.447 120.001 130C122.028 116.222 129.522 103.744 140.368 95.1171C154.095 85.55 168.706 87.8434 182.626 96.1249ZM146.001 105C145.419 105.451 144.836 105.902 144.236 106.367C136.168 113.418 132.1 124.529 131.001 135C130.919 135.786 130.836 136.573 130.751 137.383C130.123 149.592 135.346 161.843 143.001 171.125C149.79 178.301 157.041 182.259 167.001 182.687C175.602 182.269 183.407 179.681 189.939 173.937C198.542 164.027 198.985 152.686 198.193 140.19C197.804 135.744 196.926 132.021 195.001 128C194.537 127.029 194.073 126.059 193.595 125.058C187.222 113.049 177.869 105.289 165.001 101C157.732 100.352 151.77 100.23 146.001 105Z" fill="#0A0606"/>
<path d="M298.429 81.0234C309.346 89.4184 317.024 102.601 319.999 116C321.311 129.441 320.206 142.178 312.062 153.437C311.053 154.635 310.032 155.823 308.999 157C308.342 157.886 308.342 157.886 307.671 158.789C301.35 167.035 291.095 172.837 280.999 175C269.215 176.156 259.064 174.906 249.249 167.812C238.598 158.873 231.643 146.299 230.159 132.43C229.589 123.779 229.404 115.332 231.999 107C232.267 106.117 232.535 105.234 232.812 104.324C236.772 92.3943 243.775 82.5748 254.948 76.3593C270.647 69.0655 284.186 71.4877 298.429 81.0234ZM257.999 88C257.313 88.4975 256.628 88.9951 255.921 89.5078C247.866 95.9217 242.897 105.449 241.68 115.687C241.526 118.57 241.48 121.426 241.499 124.312C241.506 125.328 241.512 126.345 241.519 127.391C241.824 139.905 246.165 149.082 254.999 158C260.816 162.584 268.138 164.592 275.484 164.367C286.533 162.754 295.087 156.185 301.882 147.629C308.781 137.747 309.037 127.699 307.999 116C307.183 112.26 305.943 109.284 303.999 106C303.563 105.237 303.128 104.474 302.679 103.687C297.619 95.5025 290.447 86.9798 280.999 84C272.711 82.9907 264.87 82.8622 257.999 88Z" fill="#0B0706"/>
<path d="M384.466 154.848C392.599 161.753 400.288 172.172 402.001 183.001C403.158 198.447 400.186 209.432 390.771 222.051C390.187 222.695 389.603 223.338 389.001 224.001C388.341 224.001 387.681 224.001 387.001 224.001C387.001 224.661 387.001 225.321 387.001 226.001C384.819 227.302 382.631 228.592 380.439 229.876C379.525 230.423 379.525 230.423 378.593 230.981C368.781 236.692 358.122 237.369 347.001 236.001C337.37 233.178 330.041 227.17 324.993 218.587C318.618 206.592 316.833 194.434 320.689 181.188C325.905 166.143 334.489 155.951 348.314 148.126C361.176 142.741 373.92 146.646 384.466 154.848ZM340.853 167.735C334.083 176.018 329.243 185.741 329.724 196.653C330.969 207.195 334.878 214.244 342.626 221.438C349.536 225.984 356.315 225.839 364.255 224.419C373.529 222.021 380.152 217.52 385.658 209.626C386.917 207.458 387.995 205.296 389.001 203.001C389.434 202.073 389.868 201.144 390.314 200.188C392.777 188.766 389.918 180.651 384.001 171.001C379.805 164.745 374.173 160.391 367.001 158.001C355.973 156.898 348.399 159.617 340.853 167.735Z" fill="#0A0606"/>
<path d="M118 195C132.891 203.656 142.582 216.686 147.51 233.066C149.777 242.025 148.072 251.34 143.711 259.375C136.988 270.016 129.259 276.044 117 279C104.669 280.37 93.5409 279.536 83.2966 272.015C73.5478 263.784 66.7724 253.516 63.9997 241C63.2076 225.493 64.6369 213.535 74.5935 200.992C86.1092 188.444 103.151 187.818 118 195ZM80.9997 211C77.8537 215.986 75.3714 221.053 74.9997 227C74.9495 227.737 74.8992 228.474 74.8474 229.234C74.4172 240.316 78.1256 249.351 84.9997 258C91.2873 264.003 97.8466 268.427 106.75 268.437C116.258 268.197 123.337 265.524 130.308 259.004C135.268 253.128 137.488 245.57 137 238C134.586 226.264 126.105 213.899 116.187 207.187C103.932 200.157 90.812 199.809 80.9997 211Z" fill="#090505"/>
<defs>
<clipPath id="clip0_904_404">
<rect width="460" height="426" fill="white"/>
</clipPath>
</defs>
</svg>
