<?xml version="1.0" encoding="UTF-8"?>
<svg version="1.1" xmlns="http://www.w3.org/2000/svg" width="590" height="496">
<path d="M0 0 C194.7 0 389.4 0 590 0 C590 163.68 590 327.36 590 496 C395.3 496 200.6 496 0 496 C0 332.32 0 168.64 0 0 Z " fill="#F8D9B2" transform="translate(0,0)"/>
<path d="M0 0 C194.7 0 389.4 0 590 0 C590 163.68 590 327.36 590 496 C395.3 496 200.6 496 0 496 C0 332.32 0 168.64 0 0 Z M301 55 C299.95271729 55.27287842 299.95271729 55.27287842 298.88427734 55.55126953 C283.98204049 59.50377084 268.91859912 65.81909219 258 77 C254.78185606 75.9796129 251.71287566 74.87238918 248.625 73.5 C239.35051859 69.66228355 230.49770954 69.59989179 220.625 69.625 C219.48399841 69.62531723 219.48399841 69.62531723 218.31994629 69.62564087 C206.74055988 69.65784823 196.08562339 70.41867214 185 74 C183.81792969 74.350625 182.63585937 74.70125 181.41796875 75.0625 C167.7147463 79.49182443 154.73496976 86.37746234 144 96 C143.16082031 96.72058594 142.32164062 97.44117188 141.45703125 98.18359375 C121.28663798 115.79072978 108.09002751 140.0440042 106 167 C105.78965327 174.66567386 105.87227387 182.33348488 106 190 C105.25878906 190.27070313 104.51757812 190.54140625 103.75390625 190.8203125 C85.74168709 198.53618511 71.81362191 219.64178565 64.72705078 237.06201172 C54.41305842 264.55444669 58.02150161 294.83646057 69.98876953 321.17626953 C76.15326812 334.1524959 83.71802513 345.99236596 94.89453125 355.21875 C100.44707164 359.91626098 103.55518808 364.44163804 106.75 370.875 C117.64925324 392.15944849 130.64712173 411.46729997 147 429 C147.74765625 429.81339844 148.4953125 430.62679688 149.265625 431.46484375 C171.42650141 454.68973575 203.46939187 468.69448575 235 473 C235.64936523 473.10006348 236.29873047 473.20012695 236.96777344 473.30322266 C292.53755631 481.81427237 357.70952299 470.41486158 407 444 C407.65564941 443.65743164 408.31129883 443.31486328 408.98681641 442.96191406 C423.76674548 435.2239956 436.92833036 425.52295738 449 414 C449.64710938 413.41605469 450.29421875 412.83210938 450.9609375 412.23046875 C467.60540596 396.63901769 477.82941477 375.92607136 486 355 C486.27972656 354.29794434 486.55945313 353.59588867 486.84765625 352.87255859 C493.28959599 336.55375594 497.17769951 319.94445583 497.3125 302.375 C497.43536697 291.79413452 499.54337435 286.48246599 506 278 C518.22974031 256.8128762 521.63159293 231.05992666 515.83862305 207.30004883 C508.899202 181.41891565 492.8694827 158.34650573 470 144 C460.40152793 138.49140806 450.30647378 133.65242305 439 134 C438.67 132.865625 438.34 131.73125 438 130.5625 C428.49393439 102.39801725 409.63802596 76.86415702 383 63 C371.96216186 57.57704074 361.18494254 53.74689342 349 52 C347.37578125 51.72929688 347.37578125 51.72929688 345.71875 51.453125 C330.45850977 49.59368396 315.77207965 51.00586071 301 55 Z " fill="#FEFEFE" transform="translate(0,0)"/>
<path d="M0 0 C16.75866183 13.31295566 31.97289291 33.02518377 35.3125 54.6875 C36.27689299 66.64053991 35.11399423 76.29871996 27.2734375 85.64453125 C21.22723339 91.94366421 15.30087888 95.68482309 6.3984375 95.953125 C4.49480152 95.9611657 2.59107043 95.9552253 0.6875 95.9375 C-0.32795898 95.93363281 -1.34341797 95.92976563 -2.38964844 95.92578125 C-9.78593892 95.84280635 -17.03585431 95.25282935 -24.37817383 94.40600586 C-30.26498979 93.75375493 -36.0775385 93.49537849 -42 93.5 C-43.15580566 93.4990332 -43.15580566 93.4990332 -44.33496094 93.49804688 C-52.27317105 93.57501498 -59.27347027 94.91896991 -66.6875 97.6875 C-67.5021875 97.99171875 -68.316875 98.2959375 -69.15625 98.609375 C-75.19778859 101.00515754 -80.94073614 103.8062442 -86.72290039 106.76635742 C-113.3185187 120.36285548 -113.3185187 120.36285548 -126.24609375 117.02734375 C-136.01820977 113.5914856 -142.92284089 106.79991055 -147.6875 97.6875 C-155.18555164 78.82521383 -152.2359955 58.39960553 -144.67578125 40.16015625 C-133.47232871 14.29880725 -114.11891724 -7.77030677 -87.6875 -18.3125 C-57.80321834 -29.28799413 -24.46198316 -18.62251276 0 0 Z " fill="#EAB7C5" transform="translate(365.6875,292.3125)"/>
<path d="M0 0 C1.53111525 1.32151349 3.05243839 2.65447938 4.5625 4 C5.30628906 4.60199219 6.05007813 5.20398438 6.81640625 5.82421875 C23.1547006 19.37789946 34.22713124 40.41018882 41.5625 60 C41.5625 60.66 41.5625 61.32 41.5625 62 C42.14515625 62.02578125 42.7278125 62.0515625 43.328125 62.078125 C65.36198771 63.60248028 83.43463249 77.91320494 97.5625 94 C115.63255682 115.7406399 122.25985151 142.08388636 120.5625 170 C118.44306176 188.26507753 110.63440512 203.89214231 100.5625 219 C100.27628063 221.23679862 100.27628063 221.23679862 100.32421875 223.734375 C100.31197266 224.68884521 100.29972656 225.64331543 100.28710938 226.62670898 C100.27486328 227.65739502 100.26261719 228.68808105 100.25 229.75 C98.98969284 272.55221754 79.04054086 316.26459925 48.06640625 345.83984375 C32.41670274 360.24715515 13.89200076 370.4323833 -5.4375 379 C-6.48421875 379.47179687 -7.5309375 379.94359375 -8.609375 380.4296875 C-15.97716813 383.63567316 -23.54510772 386.03324357 -31.23193359 388.32763672 C-33.48374754 389.01409849 -35.72004744 389.73941471 -37.95703125 390.47265625 C-84.14970085 405.37907283 -141.84698477 409.85293221 -188.4375 395 C-189.10475098 394.79036621 -189.77200195 394.58073242 -190.45947266 394.36474609 C-237.75440406 379.10869546 -267.65210694 342.3526726 -290.4375 300 C-291.41111951 297.8401592 -292.3720957 295.67450844 -293.3125 293.5 C-295.99072022 287.90999384 -299.79595828 284.7742227 -304.54711914 280.99536133 C-322.37620702 266.80298913 -331.81446372 242.72130112 -336.4375 221 C-336.66308594 220.09378906 -336.88867188 219.18757812 -337.12109375 218.25390625 C-342.64805969 193.82090509 -336.40431963 167.93028057 -323.4375 147 C-315.78229717 136.27681608 -305.33520036 124.08223247 -293.4375 118 C-292.7775 118 -292.1175 118 -291.4375 118 C-291.45321045 117.38705078 -291.4689209 116.77410156 -291.48510742 116.14257812 C-291.76839729 103.35747933 -291.5946837 91.43739032 -288.4375 79 C-288.17066406 77.90945312 -287.90382813 76.81890625 -287.62890625 75.6953125 C-280.35224156 49.24059376 -261.90481919 26.87569293 -238.39404297 13.09960938 C-227.92542576 7.21607407 -217.1848399 2.61916408 -205.4375 0 C-204.31529053 -0.26272705 -204.31529053 -0.26272705 -203.17041016 -0.53076172 C-195.40039946 -2.17140628 -187.70118684 -2.37234109 -179.79541016 -2.37060547 C-177.57246273 -2.37498039 -175.35150499 -2.41143114 -173.12890625 -2.44921875 C-162.73700774 -2.53152224 -153.59239106 -1.19812053 -144.21240234 3.67578125 C-141.58365229 5.30953928 -141.58365229 5.30953928 -139.234375 4.3515625 C-137.20220221 2.87787204 -137.20220221 2.87787204 -134.6875 0.375 C-122.41705079 -10.37149621 -103.95248773 -15.56653107 -88.4375 -19 C-87.63957031 -19.20625 -86.84164062 -19.4125 -86.01953125 -19.625 C-57.67538073 -26.11396292 -22.84512777 -18.00775141 0 0 Z M-127.4375 9 C-128.015 9.40089844 -128.5925 9.80179688 -129.1875 10.21484375 C-130.96694787 11.65245559 -130.96694787 11.65245559 -132.4375 15 C-132.47567419 18.71562157 -132.18560005 22.26552718 -131.734375 25.953125 C-131.4375 29 -131.4375 29 -132.4375 31 C-134.7475 31 -137.0575 31 -139.4375 31 C-140.52910291 28.34896437 -141.50890842 25.75517112 -142.3125 23 C-144.31471312 17.66076501 -147.34218636 14.48840899 -152.4375 12 C-175.57064019 4.14346182 -203.87697873 9.05817484 -225.57910156 18.97900391 C-233.59955742 22.98123936 -240.67687457 28.14601473 -247.4375 34 C-248.66726562 34.99580078 -248.66726562 34.99580078 -249.921875 36.01171875 C-264.08758499 47.911795 -272.81871083 64.25763201 -277.4375 82 C-277.664375 82.83402344 -277.89125 83.66804688 -278.125 84.52734375 C-280.31021345 94.13317789 -279.61471612 104.21085422 -279.4375 114 C-278.38949219 114.03738281 -277.34148437 114.07476562 -276.26171875 114.11328125 C-274.88277695 114.17894515 -273.50387229 114.24539235 -272.125 114.3125 C-271.43470703 114.33505859 -270.74441406 114.35761719 -270.03320312 114.38085938 C-267.09000129 114.5372614 -264.92105052 114.67289229 -262.4453125 116.34765625 C-261.4375 118 -261.4375 118 -261.625 121.125 C-261.893125 122.07375 -262.16125 123.0225 -262.4375 124 C-265.01852563 125.29051281 -267.36044124 125.15616037 -270.20117188 125.23876953 C-285.37458746 125.72542751 -294.8367758 131.68410751 -305.3359375 142.6015625 C-312.08125347 150.29974839 -317.49095664 158.22788693 -321.4375 167.6875 C-321.71601807 168.35128662 -321.99453613 169.01507324 -322.28149414 169.69897461 C-325.95681669 179.11189041 -326.80610996 188.71932889 -326.75 198.75 C-326.74508545 199.79986084 -326.7401709 200.84972168 -326.73510742 201.93139648 C-326.60963749 210.29670187 -325.7204059 217.91777668 -323.4375 226 C-322.92703125 227.82144531 -322.92703125 227.82144531 -322.40625 229.6796875 C-316.80743333 247.87584167 -307.74678621 264.48488048 -292.57104492 276.47460938 C-287.23352663 280.79798049 -284.50654371 284.89098938 -281.75 291.125 C-271.28105673 313.28433202 -257.40938182 333.34815496 -240.4375 351 C-239.86 351.64066406 -239.2825 352.28132813 -238.6875 352.94140625 C-223.94927003 368.82184904 -201.85700548 379.01244575 -181.5 385.125 C-180.72116455 385.36694092 -179.9423291 385.60888184 -179.13989258 385.8581543 C-162.42515399 390.65847845 -145.15684877 391.52337797 -127.875 391.375 C-126.92415527 391.37101196 -125.97331055 391.36702393 -124.99365234 391.36291504 C-108.99514752 391.28464839 -93.26559734 390.49337537 -77.4375 388 C-76.10452881 387.79117188 -76.10452881 387.79117188 -74.74462891 387.578125 C-60.36534472 385.21665351 -46.39864525 381.10629017 -32.4375 377 C-31.52468262 376.73421143 -30.61186523 376.46842285 -29.67138672 376.19458008 C-17.2792843 372.54611458 -5.85205145 366.97151387 5.5625 361 C6.24425293 360.64389648 6.92600586 360.28779297 7.62841797 359.92089844 C17.3396246 354.79419349 26.17251938 349.09286298 34.5625 342 C35.07264648 341.56961426 35.58279297 341.13922852 36.10839844 340.69580078 C47.4488829 330.99850002 57.1057886 319.96213383 64.5625 307 C65.51382813 305.37578125 65.51382813 305.37578125 66.484375 303.71875 C75.13462721 288.51125252 80.78856623 271.88893917 85.06152344 254.97412109 C85.39600033 253.65609958 85.74307479 252.34121222 86.10253906 251.02978516 C87.82310657 244.60855118 88.87094124 238.32066651 88.23828125 231.66796875 C87.10642855 219.14945537 90.65642216 212.11367663 97.5 201.81640625 C101.79155758 195.31787352 104.30674743 188.43262359 106.5625 181 C106.93375 179.82050781 107.305 178.64101562 107.6875 177.42578125 C113.42683363 153.56465998 106.73831601 130.9637072 95.09765625 110.4140625 C84.88083421 94.00791929 68.02794538 79.14720813 49.25 74.0625 C38.92720847 71.88999093 30.54056003 73.67397999 20.5625 77 C16.9375 77.125 16.9375 77.125 13.5625 77 C12.5625 76 12.5625 76 12.1875 73.125 C12.31125 72.09375 12.435 71.0625 12.5625 70 C16.0663257 67.43481385 19.76249161 66.1230796 23.875 64.8125 C24.94363281 64.46832031 26.01226562 64.12414062 27.11328125 63.76953125 C27.92152344 63.51558594 28.72976563 63.26164062 29.5625 63 C22.44388155 39.40446116 6.6619404 16.24832901 -14.9453125 3.8125 C-50.24229922 -14.50718886 -94.20250094 -14.82274346 -127.4375 9 Z " fill="#090707" transform="translate(397.4375,72)"/>
<path d="M0 0 C14.63101562 9.92969504 22.76781774 23.2538879 26.9609375 40.25 C29.43594145 55.9405911 26.06953033 70.21334059 17.6875 83.5625 C8.28042779 92.96957221 -1.69125867 97.08499811 -14.75 97.1875 C-27.6141 97.1875 -36.97077286 93.63694251 -46.625 84.875 C-59.56229091 69.96238447 -63.88174544 53.32197197 -62.625 33.875 C-60.59787779 20.09744058 -53.10384459 7.61889949 -42.2578125 -1.0078125 C-28.53108267 -10.57492723 -13.91992937 -8.28147696 0 0 Z " fill="#E9B6C4" transform="translate(240.625,146.125)"/>
<path d="M0 0 C10.91687463 8.39504341 18.5949645 21.57743942 21.5703125 34.9765625 C22.88217556 48.41734679 21.77666301 61.15449081 13.6328125 72.4140625 C12.62380247 73.6116249 11.60339358 74.79970209 10.5703125 75.9765625 C9.91289062 76.86214844 9.91289062 76.86214844 9.2421875 77.765625 C2.92128953 86.01185396 -7.33386252 91.81408541 -17.4296875 93.9765625 C-29.2142948 95.13238344 -39.3644029 93.88246145 -49.1796875 86.7890625 C-59.83132195 77.84929787 -66.7854544 65.27562272 -68.26953125 51.40625 C-68.83975188 42.75558584 -69.02525566 34.30892621 -66.4296875 25.9765625 C-66.1615625 25.09355469 -65.8934375 24.21054688 -65.6171875 23.30078125 C-61.6570588 11.37089354 -54.65346306 1.55137804 -43.48046875 -4.6640625 C-27.78188935 -11.9579285 -14.24264137 -9.53567157 0 0 Z " fill="#E9B6C4" transform="translate(356.4296875,131.0234375)"/>
<path d="M0 0 C0.64582031 0.3290332 1.29164063 0.65806641 1.95703125 0.99707031 C27.84979625 14.43932875 48.60817116 37.97129111 57.52734375 65.91015625 C58.84801705 71.74949687 59.18213916 77.48160874 59.1875 83.4375 C59.19974609 84.14970703 59.21199219 84.86191406 59.22460938 85.59570312 C59.25760341 97.70451457 54.56965302 108.66000444 46.25 117.4375 C34.30449098 128.57829659 20.89250922 129.62456146 5.30078125 129.12695312 C1.81853561 128.93480884 -1.61002974 128.47947477 -5.0625 128 C-28.16457725 124.89397743 -47.21807904 127.00988641 -67.81103516 137.86181641 C-71.8155864 139.94404013 -75.87197229 141.91520511 -79.9375 143.875 C-81.09040527 144.4467395 -81.09040527 144.4467395 -82.26660156 145.0300293 C-93.4442525 150.40519988 -106.26322667 152.05923948 -118.4140625 149.1953125 C-129.7045327 144.96503297 -139.10023416 135.92988597 -144.40234375 125.1484375 C-152.9950637 105.47235415 -152.75527514 81.97211445 -145 62 C-142.70136191 56.45818323 -139.94684595 51.21978531 -137 46 C-136.64921387 45.36078613 -136.29842773 44.72157227 -135.93701172 44.06298828 C-130.62426243 34.42313489 -124.42193362 26.11435891 -117 18 C-116.26007813 17.17757813 -115.52015625 16.35515625 -114.7578125 15.5078125 C-83.77532075 -17.29050294 -38.39744454 -19.62087391 0 0 Z M-100 18 C-100.88042969 18.73863281 -101.76085937 19.47726562 -102.66796875 20.23828125 C-120.14899212 35.35635249 -136.59701823 61.14835501 -138.875 84.6875 C-139.793498 101.67971305 -138.5315896 116.78792749 -127 130 C-121.31035463 135.68964537 -114.27821659 139.11848653 -106.1875 139.5 C-93.18845962 138.71457162 -81.79661615 132.10995833 -70.54882812 126.1328125 C-63.33612317 122.39615824 -56.49665685 119.72653878 -48.66577148 117.7265625 C-46.09821688 117.26364363 -46.09821688 117.26364363 -45 116 C-39.75353956 115.04301304 -34.6374716 114.80804582 -29.3125 114.8125 C-28.4865332 114.81185547 -27.66056641 114.81121094 -26.80957031 114.81054688 C-20.90043585 114.85962236 -15.11708967 115.32469798 -9.25 116 C-1.76767371 116.83656565 5.65796248 117.27812592 13.1875 117.375 C14.13141602 117.40078125 15.07533203 117.4265625 16.04785156 117.453125 C25.40294461 117.47974924 32.38994292 114.33370848 39.2109375 107.98828125 C46.45284761 99.93995757 48.56196799 90.47413421 48.37109375 79.875 C46.58863087 61.26233494 36.39359699 45.39509978 24 32 C23.28199219 31.18917969 22.56398438 30.37835938 21.82421875 29.54296875 C7.64252214 14.29297107 -17.31794293 0.349073 -38.42578125 -0.9375 C-39.27527344 -0.958125 -40.12476563 -0.97875 -41 -1 C-42.97033203 -1.0928125 -42.97033203 -1.0928125 -44.98046875 -1.1875 C-65.50414843 -1.89113072 -84.47360095 4.23344874 -100 18 Z " fill="#0A0706" transform="translate(353,271)"/>
<path d="M0 0 C8.13250588 6.90448496 15.82216904 17.32381744 17.53515625 28.15234375 C18.69159421 43.59905084 15.71992711 54.5834635 6.3046875 67.203125 C5.72074219 67.84636719 5.13679688 68.48960937 4.53515625 69.15234375 C3.87515625 69.15234375 3.21515625 69.15234375 2.53515625 69.15234375 C2.53515625 69.81234375 2.53515625 70.47234375 2.53515625 71.15234375 C0.35298191 72.45377921 -1.83489617 73.74341802 -4.02734375 75.02734375 C-4.9409668 75.57455078 -4.9409668 75.57455078 -5.87304688 76.1328125 C-15.68529976 81.84364751 -26.34448578 82.52100319 -37.46484375 81.15234375 C-47.09654965 78.32925754 -54.42487621 72.32147143 -59.47265625 63.73828125 C-65.84856379 51.74327864 -67.63293851 39.58567736 -63.77734375 26.33984375 C-58.56151625 11.2941875 -49.97690977 1.1025698 -36.15234375 -6.72265625 C-23.28967749 -12.10702817 -10.54591536 -8.20237861 0 0 Z " fill="#E9B6C4" transform="translate(442.46484375,204.84765625)"/>
<path d="M0 0 C14.89151912 8.65636507 24.58243629 21.68588074 29.51074219 38.06640625 C31.77763811 47.02539611 30.07190979 56.34023893 25.7109375 64.375 C18.98850856 75.01585008 11.25963333 81.04466449 -1 84 C-13.33024202 85.37080478 -24.45885663 84.53598386 -34.703125 77.015625 C-44.45196179 68.78457118 -51.22735972 58.51599373 -54 46 C-54.79208944 30.49332593 -53.36285868 18.53556217 -43.40625 5.9921875 C-31.89056305 -6.55556574 -14.84869048 -7.18144348 0 0 Z " fill="#EAB7C4" transform="translate(176,245)"/>
<path d="M0 0 C14.63101562 9.92969504 22.76781774 23.2538879 26.9609375 40.25 C29.43594145 55.9405911 26.06953033 70.21334059 17.6875 83.5625 C8.28042779 92.96957221 -1.69125867 97.08499811 -14.75 97.1875 C-27.6141 97.1875 -36.97077286 93.63694251 -46.625 84.875 C-59.56229091 69.96238447 -63.88174544 53.32197197 -62.625 33.875 C-60.59787779 20.09744058 -53.10384459 7.61889949 -42.2578125 -1.0078125 C-28.53108267 -10.57492723 -13.91992937 -8.28147696 0 0 Z M-36.625 8.875 C-37.20765625 9.32617188 -37.7903125 9.77734375 -38.390625 10.2421875 C-46.45848746 17.29279773 -50.52645634 28.40450578 -51.625 38.875 C-51.7075 39.66132813 -51.79 40.44765625 -51.875 41.2578125 C-52.50310653 53.46663317 -47.27975192 65.71775127 -39.625 75 C-32.83626181 82.17634967 -25.58520694 86.13422208 -15.625 86.5625 C-7.02442133 86.14435032 0.78091771 83.55578787 7.3125 77.8125 C15.91585281 67.90177495 16.35875718 56.56146915 15.56689453 44.06542969 C15.17738455 39.61926743 14.29979339 35.89644333 12.375 31.875 C11.9109375 30.90433594 11.446875 29.93367188 10.96875 28.93359375 C4.59566928 16.92394399 -4.75718693 9.16427102 -17.625 4.875 C-24.89469804 4.22667898 -30.85574769 4.10537061 -36.625 8.875 Z " fill="#0A0606" transform="translate(240.625,146.125)"/>
<path d="M0 0 C10.91687463 8.39504341 18.5949645 21.57743942 21.5703125 34.9765625 C22.88217556 48.41734679 21.77666301 61.15449081 13.6328125 72.4140625 C12.62380247 73.6116249 11.60339358 74.79970209 10.5703125 75.9765625 C9.91289062 76.86214844 9.91289062 76.86214844 9.2421875 77.765625 C2.92128953 86.01185396 -7.33386252 91.81408541 -17.4296875 93.9765625 C-29.2142948 95.13238344 -39.3644029 93.88246145 -49.1796875 86.7890625 C-59.83132195 77.84929787 -66.7854544 65.27562272 -68.26953125 51.40625 C-68.83975188 42.75558584 -69.02525566 34.30892621 -66.4296875 25.9765625 C-66.1615625 25.09355469 -65.8934375 24.21054688 -65.6171875 23.30078125 C-61.6570588 11.37089354 -54.65346306 1.55137804 -43.48046875 -4.6640625 C-27.78188935 -11.9579285 -14.24264137 -9.53567157 0 0 Z M-40.4296875 6.9765625 C-41.11546875 7.47414062 -41.80125 7.97171875 -42.5078125 8.484375 C-50.56255932 14.89834006 -55.53176142 24.42547745 -56.74926758 34.6640625 C-56.90278565 37.54648359 -56.94878542 40.40265104 -56.9296875 43.2890625 C-56.92324219 44.30508545 -56.91679687 45.3211084 -56.91015625 46.36791992 C-56.60525466 58.88192386 -52.26340288 68.05839478 -43.4296875 76.9765625 C-37.61286822 81.56026591 -30.29053197 83.56860366 -22.9453125 83.34375 C-11.89596143 81.73095652 -3.3413901 75.1620469 3.453125 66.60546875 C10.3520322 56.72370071 10.60792105 46.67559895 9.5703125 34.9765625 C8.75370982 31.23689339 7.5139987 28.26030564 5.5703125 24.9765625 C5.13460937 24.2134375 4.69890625 23.4503125 4.25 22.6640625 C-0.81027684 14.47913383 -7.98220535 5.95636428 -17.4296875 2.9765625 C-25.71799952 1.96731761 -33.55907697 1.83880507 -40.4296875 6.9765625 Z " fill="#0B0706" transform="translate(356.4296875,131.0234375)"/>
<path d="M0 0 C8.13250588 6.90448496 15.82216904 17.32381744 17.53515625 28.15234375 C18.69159421 43.59905084 15.71992711 54.5834635 6.3046875 67.203125 C5.72074219 67.84636719 5.13679688 68.48960937 4.53515625 69.15234375 C3.87515625 69.15234375 3.21515625 69.15234375 2.53515625 69.15234375 C2.53515625 69.81234375 2.53515625 70.47234375 2.53515625 71.15234375 C0.35298191 72.45377921 -1.83489617 73.74341802 -4.02734375 75.02734375 C-4.9409668 75.57455078 -4.9409668 75.57455078 -5.87304688 76.1328125 C-15.68529976 81.84364751 -26.34448578 82.52100319 -37.46484375 81.15234375 C-47.09654965 78.32925754 -54.42487621 72.32147143 -59.47265625 63.73828125 C-65.84856379 51.74327864 -67.63293851 39.58567736 -63.77734375 26.33984375 C-58.56151625 11.2941875 -49.97690977 1.1025698 -36.15234375 -6.72265625 C-23.28967749 -12.10702817 -10.54591536 -8.20237861 0 0 Z M-43.61328125 12.88671875 C-50.38266579 21.16993189 -55.22330425 30.89295961 -54.7421875 41.8046875 C-53.49678545 52.34675274 -49.5878629 59.39525454 -41.83984375 66.58984375 C-34.93037821 71.13554476 -28.15119127 70.99059799 -20.2109375 69.5703125 C-10.93663969 67.17235356 -4.31377796 62.67157016 1.19140625 54.77734375 C2.45124563 52.60924807 3.52840488 50.44720931 4.53515625 48.15234375 C4.96828125 47.22421875 5.40140625 46.29609375 5.84765625 45.33984375 C8.31123177 33.91781178 5.45234325 25.80227955 -0.46484375 16.15234375 C-4.6606575 9.89637467 -10.2929686 5.5429688 -17.46484375 3.15234375 C-28.49335084 2.04949304 -36.06679411 4.76898358 -43.61328125 12.88671875 Z " fill="#0A0606" transform="translate(442.46484375,204.84765625)"/>
<path d="M0 0 C14.89151912 8.65636507 24.58243629 21.68588074 29.51074219 38.06640625 C31.77763811 47.02539611 30.07190979 56.34023893 25.7109375 64.375 C18.98850856 75.01585008 11.25963333 81.04466449 -1 84 C-13.33024202 85.37080478 -24.45885663 84.53598386 -34.703125 77.015625 C-44.45196179 68.78457118 -51.22735972 58.51599373 -54 46 C-54.79208944 30.49332593 -53.36285868 18.53556217 -43.40625 5.9921875 C-31.89056305 -6.55556574 -14.84869048 -7.18144348 0 0 Z M-37 16 C-40.14599538 20.98656485 -42.62833818 26.05341087 -43 32 C-43.05027344 32.73734375 -43.10054687 33.4746875 -43.15234375 34.234375 C-43.58253879 45.31619915 -39.87416033 54.35100829 -33 63 C-26.71244078 69.00325219 -20.15316321 73.42742855 -11.25 73.4375 C-1.74142535 73.19728338 5.3375312 70.52431425 12.30859375 64.00390625 C17.26806242 58.12813852 19.48842368 50.57056711 19 43 C16.58637005 31.26400115 8.1052743 18.89892558 -1.8125 12.1875 C-14.06727998 5.15762621 -27.18775972 4.80937358 -37 16 Z " fill="#090505" transform="translate(176,245)"/>
<path d="M0 0 C0.53625 0.268125 1.0725 0.53625 1.625 0.8125 C1.625 1.4725 1.625 2.1325 1.625 2.8125 C0.305 2.8125 -1.015 2.8125 -2.375 2.8125 C-2.375 4.4625 -2.375 6.1125 -2.375 7.8125 C0.1 8.3075 0.1 8.3075 2.625 8.8125 C2.625 7.4925 2.625 6.1725 2.625 4.8125 C4.605 4.8125 6.585 4.8125 8.625 4.8125 C7.10609114 8.751066 4.75874291 10.50601261 1.375 12.9375 C0.44171875 13.62070313 -0.4915625 14.30390625 -1.453125 15.0078125 C-4.40655252 16.83198832 -7.02012152 17.94550893 -10.375 18.8125 C-12.625 18.1875 -12.625 18.1875 -14.375 16.8125 C-15.0587045 15.48782254 -15.72464186 14.15386367 -16.375 12.8125 C-17.68294769 11.77951858 -19.01452808 10.77525331 -20.375 9.8125 C-19.57835937 9.50957031 -18.78171875 9.20664063 -17.9609375 8.89453125 C-10.93862279 6.23277904 -10.93862279 6.23277904 -4.875 1.9375 C-2.375 -0.1875 -2.375 -0.1875 0 0 Z " fill="#181813" transform="translate(356.375,203.1875)"/>
<path d="M0 0 C3 3.46153846 3 3.46153846 3 6 C2.401875 5.690625 1.80375 5.38125 1.1875 5.0625 C-1.08956772 3.89790296 -1.08956772 3.89790296 -4 3 C-2.6910428 6.12197478 -2.6910428 6.12197478 0 8 C0 8.66 0 9.32 0 10 C1.32 10.33 2.64 10.66 4 11 C-0.95 13.31 -5.9 15.62 -11 18 C-12.65 16.35 -14.3 14.7 -16 13 C-16 12.34 -16 11.68 -16 11 C-15.34 11 -14.68 11 -14 11 C-14 10.01 -14 9.02 -14 8 C-14.66 7.67 -15.32 7.34 -16 7 C-13.71070947 5.82845707 -11.41881638 4.66261926 -9.125 3.5 C-8.47402344 3.16613281 -7.82304687 2.83226562 -7.15234375 2.48828125 C-2.2265625 0 -2.2265625 0 0 0 Z " fill="#1B1814" transform="translate(283,397)"/>
<path d="M0 0 C3.77545388 1.09068668 6.47043472 1.9083091 9 5 C7.69791667 6.46484375 6.39583333 7.9296875 5.09375 9.39453125 C3.71848759 11.089448 3.71848759 11.089448 4 14 C-1.91969002 12.24009216 -7.41634992 9.60305395 -13 7 C-11.68 6.01 -10.36 5.02 -9 4 C-7 5 -5 6 -3 7 C-2.87625 6.21625 -2.7525 5.4325 -2.625 4.625 C-2 2 -2 2 0 0 Z " fill="#1C1919" transform="translate(379,62)"/>
<path d="M0 0 C1.65 0 3.3 0 5 0 C4.84660156 1.1034375 4.69320312 2.206875 4.53515625 3.34375 C3.90498324 8.3851341 3.66239916 13.42686479 3.4375 18.5 C3.39431641 19.4178125 3.35113281 20.335625 3.30664062 21.28125 C3.20166544 23.52072061 3.09950752 25.76028092 3 28 C2.67 28 2.34 28 2 28 C2 22.72 2 17.44 2 12 C-0.97 11.505 -0.97 11.505 -4 11 C-3.175 11.78375 -2.35 12.5675 -1.5 13.375 C1 16 1 16 1 18 C-2.63814819 16.38304525 -4.69298608 14.64561113 -8 12 C-8 18.27 -8 24.54 -8 31 C-8.33 31 -8.66 31 -9 31 C-9.02940458 27.83335334 -9.04693315 24.66674253 -9.0625 21.5 C-9.07087891 20.613125 -9.07925781 19.72625 -9.08789062 18.8125 C-9.10763596 13.44176914 -8.78835893 8.31366337 -8 3 C-7.67 4.32 -7.34 5.64 -7 7 C-5.8553125 7.2165625 -5.8553125 7.2165625 -4.6875 7.4375 C-2 8 -2 8 1 9 C0.67 6.03 0.34 3.06 0 0 Z " fill="#202020" transform="translate(68,251)"/>
<path d="M0 0 C2.02350324 3.03525486 2.32124018 4.19426202 2.625 7.6875 C2.69976562 8.49574219 2.77453125 9.30398437 2.8515625 10.13671875 C2.92503906 11.05904297 2.92503906 11.05904297 3 12 C2.34 12 1.68 12 1 12 C1 12.99 1 13.98 1 15 C0.34 15 -0.32 15 -1 15 C-1 15.66 -1 16.32 -1 17 C-2.98 16.67 -4.96 16.34 -7 16 C-7 19.3 -7 22.6 -7 26 C-7.33 26 -7.66 26 -8 26 C-8.24798276 23.04213336 -8.47411854 20.08538702 -8.6875 17.125 C-8.76033203 16.28324219 -8.83316406 15.44148437 -8.90820312 14.57421875 C-8.96298828 13.76855469 -9.01777344 12.96289062 -9.07421875 12.1328125 C-9.13182373 11.38918457 -9.18942871 10.64555664 -9.2487793 9.87939453 C-9.12563354 8.94909424 -9.12563354 8.94909424 -9 8 C-5.1496895 5.43312633 -3.41430237 6.16711276 1 7 C0.67 4.69 0.34 2.38 0 0 Z " fill="#272022" transform="translate(264,177)"/>
<path d="M0 0 C0.33 0 0.66 0 1 0 C1.33 1.65 1.66 3.3 2 5 C2.66 5 3.32 5 4 5 C5.35386936 6.65002828 6.68678142 8.3174387 8 10 C8.66 10.33 9.32 10.66 10 11 C10 13.64 10 16.28 10 19 C8.02 19.33 6.04 19.66 4 20 C4 19.34 4 18.68 4 18 C4.99 17.67 5.98 17.34 7 17 C7.73323796 14.98491642 7.73323796 14.98491642 8 13 C7.34 13 6.68 13 6 13 C6 13.99 6 14.98 6 16 C3.69 16.33 1.38 16.66 -1 17 C-1.02721176 15.10424749 -1.04649136 13.20838021 -1.0625 11.3125 C-1.07410156 10.25675781 -1.08570313 9.20101563 -1.09765625 8.11328125 C-1.00865425 5.27589738 -0.64939838 2.7561081 0 0 Z " fill="#231F1C" transform="translate(204,347)"/>
<path d="M0 0 C2.95929119 2.75520215 5.03681826 5.46627288 7 9 C5.25 11.5 5.25 11.5 3 14 C1.68 14 0.36 14 -1 14 C-1.33 14.66 -1.66 15.32 -2 16 C-3.32 14.35 -4.64 12.7 -6 11 C-4.6875 8.0625 -4.6875 8.0625 -3 5 C-2.01 4.67 -1.02 4.34 0 4 C0 2.68 0 1.36 0 0 Z " fill="#1F1A18" transform="translate(138,301)"/>
<path d="M0 0 C1.65 0.33 3.3 0.66 5 1 C5 1.66 5 2.32 5 3 C5.99 3.33 6.98 3.66 8 4 C8.66 3.34 9.32 2.68 10 2 C10.66 4.31 11.32 6.62 12 9 C13.65 9 15.3 9 17 9 C17 9.33 17 9.66 17 10 C11.81431524 10.52735777 11.81431524 10.52735777 9 10 C6.83737086 8.21301364 5.6237704 6.34013969 4 4 C3.34 3.67 2.68 3.34 2 3 C2.495 3.721875 2.99 4.44375 3.5 5.1875 C5.07919285 8.14848659 5.28178312 9.71253029 5 13 C1.62537285 12.45276317 -0.08235 11.9451 -3 10 C-2.01 10 -1.02 10 0 10 C-0.66 8.02 -1.32 6.04 -2 4 C-1.34 4 -0.68 4 0 4 C0 2.68 0 1.36 0 0 Z " fill="#1F1E20" transform="translate(427,125)"/>
<path d="M0 0 C4.5565527 3.71274665 6.57400393 8.79007402 9 14 C8.0925 14.144375 7.185 14.28875 6.25 14.4375 C5.1775 14.623125 4.105 14.80875 3 15 C2.236875 15.12375 1.47375 15.2475 0.6875 15.375 C0.130625 15.58125 -0.42625 15.7875 -1 16 C-1.33 16.99 -1.66 17.98 -2 19 C-3.65 15.7 -5.3 12.4 -7 9 C-4 10 -4 10 -3 12 C-1.35 12 0.3 12 2 12 C2 10.35 2 8.7 2 7 C1.01 6.67 0.02 6.34 -1 6 C-0.67 5.34 -0.34 4.68 0 4 C0 2.68 0 1.36 0 0 Z " fill="#161415" transform="translate(499,173)"/>
<path d="M0 0 C0.33 0.66 0.66 1.32 1 2 C1.99 2 2.98 2 4 2 C4 2.66 4 3.32 4 4 C3.01 4.33 2.02 4.66 1 5 C1 6.32 1 7.64 1 9 C2.65 9 4.3 9 6 9 C6 7.68 6 6.36 6 5 C6.99 5 7.98 5 9 5 C9.33 4.01 9.66 3.02 10 2 C10.99 2.33 11.98 2.66 13 3 C12.401875 3.969375 11.80375 4.93875 11.1875 5.9375 C8.7964999 10.08984181 7.3691995 14.42562895 6 19 C5.67 19 5.34 19 5 19 C5 17.02 5 15.04 5 13 C4.05125 12.71125 3.1025 12.4225 2.125 12.125 C-1 11 -1 11 -3 9 C-2.6442194 5.62008426 -1.64284201 2.95711562 0 0 Z " fill="#1C1415" transform="translate(295,144)"/>
<path d="M0 0 C0.53625 0.268125 1.0725 0.53625 1.625 0.8125 C1.625 1.4725 1.625 2.1325 1.625 2.8125 C0.305 2.8125 -1.015 2.8125 -2.375 2.8125 C-2.375 4.4625 -2.375 6.1125 -2.375 7.8125 C-0.725 8.1425 0.925 8.4725 2.625 8.8125 C2.625 7.4925 2.625 6.1725 2.625 4.8125 C4.605 4.8125 6.585 4.8125 8.625 4.8125 C7.47326645 7.28050047 6.57716435 8.86033565 4.625 10.8125 C-0.60204626 11.39328292 -0.60204626 11.39328292 -3.375 10.8125 C-5.25 8.375 -5.25 8.375 -6.375 5.8125 C-7.035 5.4825 -7.695 5.1525 -8.375 4.8125 C-2.95961538 -0.23365385 -2.95961538 -0.23365385 0 0 Z " fill="#1D1C17" transform="translate(356.375,203.1875)"/>
<path d="M0 0 C3.76127491 0.10165608 4.98989184 0.99079034 7.8125 3.5625 C8.534375 4.366875 9.25625 5.17125 10 6 C4.61972975 7.19088986 -0.45291384 8.2919519 -6 8 C-5.01 7.67 -4.02 7.34 -3 7 C-2.87625 6.21625 -2.7525 5.4325 -2.625 4.625 C-2 2 -2 2 0 0 Z " fill="#12100F" transform="translate(329,462)"/>
<path d="M0 0 C2.7648079 2.05753146 4.78435617 3.57727668 5.3203125 7.11328125 C5.31333158 9.07841113 5.16594266 11.04187661 5 13 C1.08060535 9.19588166 -2.49102731 5.18423892 -6 1 C-3 0 -3 0 0 0 Z " fill="#1F1819" transform="translate(379,298)"/>
<path d="M0 0 C1.65 0 3.3 0 5 0 C4.84660156 1.1034375 4.69320312 2.206875 4.53515625 3.34375 C3.90498324 8.3851341 3.66239916 13.42686479 3.4375 18.5 C3.39431641 19.4178125 3.35113281 20.335625 3.30664062 21.28125 C3.20166544 23.52072061 3.09950752 25.76028092 3 28 C2.67 28 2.34 28 2 28 C2 22.06 2 16.12 2 10 C1.34 9.67 0.68 9.34 0 9 C0 6.03 0 3.06 0 0 Z " fill="#3A342C" transform="translate(68,251)"/>
<path d="M0 0 C1.32 0.33 2.64 0.66 4 1 C3.34 4.96 2.68 8.92 2 13 C-3.57142857 7.85714286 -3.57142857 7.85714286 -4 4 C-3.34 4 -2.68 4 -2 4 C-1.34 2.68 -0.68 1.36 0 0 Z " fill="#191415" transform="translate(213,345)"/>
<path d="M0 0 C4.455 1.98 4.455 1.98 9 4 C7.02 4.99 7.02 4.99 5 6 C5.99 6.928125 5.99 6.928125 7 7.875 C9 10 9 10 9 12 C8.443125 11.71125 7.88625 11.4225 7.3125 11.125 C4.99465808 9.91177322 4.99465808 9.91177322 2.3125 9.25 C1.549375 8.8375 0.78625 8.425 0 8 C-1.47368421 2.94736842 -1.47368421 2.94736842 0 0 Z " fill="#1C1718" transform="translate(399,270)"/>
<path d="M0 0 C1.0409066 1.64142963 2.04504326 3.30712215 3 5 C2.01 5 1.02 5 0 5 C-0.66 4.34 -1.32 3.68 -2 3 C-3.32 3 -4.64 3 -6 3 C-3.525 5.97 -3.525 5.97 -1 9 C-4 9 -4 9 -6.1875 7.1875 C-8 5 -8 5 -8 2 C-10.31 2.33 -12.62 2.66 -15 3 C-12.04808566 1.03205711 -10.34507977 0.47996408 -6.9375 -0.1875 C-6.05964844 -0.36667969 -5.18179687 -0.54585938 -4.27734375 -0.73046875 C-2 -1 -2 -1 0 0 Z " fill="#241F1B" transform="translate(342,456)"/>
<path d="M0 0 C0.66 0 1.32 0 2 0 C3.38232443 1.62626404 4.71937515 3.2925002 6 5 C4.3789897 5.69685498 2.75303934 6.38222861 1.125 7.0625 C0.22007812 7.44535156 -0.68484375 7.82820313 -1.6171875 8.22265625 C-4 9 -4 9 -6 8 C-5.67 6.35 -5.34 4.7 -5 3 C-3.35 2.67 -1.7 2.34 0 2 C0 1.34 0 0.68 0 0 Z " fill="#1C1B17" transform="translate(265,411)"/>
<path d="M0 0 C0.77923828 0.00451172 1.55847656 0.00902344 2.36132812 0.01367188 C4.26175268 0.02533092 6.16213706 0.04326123 8.0625 0.0625 C8.0625 0.3925 8.0625 0.7225 8.0625 1.0625 C5.0925 1.0625 2.1225 1.0625 -0.9375 1.0625 C-0.9375 2.0525 -0.9375 3.0425 -0.9375 4.0625 C0.0525 4.0625 1.0425 4.0625 2.0625 4.0625 C2.0625 5.0525 2.0625 6.0425 2.0625 7.0625 C0.7425 6.7325 -0.5775 6.4025 -1.9375 6.0625 C-1.9375 5.4025 -1.9375 4.7425 -1.9375 4.0625 C-4.94528521 3.05990493 -7.47570647 2.75935358 -10.625 2.5 C-11.61886719 2.41621094 -12.61273438 2.33242188 -13.63671875 2.24609375 C-14.77560547 2.15521484 -14.77560547 2.15521484 -15.9375 2.0625 C-15.9375 1.7325 -15.9375 1.4025 -15.9375 1.0625 C-10.57260405 0.15766363 -5.43432543 -0.06053662 0 0 Z " fill="#463C33" transform="translate(305.9375,257.9375)"/>
<path d="M0 0 C-1.32 1.32 -2.64 2.64 -4 4 C-3.01 4 -2.02 4 -1 4 C2 8.22222222 2 8.22222222 2 11 C-0.875 10.25 -0.875 10.25 -4 9 C-5.125 7.0625 -5.125 7.0625 -6 5 C-8.03317007 3.26574227 -8.03317007 3.26574227 -10 2 C-8.71211992 1.46987262 -7.41953322 0.9511671 -6.125 0.4375 C-5.40570313 0.14746094 -4.68640625 -0.14257812 -3.9453125 -0.44140625 C-2 -1 -2 -1 0 0 Z " fill="#251E1C" transform="translate(346,211)"/>
<path d="M0 0 C1.12894876 0.93274109 2.25300876 1.87140122 3.375 2.8125 C4.00148438 3.33457031 4.62796875 3.85664063 5.2734375 4.39453125 C7 6 7 6 9 9 C3.6 9.36 3.6 9.36 1.125 7.875 C-0.4682099 5.21965017 -0.20214032 3.03210482 0 0 Z " fill="#191714" transform="translate(381,292)"/>
<path d="M0 0 C0.66 0 1.32 0 2 0 C2 0.66 2 1.32 2 2 C2.99 1.67 3.98 1.34 5 1 C5.33 3.31 5.66 5.62 6 8 C2.62537285 7.45276317 0.91765 6.9451 -2 5 C-1.01 5 -0.02 5 1 5 C0.67 3.35 0.34 1.7 0 0 Z " fill="#1A1916" transform="translate(426,130)"/>
<path d="M0 0 C1.33333333 0.66666667 2.66666667 1.33333333 4 2 C4.721875 2.28875 5.44375 2.5775 6.1875 2.875 C8 4 8 4 8.75 6.125 C8.87375 7.053125 8.87375 7.053125 9 8 C4.52761347 6.58192622 0.28853694 4.88695626 -4 3 C-2.68 2.01 -1.36 1.02 0 0 Z " fill="#2C2620" transform="translate(370,66)"/>
<path d="M0 0 C2.02350324 3.03525486 2.32124018 4.19426202 2.625 7.6875 C2.69976562 8.49574219 2.77453125 9.30398437 2.8515625 10.13671875 C2.92503906 11.05904297 2.92503906 11.05904297 3 12 C2.01 12 1.02 12 0 12 C0 11.01 0 10.02 0 9 C-2.97 8.505 -2.97 8.505 -6 8 C-6 7.34 -6 6.68 -6 6 C-3.69 6.33 -1.38 6.66 1 7 C0.67 4.69 0.34 2.38 0 0 Z " fill="#2D2820" transform="translate(264,177)"/>
<path d="M0 0 C3.34249629 0.59687434 5.46436342 1.73603877 8 4 C8 4.66 8 5.32 8 6 C6.02 6.33 4.04 6.66 2 7 C0 4 0 4 0 0 Z " fill="#0A0704" transform="translate(271,406)"/>
<path d="M0 0 C3.33557632 2.9905167 5.15083921 5.93184627 7 10 C5.35 9.67 3.7 9.34 2 9 C2 8.34 2 7.68 2 7 C1.01 6.67 0.02 6.34 -1 6 C-0.67 5.34 -0.34 4.68 0 4 C0 2.68 0 1.36 0 0 Z " fill="#242223" transform="translate(499,173)"/>
<path d="M0 0 C0.28875 0.598125 0.5775 1.19625 0.875 1.8125 C2.04742026 4.19327792 2.04742026 4.19327792 4 7 C3.01 7 2.02 7 1 7 C0.67 6.01 0.34 5.02 0 4 C-2.92879371 4.62759865 -5.36095629 5.58622659 -8 7 C-6.5361389 2.60841671 -4.02168662 2.12052567 0 0 Z " fill="#090603" transform="translate(350,208)"/>
<path d="M0 0 C1.32 0 2.64 0 4 0 C4.33 1.65 4.66 3.3 5 5 C3.35 5.33 1.7 5.66 0 6 C-0.38218767 4.34385343 -0.71395102 2.67542976 -1 1 C-0.67 0.67 -0.34 0.34 0 0 Z " fill="#050405" transform="translate(380,64)"/>
<path d="M0 0 C3.18609925 0.35401103 4.79066678 0.83027036 7.3125 2.875 C9 5 9 5 9 8 C7.68 7.34 6.36 6.68 5 6 C5 5.34 5 4.68 5 4 C3.02 3.34 1.04 2.68 -1 2 C-0.67 1.34 -0.34 0.68 0 0 Z " fill="#211C1C" transform="translate(420,136)"/>
<path d="M0 0 C12.66970387 0.96355353 12.66970387 0.96355353 18 2 C18 2.33 18 2.66 18 3 C15.75059705 3.08119503 13.50035129 3.13927819 11.25 3.1875 C9.99703125 3.22230469 8.7440625 3.25710938 7.453125 3.29296875 C3.85890643 2.98802939 2.55274874 2.45605371 0 0 Z " fill="#BEA0A7" transform="translate(154,315)"/>
<path d="M0 0 C1.65 0 3.3 0 5 0 C5.5625 1.9375 5.5625 1.9375 6 4 C5 5 5 5 2.4375 5.0625 C1.2309375 5.0315625 1.2309375 5.0315625 0 5 C0 3.35 0 1.7 0 0 Z " fill="#050302" transform="translate(136,307)"/>
<path d="M0 0 C1.7074998 1.28062485 3.37373596 2.61767557 5 4 C5 4.66 5 5.32 5 6 C3.1875 6.6875 3.1875 6.6875 1 7 C-0.75 5.5625 -0.75 5.5625 -2 4 C-1.34 2.68 -0.68 1.36 0 0 Z " fill="#0B0804" transform="translate(347,214)"/>
<path d="M0 0 C0.66 0.33 1.32 0.66 2 1 C-1.50897269 5.18423892 -5.08060535 9.19588166 -9 13 C-9 9.26130751 -8.09514308 8.63449295 -5.625 5.9375 C-4.99851563 5.24527344 -4.37203125 4.55304688 -3.7265625 3.83984375 C-2.50602933 2.53923035 -1.26120903 1.26120903 0 0 Z " fill="#1B150E" transform="translate(138,246)"/>
<path d="M0 0 C2.0625 0.4375 2.0625 0.4375 4 1 C4 1.66 4 2.32 4 3 C2.68 3 1.36 3 0 3 C-0.33 4.65 -0.66 6.3 -1 8 C-3.475 7.01 -3.475 7.01 -6 6 C-4 4 -2 2 0 0 Z " fill="#2A2422" transform="translate(354,203)"/>
<path d="M0 0 C2.0625 0.4375 2.0625 0.4375 4 1 C3.67 2.65 3.34 4.3 3 6 C1.68 6 0.36 6 -1 6 C-1.042721 4.33388095 -1.04063832 2.66617115 -1 1 C-0.67 0.67 -0.34 0.34 0 0 Z " fill="#020403" transform="translate(259,185)"/>
<path d="M0 0 C0.33 0.66 0.66 1.32 1 2 C1.99 2 2.98 2 4 2 C4 2.66 4 3.32 4 4 C3.01 4.33 2.02 4.66 1 5 C-0.21869929 7.50447516 -0.21869929 7.50447516 -1 10 C-1.66 9.67 -2.32 9.34 -3 9 C-2.44271087 5.65626525 -1.64826111 2.96687001 0 0 Z " fill="#231E18" transform="translate(295,144)"/>
<path d="M0 0 C1.32 0 2.64 0 4 0 C4 1.65 4 3.3 4 5 C2.35 5 0.7 5 -1 5 C-0.67 3.35 -0.34 1.7 0 0 Z " fill="#030303" transform="translate(205,356)"/>
<path d="M0 0 C0.66 0.33 1.32 0.66 2 1 C-1.3 4.3 -4.6 7.6 -8 11 C-8.66 10.67 -9.32 10.34 -10 10 C-6.92118304 6.12948725 -3.99926986 2.97088618 0 0 Z " fill="#21180F" transform="translate(398,203)"/>
<path d="M0 0 C0.33 0.99 0.66 1.98 1 3 C2.98 3 4.96 3 7 3 C7 3.33 7 3.66 7 4 C1.06 4.495 1.06 4.495 -5 5 C-4.01 4.67 -3.02 4.34 -2 4 C-2 3.01 -2 2.02 -2 1 C-1.34 0.67 -0.68 0.34 0 0 Z " fill="#211F21" transform="translate(328,465)"/>
<path d="M0 0 C3.41880464 1.13960155 4.79965786 2.17098867 7 5 C6.75 7.75 6.75 7.75 6 10 C3.47650757 6.87567603 1.72743854 3.61939504 0 0 Z " fill="#292520" transform="translate(492,182)"/>
<path d="M0 0 C0.33 0 0.66 0 1 0 C1 1.98 1 3.96 1 6 C-1.31 6.33 -3.62 6.66 -6 7 C-5.67 6.01 -5.34 5.02 -5 4 C-3.35 4 -1.7 4 0 4 C0 2.68 0 1.36 0 0 Z " fill="#131412" transform="translate(209,357)"/>
<path d="M0 0 C1.7074998 1.28062485 3.37373596 2.61767557 5 4 C5 4.66 5 5.32 5 6 C-0.75 4.25 -0.75 4.25 -3 2 C-2.01 1.34 -1.02 0.68 0 0 Z " fill="#26211F" transform="translate(397,278)"/>
<path d="M0 0 C0 0.66 0 1.32 0 2 C-0.99 2 -1.98 2 -3 2 C-3 2.66 -3 3.32 -3 4 C-4.65 4.66 -6.3 5.32 -8 6 C-8.66 5.34 -9.32 4.68 -10 4 C-8.71086513 3.32845067 -7.41859796 2.66291141 -6.125 2 C-5.40570313 1.62875 -4.68640625 1.2575 -3.9453125 0.875 C-2 0 -2 0 0 0 Z " fill="#312425" transform="translate(277,400)"/>
<path d="M0 0 C3.36720387 1.39332574 4.9859524 2.9789286 7 6 C3.75728494 5.4409112 2.06942576 4.5867822 0 2 C0 1.34 0 0.68 0 0 Z " fill="#070603" transform="translate(274,402)"/>
<path d="M0 0 C3 3.46153846 3 3.46153846 3 6 C0.11562221 4.70700306 -1.87219421 3.34058637 -4 1 C-2 0 -2 0 0 0 Z " fill="#211E1B" transform="translate(283,397)"/>
<path d="M0 0 C2.76223278 2.76223278 2.57856291 5.20706617 3 9 C2.67 8.34 2.34 7.68 2 7 C1.34 7 0.68 7 0 7 C-1.125 2.25 -1.125 2.25 0 0 Z " fill="#CAA5AE" transform="translate(396,334)"/>
<path d="M0 0 C2.475 0.495 2.475 0.495 5 1 C5 1.99 5 2.98 5 4 C5.66 4 6.32 4 7 4 C6.67 4.66 6.34 5.32 6 6 C3.97945196 4.35830472 1.97956942 2.69088222 0 1 C0 0.67 0 0.34 0 0 Z " fill="#272018" transform="translate(137,317)"/>
<path d="M0 0 C0.33 0.66 0.66 1.32 1 2 C-3.39453125 6.00390625 -3.39453125 6.00390625 -5 7 C-5.99 6.67 -6.98 6.34 -8 6 C-5.36 4.02 -2.72 2.04 0 0 Z " fill="#C7A4B0" transform="translate(262,282)"/>
<path d="M0 0 C0.66 0.33 1.32 0.66 2 1 C0.26440562 4.057952 -1.38472619 6.63379989 -4 9 C-4 5.00095031 -2.27413033 3.19799578 0 0 Z " fill="#1E150E" transform="translate(190,153)"/>
<path d="M0 0 C0.66 0 1.32 0 2 0 C1.34 3.3 0.68 6.6 0 10 C-0.33 10 -0.66 10 -1 10 C-1.125 2.25 -1.125 2.25 0 0 Z " fill="#DCC9AA" transform="translate(291,147)"/>
<path d="M0 0 C0 3.69418201 -1.28179295 5.77836178 -3 9 C-3.66 7.68 -4.32 6.36 -5 5 C-3.35 3.35 -1.7 1.7 0 0 Z " fill="#D0BC9D" transform="translate(147,108)"/>
</svg>
