<svg width="1669" height="709" viewBox="0 0 1669 709" fill="none" xmlns="http://www.w3.org/2000/svg">
<path d="M128.777 557C135.636 557.748 141.771 563.628 146.188 568.727C148 571.352 148 571.352 148 573.352C148.99 573.352 149.98 573.352 151 573.352C150.505 575.827 150.505 575.827 150 578.352C147.218 577.976 145.412 577.678 143.188 575.914C142 574.352 142 574.352 142 572.352C141.34 572.352 140.68 572.352 140 572.352C138.845 570.939 137.692 569.523 136.609 568.055C134.368 565.683 131.743 564.095 129 562.352C129.005 562.952 129.01 563.553 129.016 564.172C129.037 566.877 129.05 569.583 129.062 572.289C129.071 573.235 129.079 574.18 129.088 575.154C129.091 576.053 129.094 576.953 129.098 577.879C129.103 578.712 129.108 579.544 129.114 580.402C129 582.352 129 582.352 128 583.352C122.241 583.883 117.534 582.961 112 581.352C109.306 581.19 106.702 581.257 104 581.352C104.062 582.589 104.124 583.827 104.188 585.102C104.193 588.044 104.079 589.208 102.625 591.852C101 593.352 101 593.352 99 593.352C99 594.012 99 594.672 99 595.352C95.37 596.342 91.74 597.332 88 598.352C87.67 599.672 87.34 600.992 87 602.352C87.66 602.682 88.32 603.012 89 603.352C88.4072 606.957 86.9726 608.896 84.5625 611.602C83.6363 612.661 83.6363 612.661 82.6914 613.742C81 615.352 81 615.352 79 615.352C79 616.012 79 616.672 79 617.352C77.35 617.352 75.7 617.352 74 617.352C74.371 614.106 74.7947 612.583 77 610.102C79.1143 607.194 79.2725 606.287 79.5 602.852C79.7489 599.855 80.0492 598.249 81.375 595.477C84.8643 592.652 88.3036 591.917 92.6367 590.93C94.9422 590.582 94.9422 590.582 96 589.352C96.1053 587.936 96.1843 586.519 96.25 585.102C96.6276 581.719 97.0419 580.283 98.875 577.289C104.386 573.872 109.994 574.698 116.16 576.039C118.798 576.747 121.402 577.507 124 578.352C123.984 577.504 123.984 577.504 123.968 576.639C123.927 574.085 123.901 571.531 123.875 568.977C123.858 568.087 123.841 567.198 123.824 566.281C123.815 565.005 123.815 565.005 123.805 563.703C123.789 562.525 123.789 562.525 123.773 561.323C124.162 557.941 125.565 557.407 128.777 557Z" fill="#000102"/>
<path d="M970.182 0C972.322 2.13966 972.723 3.20567 973.584 6.03516C973.96 7.25042 973.96 7.25042 974.344 8.49023C974.6 9.33908 974.856 10.1879 975.12 11.0625C975.628 12.7203 976.137 14.3778 976.647 16.0352C976.902 16.8668 977.157 17.6984 977.42 18.5552C978.901 23.3051 980.495 28.0175 982.124 32.7188C984.812 40.5756 987.041 48.5087 989.057 56.5625C989.314 57.5869 989.314 57.5869 989.575 58.6319C993.705 75.2678 996.693 92.0473 999.182 109C999.289 109.718 999.395 110.436 999.505 111.176C1002.99 134.841 1003.7 158.102 1003.18 182C1009.89 180.345 1016.06 178.461 1022.18 175.25C1022.87 174.897 1023.55 174.544 1024.26 174.181C1033.77 169.209 1042.32 163.221 1050.86 156.755C1070.99 141.529 1092.14 128.257 1114.18 116C1115.14 115.461 1116.11 114.923 1117.1 114.368C1158.48 91.2857 1202.3 73.191 1247.04 57.746C1249.34 56.9463 1251.62 56.124 1253.91 55.3018C1255.49 54.7447 1257.08 54.1884 1258.66 53.6328C1259.38 53.3693 1260.1 53.1057 1260.84 52.8342C1267.07 50.6852 1273.22 49.6632 1279.37 52.4375C1295.93 67.5243 1298.38 95.3214 1301.74 116.25C1301.89 117.15 1302.04 118.05 1302.19 118.978C1304.97 135.937 1307.31 152.917 1309.18 170C1309.35 171.496 1309.35 171.496 1309.52 173.023C1311.27 188.977 1311.91 204.959 1312.18 221C1312.2 221.916 1312.22 222.831 1312.23 223.774C1312.65 247.643 1312.86 271.419 1310.37 295.188C1310.29 295.982 1310.2 296.777 1310.12 297.595C1308.54 312.288 1305.94 326.716 1302.78 341.147C1296.38 370.91 1299.94 389.478 1316.18 414.938C1323.45 426.342 1329.28 438.398 1334.18 451C1334.52 451.842 1334.85 452.684 1335.2 453.551C1337.45 459.439 1339.23 465.435 1340.93 471.5C1341.16 472.29 1341.38 473.081 1341.61 473.895C1342.46 477.008 1343.18 479.756 1343.18 483C1343.88 482.705 1344.57 482.409 1345.29 482.105C1369.27 471.954 1393.55 462.572 1418.18 454.125C1418.88 453.88 1419.58 453.635 1420.3 453.383C1423.54 452.307 1424.85 451.89 1428.18 453C1427.43 453.295 1426.68 453.591 1425.9 453.895C1407.69 461.072 1389.66 468.578 1371.73 476.444C1366.1 478.914 1360.45 481.362 1354.81 483.812C1351.6 485.208 1348.39 486.604 1345.18 488C1345.35 489.129 1345.35 489.129 1345.52 490.281C1346.81 499.178 1348.03 508.083 1349.18 517C1349.31 517.975 1349.44 518.951 1349.57 519.956C1351.46 535.215 1351.36 550.523 1351.37 565.875C1351.37 566.94 1351.37 568.006 1351.37 569.104C1351.37 572.192 1351.36 575.279 1351.35 578.367C1351.35 579.75 1351.35 579.75 1351.35 581.162C1351.3 587.168 1350.86 593.031 1350.18 599C1355.79 599 1361.4 599 1367.18 599C1367.24 597.536 1367.31 596.071 1367.37 594.562C1369.55 572.05 1380.89 551.086 1395.18 534C1395.95 533.058 1396.73 532.115 1397.52 531.145C1413.38 512.648 1436.82 498.675 1460.18 492C1460.96 491.772 1461.74 491.543 1462.55 491.308C1475.95 487.556 1488.98 486.538 1502.81 486.562C1503.95 486.562 1503.95 486.562 1505.11 486.562C1518.72 486.604 1531.79 487.99 1544.93 491.688C1546.34 492.078 1546.34 492.078 1547.77 492.477C1578.46 501.265 1606 517.075 1629.18 539C1630.04 539.795 1630.9 540.591 1631.79 541.41C1649.75 558.598 1666.87 583.346 1668.36 609.068C1668.78 632.388 1668.61 652.812 1651.52 670.785C1638.54 683.091 1621.41 687.56 1603.94 687.242C1590.47 686.375 1578.68 681.407 1568.18 673C1567.52 673 1566.86 673 1566.18 673C1565.83 673.773 1565.48 674.547 1565.12 675.344C1557.94 690.488 1548.14 698.49 1532.63 704.777C1523.87 707.882 1515.42 708.394 1506.18 708C1505.4 707.97 1504.62 707.941 1503.81 707.91C1489.38 706.855 1474.65 698.744 1465.18 688C1459.89 680.789 1456.69 673.988 1456.18 665C1454.94 665.422 1453.7 665.843 1452.42 666.277C1450.78 666.831 1449.14 667.384 1447.49 667.938C1446.68 668.215 1445.86 668.493 1445.02 668.779C1430.33 673.716 1413.58 674.296 1399.18 668C1397.98 667.474 1397.98 667.474 1396.75 666.938C1383.17 660.162 1374.15 648.257 1369.18 634.203C1365.84 623.487 1365.96 613.117 1366.18 602C1360.9 602 1355.62 602 1350.18 602C1350.18 606.62 1350.18 611.24 1350.18 616C1181.22 616 1012.26 616 838.182 616C839.832 614.68 841.482 613.36 843.182 612C844.873 610.357 846.56 608.711 848.245 607.062C853.782 601.994 859.146 599.417 866.182 597C874.458 594.285 874.458 594.285 880.182 588C881.93 582.757 882.273 576.912 880.311 571.676C875.194 562.867 867.528 559.994 858.13 557.443C850.647 555.699 843.197 555.696 835.56 555.739C833.318 555.75 831.077 555.739 828.834 555.727C815.2 555.711 800.76 556.141 790.131 565.879C786.044 570.551 785.015 573.226 784.932 579.312C784.893 581.008 784.893 581.008 784.854 582.738C785.28 586.977 786.576 589.576 789.768 592.406C795.009 595.611 800.463 597.688 806.209 599.832C814.501 603.09 820.958 609.776 827.182 616C658.552 616 489.922 616 316.182 616C316.182 611.38 316.182 606.76 316.182 602C311.892 602 307.602 602 303.182 602C303.228 603.114 303.275 604.227 303.323 605.375C303.858 623.818 300.15 640.947 287.932 655.438C276.61 667.185 262.883 671.864 246.927 672.338C236.908 672.48 228.068 671.618 219.026 666.867C217.069 665.787 217.069 665.787 214.182 666C214.035 666.606 213.888 667.212 213.737 667.836C209.9 682.169 201.628 692.207 189.182 700C177.501 706.051 165.284 708.724 152.182 708C151.437 707.981 150.692 707.961 149.924 707.941C135.233 707.047 121.621 699.078 111.682 688.562C108.05 684.192 103.182 677.913 103.182 672C102.336 672.531 101.491 673.062 100.619 673.609C81.9269 685.288 66.0461 689.98 43.7562 684.973C34.2073 682.374 26.5651 678.599 19.182 672C18.5555 671.455 17.929 670.909 17.2836 670.348C6.26081 660.119 0.835657 644.691 0.0726252 629.876C-1.00395 597.72 9.90521 571.138 31.6976 547.617C32.5175 546.754 33.3373 545.89 34.182 545C34.6403 544.509 35.0985 544.018 35.5707 543.513C63.8008 513.427 107.819 488.678 149.866 486.839C151.236 486.819 152.605 486.806 153.975 486.797C154.714 486.79 155.454 486.783 156.216 486.776C158.601 486.758 160.985 486.752 163.37 486.75C164.182 486.749 164.994 486.749 165.83 486.748C177.822 486.764 189.495 487.034 201.182 490C201.86 490.172 202.538 490.343 203.236 490.52C224.33 496.096 243.355 506.226 260.182 520C260.955 520.63 261.729 521.261 262.526 521.91C275.972 533.262 285.532 548.326 293.182 564C293.58 564.813 293.979 565.627 294.389 566.465C297.634 573.821 299.327 581.799 301.229 589.586C301.505 590.716 301.505 590.716 301.786 591.869C302.182 594 302.182 594 302.182 598C306.472 598 310.762 598 315.182 598C315.172 596.196 315.161 594.393 315.15 592.534C315.118 586.487 315.095 580.441 315.078 574.394C315.068 570.737 315.054 567.081 315.031 563.425C314.932 547.176 315.063 531.142 317.182 515C317.383 513.344 317.582 511.687 317.779 510.03C318.036 507.874 318.295 505.717 318.571 503.563C319.054 499.678 319.214 495.911 319.182 492C289.233 478.047 258.931 465.091 228.182 453C231.581 451.867 232.206 452.106 235.452 453.266C236.324 453.573 237.197 453.88 238.097 454.196C239.531 454.718 239.531 454.718 240.995 455.25C242.004 455.611 243.014 455.971 244.054 456.343C246.263 457.134 248.47 457.93 250.675 458.73C254.243 460.022 257.817 461.293 261.393 462.562C277.613 468.368 293.436 474.801 309.215 481.722C313.503 483.569 317.834 485.301 322.182 487C322.294 485.881 322.406 484.762 322.522 483.609C326.059 455.583 340.734 428.797 355.388 405.193C368.457 384.085 368.554 367.628 363.506 343.882C359.642 325.627 356.534 307.625 355.182 289C355.098 287.899 355.013 286.797 354.926 285.663C354.281 276.767 354.022 267.926 354.014 259.004C354.011 257.6 354.007 256.196 354.004 254.792C353.998 251.861 353.996 248.931 353.997 246.001C353.997 243.072 353.99 240.144 353.976 237.216C353.845 208.771 354.971 180.636 358.995 152.438C359.261 150.516 359.526 148.594 359.791 146.673C370.846 67.1491 370.846 67.1491 386.764 52.1445C392.318 49.5157 398.706 50.8295 404.332 52.7268C405.385 53.1057 405.385 53.1057 406.459 53.4922C407.219 53.7534 407.979 54.0146 408.762 54.2837C411.22 55.1332 413.67 56.0031 416.12 56.875C417.836 57.4759 419.553 58.0761 421.27 58.6758C455.331 70.6262 488.639 84.3862 521.182 100C522.165 100.471 523.148 100.943 524.161 101.429C556.345 116.969 586.81 135.571 615.307 157.125C637.991 175.195 637.991 175.195 665.182 181C669.102 179.93 672.843 178.493 676.62 177C678.576 176.248 680.533 175.497 682.491 174.75C683.345 174.415 684.198 174.08 685.078 173.734C687.182 173 687.182 173 689.182 173C689.344 171.179 689.344 171.179 689.51 169.32C690.208 163.078 691.56 156.999 692.932 150.875C693.199 149.677 693.467 148.478 693.742 147.244C695.463 139.707 697.439 132.44 700.049 125.16C701.128 122.15 702.043 119.133 702.932 116.062C712.873 83.6652 727.682 52.3714 746.182 24C746.512 24.66 746.842 25.32 747.182 26C746.093 28.5242 746.093 28.5242 744.385 31.7305C744.081 32.3085 743.776 32.8865 743.463 33.482C742.804 34.7322 742.141 35.9805 741.476 37.2273C739.712 40.5394 737.98 43.8681 736.245 47.1953C735.895 47.8644 735.545 48.5335 735.185 49.2229C715.276 87.3745 699.853 128.357 693.182 171C694.382 170.625 695.582 170.25 696.819 169.863C709.165 166.052 721.551 162.726 734.182 160C735.412 159.733 735.412 159.733 736.668 159.461C767.728 152.905 798.937 151.36 830.573 151.609C834.087 151.631 837.601 151.63 841.114 151.629C858.248 151.63 875.166 151.785 892.182 154C894.972 154.271 897.764 154.509 900.557 154.75C913.909 156.128 927.076 159.178 940.182 162C941.102 162.194 942.023 162.389 942.971 162.589C958.574 165.939 973.525 171.407 988.54 176.729C992.74 178.195 996.958 179.603 1001.18 181C999.064 142.231 996.1 103.877 987.182 66C986.949 64.9976 986.716 63.9952 986.476 62.9624C982.084 44.2445 977.48 24.9731 971.06 6.82861C970.182 4 970.182 4 970.182 0Z" fill="#0C1114"/>
<path d="M690.39 410.718C709.475 427.102 722.156 450.293 725.058 475.355C727.123 503.012 721.298 528.571 703.347 550.226C686.968 569.131 662.062 581.216 637.347 584.226C605.287 585.909 579.619 580.862 554.659 559.538C536.243 542.141 526.725 516.482 526.01 491.455C525.651 464.689 534.758 441.593 553.347 422.226C554.172 421.36 554.997 420.493 555.847 419.601C556.672 418.817 557.497 418.033 558.347 417.226C558.909 416.657 559.471 416.089 560.05 415.503C595.175 381.786 653.242 380.294 690.39 410.718Z" fill="#FBBF7E"/>
<path d="M1502.81 486.563C1503.57 486.563 1504.33 486.563 1505.11 486.563C1518.72 486.605 1531.79 487.99 1544.93 491.688C1545.87 491.948 1546.8 492.209 1547.77 492.477C1578.46 501.266 1606 517.075 1629.18 539C1630.04 539.796 1630.9 540.591 1631.79 541.411C1649.75 558.598 1666.87 583.347 1668.36 609.068C1668.78 632.388 1668.61 652.813 1651.52 670.786C1638.54 683.091 1621.41 687.561 1603.94 687.243C1590.47 686.375 1578.68 681.408 1568.18 673C1567.52 673 1566.86 673 1566.18 673C1565.83 673.774 1565.48 674.547 1565.12 675.344C1557.94 690.488 1548.14 698.491 1532.63 704.778C1523.87 707.883 1515.42 708.394 1506.18 708C1505.4 707.971 1504.62 707.941 1503.81 707.911C1489.38 706.856 1474.65 698.744 1465.18 688C1459.89 680.789 1456.69 673.989 1456.18 665C1454.94 665.422 1453.7 665.843 1452.42 666.278C1450.78 666.831 1449.14 667.385 1447.49 667.938C1446.68 668.216 1445.86 668.494 1445.02 668.78C1430.33 673.716 1413.58 674.297 1399.18 668C1398.38 667.65 1397.58 667.299 1396.75 666.938C1382.97 660.061 1374.37 648.182 1369.13 634.079C1367.03 627.237 1367.06 620.72 1367.12 613.625C1367.12 612.603 1367.13 611.581 1367.13 610.528C1367.14 608.019 1367.16 605.51 1367.18 603C1375.6 602.505 1375.6 602.505 1384.18 602C1380.78 601.536 1380.78 601.536 1377.31 601.063C1370.43 600.125 1370.43 600.125 1368.18 599C1366.07 577.314 1379.15 553.78 1392.31 537.45C1393.27 536.298 1394.22 535.148 1395.18 534C1396.34 532.587 1396.34 532.587 1397.52 531.145C1413.38 512.648 1436.82 498.676 1460.18 492C1460.96 491.772 1461.75 491.543 1462.55 491.308C1475.95 487.556 1488.98 486.538 1502.81 486.563Z" fill="#0C1115"/>
<path d="M153.975 486.797C155.084 486.786 155.084 486.786 156.216 486.776C158.601 486.758 160.985 486.752 163.37 486.75C164.182 486.749 164.994 486.749 165.83 486.748C177.822 486.764 189.495 487.034 201.182 490C202.199 490.258 202.199 490.258 203.236 490.52C224.33 496.096 243.355 506.226 260.182 520C260.955 520.63 261.729 521.261 262.526 521.91C282.065 538.406 296.474 563.955 301.182 589C301.182 592.3 301.182 595.6 301.182 599C287.322 600.485 287.322 600.485 273.182 602C282.752 602 292.322 602 302.182 602C302.572 623.325 301.172 641.701 285.643 657.813C271.304 670.558 255.081 673.056 236.566 672.213C230.398 671.662 224.502 669.744 219.026 666.867C217.069 665.787 217.069 665.787 214.182 666C214.035 666.606 213.888 667.212 213.737 667.836C209.9 682.17 201.628 692.207 189.182 700C177.501 706.051 165.284 708.724 152.182 708C151.437 707.981 150.692 707.961 149.924 707.941C135.233 707.047 121.621 699.078 111.682 688.563C108.05 684.192 103.182 677.913 103.182 672C101.914 672.797 101.914 672.797 100.619 673.609C81.9269 685.288 66.0461 689.98 43.7562 684.973C34.2073 682.374 26.5651 678.599 19.182 672C18.5555 671.455 17.929 670.91 17.2836 670.348C6.26081 660.119 0.835657 644.691 0.0726252 629.877C-1.00395 597.721 9.90521 571.138 31.6976 547.617C32.5175 546.754 33.3373 545.89 34.182 545C34.6403 544.509 35.0985 544.018 35.5707 543.513C64.6231 512.551 110.577 487.071 153.975 486.797Z" fill="#0C1115"/>
<path d="M1102.87 414.374C1121.31 430.095 1136.64 451.213 1139.18 475.999C1140.18 491.596 1140.53 507.154 1135.18 521.999C1134.8 523.139 1134.41 524.278 1134.01 525.452C1125.48 549.209 1109.07 567.014 1086.41 577.912C1060.37 589.728 1030.18 589.235 1003.49 579.749C992.064 575.03 981.359 569.377 972.182 560.999C971.701 560.561 971.221 560.123 970.725 559.671C953.112 543.404 941.934 521.323 940.838 497.155C940.105 467.247 948.634 440.565 969.33 418.398C1005.17 381.423 1063.89 383.352 1102.87 414.374Z" fill="#FBBF7E"/>
<path d="M665.873 423.289C669.526 426.319 672.871 429.602 676.182 432.999C677.071 433.875 677.071 433.875 677.979 434.769C686.563 443.884 691.578 456.223 695.182 467.999C695.551 469.111 695.551 469.111 695.928 470.246C700.606 486.795 696.488 504.374 688.545 519.093C678.608 536.285 661.767 545.549 643.323 551.203C625.58 555.704 606.653 553.506 590.888 544.124C576.147 534.41 566.401 519.151 561.869 502.253C559.543 490.244 560.127 476.79 563.182 464.999C563.842 464.999 564.502 464.999 565.182 464.999C565.986 466.299 565.986 466.299 566.807 467.624C570.319 473.175 575.995 476.978 582.182 478.999C591.917 480.169 599.294 478.22 606.994 472.249C612.48 467.235 614.893 460.739 615.455 453.46C615.753 445.008 615.568 437.984 610.182 430.999C607.671 428.43 604.997 426.22 602.182 423.999C601.167 423.014 600.162 422.019 599.182 420.999C619.128 409.372 647.089 408.968 665.873 423.289Z" fill="#0C1115"/>
<path d="M1077.13 427.202C1079.61 429.371 1081.91 431.615 1084.18 433.999C1084.89 434.708 1085.59 435.417 1086.32 436.148C1097.23 447.666 1104.11 462.524 1104.87 478.437C1104.58 485.128 1102.71 489.143 1098.18 493.999C1097.53 494.708 1096.87 495.417 1096.2 496.148C1090.61 501.628 1084.51 504.42 1077.18 506.999C1076.42 506.36 1075.66 505.72 1074.87 505.062C1071.07 502.149 1068 501.638 1063.24 501.726C1059.72 502.193 1057.8 503.678 1055.18 505.999C1054.64 507.171 1054.09 508.343 1053.53 509.55C1051.68 512.876 1051.34 512.95 1047.38 514.163C1045.88 514.343 1044.38 514.496 1042.87 514.624C1041.25 514.83 1039.62 515.045 1038 515.269C1037.19 515.38 1036.38 515.492 1035.55 515.607C1021.37 517.957 1008.16 524.709 998.181 534.999C997.521 535.989 996.861 536.979 996.181 537.999C985.467 533.493 977.572 521.301 973.181 510.999C968.45 498.705 966.201 482.469 971.181 469.999C971.678 470.397 972.174 470.796 972.685 471.206C981.199 477.846 988.294 480.345 999.181 478.999C1006.57 476.784 1011.95 472.402 1016.18 465.999C1020.19 457.847 1021.68 449.209 1018.99 440.437C1015.84 432.061 1011.67 426.907 1004.18 421.999C1007.07 418.766 1009.47 417.215 1013.56 415.812C1014.47 415.488 1015.39 415.165 1016.33 414.831C1036.88 408.836 1060.22 414.559 1077.13 427.202Z" fill="#0C1115"/>
<path d="M1102.87 414.375C1112.27 422.384 1119.46 430.718 1126.18 441C1125.85 441.66 1125.52 442.32 1125.18 443C1124.52 443 1123.86 443 1123.18 443C1123.18 443.66 1123.18 444.32 1123.18 445C1122.46 445.64 1121.74 446.279 1120.99 446.938C1116.97 450.837 1115.25 455.89 1113.18 461C1112.76 461.962 1112.33 462.923 1111.9 463.914C1108.24 472.919 1106.99 481.944 1105.63 491.518C1102.85 510.653 1095.81 527.632 1080.58 540.34C1064.53 551.462 1045.19 555.735 1025.94 552.352C1015.3 550.098 1004.73 545.826 996.182 539C999.409 529.563 1008.3 524.916 1016.81 520.733C1026.12 516.423 1035.77 514.383 1045.93 513.188C1049.72 512.708 1049.72 512.708 1052.6 510.465C1053.53 508.679 1054.36 506.839 1055.18 505C1059.1 501.524 1062.11 500.404 1067.22 500.668C1071.45 501.386 1074.68 503.664 1078.18 506C1089.93 500.739 1089.93 500.739 1099.18 492C1099.99 490.99 1100.79 489.979 1101.62 488.938C1105.66 481.03 1103.63 471.073 1101.18 462.938C1097.21 450.832 1090.11 440.98 1081.18 432C1080.67 431.45 1080.15 430.899 1079.62 430.332C1067.35 418.41 1047.94 413.359 1031.28 413.593C1021.76 413.968 1013.49 416.384 1005.18 421C1002.46 422.361 1001.16 421.614 998.182 421C994.721 420.752 991.266 420.561 987.801 420.395C982.386 420.103 982.386 420.103 980.182 419C980.182 418.34 980.182 417.68 980.182 417C980.842 417 981.502 417 982.182 417C982.182 416.01 982.182 415.02 982.182 414C980.202 413.67 978.222 413.34 976.182 413C986.398 402.093 1000.06 396.893 1014.18 393C1015.12 392.733 1016.06 392.466 1017.03 392.192C1046.48 385.425 1079.74 395.969 1102.87 414.375Z" fill="#F8B265"/>
<path d="M562.181 415C565.181 418.75 565.181 418.75 565.181 421C565.841 421.33 566.501 421.66 567.181 422C567.181 423.32 567.181 424.64 567.181 426C568.171 425.67 569.161 425.34 570.181 425C570.841 425 571.501 425 572.181 425C573.13 424.361 574.078 423.721 575.056 423.062C581.429 418.856 588.749 419.288 596.181 420C604.03 422.559 610.697 428.739 614.618 435.938C617.836 444.024 617.634 455.926 614.349 463.977C609.488 472.398 603.294 476.962 594.181 480C585.773 480.896 579.122 480.006 572.181 475C569.554 472.534 567.182 470.002 565.181 467C565.181 466.34 565.181 465.68 565.181 465C564.521 465 563.861 465 563.181 465C561.062 481.792 560.461 498.227 567.181 514C567.65 515.109 568.119 516.217 568.603 517.359C571.58 523.795 575.185 528.974 580.181 534C578.785 536.858 577.413 539.642 575.681 542.312C570.14 552.24 570.525 562.033 572.181 573C556.567 567.68 544.576 551.915 537.181 538C525.597 513.334 521.686 484.905 530.944 458.851C536.949 443.102 546.127 430.709 558.181 419C558.944 418.237 559.707 417.474 560.493 416.688C561.05 416.131 561.607 415.574 562.181 415Z" fill="#F8B265"/>
<path d="M830.734 554.629C832.915 554.625 835.094 554.588 837.275 554.55C849.718 554.452 866.469 555.583 875.915 564.668C881.07 570.424 882.596 574.555 882.431 582.308C881.998 586.964 880.47 589.781 877.107 592.961C873.442 595.515 869.754 596.746 865.556 598.187C857.271 601.202 851.648 604.957 845.181 611C839.907 615.362 836.981 616.53 830.13 616.476C824.283 615.531 820.617 611.34 816.49 607.375C812.156 603.365 807.741 601.366 802.255 599.218C788.981 593.956 788.981 593.956 785.181 589C783.123 582.827 783.05 575.488 785.743 569.562C798.471 556.182 812.856 554.625 830.734 554.629Z" fill="#D97E8B"/>
<path d="M693.182 464C699.158 475.401 698.981 491.768 695.338 503.945C688.287 522.574 677.183 536.935 658.807 545.75C641.292 553.177 621.536 556.335 603.182 550C594.326 546.365 586.929 541.873 580.182 535C591.092 519.597 611.661 515.614 629.099 512.311C631.81 511.906 634.447 511.877 637.182 512C637.522 510.917 637.522 510.917 637.869 509.812C639.451 506.423 641.383 504.458 644.182 502C648.986 500.399 652.775 500.378 657.432 502.438C658.793 503.211 658.793 503.211 660.182 504C663.108 505.333 663.108 505.333 665.635 504.031C682.098 495.018 687.54 481.108 693.182 464Z" fill="#404346"/>
<path d="M1104.18 475C1104.51 475 1104.84 475 1105.18 475C1106.03 497.91 1102.32 517.577 1086.18 535C1075.66 546.276 1059.33 552.534 1044.12 553.238C1026.82 553.678 1010.02 550.051 996.182 539C999.409 529.563 1008.3 524.915 1016.81 520.733C1026.12 516.423 1035.77 514.383 1045.93 513.188C1049.72 512.708 1049.72 512.708 1052.6 510.465C1053.53 508.679 1054.36 506.839 1055.18 505C1059.1 501.523 1062.11 500.404 1067.22 500.668C1071.45 501.386 1074.68 503.664 1078.18 506C1089.94 500.753 1089.94 500.753 1099.18 492C1099.6 491.457 1100.02 490.915 1100.45 490.355C1103.63 485.575 1103.95 480.635 1104.18 475Z" fill="#404346"/>
<path d="M690.225 412.493C698.506 419.61 707.584 428.517 711.182 439C709.182 441 709.182 441 707.119 442C705.013 442.846 705.013 442.846 704.182 445C703.522 445 702.862 445 702.182 445C701.893 446.114 701.604 447.228 701.307 448.375C700.182 452 700.182 452 698.182 454C697.424 455.687 696.721 457.399 696.057 459.125C695.703 460.035 695.35 460.946 694.986 461.883C694.721 462.582 694.455 463.281 694.182 464C691.63 461.448 690.884 458.985 689.557 455.625C682.279 438.095 670.435 425.989 653.744 417.188C634.724 410.848 615.954 413.727 598.182 422C597.522 421.67 596.862 421.34 596.182 421C586.815 420.369 580.36 420.705 572.432 425.75C571.689 426.163 570.947 426.575 570.182 427C569.192 426.67 568.202 426.34 567.182 426C567.182 424.68 567.182 423.36 567.182 422C566.542 421.732 565.903 421.464 565.244 421.188C563.182 420 563.182 420 562.182 417C563.505 413.03 565.974 411.863 569.369 409.75C569.998 409.356 570.626 408.961 571.274 408.554C608.893 385.313 655.04 383.676 690.225 412.493Z" fill="#F8B265"/>
<path d="M1009.24 424.562C1015.79 429.787 1020.16 436.637 1021.18 444.999C1021.98 453.004 1020.25 460.099 1016.49 467.187C1011.03 473.829 1005.03 479.316 996.205 480.347C987.375 480.75 980.832 479.114 974.15 473.202C967.096 465.73 964.486 458.322 964.574 448.093C965.033 438.827 968.953 431.743 975.619 425.374C985.128 417.748 999.204 417.723 1009.24 424.562Z" fill="#FCFCFC"/>
<path d="M603.22 423.456C609.373 428.298 614.334 433.16 616.181 440.999C617.188 452.176 616.858 461.87 609.493 470.812C603.744 476.89 597.027 480.089 588.618 480.374C581.155 480.284 575.742 478.143 570.146 473.202C562.773 465.375 560.539 457.869 560.64 447.312C561.041 438.069 564.723 431.632 571.482 425.402C580.209 418.199 593.672 417.121 603.22 423.456Z" fill="#FDFDFC"/>
<path d="M554.182 234.999C555.172 235.659 556.162 236.319 557.182 236.999C556.74 242.827 554.255 246.648 551.182 251.437C550.179 253.038 549.176 254.64 548.174 256.242C547.671 257.039 547.168 257.837 546.65 258.659C544.492 262.1 542.394 265.576 540.307 269.062C539.94 269.673 539.574 270.284 539.196 270.913C536.422 275.553 533.748 280.241 531.182 284.999C530.522 284.999 529.862 284.999 529.182 284.999C529.1 285.536 529.017 286.072 528.932 286.624C527.883 289.945 526.354 292.285 524.182 294.999C521.432 295.874 521.432 295.874 519.182 295.999C517.883 292.102 518.35 289.753 520.1 286.077C522.391 281.678 524.766 277.331 527.182 272.999C527.677 272.106 528.172 271.213 528.682 270.292C529.846 268.193 531.012 266.095 532.182 263.999C526.018 271.211 519.911 278.432 514.182 285.999C511.807 285.812 511.807 285.812 509.182 284.999C506.877 280.833 506.096 275.931 504.963 271.327C504.43 268.829 504.43 268.829 502.182 267.999C502.053 268.821 502.053 268.821 501.92 269.659C500.927 275.264 499.48 280.649 497.745 286.062C497.437 287.063 497.437 287.063 497.123 288.084C496.498 289.972 496.498 289.972 495.182 292.999C494.192 293.329 493.202 293.659 492.182 293.999C492.182 294.659 492.182 295.319 492.182 295.999C486.976 296.437 484.203 295.235 479.807 292.499C478.747 291.85 477.688 291.2 476.596 290.531C475.799 290.025 475.003 289.52 474.182 288.999C474.182 289.659 474.182 290.319 474.182 290.999C474.801 291.267 475.42 291.536 476.057 291.812C478.182 292.999 478.182 292.999 480.182 295.999C479.807 298.687 479.807 298.687 479.182 300.999C478.215 301.242 477.248 301.484 476.252 301.734C465.048 304.593 455.207 307.436 446.182 314.999C447.502 315.659 448.822 316.319 450.182 316.999C450.182 317.659 450.182 318.319 450.182 318.999C450.842 318.999 451.502 318.999 452.182 318.999C452.87 321.749 452.87 321.749 453.182 324.999C451.745 327.374 451.745 327.374 450.182 328.999C446.612 328.371 443.371 327.442 439.995 326.124C439.135 325.797 438.275 325.469 437.389 325.132C435.182 323.999 435.182 323.999 433.182 320.999C432.677 317.215 432.355 314.582 434.139 311.167C439.149 304.771 447.077 299.142 455.182 297.999C455.182 297.339 455.182 296.679 455.182 295.999C457.822 295.339 460.462 294.679 463.182 293.999C462.357 292.927 461.532 291.854 460.682 290.749C458.334 287.697 458.182 287.136 458.182 282.999C458.842 282.999 459.502 282.999 460.182 282.999C460.182 282.339 460.182 281.679 460.182 280.999C469.13 278.941 477.844 279.075 486.182 282.999C486.182 283.659 486.182 284.319 486.182 284.999C486.842 284.999 487.502 284.999 488.182 284.999C488.329 284.402 488.476 283.806 488.627 283.191C490.223 277.02 492.068 270.929 494.057 264.874C494.289 264.116 494.521 263.357 494.761 262.576C495.487 260.429 495.487 260.429 497.182 256.999C500.049 255.687 501.335 255.696 504.28 256.749C509.235 259.902 511.749 262.626 514.182 267.999C514.182 268.659 514.182 269.319 514.182 269.999C514.842 269.999 515.502 269.999 516.182 269.999C516.454 269.413 516.727 268.827 517.007 268.223C518.159 266.043 519.407 264.321 520.975 262.425C521.792 261.43 521.792 261.43 522.625 260.415C523.489 259.374 523.489 259.374 524.37 258.312C528.028 253.875 531.641 249.44 535.057 244.812C540.059 238.304 545.751 234.472 554.182 234.999Z" fill="#000001"/>
<path d="M831.229 554.739C833.508 554.75 835.787 554.739 838.066 554.727C839.538 554.728 841.01 554.73 842.482 554.734C844.449 554.738 844.449 554.738 846.456 554.741C850.379 555.014 853.463 555.789 857.182 557C855.862 557.33 854.542 557.66 853.182 558C853.805 559.987 853.805 559.987 855.182 562C857.704 563.242 857.704 563.242 860.619 564.062C866.905 566.013 866.905 566.013 869.182 569C869.369 571.375 869.369 571.375 868.182 574C860.695 581.667 847.366 582.06 837.24 582.353C829.695 582.423 822.328 581.815 814.869 580.688C814.087 580.57 813.305 580.453 812.499 580.332C807.929 579.553 804.262 578.316 800.182 576C800.182 575.34 800.182 574.68 800.182 574C799.192 573.67 798.202 573.34 797.182 573C796.869 570.75 796.869 570.75 797.182 568C799.751 565.283 801.235 564.084 804.994 563.75C805.716 563.833 806.438 563.915 807.182 564C807.182 563.34 807.182 562.68 807.182 562C807.842 562 808.502 562 809.182 562C809.182 561.34 809.182 560.68 809.182 560C808.192 559.67 807.202 559.34 806.182 559C805.522 558.34 804.862 557.68 804.182 557C813.248 555.072 822.007 554.687 831.229 554.739Z" fill="#D26E80"/>
<path d="M1428.18 453.001C1427.43 453.296 1426.68 453.592 1425.9 453.896C1407.67 461.082 1389.61 468.601 1371.66 476.48C1368.36 477.922 1365.06 479.346 1361.75 480.763C1351.54 485.14 1341.49 489.689 1331.61 494.766C1328.67 496.262 1325.71 497.726 1322.75 499.188C1308.04 506.466 1293.52 514.008 1279.18 522.001C1277.05 523.182 1274.92 524.363 1272.79 525.544C1255.72 535.033 1239.06 544.985 1222.58 555.475C1220.92 556.533 1219.25 557.588 1217.58 558.64C1210.67 563.006 1203.87 567.525 1197.12 572.126C1196.04 572.861 1194.96 573.597 1193.84 574.355C1178.59 584.77 1178.59 584.77 1163.83 595.852C1162.18 597.001 1162.18 597.001 1160.18 597.001C1160.18 596.341 1160.18 595.681 1160.18 595.001C1161.98 593.455 1163.78 592.035 1165.68 590.626C1166.26 590.187 1166.85 589.747 1167.45 589.295C1168.7 588.348 1169.96 587.403 1171.23 586.461C1173.15 585.025 1175.06 583.579 1176.97 582.13C1204.2 561.534 1232.39 542.285 1262 525.259C1264.3 523.932 1266.59 522.59 1268.88 521.247C1278.88 515.416 1289.03 509.889 1299.31 504.563C1299.91 504.249 1300.52 503.936 1301.14 503.612C1308.03 500.054 1314.95 496.601 1321.97 493.298C1322.59 493.001 1323.22 492.705 1323.87 492.4C1326.86 490.985 1329.86 489.587 1332.88 488.212C1333.94 487.716 1335 487.219 1336.1 486.708C1337.04 486.28 1337.97 485.851 1338.94 485.41C1341.42 483.848 1342.17 482.718 1343.18 480.001C1343.18 480.991 1343.18 481.981 1343.18 483.001C1343.88 482.705 1344.57 482.41 1345.29 482.106C1369.27 471.955 1393.55 462.573 1418.18 454.126C1419.23 453.759 1419.23 453.759 1420.3 453.384C1423.54 452.308 1424.85 451.89 1428.18 453.001Z" fill="#404448"/>
<path d="M228.182 452C236.217 453.461 243.715 456.182 251.36 458.975C254.559 460.137 257.765 461.277 260.971 462.418C277.33 468.282 293.298 474.74 309.215 481.722C313.503 483.569 317.833 485.301 322.182 487C322.512 485.68 322.842 484.36 323.182 483C323.182 483.99 323.182 484.98 323.182 486C323.842 486.33 324.502 486.66 325.182 487C325.182 487.66 325.182 488.32 325.182 489C325.914 489.346 326.645 489.691 327.399 490.047C351.105 501.276 374.525 513.04 396.967 526.659C399.5 528.193 402.042 529.711 404.584 531.23C433.113 548.356 460.099 567.503 486.385 587.871C488.718 589.647 491.077 591.342 493.494 593C494.381 593.66 495.268 594.32 496.182 595C496.182 595.66 496.182 596.32 496.182 597C491.85 595.548 488.631 593.209 485.119 590.375C480.031 586.367 474.83 582.671 469.404 579.125C465.665 576.66 461.987 574.113 458.307 571.562C451.652 566.969 444.917 562.531 438.083 558.208C436.049 556.916 434.023 555.609 431.998 554.301C396.515 531.495 358.937 511.757 321.182 493C320.852 493.99 320.522 494.98 320.182 496C320.15 495.409 320.119 494.819 320.087 494.21C318.698 490.819 315.878 490.025 312.693 488.637C311.677 488.173 311.677 488.173 310.64 487.701C308.389 486.681 306.13 485.684 303.869 484.688C302.292 483.98 300.715 483.273 299.138 482.564C275.749 472.109 252.023 462.375 228.182 453C228.182 452.67 228.182 452.34 228.182 452Z" fill="#404448"/>
<path d="M405.181 114C406.171 114 407.161 114 408.181 114C408.983 120.905 409.363 127.726 409.419 134.676C409.429 135.671 409.439 136.667 409.449 137.692C409.681 167.525 407.386 194.97 400.181 224C399.588 226.456 399.008 228.915 398.431 231.375C398.209 232.29 397.988 233.205 397.759 234.148C396.029 242.681 395.939 251.13 395.931 259.812C395.931 260.5 395.93 261.187 395.929 261.895C395.954 277.769 396.919 292.596 404.181 307C404.5 307.744 404.818 308.488 405.146 309.254C406.129 311.346 406.129 311.346 409.181 312C408.851 313.65 408.521 315.3 408.181 317C404.257 316.267 402.291 314.662 399.767 311.523C383.256 285.252 388.771 246.58 395.181 218C396.26 213.045 397.32 208.086 398.369 203.125C398.626 201.908 398.884 200.691 399.149 199.438C401.304 188.982 402.518 178.643 403.181 168C403.279 166.659 403.378 165.318 403.478 163.977C404.62 147.356 404.762 130.651 405.181 114Z" fill="#000101"/>
<path d="M1263.18 129C1267.38 133.196 1266.33 139.796 1266.36 145.383C1266.38 147.279 1266.4 149.175 1266.42 151.072C1266.43 152.061 1266.44 153.05 1266.45 154.069C1266.76 178.03 1268.72 200.836 1275.18 224C1275.93 226.725 1276.65 229.455 1277.37 232.188C1277.85 233.972 1277.85 233.972 1278.35 235.793C1283.37 258.08 1283.65 289.79 1271.69 309.781C1269.71 312.689 1267.99 314.859 1265.18 317C1263.86 317 1262.54 317 1261.18 317C1261.55 312.786 1263.11 310.825 1265.85 307.711C1274.04 297.192 1274.68 282.767 1274.57 270.02C1274.56 267.767 1274.57 265.515 1274.59 263.262C1274.61 249.465 1272.01 236.852 1268.58 223.507C1263.13 202.257 1260.93 182.126 1260.87 160.25C1260.86 159.384 1260.86 158.519 1260.86 157.627C1260.84 147.899 1261.09 138.552 1263.18 129Z" fill="#000102"/>
<path d="M453.182 439C455.609 442.641 456.753 446.447 458.119 450.562C469.016 482.333 483.993 513.166 501.182 542C501.844 543.114 501.844 543.114 502.52 544.25C514.2 563.74 527.702 582.551 542.537 599.766C544.132 601.932 544.777 603.37 545.182 606C535.379 601.702 528.773 590.888 522.434 582.61C520.799 580.507 519.081 578.478 517.369 576.438C490.295 542.636 453.182 483.801 453.182 439Z" fill="#414549"/>
<path d="M1202.18 439C1203.2 442.154 1203.14 444.139 1202.28 447.324C1201.94 448.6 1201.94 448.6 1201.6 449.901C1201.33 450.821 1201.07 451.74 1200.81 452.688C1200.53 453.657 1200.26 454.627 1199.98 455.626C1188.02 497.231 1168.14 537.33 1142.18 572C1141.78 572.535 1141.39 573.07 1140.98 573.621C1132.54 584.947 1123.63 596.458 1113.18 606C1112.52 606 1111.86 606 1111.18 606C1112.73 601.001 1115.73 597.663 1119.06 593.75C1125.41 586.1 1131.19 578.15 1136.83 569.96C1138.08 568.153 1139.34 566.357 1140.62 564.566C1150.19 551.01 1158.3 536.59 1166.18 522C1166.69 521.064 1167.19 520.127 1167.71 519.163C1178.11 499.8 1187.12 480.002 1195.18 459.562C1195.54 458.646 1195.91 457.729 1196.28 456.785C1198.54 450.934 1200.47 445.036 1202.18 439Z" fill="#414548"/>
<path d="M682.307 371.25C687.212 372.199 688.803 373.374 692.182 377C693.057 379.312 693.057 379.312 693.182 381C693.842 381 694.502 381 695.182 381C695.677 381.99 695.677 381.99 696.182 383C698.471 383.336 698.471 383.336 701.182 383C701.924 382.319 702.667 381.639 703.432 380.938C706.96 378.451 708.936 378.643 713.092 379.32C716.328 380.373 717.556 382.088 719.182 385C719.545 386.326 719.884 387.658 720.182 389C721.088 388.856 721.994 388.711 722.928 388.562C729.762 387.521 736.27 386.762 743.182 387C744.018 389.857 744.43 391.419 743.241 394.204C742.752 394.926 742.263 395.647 741.76 396.391C741.229 397.182 740.698 397.974 740.15 398.789C739.583 399.601 739.016 400.413 738.432 401.25C737.88 402.078 737.328 402.905 736.76 403.758C732.597 409.861 732.597 409.861 729.182 411C729.182 406.439 730.62 403.666 732.682 399.75C733.016 399.1 733.349 398.451 733.693 397.781C734.516 396.184 735.348 394.591 736.182 393C735.085 393.289 733.988 393.577 732.857 393.875C731.403 394.25 729.949 394.625 728.494 395C727.773 395.191 727.052 395.382 726.309 395.578C722.513 396.549 719.135 397.25 715.182 397C715.035 396.06 715.035 396.06 714.885 395.102C714.735 394.284 714.586 393.467 714.432 392.625C714.292 391.813 714.153 391.001 714.01 390.164C713.364 387.823 713.364 387.823 711.104 386.711C710.469 386.476 709.835 386.242 709.182 386C708.746 386.361 708.31 386.722 707.861 387.094C704.826 389.459 702.873 390.905 698.994 391.438C694.718 390.772 692.833 389.791 690.041 386.398C689.345 385.401 688.649 384.403 687.932 383.375C687.225 382.372 686.519 381.369 685.791 380.336C685.26 379.565 684.729 378.794 684.182 378C680.289 378.487 680.289 378.487 677.494 381.062C677.061 381.702 676.628 382.341 676.182 383C675.522 383 674.862 383 674.182 383C674.182 383.66 674.182 384.32 674.182 385C666.853 387.769 659.671 387.052 652.182 385C651.619 383.062 651.619 383.062 651.182 381C653.06 379.122 655.765 379.931 658.264 379.912C667.343 380.018 667.343 380.018 674.807 375.438C675.374 374.812 675.941 374.187 676.525 373.543C678.516 371.688 679.614 371.396 682.307 371.25Z" fill="#010102"/>
<path d="M657.37 502.188C661.465 504.827 664.548 508.371 666.182 513C666.869 518.949 665.464 523.13 662.182 528C657.828 532.142 654.293 533.392 648.241 533.27C644.676 532.803 642.812 531.391 640.182 529C636.817 524.37 635.517 519.811 635.792 514.106C636.73 509.049 640.415 505.281 644.182 502C648.887 500.432 652.709 500.451 657.37 502.188Z" fill="#F9FAFA"/>
<path d="M1069.18 501C1074.53 502.954 1077.64 505.912 1080.18 511C1080.71 517.219 1080.91 522.733 1077.18 528C1072.82 532.031 1069.32 533.439 1063.31 533.34C1059.45 532.723 1056.85 530.784 1054.18 528C1051.1 522.835 1050.25 517.89 1051.18 512C1052.57 508.016 1054.77 505.365 1057.93 502.562C1061.93 500.639 1064.83 500.286 1069.18 501Z" fill="#F9FAFA"/>
<path d="M1367.18 595C1367.51 596.32 1367.84 597.64 1368.18 599C1375.77 599.99 1383.36 600.98 1391.18 602C1391.18 602.33 1391.18 602.66 1391.18 603C1383.26 603 1375.34 603 1367.18 603C1367.18 608.61 1367.18 614.22 1367.18 620C1366.85 620 1366.52 620 1366.18 620C1366.18 614.06 1366.18 608.12 1366.18 602C1360.9 602 1355.62 602 1350.18 602C1350.18 606.62 1350.18 611.24 1350.18 616C1349.85 616 1349.52 616 1349.18 616C1349.18 611.38 1349.18 606.76 1349.18 602C1336.34 601.906 1323.5 601.836 1310.65 601.793C1304.69 601.772 1298.72 601.744 1292.75 601.698C1258.16 601.438 1225.11 602.737 1191.18 610C1189.52 610.336 1187.85 610.671 1186.18 611C1186.18 610.34 1186.18 609.68 1186.18 609C1196.1 605.44 1205.77 602.791 1216.18 601C1217.04 600.847 1217.89 600.693 1218.78 600.536C1242.18 596.454 1265.96 596.677 1289.64 596.739C1293.98 596.751 1298.32 596.744 1302.66 596.732C1324.25 596.684 1345.66 597.318 1367.18 599C1367.18 597.68 1367.18 596.36 1367.18 595Z" fill="#43474A"/>
<path d="M315.182 590C315.512 590 315.842 590 316.182 590C316.182 592.64 316.182 595.28 316.182 598C316.842 597.67 317.502 597.34 318.182 597C320.643 596.897 323.077 596.853 325.539 596.855C326.299 596.851 327.059 596.848 327.842 596.845C330.373 596.835 332.904 596.833 335.436 596.832C337.211 596.829 338.987 596.825 340.763 596.822C344.506 596.816 348.25 596.814 351.993 596.815C355.786 596.815 359.579 596.808 363.371 596.794C399.519 596.665 435.689 596.897 470.182 609C470.182 609.66 470.182 610.32 470.182 611C468.979 610.758 467.776 610.515 466.537 610.266C456.099 608.2 445.643 606.383 435.119 604.812C434.015 604.646 432.911 604.479 431.774 604.308C430.164 604.072 430.164 604.072 428.521 603.832C427.587 603.695 426.652 603.558 425.689 603.417C416.787 602.358 407.959 601.853 398.997 601.886C397.952 601.886 396.906 601.886 395.829 601.886C392.421 601.887 389.012 601.894 385.604 601.902C383.222 601.904 380.84 601.906 378.458 601.907C372.224 601.91 365.99 601.92 359.757 601.931C353.381 601.942 347.006 601.946 340.631 601.951C328.148 601.962 315.665 601.979 303.182 602C303.182 607.94 303.182 613.88 303.182 620C302.852 620 302.522 620 302.182 620C302.182 614.06 302.182 608.12 302.182 602C298.345 602.248 298.345 602.248 294.432 602.5C284.346 603.103 274.282 603.095 264.182 603C264.182 602.67 264.182 602.34 264.182 602C268.66 601.492 273.139 600.995 277.619 600.5C278.879 600.357 280.139 600.214 281.438 600.066C288.064 599.34 294.515 598.826 301.182 599C301.182 597.35 301.182 595.7 301.182 594C301.677 595.98 301.677 595.98 302.182 598C306.472 598 310.762 598 315.182 598C315.182 595.36 315.182 592.72 315.182 590Z" fill="#4D4D4F"/>
<path d="M1624.18 587C1626.49 587 1628.8 587 1631.18 587C1631.18 587.66 1631.18 588.32 1631.18 589C1632.83 589.66 1634.48 590.32 1636.18 591C1636.18 591.66 1636.18 592.32 1636.18 593C1636.76 593.24 1637.34 593.48 1637.94 593.727C1640.63 595.255 1642.08 596.954 1643.99 599.375C1644.62 600.146 1645.24 600.917 1645.89 601.711C1647.18 604 1647.18 604 1647.01 606.227C1646.18 608 1646.18 608 1644.18 609C1641.97 609.071 1639.76 609.084 1637.56 609.062C1636.37 609.053 1635.18 609.044 1633.95 609.035C1633.04 609.024 1632.12 609.012 1631.18 609C1631.23 610.589 1631.23 610.589 1631.29 612.211C1631.31 613.599 1631.34 614.987 1631.37 616.375C1631.39 617.074 1631.42 617.772 1631.44 618.492C1631.47 620.523 1631.47 620.523 1631.18 624C1628.18 626 1628.18 626 1624.24 626.688C1621.64 627.267 1620.5 627.62 1618.77 629.684C1617.53 631.823 1617.53 631.823 1616.18 635C1614.53 635 1612.88 635 1611.18 635C1611 631.801 1611.15 629.05 1612.18 626C1615.63 622.608 1619.27 620 1624.18 620C1624.18 615.05 1624.18 610.1 1624.18 605C1627.33 603.95 1629.57 603.899 1632.87 603.938C1633.86 603.947 1634.86 603.956 1635.88 603.965C1637.02 603.982 1637.02 603.982 1638.18 604C1637.08 602.705 1635.98 601.414 1634.87 600.125C1634.25 599.406 1633.64 598.686 1633.01 597.945C1631.14 595.808 1631.14 595.808 1628.18 594C1628.18 593.34 1628.18 592.68 1628.18 592C1627.19 591.67 1626.2 591.34 1625.18 591C1624.49 588.938 1624.49 588.938 1624.18 587Z" fill="#010102"/>
<path d="M1439.24 545.938C1440.7 545.968 1440.7 545.968 1442.18 546C1442.68 547.98 1442.68 547.98 1443.18 550C1442.53 550.291 1441.87 550.583 1441.2 550.883C1434.95 553.688 1428.81 556.652 1422.71 559.766C1420.18 561 1420.18 561 1417.18 562C1417.18 562.66 1417.18 563.32 1417.18 564C1418.5 564.33 1419.82 564.66 1421.18 565C1420.51 574.086 1417.92 582.595 1411.18 589C1408.37 589.875 1408.37 589.875 1406.18 590C1406.18 584.611 1408.24 581.416 1411.18 577C1411.84 574.954 1411.84 574.954 1412.31 572.812C1412.74 570.925 1412.74 570.925 1413.18 569C1412.07 569.021 1410.95 569.041 1409.81 569.062C1406.18 569 1406.18 569 1404.18 568C1404.55 565.315 1405 564.176 1406.97 562.254C1409.36 560.479 1411.75 558.718 1414.18 557C1415.13 556.314 1415.13 556.314 1416.1 555.613C1421.21 552.158 1426.74 550.113 1432.52 548.016C1437.89 545.965 1437.89 545.965 1439.24 545.938Z" fill="#010102"/>
<path d="M586.182 235C590.806 236.583 594.513 239.048 598.494 241.812C599.189 242.293 599.884 242.774 600.6 243.269C611.313 250.787 621.38 259.172 631.018 268.02C633.082 269.908 635.185 271.739 637.307 273.562C643.442 278.92 649.043 284.709 654.346 290.887C656.352 293.196 658.422 295.437 660.494 297.688C688.182 328.394 688.182 328.394 688.182 338C687.522 338 686.862 338 686.182 338C684.82 336.218 683.545 334.369 682.307 332.5C673.808 319.919 664.616 308.011 654.589 296.613C653.089 294.893 651.616 293.152 650.143 291.41C639.583 279.091 626.876 268.048 614.182 258C612.912 256.964 611.644 255.926 610.377 254.887C603.126 248.941 595.823 243.132 588.244 237.609C587.564 237.078 586.883 236.547 586.182 236C586.182 235.67 586.182 235.34 586.182 235Z" fill="#3F4347"/>
<path d="M1001.18 157C1003.43 161.499 1003.68 165.151 1003.87 170.062C1003.91 171.01 1003.95 171.958 1003.99 172.934C1005.54 221.886 999.941 272.215 985.182 319C984.852 319 984.522 319 984.182 319C984.89 311.707 986.484 304.621 988.02 297.468C991.454 281.393 994.172 265.321 996.182 249C996.321 247.912 996.459 246.824 996.603 245.704C999.27 224.534 1000.26 203.303 1001.18 182C1000.52 181.67 999.862 181.34 999.182 181C999.842 181 1000.5 181 1001.18 181C1001.18 173.08 1001.18 165.16 1001.18 157Z" fill="#3C4044"/>
<path d="M1090.18 254C1091.17 254.495 1091.17 254.495 1092.18 255C1091.41 255.594 1090.63 256.189 1089.83 256.801C1086.27 259.527 1082.73 262.263 1079.18 265C1078.28 265.697 1078.28 265.697 1077.35 266.408C1070.48 271.709 1063.79 277.091 1057.39 282.969C1055.43 284.768 1053.45 286.516 1051.43 288.25C1039.1 298.957 1039.1 298.957 1027.99 310.887C1026.12 313.076 1024.14 315.142 1022.14 317.219C1014.56 325.167 1008.19 333.869 1001.79 342.776C999.5 345.943 997.159 349.069 994.807 352.188C993.743 353.601 993.743 353.601 992.658 355.043C992.171 355.689 991.684 356.335 991.182 357C990.522 356.67 989.862 356.34 989.182 356C999.031 340.019 1010.12 325.377 1022.84 311.559C1024.85 309.362 1026.81 307.135 1028.74 304.875C1034.43 298.353 1040.6 292.359 1047.17 286.734C1049.27 284.922 1051.32 283.056 1053.37 281.188C1064.83 271.027 1077.5 262.536 1090.18 254Z" fill="#3E4346"/>
<path d="M688.182 174C689.172 174.33 690.162 174.66 691.182 175C690.913 177.5 690.642 180 690.369 182.5C690.286 183.276 690.203 184.051 690.117 184.85C689.629 189.309 689.088 193.75 688.421 198.186C686.083 214.143 685.75 229.884 685.859 245.99C685.873 248.668 685.867 251.346 685.862 254.024C685.842 268.754 686.298 283.3 687.755 297.961C688.206 302.662 688.257 307.279 688.182 312C685.989 308.711 685.769 307.084 685.365 303.215C685.179 301.456 685.179 301.456 684.988 299.662C684.867 298.433 684.745 297.204 684.619 295.938C684.494 294.766 684.368 293.595 684.238 292.389C682.629 276.813 681.948 261.218 681.932 245.562C681.93 244.392 681.93 244.392 681.928 243.198C681.932 231.167 682.46 219.235 683.494 207.25C683.553 206.549 683.612 205.849 683.673 205.127C684.578 194.629 686.22 184.346 688.182 174Z" fill="#3E4346"/>
<path d="M1274.18 596.999C1272.86 597.659 1271.54 598.319 1270.18 598.999C1294.44 599.494 1294.44 599.494 1319.18 599.999C1319.18 600.329 1319.18 600.659 1319.18 600.999C1318.34 601.003 1317.5 601.007 1316.64 601.01C1308.56 601.049 1300.47 601.107 1292.39 601.183C1288.24 601.222 1284.09 601.255 1279.94 601.27C1249.89 601.393 1220.63 603.695 1191.18 609.999C1189.52 610.335 1187.85 610.67 1186.18 610.999C1186.18 610.339 1186.18 609.679 1186.18 608.999C1196.1 605.44 1205.77 602.791 1216.18 600.999C1217.06 600.839 1217.94 600.678 1218.85 600.513C1226.3 599.196 1233.7 598.407 1241.24 597.874C1242.41 597.789 1243.57 597.705 1244.77 597.617C1254.59 596.947 1264.35 596.784 1274.18 596.999Z" fill="#3A3F42"/>
<path d="M889.182 166C892.237 167.382 894.511 169.005 896.994 171.25C899.538 173.535 902.103 175.766 904.744 177.938C908.644 181.294 911.921 185.028 915.182 189C915.584 189.49 915.986 189.98 916.401 190.485C945.444 226.08 963.383 269.548 962.182 316C961.522 316 960.862 316 960.182 316C960.147 315.303 960.113 314.605 960.077 313.886C958.991 293.291 956.491 273.402 949.182 254C948.776 252.811 948.37 251.623 947.951 250.398C937.257 219.59 917.303 193.581 894.182 171C893.201 170.022 892.222 169.043 891.244 168.062C890.564 167.382 889.883 166.701 889.182 166Z" fill="#373B3F"/>
<path d="M382.182 597C411.908 596.316 442.022 599.119 470.182 609C470.182 609.66 470.182 610.32 470.182 611C468.979 610.757 467.776 610.515 466.537 610.265C456.099 608.2 445.643 606.382 435.119 604.812C434.015 604.646 432.911 604.479 431.774 604.307C430.701 604.15 429.627 603.993 428.521 603.832C427.587 603.695 426.652 603.558 425.689 603.417C416.198 602.288 406.751 601.826 397.197 601.683C396.016 601.662 394.834 601.642 393.617 601.62C389.888 601.556 386.16 601.496 382.432 601.437C379.885 601.394 377.338 601.35 374.791 601.306C368.588 601.2 362.385 601.098 356.182 601C356.182 600.67 356.182 600.34 356.182 600C367.072 600 377.962 600 389.182 600C389.182 599.34 389.182 598.68 389.182 598C386.872 598 384.562 598 382.182 598C382.182 597.67 382.182 597.34 382.182 597Z" fill="#3C4044"/>
<path d="M794.183 156C795.173 156.495 795.173 156.495 796.183 157C795.144 157.773 794.105 158.547 793.034 159.344C756.646 186.485 729.166 217.937 713.183 261C711.492 256.91 712.995 254.184 714.62 250.25C722.874 230.387 733.506 212.596 747.183 196C747.828 195.199 748.474 194.399 749.14 193.574C750.433 192.003 751.798 190.491 753.183 189C753.843 189 754.503 189 755.183 189C755.409 188.443 755.636 187.886 755.87 187.312C757.558 184.338 759.649 182.28 762.183 180C762.843 180 763.503 180 764.183 180C764.678 178.515 764.678 178.515 765.183 177C767.187 175.213 769.181 173.567 771.308 171.938C771.922 171.46 772.536 170.983 773.169 170.491C779.935 165.305 787.025 160.621 794.183 156Z" fill="#3D4145"/>
<path d="M684.182 237C684.512 237 684.842 237 685.182 237C685.202 238.147 685.222 239.293 685.242 240.475C685.706 269.453 685.706 269.453 687.78 298.348C688.231 302.916 688.251 307.411 688.182 312C676.531 294.523 683.404 257.049 684.182 237Z" fill="#2C3135"/>
<path d="M1202.18 439C1203.29 442.325 1203.06 444.424 1202.14 447.781C1201.89 448.701 1201.65 449.62 1201.39 450.568C1201.11 451.535 1200.84 452.503 1200.56 453.5C1200.28 454.484 1200.01 455.469 1199.73 456.483C1197.71 463.575 1195.36 470.334 1192.18 477C1191.52 476.67 1190.86 476.34 1190.18 476C1190.73 469.872 1192.67 464.828 1195.06 459.188C1197.84 452.546 1200.24 445.941 1202.18 439Z" fill="#404447"/>
<path d="M668.182 399C672.637 400.98 672.637 400.98 677.182 403C676.192 403.66 675.202 404.32 674.182 405C671.557 404.375 671.557 404.375 669.182 403C668.852 401.68 668.522 400.36 668.182 399Z" fill="#E6A860"/>
</svg>
